<svg width="350" height="120" viewBox="0 0 350 120" fill="none" xmlns="http://www.w3.org/2000/svg">
<path d="M297.773 102.7V85.4766H314.996V102.7H297.773Z" fill="#0C0A09"/>
<path d="M269.918 16H287.142V102.696H269.918V97.3963C264.273 102.197 260.087 104.597 252.406 104.597C242.767 104.597 234.779 101.39 228.442 94.9769C222.106 88.5635 218.938 80.5179 218.938 70.8402C218.938 66.0782 219.782 61.6234 221.472 57.4758C223.162 53.2898 225.466 49.7183 228.385 46.7612C231.342 43.8042 234.894 41.4807 239.042 39.791C243.189 38.0628 247.644 37.1988 252.406 37.1988C258.896 37.1988 264.734 38.9461 269.918 42.4408V16ZM241.404 83.3406C244.706 86.6433 248.854 88.2947 253.846 88.2947C258.839 88.2947 262.967 86.6433 266.231 83.3406C269.534 79.9995 271.186 75.8327 271.186 70.8402C271.186 65.8478 269.534 61.7002 266.231 58.3975C262.967 55.0564 258.839 53.3858 253.846 53.3858C248.854 53.3858 244.706 55.0372 241.404 58.3399C238.139 61.6426 236.507 65.8094 236.507 70.8402C236.507 75.8711 238.139 80.0379 241.404 83.3406Z" fill="#0C0A09"/>
<path d="M195.266 102.697V39.7461H212.49V102.697H195.266Z" fill="#0C0A09"/>
<path d="M167.422 102.696V16H184.646V102.696H167.422Z" fill="#0C0A09"/>
<path d="M126.471 104.476C119.981 104.476 114.105 103.017 108.844 100.098C103.583 97.1797 99.4545 93.1473 96.459 88.0012C93.502 82.8552 92.0234 77.133 92.0234 70.8349C92.0234 64.4599 93.502 58.7185 96.459 53.6109C99.4545 48.4648 103.583 44.4516 108.844 41.5714C114.105 38.6527 119.981 37.1934 126.471 37.1934C132.923 37.1934 138.78 38.6527 144.041 41.5714C149.302 44.4516 153.431 48.4648 156.426 53.6109C159.422 58.7569 160.919 64.4983 160.919 70.8349C160.919 77.133 159.422 82.8552 156.426 88.0012C153.431 93.1473 149.302 97.1797 144.041 100.098C138.78 103.017 132.923 104.476 126.471 104.476ZM114.259 83.4504C117.447 86.6763 121.517 88.2893 126.471 88.2893C131.425 88.2893 135.496 86.6763 138.684 83.4504C141.871 80.1861 143.465 75.9809 143.465 70.8349C143.465 65.6888 141.871 61.5028 138.684 58.2769C135.496 55.0126 131.425 53.3805 126.471 53.3805C121.517 53.3805 117.447 55.0126 114.259 58.2769C111.072 61.5028 109.478 65.6888 109.478 70.8349C109.478 75.9809 111.072 80.1861 114.259 83.4504Z" fill="#0C0A09"/>
<path d="M62.7289 104.476C54.7409 104.476 48.2891 102.403 43.3735 98.255C38.4962 94.069 36.0384 88.5581 36 81.7223H52.7631C52.8015 84.4489 53.7808 86.5419 55.701 88.0012C57.6596 89.4606 60.2326 90.1902 63.4201 90.1902C65.9548 90.1902 68.0862 89.6334 69.8143 88.5197C71.5809 87.406 72.4642 85.8314 72.4642 83.7961C72.4642 82.7592 72.1569 81.8567 71.5425 81.0886C70.9664 80.3205 70.0447 79.6869 68.7774 79.1876C67.5101 78.65 66.262 78.2467 65.0331 77.9779C63.8042 77.6707 62.1912 77.3443 60.1942 76.9986C58.3893 76.6914 56.8723 76.4226 55.6434 76.1922C54.4145 75.9233 52.9168 75.5393 51.1502 75.04C49.422 74.5408 47.9627 74.0032 46.7722 73.4271C45.5817 72.8126 44.3144 72.0062 42.9702 71.0077C41.6645 70.0092 40.6084 68.9147 39.8019 67.7242C39.0339 66.4953 38.381 65.0167 37.8434 63.2886C37.3441 61.5604 37.0945 59.6594 37.0945 57.5856C37.0945 51.5563 39.4563 46.6598 44.18 42.8963C48.9036 39.0943 55.0866 37.1934 62.7289 37.1934C70.4096 37.1934 76.5733 39.1519 81.2202 43.0691C85.867 46.9479 88.2096 52.0747 88.248 58.4497H71.8881C71.8497 55.9535 70.9856 54.0717 69.2959 52.8044C67.6445 51.5371 65.3019 50.9034 62.268 50.9034C59.6182 50.9034 57.5252 51.4603 55.989 52.574C54.4913 53.6877 53.7424 55.1662 53.7424 57.0096C53.7424 57.7008 53.8576 58.3345 54.0881 58.9106C54.3569 59.4482 54.7985 59.9283 55.413 60.3507C56.0658 60.7347 56.6611 61.0804 57.1988 61.3876C57.7748 61.6564 58.6197 61.9444 59.7334 62.2517C60.8855 62.5205 61.8072 62.7317 62.4984 62.8853C63.2281 63.0005 64.3226 63.1926 65.7819 63.4614C71.9649 64.5751 76.4197 65.7272 79.1464 66.9177C86.0206 69.99 89.4577 75.3665 89.4577 83.0472C89.4577 89.5374 87.0191 94.7411 82.1418 98.6582C77.2646 102.537 70.7936 104.476 62.7289 104.476Z" fill="#0C0A09"/>
<path d="M195.266 16V33.1671H212.432V16H195.266Z" fill="#0C0A09"/>
</svg>
