<svg width="350" height="120" viewBox="0 0 350 120" fill="none" xmlns="http://www.w3.org/2000/svg">
<path d="M306.477 105.225V86.7051H324.996V105.225H306.477Z" fill="#0C0A09"/>
<path d="M276.53 12H295.05V105.221H276.53V99.5229C270.459 104.685 265.958 107.266 257.699 107.266C247.334 107.266 238.745 103.817 231.931 96.9214C225.118 90.0252 221.711 81.3741 221.711 70.968C221.711 65.8475 222.619 61.0574 224.436 56.5977C226.253 52.0966 228.731 48.2562 231.869 45.0766C235.049 41.8969 238.869 39.3986 243.329 37.5817C247.789 35.7235 252.579 34.7944 257.699 34.7944C264.678 34.7944 270.955 36.6732 276.53 40.431V12ZM245.868 84.4092C249.42 87.9605 253.879 89.7362 259.248 89.7362C264.616 89.7362 269.055 87.9605 272.565 84.4092C276.117 80.8167 277.892 76.3362 277.892 70.968C277.892 65.5998 276.117 61.14 272.565 57.5887C269.055 53.9961 264.616 52.1998 259.248 52.1998C253.879 52.1998 249.42 53.9755 245.868 57.5268C242.358 61.0781 240.603 65.5585 240.603 70.968C240.603 76.3775 242.358 80.8579 245.868 84.4092Z" fill="#0C0A09"/>
<path d="M196.258 105.223V37.5332H214.778V105.223H196.258Z" fill="#0C0A09"/>
<path d="M166.312 105.221V12H184.833V105.221H166.312Z" fill="#0C0A09"/>
<path d="M122.283 107.136C115.305 107.136 108.987 105.567 103.329 102.429C97.6719 99.2905 93.2327 94.9546 90.0117 89.4212C86.832 83.8878 85.2422 77.735 85.2422 70.9627C85.2422 64.1079 86.832 57.9344 90.0117 52.4423C93.2327 46.9089 97.6719 42.5937 103.329 39.4966C108.987 36.3582 115.305 34.7891 122.283 34.7891C129.221 34.7891 135.518 36.3582 141.176 39.4966C146.833 42.5937 151.272 46.9089 154.493 52.4423C157.714 57.9757 159.325 64.1492 159.325 70.9627C159.325 77.735 157.714 83.8878 154.493 89.4212C151.272 94.9546 146.833 99.2905 141.176 102.429C135.518 105.567 129.221 107.136 122.283 107.136ZM109.152 84.5278C112.579 87.9965 116.956 89.7309 122.283 89.7309C127.61 89.7309 131.988 87.9965 135.415 84.5278C138.843 81.0178 140.556 76.4961 140.556 70.9627C140.556 65.4293 138.843 60.9282 135.415 57.4595C131.988 53.9495 127.61 52.1945 122.283 52.1945C116.956 52.1945 112.579 53.9495 109.152 57.4595C105.724 60.9282 104.011 65.4293 104.011 70.9627C104.011 76.4961 105.724 81.0178 109.152 84.5278Z" fill="#0C0A09"/>
<path d="M53.7411 107.136C45.1518 107.136 38.2143 104.906 32.9286 100.447C27.6842 95.9457 25.0413 90.0199 25 82.6696H43.0251C43.0664 85.6015 44.1194 87.852 46.1842 89.4212C48.2902 90.9904 51.0569 91.775 54.4844 91.775C57.2098 91.775 59.5017 91.1762 61.3599 89.9787C63.2595 88.7811 64.2093 87.0881 64.2093 84.8995C64.2093 83.7845 63.8789 82.8141 63.2182 81.9882C62.5988 81.1624 61.6077 80.481 60.245 79.9442C58.8823 79.3661 57.5402 78.9325 56.2188 78.6434C54.8973 78.3131 53.1629 77.9621 51.0156 77.5904C49.0748 77.2601 47.4436 76.971 46.1222 76.7232C44.8008 76.4342 43.1903 76.0212 41.2907 75.4844C39.4325 74.9476 37.8633 74.3695 36.5831 73.7501C35.303 73.0894 33.9403 72.2222 32.495 71.1485C31.091 70.0749 29.9554 68.898 29.0882 67.6179C28.2623 66.2965 27.5603 64.7067 26.9821 62.8484C26.4453 60.9902 26.1769 58.9461 26.1769 56.7162C26.1769 50.2331 28.7165 44.9681 33.7958 40.9212C38.875 36.8331 45.5234 34.7891 53.7411 34.7891C62 34.7891 68.6278 36.8951 73.6244 41.1071C78.6211 45.2778 81.1401 50.7905 81.1814 57.6454H63.5898C63.5485 54.9612 62.6194 52.9378 60.8025 51.5751C59.0268 50.2124 56.5078 49.5311 53.2455 49.5311C50.3962 49.5311 48.1456 50.1298 46.4939 51.3274C44.8834 52.5249 44.0781 54.1147 44.0781 56.0968C44.0781 56.8401 44.202 57.5215 44.4498 58.1409C44.7388 58.719 45.2137 59.2352 45.8744 59.6894C46.5765 60.1024 47.2165 60.474 47.7946 60.8044C48.4141 61.0934 49.3225 61.4031 50.5201 61.7335C51.7589 62.0225 52.75 62.2497 53.4933 62.4148C54.2779 62.5387 55.4548 62.7452 57.024 63.0342C63.6724 64.2318 68.4626 65.4706 71.3945 66.7507C78.7863 70.0542 82.4821 75.8354 82.4821 84.0942C82.4821 91.073 79.8599 96.6683 74.6155 100.88C69.3711 105.051 62.4129 107.136 53.7411 107.136Z" fill="#0C0A09"/>
<path d="M196.258 12V30.4593H214.717V12H196.258Z" fill="#0C0A09"/>
</svg>
