<svg width="641" height="121" viewBox="0 0 641 121" fill="none" xmlns="http://www.w3.org/2000/svg">
<path d="M341 14V107.5" stroke="#A8A29E"/>
<path d="M406.906 97H389.426V89.1875H406.32C412.342 89.1875 417.323 88.0319 421.262 85.7207C425.233 83.4095 428.195 80.1055 430.148 75.8086C432.102 71.5117 433.078 66.401 433.078 60.4766C433.078 54.6172 432.118 49.5716 430.197 45.3398C428.277 41.0755 425.396 37.804 421.555 35.5254C417.746 33.2142 412.993 32.0586 407.297 32.0586H389.035V24.2461H407.883C414.947 24.2461 420.985 25.6947 425.998 28.5918C431.044 31.4889 434.901 35.6556 437.57 41.0918C440.24 46.4954 441.574 52.957 441.574 60.4766C441.574 68.0612 440.223 74.5879 437.521 80.0566C434.82 85.4928 430.881 89.6758 425.705 92.6055C420.562 95.5352 414.296 97 406.906 97ZM393.234 24.2461V97H384.445V24.2461H393.234ZM479.979 97.9766C473.794 97.9766 468.276 96.4629 463.426 93.4355C458.576 90.4082 454.751 86.1113 451.951 80.5449C449.184 74.946 447.801 68.3216 447.801 60.6719C447.801 52.9896 449.184 46.349 451.951 40.75C454.751 35.151 458.576 30.8379 463.426 27.8105C468.276 24.7832 473.794 23.2695 479.979 23.2695C486.196 23.2695 491.714 24.7832 496.531 27.8105C501.349 30.8379 505.141 35.151 507.908 40.75C510.675 46.349 512.059 52.9896 512.059 60.6719C512.059 68.3216 510.675 74.946 507.908 80.5449C505.141 86.1113 501.349 90.4082 496.531 93.4355C491.714 96.4629 486.196 97.9766 479.979 97.9766ZM479.979 89.7734C484.373 89.7734 488.344 88.6667 491.893 86.4531C495.473 84.207 498.305 80.9193 500.389 76.5898C502.505 72.2604 503.562 66.9544 503.562 60.6719C503.562 54.3568 502.505 49.0345 500.389 44.7051C498.305 40.3431 495.473 37.0553 491.893 34.8418C488.344 32.5957 484.373 31.4727 479.979 31.4727C475.584 31.4727 471.596 32.5957 468.016 34.8418C464.435 37.0553 461.587 40.3431 459.471 44.7051C457.355 49.0345 456.297 54.3568 456.297 60.6719C456.297 66.9544 457.355 72.2604 459.471 76.5898C461.587 80.9193 464.435 84.207 468.016 86.4531C471.596 88.6667 475.584 89.7734 479.979 89.7734ZM550.414 97.9766C544.229 97.9766 538.712 96.4629 533.861 93.4355C529.011 90.4082 525.202 86.1113 522.436 80.5449C519.669 74.946 518.285 68.3216 518.285 60.6719C518.285 52.9896 519.669 46.349 522.436 40.75C525.202 35.151 529.011 30.8379 533.861 27.8105C538.712 24.7832 544.229 23.2695 550.414 23.2695C554.06 23.2695 557.494 23.8066 560.717 24.8809C563.972 25.9551 566.902 27.5176 569.506 29.5684C572.11 31.5866 574.275 34.0768 576 37.0391C577.758 39.9688 578.962 43.2891 579.613 47H570.824C570.303 44.4609 569.392 42.2311 568.09 40.3105C566.82 38.39 565.258 36.7786 563.402 35.4766C561.579 34.1419 559.561 33.1491 557.348 32.498C555.134 31.8145 552.823 31.4727 550.414 31.4727C546.02 31.4727 542.032 32.5957 538.451 34.8418C534.87 37.0553 532.022 40.3431 529.906 44.7051C527.823 49.0345 526.781 54.3568 526.781 60.6719C526.781 66.9544 527.823 72.2604 529.906 76.5898C532.022 80.9193 534.87 84.207 538.451 86.4531C542.032 88.6667 546.02 89.7734 550.414 89.7734C552.823 89.7734 555.134 89.4479 557.348 88.7969C559.561 88.1133 561.579 87.1204 563.402 85.8184C565.258 84.4837 566.82 82.8561 568.09 80.9355C569.392 79.015 570.303 76.7852 570.824 74.2461H579.613C578.962 77.9896 577.758 81.3262 576 84.2559C574.275 87.1855 572.11 89.6758 569.506 91.7266C566.902 93.7448 563.972 95.291 560.717 96.3652C557.494 97.4395 554.06 97.9766 550.414 97.9766ZM611.23 98.2695C606.022 98.2695 601.514 97.4395 597.705 95.7793C593.896 94.0866 590.902 91.7428 588.721 88.748C586.572 85.7207 585.352 82.2214 585.059 78.25H594.141C594.401 80.9844 595.329 83.2467 596.924 85.0371C598.551 86.8275 600.618 88.1621 603.125 89.041C605.632 89.9199 608.333 90.3594 611.23 90.3594C614.583 90.3594 617.594 89.806 620.264 88.6992C622.965 87.5924 625.098 86.0462 626.66 84.0605C628.223 82.0749 629.004 79.7474 629.004 77.0781C629.004 74.6693 628.32 72.7161 626.953 71.2188C625.586 69.7214 623.796 68.5007 621.582 67.5566C619.401 66.6126 617.025 65.7826 614.453 65.0664L605.566 62.5273C599.87 60.8997 595.361 58.5723 592.041 55.5449C588.753 52.485 587.109 48.4974 587.109 43.582C587.109 39.513 588.2 35.9648 590.381 32.9375C592.594 29.8776 595.573 27.5013 599.316 25.8086C603.092 24.1159 607.292 23.2695 611.914 23.2695C616.602 23.2695 620.768 24.1159 624.414 25.8086C628.06 27.4688 630.957 29.7474 633.105 32.6445C635.254 35.5091 636.393 38.7643 636.523 42.4102H627.93C627.507 38.8294 625.781 36.0462 622.754 34.0605C619.759 32.0749 616.048 31.082 611.621 31.082C608.431 31.082 605.632 31.6029 603.223 32.6445C600.814 33.6862 598.942 35.1185 597.607 36.9414C596.273 38.7643 595.605 40.8477 595.605 43.1914C595.605 45.763 596.403 47.8464 597.998 49.4414C599.593 51.0039 601.481 52.2246 603.662 53.1035C605.876 53.9824 607.878 54.6823 609.668 55.2031L616.992 57.2539C618.88 57.7747 620.98 58.4746 623.291 59.3535C625.635 60.2324 627.881 61.4206 630.029 62.918C632.21 64.4154 634.001 66.3359 635.4 68.6797C636.8 70.9909 637.5 73.8555 637.5 77.2734C637.5 81.1797 636.475 84.7279 634.424 87.918C632.373 91.0755 629.395 93.5983 625.488 95.4863C621.582 97.3418 616.829 98.2695 611.23 98.2695Z" fill="#44403C"/>
<path d="M283.648 105.943V87.2812H302.31V105.943H283.648Z" fill="#0C0A09"/>
<path d="M253.459 12H272.122V105.939H253.459V100.197C247.342 105.398 242.806 107.999 234.484 107.999C224.039 107.999 215.384 104.525 208.518 97.5754C201.652 90.6262 198.219 81.9084 198.219 71.4222C198.219 66.2622 199.134 61.4352 200.965 56.9411C202.796 52.4054 205.293 48.5355 208.455 45.3313C211.659 42.1272 215.509 39.6097 220.003 37.7787C224.497 35.9062 229.324 34.9699 234.484 34.9699C241.516 34.9699 247.841 36.8633 253.459 40.65V12ZM222.562 84.9669C226.141 88.5456 230.635 90.3349 236.044 90.3349C241.454 90.3349 245.927 88.5456 249.464 84.9669C253.043 81.3466 254.832 76.8317 254.832 71.4222C254.832 66.0126 253.043 61.5185 249.464 57.9398C245.927 54.3196 241.454 52.5094 236.044 52.5094C230.635 52.5094 226.141 54.2988 222.562 57.8774C219.025 61.456 217.256 65.971 217.256 71.4222C217.256 76.8733 219.025 81.3883 222.562 84.9669Z" fill="#0C0A09"/>
<path d="M172.57 105.941V37.7305H191.233V105.941H172.57Z" fill="#0C0A09"/>
<path d="M142.398 105.939V12H161.061V105.939H142.398Z" fill="#0C0A09"/>
<path d="M98.0292 107.869C90.9968 107.869 84.6301 106.288 78.9293 103.126C73.2284 99.963 68.7551 95.5938 65.5093 90.0177C62.3052 84.4417 60.7031 78.2415 60.7031 71.4171C60.7031 64.5095 62.3052 58.2885 65.5093 52.754C68.7551 47.178 73.2284 42.8295 78.9293 39.7086C84.6301 36.5461 90.9968 34.9648 98.0292 34.9648C105.02 34.9648 111.366 36.5461 117.067 39.7086C122.768 42.8295 127.241 47.178 130.487 52.754C133.732 58.3301 135.355 64.5511 135.355 71.4171C135.355 78.2415 133.732 84.4417 130.487 90.0177C127.241 95.5938 122.768 99.963 117.067 103.126C111.366 106.288 105.02 107.869 98.0292 107.869ZM84.7966 85.0867C88.2504 88.5821 92.6613 90.3298 98.0292 90.3298C103.397 90.3298 107.808 88.5821 111.262 85.0867C114.716 81.5497 116.443 76.9931 116.443 71.4171C116.443 65.8411 114.716 61.3053 111.262 57.8099C107.808 54.2729 103.397 52.5044 98.0292 52.5044C92.6613 52.5044 88.2504 54.2729 84.7966 57.8099C81.3428 61.3053 79.6159 65.8411 79.6159 71.4171C79.6159 76.9931 81.3428 81.5497 84.7966 85.0867Z" fill="#0C0A09"/>
<path d="M28.9621 107.869C20.3067 107.869 13.3159 105.622 7.98953 101.128C2.70479 96.5925 0.0416122 90.6211 0 83.2141H18.1637C18.2053 86.1686 19.2664 88.4365 21.347 90.0177C23.4693 91.599 26.2573 92.3896 29.7111 92.3896C32.4575 92.3896 34.767 91.7863 36.6395 90.5795C38.5537 89.3727 39.5107 87.6666 39.5107 85.4612C39.5107 84.3377 39.1778 83.3598 38.5121 82.5275C37.8879 81.6953 36.8892 81.0087 35.516 80.4677C34.1428 79.8852 32.7904 79.4482 31.4588 79.157C30.1272 78.8241 28.3795 78.4704 26.2157 78.0958C24.2599 77.763 22.6162 77.4717 21.2846 77.222C19.953 76.9307 18.3302 76.5146 16.416 75.9736C14.5434 75.4327 12.9622 74.8501 11.6722 74.2259C10.3822 73.5601 9.00903 72.6863 7.55261 71.6044C6.13779 70.5224 4.99346 69.3365 4.1196 68.0465C3.28736 66.7149 2.57995 65.1129 1.99738 63.2403C1.45643 61.3678 1.18595 59.308 1.18595 57.0609C1.18595 50.5278 3.74509 45.2222 8.86339 41.1442C13.9817 37.0246 20.6812 34.9648 28.9621 34.9648C37.2845 34.9648 43.9632 37.0871 48.9983 41.3315C54.0334 45.5343 56.5717 51.0896 56.6133 57.9972H38.8866C38.8449 55.2924 37.9087 53.2534 36.0777 51.8802C34.2884 50.507 31.7501 49.8204 28.4627 49.8204C25.5915 49.8204 23.3236 50.4238 21.6591 51.6305C20.0363 52.8373 19.2248 54.4393 19.2248 56.4367C19.2248 57.1857 19.3497 57.8723 19.5993 58.4965C19.8906 59.0791 20.3692 59.5992 21.0349 60.057C21.7424 60.4731 22.3873 60.8476 22.9699 61.1805C23.5941 61.4718 24.5096 61.7839 25.7163 62.1168C26.9647 62.4081 27.9634 62.6369 28.7124 62.8034C29.503 62.9282 30.689 63.1363 32.2702 63.4276C38.9698 64.6343 43.7968 65.8827 46.7513 67.1727C54.1998 70.5016 57.9241 76.3273 57.9241 84.6498C57.9241 91.6822 55.2817 97.3207 49.997 101.565C44.7123 105.768 37.7006 107.869 28.9621 107.869Z" fill="#0C0A09"/>
<path d="M172.57 12V30.6014H191.171V12H172.57Z" fill="#0C0A09"/>
</svg>
