<svg width="1041" height="680" viewBox="0 0 1041 680" fill="none" xmlns="http://www.w3.org/2000/svg">
<rect width="1040" height="680" transform="translate(0.794312)" fill="#F5F5F4"/>
<path d="M421.294 46.5573C421.294 44.6243 422.861 43.0573 424.794 43.0573H616.794C618.727 43.0573 620.294 44.6243 620.294 46.5573V167.104C620.294 169.037 618.727 170.604 616.794 170.604H424.794C422.861 170.604 421.294 169.037 421.294 167.104V46.5573Z" fill="#16A34A"/>
<path d="M421.294 46.5573C421.294 44.6243 422.861 43.0573 424.794 43.0573H616.794C618.727 43.0573 620.294 44.6243 620.294 46.5573V167.104C620.294 169.037 618.727 170.604 616.794 170.604H424.794C422.861 170.604 421.294 169.037 421.294 167.104V46.5573Z" stroke="#D6D3D1"/>
<mask id="mask0_9154_12168" style="mask-type:alpha" maskUnits="userSpaceOnUse" x="440" y="66" width="28" height="28">
<rect x="440.794" y="66.5573" width="26.5464" height="26.5464" fill="#D9D9D9"/>
</mask>
<g mask="url(#mask0_9154_12168)">
<path d="M446.325 85.361V77.6182H448.537V85.361H446.325ZM452.961 85.361V77.6182H455.174V85.361H452.961ZM443.006 89.7854V87.5732H465.129V89.7854H443.006ZM459.598 85.361V77.6182H461.81V85.361H459.598ZM443.006 75.406V73.1938L454.067 67.6633L465.129 73.1938V75.406H443.006ZM447.929 73.1938H460.206L454.067 70.1521L447.929 73.1938Z" fill="white"/>
</g>
<path d="M442.073 124.104V112.467H449.289V113.979H443.828V117.524H448.772V119.03H443.828V124.104H442.073ZM451.448 124.104V112.467H455.709C456.535 112.467 457.219 112.604 457.76 112.876C458.302 113.145 458.707 113.511 458.976 113.973C459.245 114.431 459.38 114.948 459.38 115.524C459.38 116.009 459.291 116.418 459.112 116.751C458.934 117.081 458.696 117.346 458.397 117.547C458.101 117.744 457.775 117.888 457.419 117.979V118.092C457.806 118.111 458.183 118.236 458.55 118.467C458.921 118.695 459.228 119.018 459.47 119.439C459.713 119.859 459.834 120.371 459.834 120.973C459.834 121.568 459.694 122.102 459.414 122.575C459.137 123.045 458.709 123.418 458.13 123.695C457.55 123.967 456.809 124.104 455.908 124.104H451.448ZM453.203 122.598H455.737C456.578 122.598 457.181 122.435 457.544 122.109C457.908 121.784 458.09 121.376 458.09 120.888C458.09 120.52 457.997 120.183 457.811 119.876C457.626 119.57 457.361 119.325 457.016 119.143C456.675 118.962 456.27 118.871 455.8 118.871H453.203V122.598ZM453.203 117.501H455.556C455.95 117.501 456.304 117.426 456.618 117.274C456.936 117.123 457.188 116.91 457.374 116.638C457.563 116.361 457.658 116.035 457.658 115.66C457.658 115.179 457.489 114.776 457.152 114.45C456.815 114.124 456.298 113.962 455.601 113.962H453.203V117.501ZM472.024 118.285C472.024 119.528 471.797 120.596 471.343 121.49C470.888 122.38 470.265 123.066 469.473 123.547C468.685 124.024 467.79 124.263 466.786 124.263C465.778 124.263 464.879 124.024 464.087 123.547C463.299 123.066 462.678 122.378 462.223 121.484C461.769 120.59 461.541 119.524 461.541 118.285C461.541 117.043 461.769 115.977 462.223 115.087C462.678 114.193 463.299 113.507 464.087 113.03C464.879 112.549 465.778 112.308 466.786 112.308C467.79 112.308 468.685 112.549 469.473 113.03C470.265 113.507 470.888 114.193 471.343 115.087C471.797 115.977 472.024 117.043 472.024 118.285ZM470.286 118.285C470.286 117.338 470.132 116.541 469.826 115.893C469.523 115.242 469.106 114.749 468.576 114.416C468.049 114.079 467.452 113.91 466.786 113.91C466.115 113.91 465.517 114.079 464.99 114.416C464.464 114.749 464.047 115.242 463.74 115.893C463.437 116.541 463.286 117.338 463.286 118.285C463.286 119.232 463.437 120.032 463.74 120.683C464.047 121.331 464.464 121.823 464.99 122.16C465.517 122.494 466.115 122.66 466.786 122.66C467.452 122.66 468.049 122.494 468.576 122.16C469.106 121.823 469.523 121.331 469.826 120.683C470.132 120.032 470.286 119.232 470.286 118.285ZM442.431 137.285C442.431 135.861 442.618 134.551 442.993 133.354C443.368 132.157 443.916 131.053 444.635 130.041H446.192C445.912 130.416 445.65 130.876 445.408 131.422C445.166 131.967 444.953 132.566 444.772 133.217C444.59 133.865 444.448 134.537 444.345 135.234C444.243 135.928 444.192 136.611 444.192 137.285C444.192 138.187 444.281 139.1 444.459 140.024C444.637 140.948 444.878 141.806 445.181 142.598C445.484 143.39 445.821 144.035 446.192 144.535H444.635C443.916 143.524 443.368 142.42 442.993 141.223C442.618 140.026 442.431 138.713 442.431 137.285ZM448.12 143.104V131.467H452.267C453.173 131.467 453.923 131.632 454.517 131.962C455.112 132.291 455.557 132.742 455.853 133.314C456.148 133.882 456.296 134.522 456.296 135.234C456.296 135.95 456.146 136.594 455.847 137.166C455.551 137.734 455.104 138.185 454.506 138.518C453.911 138.848 453.163 139.013 452.262 139.013H449.409V137.524H452.103C452.675 137.524 453.139 137.426 453.495 137.229C453.851 137.028 454.112 136.755 454.279 136.41C454.445 136.066 454.529 135.674 454.529 135.234C454.529 134.795 454.445 134.405 454.279 134.064C454.112 133.723 453.849 133.456 453.489 133.263C453.133 133.07 452.663 132.973 452.08 132.973H449.875V143.104H448.12ZM460.679 143.297C460.126 143.297 459.626 143.195 459.179 142.99C458.732 142.782 458.378 142.481 458.117 142.087C457.859 141.693 457.73 141.21 457.73 140.638C457.73 140.145 457.825 139.74 458.014 139.422C458.204 139.104 458.46 138.852 458.782 138.666C459.103 138.481 459.463 138.34 459.861 138.246C460.259 138.151 460.664 138.079 461.077 138.03C461.6 137.969 462.024 137.92 462.35 137.882C462.675 137.84 462.912 137.774 463.06 137.683C463.208 137.592 463.282 137.445 463.282 137.24V137.2C463.282 136.704 463.141 136.32 462.861 136.047C462.585 135.774 462.172 135.638 461.622 135.638C461.05 135.638 460.6 135.765 460.27 136.018C459.944 136.268 459.719 136.547 459.594 136.854L457.997 136.49C458.187 135.96 458.463 135.532 458.827 135.206C459.194 134.876 459.617 134.638 460.094 134.49C460.571 134.338 461.073 134.263 461.6 134.263C461.948 134.263 462.318 134.304 462.708 134.388C463.102 134.467 463.469 134.615 463.81 134.831C464.155 135.047 464.437 135.356 464.657 135.757C464.876 136.155 464.986 136.672 464.986 137.308V143.104H463.327V141.91H463.259C463.149 142.13 462.984 142.346 462.764 142.558C462.545 142.77 462.263 142.946 461.918 143.087C461.573 143.227 461.16 143.297 460.679 143.297ZM461.049 141.933C461.518 141.933 461.92 141.84 462.253 141.655C462.59 141.469 462.846 141.227 463.02 140.928C463.198 140.624 463.287 140.301 463.287 139.956V138.831C463.227 138.892 463.109 138.948 462.935 139.001C462.764 139.051 462.569 139.094 462.35 139.132C462.13 139.166 461.916 139.198 461.708 139.229C461.499 139.255 461.325 139.278 461.185 139.297C460.855 139.338 460.554 139.409 460.282 139.507C460.013 139.606 459.797 139.748 459.634 139.933C459.475 140.115 459.395 140.357 459.395 140.66C459.395 141.081 459.55 141.399 459.861 141.615C460.172 141.827 460.568 141.933 461.049 141.933ZM467.249 143.104V134.376H468.891V135.763H468.982C469.141 135.293 469.421 134.924 469.823 134.655C470.228 134.382 470.686 134.246 471.198 134.246C471.304 134.246 471.429 134.249 471.573 134.257C471.72 134.265 471.836 134.274 471.919 134.285V135.91C471.851 135.892 471.73 135.871 471.556 135.848C471.381 135.821 471.207 135.808 471.033 135.808C470.631 135.808 470.273 135.893 469.959 136.064C469.648 136.231 469.402 136.463 469.22 136.763C469.039 137.058 468.948 137.395 468.948 137.774V143.104H467.249ZM477.979 134.376V135.74H473.212V134.376H477.979ZM474.49 132.285H476.189V140.541C476.189 140.871 476.238 141.119 476.337 141.285C476.435 141.448 476.562 141.56 476.718 141.621C476.877 141.678 477.049 141.706 477.235 141.706C477.371 141.706 477.49 141.696 477.593 141.678C477.695 141.659 477.774 141.643 477.831 141.632L478.138 143.035C478.04 143.073 477.899 143.111 477.718 143.149C477.536 143.191 477.309 143.213 477.036 143.217C476.589 143.225 476.172 143.145 475.786 142.979C475.399 142.812 475.087 142.554 474.848 142.206C474.61 141.857 474.49 141.42 474.49 140.893V132.285ZM481.557 137.922V143.104H479.858V134.376H481.489V135.797H481.597C481.798 135.335 482.112 134.963 482.54 134.683C482.972 134.403 483.515 134.263 484.171 134.263C484.765 134.263 485.286 134.388 485.733 134.638C486.18 134.884 486.527 135.251 486.773 135.74C487.019 136.229 487.142 136.833 487.142 137.553V143.104H485.443V137.757C485.443 137.124 485.279 136.63 484.949 136.274C484.62 135.914 484.167 135.734 483.591 135.734C483.197 135.734 482.847 135.82 482.54 135.99C482.237 136.16 481.996 136.41 481.818 136.74C481.644 137.066 481.557 137.46 481.557 137.922ZM493.182 143.28C492.322 143.28 491.582 143.096 490.961 142.729C490.343 142.357 489.866 141.837 489.529 141.166C489.195 140.492 489.029 139.702 489.029 138.797C489.029 137.903 489.195 137.115 489.529 136.433C489.866 135.751 490.336 135.219 490.938 134.837C491.544 134.454 492.252 134.263 493.063 134.263C493.555 134.263 494.032 134.344 494.495 134.507C494.957 134.67 495.371 134.926 495.739 135.274C496.106 135.623 496.396 136.075 496.608 136.632C496.82 137.185 496.926 137.857 496.926 138.649V139.251H489.989V137.979H495.262C495.262 137.532 495.171 137.136 494.989 136.791C494.807 136.443 494.551 136.168 494.222 135.967C493.896 135.767 493.514 135.666 493.074 135.666C492.597 135.666 492.18 135.784 491.824 136.018C491.472 136.249 491.199 136.553 491.006 136.928C490.817 137.299 490.722 137.702 490.722 138.138V139.132C490.722 139.715 490.824 140.212 491.029 140.621C491.237 141.03 491.527 141.342 491.898 141.558C492.269 141.77 492.703 141.876 493.199 141.876C493.521 141.876 493.815 141.831 494.08 141.74C494.345 141.645 494.574 141.505 494.767 141.32C494.961 141.134 495.108 140.905 495.211 140.632L496.818 140.922C496.69 141.395 496.459 141.81 496.125 142.166C495.796 142.518 495.381 142.793 494.881 142.99C494.385 143.183 493.818 143.28 493.182 143.28ZM498.811 143.104V134.376H500.453V135.763H500.544C500.703 135.293 500.984 134.924 501.385 134.655C501.791 134.382 502.249 134.246 502.76 134.246C502.866 134.246 502.991 134.249 503.135 134.257C503.283 134.265 503.398 134.274 503.482 134.285V135.91C503.414 135.892 503.292 135.871 503.118 135.848C502.944 135.821 502.77 135.808 502.595 135.808C502.194 135.808 501.836 135.893 501.522 136.064C501.211 136.231 500.965 136.463 500.783 136.763C500.601 137.058 500.51 137.395 500.51 137.774V143.104H498.811ZM509.323 143.104V131.467H513.584C514.41 131.467 515.094 131.604 515.635 131.876C516.177 132.145 516.582 132.511 516.851 132.973C517.12 133.431 517.255 133.948 517.255 134.524C517.255 135.009 517.166 135.418 516.987 135.751C516.809 136.081 516.571 136.346 516.272 136.547C515.976 136.744 515.65 136.888 515.294 136.979V137.092C515.681 137.111 516.058 137.236 516.425 137.467C516.796 137.695 517.103 138.018 517.345 138.439C517.588 138.859 517.709 139.371 517.709 139.973C517.709 140.568 517.569 141.102 517.289 141.575C517.012 142.045 516.584 142.418 516.005 142.695C515.425 142.967 514.684 143.104 513.783 143.104H509.323ZM511.078 141.598H513.612C514.453 141.598 515.056 141.435 515.419 141.109C515.783 140.784 515.965 140.376 515.965 139.888C515.965 139.52 515.872 139.183 515.686 138.876C515.501 138.57 515.236 138.325 514.891 138.143C514.55 137.962 514.145 137.871 513.675 137.871H511.078V141.598ZM511.078 136.501H513.431C513.825 136.501 514.179 136.426 514.493 136.274C514.811 136.123 515.063 135.91 515.249 135.638C515.438 135.361 515.533 135.035 515.533 134.66C515.533 134.179 515.364 133.776 515.027 133.45C514.69 133.124 514.173 132.962 513.476 132.962H511.078V136.501ZM522.195 143.297C521.642 143.297 521.142 143.195 520.695 142.99C520.248 142.782 519.894 142.481 519.632 142.087C519.375 141.693 519.246 141.21 519.246 140.638C519.246 140.145 519.341 139.74 519.53 139.422C519.72 139.104 519.975 138.852 520.297 138.666C520.619 138.481 520.979 138.34 521.377 138.246C521.774 138.151 522.18 138.079 522.593 138.03C523.115 137.969 523.54 137.92 523.865 137.882C524.191 137.84 524.428 137.774 524.576 137.683C524.723 137.592 524.797 137.445 524.797 137.24V137.2C524.797 136.704 524.657 136.32 524.377 136.047C524.1 135.774 523.687 135.638 523.138 135.638C522.566 135.638 522.115 135.765 521.786 136.018C521.46 136.268 521.235 136.547 521.11 136.854L519.513 136.49C519.702 135.96 519.979 135.532 520.343 135.206C520.71 134.876 521.132 134.638 521.61 134.49C522.087 134.338 522.589 134.263 523.115 134.263C523.464 134.263 523.833 134.304 524.223 134.388C524.617 134.467 524.985 134.615 525.326 134.831C525.67 135.047 525.952 135.356 526.172 135.757C526.392 136.155 526.502 136.672 526.502 137.308V143.104H524.843V141.91H524.774C524.665 142.13 524.5 142.346 524.28 142.558C524.06 142.77 523.778 142.946 523.434 143.087C523.089 143.227 522.676 143.297 522.195 143.297ZM522.564 141.933C523.034 141.933 523.435 141.84 523.769 141.655C524.106 141.469 524.362 141.227 524.536 140.928C524.714 140.624 524.803 140.301 524.803 139.956V138.831C524.742 138.892 524.625 138.948 524.451 139.001C524.28 139.051 524.085 139.094 523.865 139.132C523.646 139.166 523.432 139.198 523.223 139.229C523.015 139.255 522.841 139.278 522.701 139.297C522.371 139.338 522.07 139.409 521.797 139.507C521.528 139.606 521.312 139.748 521.149 139.933C520.99 140.115 520.911 140.357 520.911 140.66C520.911 141.081 521.066 141.399 521.377 141.615C521.687 141.827 522.083 141.933 522.564 141.933ZM530.463 137.922V143.104H528.764V134.376H530.395V135.797H530.503C530.704 135.335 531.018 134.963 531.446 134.683C531.878 134.403 532.422 134.263 533.077 134.263C533.672 134.263 534.193 134.388 534.639 134.638C535.086 134.884 535.433 135.251 535.679 135.74C535.925 136.229 536.049 136.833 536.049 137.553V143.104H534.35V137.757C534.35 137.124 534.185 136.63 533.855 136.274C533.526 135.914 533.073 135.734 532.497 135.734C532.103 135.734 531.753 135.82 531.446 135.99C531.143 136.16 530.903 136.41 530.725 136.74C530.55 137.066 530.463 137.46 530.463 137.922ZM539.889 140.143L539.878 138.07H540.174L543.651 134.376H545.685L541.719 138.581H541.452L539.889 140.143ZM538.327 143.104V131.467H540.026V143.104H538.327ZM543.838 143.104L540.713 138.956L541.884 137.768L545.924 143.104H543.838ZM550.5 138.274C550.5 139.702 550.313 141.015 549.938 142.212C549.563 143.409 549.015 144.513 548.296 145.524H546.739C547.019 145.149 547.281 144.689 547.523 144.143C547.765 143.598 547.978 143.001 548.159 142.354C548.341 141.702 548.483 141.028 548.586 140.331C548.688 139.634 548.739 138.948 548.739 138.274C548.739 137.376 548.65 136.465 548.472 135.541C548.294 134.617 548.053 133.759 547.75 132.967C547.447 132.176 547.11 131.53 546.739 131.03H548.296C549.015 132.041 549.563 133.145 549.938 134.342C550.313 135.539 550.5 136.85 550.5 138.274Z" fill="white"/>
<path d="M520.828 171.104L520.829 251.12" stroke="#78716C" stroke-width="1.5"/>
<path d="M520.828 417.657L520.828 418.407L521.578 418.407L521.578 417.657L520.828 417.657ZM327.658 417.657L327.658 416.907L326.908 416.907L326.908 417.657L327.658 417.657ZM327.658 503.512L331.988 496.012L323.328 496.012L327.658 503.512ZM520.078 359.546L520.078 417.657L521.578 417.657L521.578 359.546L520.078 359.546ZM520.828 416.907L327.658 416.907L327.658 418.407L520.828 418.407L520.828 416.907ZM326.908 417.657L326.908 496.762L328.408 496.762L328.408 417.657L326.908 417.657Z" fill="#78716C"/>
<path d="M520.828 417.657L520.828 418.407L520.078 418.407L520.078 417.657L520.828 417.657ZM711.767 417.657L711.767 416.907L712.517 416.907L712.517 417.657L711.767 417.657ZM711.767 503.512L707.437 496.012L716.097 496.012L711.767 503.512ZM521.578 359.546L521.578 417.657L520.078 417.657L520.078 359.546L521.578 359.546ZM520.828 416.907L711.767 416.907L711.767 418.407L520.828 418.407L520.828 416.907ZM712.517 417.657L712.517 496.762L711.017 496.762L711.017 417.657L712.517 417.657Z" fill="#78716C"/>
<rect x="434.294" y="250.5" width="174" height="108.546" rx="3.5" fill="white"/>
<rect x="434.294" y="250.5" width="174" height="108.546" rx="3.5" stroke="#D6D3D1"/>
<mask id="mask1_9154_12168" style="mask-type:alpha" maskUnits="userSpaceOnUse" x="453" y="274" width="28" height="27">
<rect x="453.794" y="274" width="26.5464" height="26.5464" fill="#D9D9D9"/>
</mask>
<g mask="url(#mask1_9154_12168)">
<path d="M477.023 282.296H474.81V279.531H459.325V295.016H474.81V292.251H477.023V297.228H457.113V277.318H477.023V282.296ZM465.961 292.804V281.743H478.129V292.804H465.961ZM471.492 288.932C471.953 288.932 472.345 288.771 472.667 288.449C472.99 288.126 473.151 287.734 473.151 287.273C473.151 286.812 472.99 286.421 472.667 286.098C472.345 285.775 471.953 285.614 471.492 285.614C471.031 285.614 470.639 285.775 470.317 286.098C469.994 286.421 469.833 286.812 469.833 287.273C469.833 287.734 469.994 288.126 470.317 288.449C470.639 288.771 471.031 288.932 471.492 288.932ZM475.916 290.592V283.955H468.174V290.592H475.916Z" fill="#16A34A"/>
<mask id="path-11-outside-1_9154_12168" maskUnits="userSpaceOnUse" x="452.794" y="287" width="13" height="13" fill="black">
<rect fill="white" x="452.794" y="287" width="13" height="13"/>
<path fill-rule="evenodd" clip-rule="evenodd" d="M459.091 297.594C461.464 297.594 463.388 295.67 463.388 293.297C463.388 290.924 461.464 289 459.091 289C456.718 289 454.794 290.924 454.794 293.297C454.794 295.67 456.718 297.594 459.091 297.594ZM459.806 292.349L459.064 291.156L458.322 292.349L456.957 292.686L457.863 293.76L457.762 295.162L459.064 294.633L460.366 295.162L460.265 293.76L461.17 292.686L459.806 292.349Z"/>
</mask>
<path fill-rule="evenodd" clip-rule="evenodd" d="M459.091 297.594C461.464 297.594 463.388 295.67 463.388 293.297C463.388 290.924 461.464 289 459.091 289C456.718 289 454.794 290.924 454.794 293.297C454.794 295.67 456.718 297.594 459.091 297.594ZM459.806 292.349L459.064 291.156L458.322 292.349L456.957 292.686L457.863 293.76L457.762 295.162L459.064 294.633L460.366 295.162L460.265 293.76L461.17 292.686L459.806 292.349Z" fill="#16A34A"/>
<path d="M459.064 291.156L460.762 290.099L459.064 287.368L457.365 290.099L459.064 291.156ZM459.806 292.349L458.107 293.405L458.537 294.096L459.326 294.291L459.806 292.349ZM458.322 292.349L458.801 294.291L459.591 294.096L460.02 293.405L458.322 292.349ZM456.957 292.686L456.478 290.744L453.355 291.515L455.428 293.975L456.957 292.686ZM457.863 293.76L459.858 293.904L459.917 293.093L459.392 292.471L457.863 293.76ZM457.762 295.162L455.767 295.018L455.536 298.227L458.515 297.015L457.762 295.162ZM459.064 294.633L459.817 292.78L459.064 292.474L458.31 292.78L459.064 294.633ZM460.366 295.162L459.612 297.015L462.592 298.227L462.361 295.018L460.366 295.162ZM460.265 293.76L458.735 292.471L458.211 293.093L458.27 293.904L460.265 293.76ZM461.17 292.686L462.699 293.975L464.773 291.515L461.65 290.744L461.17 292.686ZM461.388 293.297C461.388 294.565 460.36 295.594 459.091 295.594V299.594C462.569 299.594 465.388 296.775 465.388 293.297H461.388ZM459.091 291C460.36 291 461.388 292.028 461.388 293.297H465.388C465.388 289.819 462.569 287 459.091 287V291ZM456.794 293.297C456.794 292.028 457.823 291 459.091 291V287C455.614 287 452.794 289.819 452.794 293.297H456.794ZM459.091 295.594C457.823 295.594 456.794 294.565 456.794 293.297H452.794C452.794 296.775 455.614 299.594 459.091 299.594V295.594ZM457.365 292.212L458.107 293.405L461.504 291.293L460.762 290.099L457.365 292.212ZM460.02 293.405L460.762 292.212L457.365 290.099L456.623 291.293L460.02 293.405ZM457.437 294.628L458.801 294.291L457.842 290.407L456.478 290.744L457.437 294.628ZM459.392 292.471L458.487 291.397L455.428 293.975L456.334 295.049L459.392 292.471ZM459.757 295.306L459.858 293.904L455.868 293.616L455.767 295.018L459.757 295.306ZM458.31 292.78L457.009 293.31L458.515 297.015L459.817 296.486L458.31 292.78ZM461.119 293.31L459.817 292.78L458.31 296.486L459.612 297.015L461.119 293.31ZM458.27 293.904L458.371 295.306L462.361 295.018L462.259 293.616L458.27 293.904ZM459.641 291.397L458.735 292.471L461.794 295.049L462.699 293.975L459.641 291.397ZM459.326 294.291L460.691 294.628L461.65 290.744L460.285 290.407L459.326 294.291Z" fill="white" mask="url(#path-11-outside-1_9154_12168)"/>
</g>
<path d="M455.073 319.91H457.203L460.908 328.955H461.044L464.749 319.91H466.88V331.546H465.209V323.126H465.101L461.669 331.529H460.283L456.851 323.12H456.743V331.546H455.073V319.91ZM471.836 331.74C471.282 331.74 470.782 331.637 470.336 331.433C469.889 331.224 469.534 330.923 469.273 330.529C469.015 330.135 468.887 329.652 468.887 329.08C468.887 328.588 468.981 328.183 469.171 327.865C469.36 327.546 469.616 327.294 469.938 327.109C470.26 326.923 470.62 326.783 471.017 326.688C471.415 326.594 471.82 326.522 472.233 326.473C472.756 326.412 473.18 326.363 473.506 326.325C473.832 326.283 474.068 326.217 474.216 326.126C474.364 326.035 474.438 325.887 474.438 325.683V325.643C474.438 325.147 474.298 324.762 474.017 324.49C473.741 324.217 473.328 324.08 472.779 324.08C472.207 324.08 471.756 324.207 471.426 324.461C471.101 324.711 470.875 324.99 470.75 325.296L469.154 324.933C469.343 324.402 469.62 323.974 469.983 323.649C470.351 323.319 470.773 323.08 471.25 322.933C471.728 322.781 472.229 322.705 472.756 322.705C473.104 322.705 473.474 322.747 473.864 322.83C474.258 322.91 474.625 323.058 474.966 323.274C475.311 323.49 475.593 323.798 475.813 324.2C476.032 324.598 476.142 325.115 476.142 325.751V331.546H474.483V330.353H474.415C474.305 330.573 474.14 330.789 473.921 331.001C473.701 331.213 473.419 331.389 473.074 331.529C472.729 331.669 472.317 331.74 471.836 331.74ZM472.205 330.376C472.675 330.376 473.076 330.283 473.409 330.098C473.746 329.912 474.002 329.669 474.176 329.37C474.354 329.067 474.443 328.743 474.443 328.399V327.274C474.383 327.334 474.265 327.391 474.091 327.444C473.921 327.493 473.726 327.537 473.506 327.575C473.286 327.609 473.072 327.641 472.864 327.671C472.656 327.698 472.481 327.721 472.341 327.74C472.012 327.781 471.711 327.851 471.438 327.95C471.169 328.048 470.953 328.19 470.79 328.376C470.631 328.558 470.551 328.8 470.551 329.103C470.551 329.524 470.707 329.842 471.017 330.058C471.328 330.27 471.724 330.376 472.205 330.376ZM484.945 324.95L483.405 325.223C483.341 325.026 483.238 324.838 483.098 324.66C482.962 324.482 482.776 324.336 482.541 324.223C482.307 324.109 482.013 324.052 481.661 324.052C481.18 324.052 480.778 324.16 480.456 324.376C480.134 324.588 479.973 324.863 479.973 325.2C479.973 325.491 480.081 325.726 480.297 325.904C480.513 326.082 480.862 326.228 481.343 326.342L482.729 326.66C483.532 326.846 484.13 327.132 484.524 327.518C484.918 327.904 485.115 328.406 485.115 329.024C485.115 329.546 484.964 330.012 484.661 330.421C484.362 330.827 483.943 331.145 483.405 331.376C482.871 331.607 482.252 331.723 481.547 331.723C480.57 331.723 479.773 331.514 479.155 331.098C478.538 330.677 478.159 330.08 478.019 329.308L479.661 329.058C479.763 329.486 479.973 329.81 480.291 330.029C480.61 330.245 481.024 330.353 481.536 330.353C482.093 330.353 482.538 330.238 482.871 330.007C483.204 329.772 483.371 329.486 483.371 329.149C483.371 328.876 483.269 328.647 483.064 328.461C482.863 328.276 482.555 328.135 482.138 328.041L480.661 327.717C479.846 327.531 479.244 327.236 478.854 326.83C478.468 326.425 478.274 325.912 478.274 325.291C478.274 324.776 478.418 324.325 478.706 323.938C478.994 323.552 479.392 323.251 479.899 323.035C480.407 322.815 480.988 322.705 481.644 322.705C482.587 322.705 483.329 322.91 483.871 323.319C484.413 323.724 484.771 324.268 484.945 324.95ZM491.057 322.819V324.183H486.29V322.819H491.057ZM487.568 320.728H489.267V328.984C489.267 329.313 489.317 329.562 489.415 329.728C489.514 329.891 489.64 330.003 489.796 330.063C489.955 330.12 490.127 330.149 490.313 330.149C490.449 330.149 490.568 330.139 490.671 330.12C490.773 330.101 490.853 330.086 490.909 330.075L491.216 331.478C491.118 331.516 490.978 331.554 490.796 331.592C490.614 331.634 490.387 331.656 490.114 331.66C489.667 331.668 489.25 331.588 488.864 331.421C488.478 331.255 488.165 330.997 487.926 330.649C487.688 330.3 487.568 329.863 487.568 329.336V320.728ZM496.604 331.723C495.744 331.723 495.004 331.539 494.382 331.171C493.765 330.8 493.288 330.279 492.951 329.609C492.617 328.935 492.451 328.145 492.451 327.24C492.451 326.346 492.617 325.558 492.951 324.876C493.288 324.194 493.757 323.662 494.36 323.279C494.966 322.897 495.674 322.705 496.485 322.705C496.977 322.705 497.454 322.787 497.916 322.95C498.379 323.113 498.793 323.368 499.161 323.717C499.528 324.065 499.818 324.518 500.03 325.075C500.242 325.628 500.348 326.3 500.348 327.092V327.694H493.411V326.421H498.684C498.684 325.974 498.593 325.579 498.411 325.234C498.229 324.885 497.973 324.611 497.644 324.41C497.318 324.209 496.935 324.109 496.496 324.109C496.019 324.109 495.602 324.226 495.246 324.461C494.894 324.692 494.621 324.995 494.428 325.37C494.238 325.741 494.144 326.145 494.144 326.58V327.575C494.144 328.158 494.246 328.654 494.451 329.063C494.659 329.473 494.949 329.785 495.32 330.001C495.691 330.213 496.125 330.319 496.621 330.319C496.943 330.319 497.237 330.274 497.502 330.183C497.767 330.088 497.996 329.948 498.189 329.762C498.382 329.577 498.53 329.348 498.632 329.075L500.24 329.365C500.112 329.838 499.88 330.253 499.547 330.609C499.218 330.961 498.803 331.236 498.303 331.433C497.807 331.626 497.24 331.723 496.604 331.723ZM502.233 331.546V322.819H503.875V324.205H503.966C504.125 323.736 504.406 323.366 504.807 323.098C505.212 322.825 505.671 322.688 506.182 322.688C506.288 322.688 506.413 322.692 506.557 322.7C506.705 322.707 506.82 322.717 506.904 322.728V324.353C506.836 324.334 506.714 324.313 506.54 324.291C506.366 324.264 506.192 324.251 506.017 324.251C505.616 324.251 505.258 324.336 504.943 324.507C504.633 324.673 504.387 324.906 504.205 325.205C504.023 325.501 503.932 325.838 503.932 326.217V331.546H502.233ZM513.728 331.546H511.864L516.051 319.91H518.08L522.267 331.546H520.404L517.114 322.024H517.023L513.728 331.546ZM514.04 326.99H520.086V328.467H514.04V326.99ZM527.347 331.723C526.502 331.723 525.775 331.531 525.165 331.149C524.559 330.762 524.093 330.23 523.767 329.552C523.442 328.874 523.279 328.098 523.279 327.223C523.279 326.336 523.445 325.554 523.779 324.876C524.112 324.194 524.582 323.662 525.188 323.279C525.794 322.897 526.508 322.705 527.33 322.705C527.993 322.705 528.584 322.829 529.103 323.075C529.621 323.317 530.04 323.658 530.358 324.098C530.68 324.537 530.871 325.05 530.932 325.637H529.279C529.188 325.228 528.979 324.876 528.654 324.58C528.332 324.285 527.9 324.137 527.358 324.137C526.885 324.137 526.47 324.262 526.114 324.512C525.762 324.759 525.487 325.111 525.29 325.569C525.093 326.024 524.995 326.562 524.995 327.183C524.995 327.819 525.091 328.368 525.284 328.83C525.478 329.293 525.75 329.651 526.103 329.904C526.459 330.158 526.877 330.285 527.358 330.285C527.68 330.285 527.972 330.226 528.233 330.109C528.498 329.988 528.72 329.815 528.898 329.592C529.08 329.368 529.207 329.099 529.279 328.785H530.932C530.871 329.349 530.688 329.853 530.381 330.296C530.074 330.74 529.663 331.088 529.148 331.342C528.637 331.596 528.036 331.723 527.347 331.723ZM536.425 331.723C535.58 331.723 534.853 331.531 534.243 331.149C533.637 330.762 533.171 330.23 532.845 329.552C532.52 328.874 532.357 328.098 532.357 327.223C532.357 326.336 532.523 325.554 532.857 324.876C533.19 324.194 533.66 323.662 534.266 323.279C534.872 322.897 535.586 322.705 536.408 322.705C537.071 322.705 537.662 322.829 538.181 323.075C538.7 323.317 539.118 323.658 539.436 324.098C539.758 324.537 539.95 325.05 540.01 325.637H538.357C538.266 325.228 538.058 324.876 537.732 324.58C537.41 324.285 536.978 324.137 536.436 324.137C535.963 324.137 535.548 324.262 535.192 324.512C534.84 324.759 534.565 325.111 534.368 325.569C534.171 326.024 534.073 326.562 534.073 327.183C534.073 327.819 534.169 328.368 534.362 328.83C534.556 329.293 534.828 329.651 535.181 329.904C535.537 330.158 535.955 330.285 536.436 330.285C536.758 330.285 537.05 330.226 537.311 330.109C537.577 329.988 537.798 329.815 537.976 329.592C538.158 329.368 538.285 329.099 538.357 328.785H540.01C539.95 329.349 539.766 329.853 539.459 330.296C539.152 330.74 538.741 331.088 538.226 331.342C537.715 331.596 537.114 331.723 536.425 331.723ZM545.503 331.723C544.685 331.723 543.971 331.535 543.361 331.16C542.751 330.785 542.278 330.26 541.941 329.586C541.603 328.912 541.435 328.124 541.435 327.223C541.435 326.317 541.603 325.526 541.941 324.848C542.278 324.169 542.751 323.643 543.361 323.268C543.971 322.893 544.685 322.705 545.503 322.705C546.321 322.705 547.035 322.893 547.645 323.268C548.255 323.643 548.728 324.169 549.066 324.848C549.403 325.526 549.571 326.317 549.571 327.223C549.571 328.124 549.403 328.912 549.066 329.586C548.728 330.26 548.255 330.785 547.645 331.16C547.035 331.535 546.321 331.723 545.503 331.723ZM545.509 330.296C546.039 330.296 546.478 330.156 546.827 329.876C547.175 329.596 547.433 329.223 547.6 328.757C547.77 328.291 547.855 327.777 547.855 327.217C547.855 326.66 547.77 326.149 547.6 325.683C547.433 325.213 547.175 324.836 546.827 324.552C546.478 324.268 546.039 324.126 545.509 324.126C544.975 324.126 544.532 324.268 544.179 324.552C543.831 324.836 543.571 325.213 543.401 325.683C543.234 326.149 543.151 326.66 543.151 327.217C543.151 327.777 543.234 328.291 543.401 328.757C543.571 329.223 543.831 329.596 544.179 329.876C544.532 330.156 544.975 330.296 545.509 330.296ZM556.996 327.927V322.819H558.701V331.546H557.03V330.035H556.939C556.738 330.501 556.416 330.889 555.973 331.2C555.534 331.507 554.987 331.66 554.331 331.66C553.771 331.66 553.274 331.537 552.843 331.291C552.415 331.041 552.077 330.671 551.831 330.183C551.589 329.694 551.468 329.09 551.468 328.37V322.819H553.166V328.166C553.166 328.76 553.331 329.234 553.661 329.586C553.99 329.938 554.418 330.115 554.945 330.115C555.263 330.115 555.579 330.035 555.894 329.876C556.212 329.717 556.475 329.476 556.684 329.154C556.896 328.832 557 328.423 556.996 327.927ZM562.682 326.365V331.546H560.983V322.819H562.614V324.24H562.722C562.923 323.777 563.237 323.406 563.665 323.126C564.097 322.846 564.64 322.705 565.296 322.705C565.89 322.705 566.411 322.83 566.858 323.08C567.305 323.327 567.652 323.694 567.898 324.183C568.144 324.671 568.267 325.276 568.267 325.995V331.546H566.568V326.2C566.568 325.567 566.404 325.073 566.074 324.717C565.745 324.357 565.292 324.177 564.716 324.177C564.322 324.177 563.972 324.262 563.665 324.433C563.362 324.603 563.121 324.853 562.943 325.183C562.769 325.509 562.682 325.902 562.682 326.365ZM574.62 322.819V324.183H569.853V322.819H574.62ZM571.131 320.728H572.83V328.984C572.83 329.313 572.879 329.562 572.978 329.728C573.076 329.891 573.203 330.003 573.358 330.063C573.517 330.12 573.69 330.149 573.875 330.149C574.012 330.149 574.131 330.139 574.233 330.12C574.336 330.101 574.415 330.086 574.472 330.075L574.779 331.478C574.68 331.516 574.54 331.554 574.358 331.592C574.176 331.634 573.949 331.656 573.676 331.66C573.229 331.668 572.813 331.588 572.426 331.421C572.04 331.255 571.728 330.997 571.489 330.649C571.25 330.3 571.131 329.863 571.131 329.336V320.728Z" fill="black"/>
<rect x="246.294" y="504.012" width="174" height="108.546" rx="3.5" fill="white"/>
<rect x="246.294" y="504.012" width="174" height="108.546" rx="3.5" stroke="#D6D3D1"/>
<mask id="mask2_9154_12168" style="mask-type:alpha" maskUnits="userSpaceOnUse" x="265" y="527" width="28" height="28">
<rect x="265.794" y="527.512" width="26.5464" height="26.5464" fill="#D9D9D9"/>
</mask>
<g mask="url(#mask2_9154_12168)">
<path d="M289.022 535.808H286.81V533.043H271.325V548.528H286.81V545.763H289.022V550.74H269.113V530.831H289.022V535.808ZM277.961 546.316V535.255H290.129V546.316H277.961ZM283.492 542.445C283.953 542.445 284.345 542.283 284.667 541.961C284.99 541.638 285.151 541.246 285.151 540.785C285.151 540.325 284.99 539.933 284.667 539.61C284.345 539.288 283.953 539.126 283.492 539.126C283.031 539.126 282.639 539.288 282.317 539.61C281.994 539.933 281.833 540.325 281.833 540.785C281.833 541.246 281.994 541.638 282.317 541.961C282.639 542.283 283.031 542.445 283.492 542.445ZM287.916 544.104V537.467H280.174V544.104H287.916Z" fill="#16A34A"/>
</g>
<path d="M273.419 576.479C273.359 575.941 273.109 575.525 272.669 575.229C272.23 574.93 271.677 574.78 271.01 574.78C270.533 574.78 270.12 574.856 269.772 575.007C269.423 575.155 269.152 575.36 268.959 575.621C268.77 575.879 268.675 576.172 268.675 576.502C268.675 576.778 268.739 577.017 268.868 577.218C269.001 577.418 269.173 577.587 269.385 577.723C269.601 577.856 269.832 577.968 270.078 578.059C270.325 578.146 270.561 578.218 270.789 578.275L271.925 578.57C272.296 578.661 272.677 578.784 273.067 578.939C273.457 579.095 273.819 579.299 274.152 579.553C274.486 579.807 274.755 580.121 274.959 580.496C275.167 580.871 275.272 581.32 275.272 581.843C275.272 582.502 275.101 583.087 274.76 583.598C274.423 584.11 273.933 584.513 273.289 584.809C272.648 585.104 271.874 585.252 270.965 585.252C270.094 585.252 269.34 585.114 268.703 584.837C268.067 584.56 267.569 584.168 267.209 583.661C266.849 583.15 266.65 582.543 266.612 581.843H268.374C268.408 582.263 268.544 582.614 268.783 582.894C269.025 583.17 269.334 583.377 269.709 583.513C270.088 583.646 270.503 583.712 270.953 583.712C271.45 583.712 271.891 583.634 272.277 583.479C272.667 583.32 272.974 583.1 273.198 582.82C273.421 582.536 273.533 582.204 273.533 581.826C273.533 581.481 273.434 581.199 273.237 580.979C273.044 580.759 272.781 580.578 272.448 580.434C272.118 580.29 271.745 580.163 271.328 580.053L269.953 579.678C269.022 579.424 268.283 579.051 267.737 578.559C267.196 578.066 266.925 577.415 266.925 576.604C266.925 575.934 267.107 575.348 267.47 574.848C267.834 574.348 268.327 573.96 268.948 573.684C269.569 573.403 270.27 573.263 271.05 573.263C271.838 573.263 272.533 573.401 273.135 573.678C273.741 573.954 274.219 574.335 274.567 574.82C274.916 575.301 275.097 575.854 275.112 576.479H273.419ZM282.762 581.439V576.331H284.466V585.059H282.796V583.547H282.705C282.504 584.013 282.182 584.401 281.739 584.712C281.3 585.019 280.752 585.172 280.097 585.172C279.536 585.172 279.04 585.049 278.608 584.803C278.18 584.553 277.843 584.184 277.597 583.695C277.354 583.206 277.233 582.602 277.233 581.882V576.331H278.932V581.678C278.932 582.273 279.097 582.746 279.426 583.098C279.756 583.451 280.184 583.627 280.711 583.627C281.029 583.627 281.345 583.547 281.659 583.388C281.978 583.229 282.241 582.989 282.449 582.667C282.661 582.345 282.765 581.935 282.762 581.439ZM286.885 585.059V573.422H288.584V577.746H288.686C288.785 577.564 288.927 577.354 289.112 577.115C289.298 576.877 289.556 576.668 289.885 576.49C290.215 576.309 290.65 576.218 291.192 576.218C291.897 576.218 292.525 576.396 293.078 576.752C293.631 577.108 294.065 577.621 294.38 578.292C294.698 578.962 294.857 579.769 294.857 580.712C294.857 581.655 294.7 582.464 294.385 583.138C294.071 583.809 293.639 584.326 293.09 584.689C292.541 585.049 291.914 585.229 291.209 585.229C290.679 585.229 290.245 585.14 289.908 584.962C289.575 584.784 289.313 584.576 289.124 584.337C288.934 584.098 288.789 583.886 288.686 583.701H288.544V585.059H286.885ZM288.55 580.695C288.55 581.309 288.639 581.846 288.817 582.309C288.995 582.771 289.253 583.132 289.59 583.394C289.927 583.651 290.34 583.78 290.828 583.78C291.336 583.78 291.76 583.646 292.101 583.377C292.442 583.104 292.7 582.735 292.874 582.269C293.052 581.803 293.141 581.278 293.141 580.695C293.141 580.119 293.054 579.602 292.88 579.144C292.709 578.685 292.452 578.324 292.107 578.059C291.766 577.793 291.34 577.661 290.828 577.661C290.336 577.661 289.919 577.788 289.578 578.042C289.241 578.295 288.986 578.65 288.811 579.104C288.637 579.559 288.55 580.089 288.55 580.695ZM302.118 585.059H300.255L304.442 573.422H306.47L310.658 585.059H308.794L305.505 575.536H305.414L302.118 585.059ZM302.431 580.502H308.476V581.979H302.431V580.502ZM315.737 585.235C314.893 585.235 314.166 585.043 313.556 584.661C312.95 584.275 312.484 583.742 312.158 583.064C311.832 582.386 311.669 581.61 311.669 580.735C311.669 579.848 311.836 579.066 312.169 578.388C312.503 577.706 312.972 577.174 313.578 576.792C314.184 576.409 314.898 576.218 315.72 576.218C316.383 576.218 316.974 576.341 317.493 576.587C318.012 576.829 318.431 577.17 318.749 577.61C319.071 578.049 319.262 578.562 319.323 579.15H317.669C317.578 578.74 317.37 578.388 317.044 578.093C316.722 577.797 316.291 577.65 315.749 577.65C315.275 577.65 314.861 577.775 314.505 578.025C314.152 578.271 313.878 578.623 313.681 579.081C313.484 579.536 313.385 580.074 313.385 580.695C313.385 581.331 313.482 581.881 313.675 582.343C313.868 582.805 314.141 583.163 314.493 583.417C314.849 583.67 315.268 583.797 315.749 583.797C316.071 583.797 316.362 583.739 316.624 583.621C316.889 583.5 317.111 583.328 317.289 583.104C317.47 582.881 317.597 582.612 317.669 582.297H319.323C319.262 582.862 319.078 583.365 318.772 583.809C318.465 584.252 318.054 584.6 317.539 584.854C317.027 585.108 316.427 585.235 315.737 585.235ZM324.816 585.235C323.971 585.235 323.244 585.043 322.634 584.661C322.028 584.275 321.562 583.742 321.236 583.064C320.91 582.386 320.747 581.61 320.747 580.735C320.747 579.848 320.914 579.066 321.247 578.388C321.581 577.706 322.05 577.174 322.657 576.792C323.263 576.409 323.977 576.218 324.799 576.218C325.461 576.218 326.052 576.341 326.571 576.587C327.09 576.829 327.509 577.17 327.827 577.61C328.149 578.049 328.34 578.562 328.401 579.15H326.747C326.657 578.74 326.448 578.388 326.122 578.093C325.8 577.797 325.369 577.65 324.827 577.65C324.353 577.65 323.939 577.775 323.583 578.025C323.23 578.271 322.956 578.623 322.759 579.081C322.562 579.536 322.463 580.074 322.463 580.695C322.463 581.331 322.56 581.881 322.753 582.343C322.946 582.805 323.219 583.163 323.571 583.417C323.927 583.67 324.346 583.797 324.827 583.797C325.149 583.797 325.441 583.739 325.702 583.621C325.967 583.5 326.189 583.328 326.367 583.104C326.549 582.881 326.675 582.612 326.747 582.297H328.401C328.34 582.862 328.157 583.365 327.85 583.809C327.543 584.252 327.132 584.6 326.617 584.854C326.105 585.108 325.505 585.235 324.816 585.235ZM333.894 585.235C333.076 585.235 332.362 585.047 331.752 584.672C331.142 584.297 330.668 583.773 330.331 583.098C329.994 582.424 329.826 581.636 329.826 580.735C329.826 579.829 329.994 579.038 330.331 578.36C330.668 577.682 331.142 577.155 331.752 576.78C332.362 576.405 333.076 576.218 333.894 576.218C334.712 576.218 335.426 576.405 336.036 576.78C336.646 577.155 337.119 577.682 337.456 578.36C337.793 579.038 337.962 579.829 337.962 580.735C337.962 581.636 337.793 582.424 337.456 583.098C337.119 583.773 336.646 584.297 336.036 584.672C335.426 585.047 334.712 585.235 333.894 585.235ZM333.899 583.809C334.43 583.809 334.869 583.668 335.218 583.388C335.566 583.108 335.824 582.735 335.99 582.269C336.161 581.803 336.246 581.29 336.246 580.729C336.246 580.172 336.161 579.661 335.99 579.195C335.824 578.725 335.566 578.348 335.218 578.064C334.869 577.78 334.43 577.638 333.899 577.638C333.365 577.638 332.922 577.78 332.57 578.064C332.221 578.348 331.962 578.725 331.791 579.195C331.625 579.661 331.541 580.172 331.541 580.729C331.541 581.29 331.625 581.803 331.791 582.269C331.962 582.735 332.221 583.108 332.57 583.388C332.922 583.668 333.365 583.809 333.899 583.809ZM345.387 581.439V576.331H347.091V585.059H345.421V583.547H345.33C345.129 584.013 344.807 584.401 344.364 584.712C343.925 585.019 343.377 585.172 342.722 585.172C342.161 585.172 341.665 585.049 341.233 584.803C340.805 584.553 340.468 584.184 340.222 583.695C339.979 583.206 339.858 582.602 339.858 581.882V576.331H341.557V581.678C341.557 582.273 341.722 582.746 342.051 583.098C342.381 583.451 342.809 583.627 343.336 583.627C343.654 583.627 343.97 583.547 344.284 583.388C344.603 583.229 344.866 582.989 345.074 582.667C345.286 582.345 345.39 581.935 345.387 581.439ZM351.073 579.877V585.059H349.374V576.331H351.005V577.752H351.112C351.313 577.29 351.628 576.918 352.056 576.638C352.487 576.358 353.031 576.218 353.686 576.218C354.281 576.218 354.802 576.343 355.249 576.593C355.696 576.839 356.042 577.206 356.289 577.695C356.535 578.184 356.658 578.788 356.658 579.507V585.059H354.959V579.712C354.959 579.079 354.794 578.585 354.465 578.229C354.135 577.869 353.683 577.689 353.107 577.689C352.713 577.689 352.362 577.775 352.056 577.945C351.753 578.115 351.512 578.365 351.334 578.695C351.16 579.021 351.073 579.415 351.073 579.877ZM363.01 576.331V577.695H358.243V576.331H363.01ZM359.522 574.24H361.22V582.496C361.22 582.826 361.27 583.074 361.368 583.24C361.467 583.403 361.594 583.515 361.749 583.576C361.908 583.632 362.08 583.661 362.266 583.661C362.402 583.661 362.522 583.651 362.624 583.632C362.726 583.614 362.806 583.598 362.862 583.587L363.169 584.99C363.071 585.028 362.931 585.066 362.749 585.104C362.567 585.146 362.34 585.168 362.067 585.172C361.62 585.18 361.203 585.1 360.817 584.934C360.431 584.767 360.118 584.509 359.88 584.161C359.641 583.812 359.522 583.375 359.522 582.848V574.24ZM373.516 573.422V585.059H371.755V575.184H371.686L368.902 577.002V575.32L371.806 573.422H373.516Z" fill="black"/>
<rect x="621.294" y="504.012" width="174" height="108.546" rx="3.5" fill="white"/>
<rect x="621.294" y="504.012" width="174" height="108.546" rx="3.5" stroke="#D6D3D1"/>
<mask id="mask3_9154_12168" style="mask-type:alpha" maskUnits="userSpaceOnUse" x="640" y="527" width="28" height="28">
<rect x="640.794" y="527.512" width="26.5464" height="26.5464" fill="#D9D9D9"/>
</mask>
<g mask="url(#mask3_9154_12168)">
<path d="M664.023 535.808H661.81V533.043H646.325V548.528H661.81V545.763H664.023V550.74H644.113V530.831H664.023V535.808ZM652.961 546.316V535.255H665.129V546.316H652.961ZM658.492 542.445C658.953 542.445 659.345 542.283 659.667 541.961C659.99 541.638 660.151 541.246 660.151 540.785C660.151 540.325 659.99 539.933 659.667 539.61C659.345 539.288 658.953 539.126 658.492 539.126C658.031 539.126 657.639 539.288 657.317 539.61C656.994 539.933 656.833 540.325 656.833 540.785C656.833 541.246 656.994 541.638 657.317 541.961C657.639 542.283 658.031 542.445 658.492 542.445ZM662.916 544.104V537.467H655.174V544.104H662.916Z" fill="#16A34A"/>
</g>
<path d="M648.419 576.479C648.359 575.941 648.109 575.525 647.669 575.229C647.23 574.93 646.677 574.78 646.01 574.78C645.533 574.78 645.12 574.856 644.772 575.007C644.423 575.155 644.152 575.36 643.959 575.621C643.77 575.879 643.675 576.172 643.675 576.502C643.675 576.778 643.739 577.017 643.868 577.218C644.001 577.418 644.173 577.587 644.385 577.723C644.601 577.856 644.832 577.968 645.078 578.059C645.325 578.146 645.561 578.218 645.789 578.275L646.925 578.57C647.296 578.661 647.677 578.784 648.067 578.939C648.457 579.095 648.819 579.299 649.152 579.553C649.486 579.807 649.755 580.121 649.959 580.496C650.167 580.871 650.272 581.32 650.272 581.843C650.272 582.502 650.101 583.087 649.76 583.598C649.423 584.11 648.933 584.513 648.289 584.809C647.648 585.104 646.874 585.252 645.965 585.252C645.094 585.252 644.34 585.114 643.703 584.837C643.067 584.56 642.569 584.168 642.209 583.661C641.849 583.15 641.65 582.543 641.612 581.843H643.374C643.408 582.263 643.544 582.614 643.783 582.894C644.025 583.17 644.334 583.377 644.709 583.513C645.088 583.646 645.503 583.712 645.953 583.712C646.45 583.712 646.891 583.634 647.277 583.479C647.667 583.32 647.974 583.1 648.198 582.82C648.421 582.536 648.533 582.204 648.533 581.826C648.533 581.481 648.434 581.199 648.237 580.979C648.044 580.759 647.781 580.578 647.448 580.434C647.118 580.29 646.745 580.163 646.328 580.053L644.953 579.678C644.022 579.424 643.283 579.051 642.737 578.559C642.196 578.066 641.925 577.415 641.925 576.604C641.925 575.934 642.107 575.348 642.47 574.848C642.834 574.348 643.327 573.96 643.948 573.684C644.569 573.403 645.27 573.263 646.05 573.263C646.838 573.263 647.533 573.401 648.135 573.678C648.741 573.954 649.219 574.335 649.567 574.82C649.916 575.301 650.097 575.854 650.112 576.479H648.419ZM657.762 581.439V576.331H659.466V585.059H657.796V583.547H657.705C657.504 584.013 657.182 584.401 656.739 584.712C656.3 585.019 655.752 585.172 655.097 585.172C654.536 585.172 654.04 585.049 653.608 584.803C653.18 584.553 652.843 584.184 652.597 583.695C652.354 583.206 652.233 582.602 652.233 581.882V576.331H653.932V581.678C653.932 582.273 654.097 582.746 654.426 583.098C654.756 583.451 655.184 583.627 655.711 583.627C656.029 583.627 656.345 583.547 656.659 583.388C656.978 583.229 657.241 582.989 657.449 582.667C657.661 582.345 657.765 581.935 657.762 581.439ZM661.885 585.059V573.422H663.584V577.746H663.686C663.785 577.564 663.927 577.354 664.112 577.115C664.298 576.877 664.556 576.668 664.885 576.49C665.215 576.309 665.65 576.218 666.192 576.218C666.897 576.218 667.525 576.396 668.078 576.752C668.631 577.108 669.065 577.621 669.38 578.292C669.698 578.962 669.857 579.769 669.857 580.712C669.857 581.655 669.7 582.464 669.385 583.138C669.071 583.809 668.639 584.326 668.09 584.689C667.541 585.049 666.914 585.229 666.209 585.229C665.679 585.229 665.245 585.14 664.908 584.962C664.575 584.784 664.313 584.576 664.124 584.337C663.934 584.098 663.789 583.886 663.686 583.701H663.544V585.059H661.885ZM663.55 580.695C663.55 581.309 663.639 581.846 663.817 582.309C663.995 582.771 664.253 583.132 664.59 583.394C664.927 583.651 665.34 583.78 665.828 583.78C666.336 583.78 666.76 583.646 667.101 583.377C667.442 583.104 667.7 582.735 667.874 582.269C668.052 581.803 668.141 581.278 668.141 580.695C668.141 580.119 668.054 579.602 667.88 579.144C667.709 578.685 667.452 578.324 667.107 578.059C666.766 577.793 666.34 577.661 665.828 577.661C665.336 577.661 664.919 577.788 664.578 578.042C664.241 578.295 663.986 578.65 663.811 579.104C663.637 579.559 663.55 580.089 663.55 580.695ZM677.118 585.059H675.255L679.442 573.422H681.47L685.658 585.059H683.794L680.505 575.536H680.414L677.118 585.059ZM677.431 580.502H683.476V581.979H677.431V580.502ZM690.737 585.235C689.893 585.235 689.166 585.043 688.556 584.661C687.95 584.275 687.484 583.742 687.158 583.064C686.832 582.386 686.669 581.61 686.669 580.735C686.669 579.848 686.836 579.066 687.169 578.388C687.503 577.706 687.972 577.174 688.578 576.792C689.184 576.409 689.898 576.218 690.72 576.218C691.383 576.218 691.974 576.341 692.493 576.587C693.012 576.829 693.431 577.17 693.749 577.61C694.071 578.049 694.262 578.562 694.323 579.15H692.669C692.578 578.74 692.37 578.388 692.044 578.093C691.722 577.797 691.291 577.65 690.749 577.65C690.275 577.65 689.861 577.775 689.505 578.025C689.152 578.271 688.878 578.623 688.681 579.081C688.484 579.536 688.385 580.074 688.385 580.695C688.385 581.331 688.482 581.881 688.675 582.343C688.868 582.805 689.141 583.163 689.493 583.417C689.849 583.67 690.268 583.797 690.749 583.797C691.071 583.797 691.362 583.739 691.624 583.621C691.889 583.5 692.111 583.328 692.289 583.104C692.47 582.881 692.597 582.612 692.669 582.297H694.323C694.262 582.862 694.078 583.365 693.772 583.809C693.465 584.252 693.054 584.6 692.539 584.854C692.027 585.108 691.427 585.235 690.737 585.235ZM699.816 585.235C698.971 585.235 698.244 585.043 697.634 584.661C697.028 584.275 696.562 583.742 696.236 583.064C695.91 582.386 695.747 581.61 695.747 580.735C695.747 579.848 695.914 579.066 696.247 578.388C696.581 577.706 697.05 577.174 697.657 576.792C698.263 576.409 698.977 576.218 699.799 576.218C700.461 576.218 701.052 576.341 701.571 576.587C702.09 576.829 702.509 577.17 702.827 577.61C703.149 578.049 703.34 578.562 703.401 579.15H701.747C701.657 578.74 701.448 578.388 701.122 578.093C700.8 577.797 700.369 577.65 699.827 577.65C699.353 577.65 698.939 577.775 698.583 578.025C698.23 578.271 697.956 578.623 697.759 579.081C697.562 579.536 697.463 580.074 697.463 580.695C697.463 581.331 697.56 581.881 697.753 582.343C697.946 582.805 698.219 583.163 698.571 583.417C698.927 583.67 699.346 583.797 699.827 583.797C700.149 583.797 700.441 583.739 700.702 583.621C700.967 583.5 701.189 583.328 701.367 583.104C701.549 582.881 701.675 582.612 701.747 582.297H703.401C703.34 582.862 703.157 583.365 702.85 583.809C702.543 584.252 702.132 584.6 701.617 584.854C701.105 585.108 700.505 585.235 699.816 585.235ZM708.894 585.235C708.076 585.235 707.362 585.047 706.752 584.672C706.142 584.297 705.668 583.773 705.331 583.098C704.994 582.424 704.826 581.636 704.826 580.735C704.826 579.829 704.994 579.038 705.331 578.36C705.668 577.682 706.142 577.155 706.752 576.78C707.362 576.405 708.076 576.218 708.894 576.218C709.712 576.218 710.426 576.405 711.036 576.78C711.646 577.155 712.119 577.682 712.456 578.36C712.793 579.038 712.962 579.829 712.962 580.735C712.962 581.636 712.793 582.424 712.456 583.098C712.119 583.773 711.646 584.297 711.036 584.672C710.426 585.047 709.712 585.235 708.894 585.235ZM708.899 583.809C709.43 583.809 709.869 583.668 710.218 583.388C710.566 583.108 710.824 582.735 710.99 582.269C711.161 581.803 711.246 581.29 711.246 580.729C711.246 580.172 711.161 579.661 710.99 579.195C710.824 578.725 710.566 578.348 710.218 578.064C709.869 577.78 709.43 577.638 708.899 577.638C708.365 577.638 707.922 577.78 707.57 578.064C707.221 578.348 706.962 578.725 706.791 579.195C706.625 579.661 706.541 580.172 706.541 580.729C706.541 581.29 706.625 581.803 706.791 582.269C706.962 582.735 707.221 583.108 707.57 583.388C707.922 583.668 708.365 583.809 708.899 583.809ZM720.387 581.439V576.331H722.091V585.059H720.421V583.547H720.33C720.129 584.013 719.807 584.401 719.364 584.712C718.925 585.019 718.377 585.172 717.722 585.172C717.161 585.172 716.665 585.049 716.233 584.803C715.805 584.553 715.468 584.184 715.222 583.695C714.979 583.206 714.858 582.602 714.858 581.882V576.331H716.557V581.678C716.557 582.273 716.722 582.746 717.051 583.098C717.381 583.451 717.809 583.627 718.336 583.627C718.654 583.627 718.97 583.547 719.284 583.388C719.603 583.229 719.866 582.989 720.074 582.667C720.286 582.345 720.39 581.935 720.387 581.439ZM726.073 579.877V585.059H724.374V576.331H726.005V577.752H726.112C726.313 577.29 726.628 576.918 727.056 576.638C727.487 576.358 728.031 576.218 728.686 576.218C729.281 576.218 729.802 576.343 730.249 576.593C730.696 576.839 731.042 577.206 731.289 577.695C731.535 578.184 731.658 578.788 731.658 579.507V585.059H729.959V579.712C729.959 579.079 729.794 578.585 729.465 578.229C729.135 577.869 728.683 577.689 728.107 577.689C727.713 577.689 727.362 577.775 727.056 577.945C726.753 578.115 726.512 578.365 726.334 578.695C726.16 579.021 726.073 579.415 726.073 579.877ZM738.01 576.331V577.695H733.243V576.331H738.01ZM734.522 574.24H736.22V582.496C736.22 582.826 736.27 583.074 736.368 583.24C736.467 583.403 736.594 583.515 736.749 583.576C736.908 583.632 737.08 583.661 737.266 583.661C737.402 583.661 737.522 583.651 737.624 583.632C737.726 583.614 737.806 583.598 737.862 583.587L738.169 584.99C738.071 585.028 737.931 585.066 737.749 585.104C737.567 585.146 737.34 585.168 737.067 585.172C736.62 585.18 736.203 585.1 735.817 584.934C735.431 584.767 735.118 584.509 734.88 584.161C734.641 583.812 734.522 583.375 734.522 582.848V574.24ZM744.101 585.059V583.786L748.039 579.706C748.459 579.263 748.806 578.875 749.078 578.542C749.355 578.204 749.561 577.884 749.698 577.581C749.834 577.278 749.902 576.956 749.902 576.615C749.902 576.229 749.811 575.896 749.63 575.615C749.448 575.331 749.2 575.114 748.885 574.962C748.571 574.807 748.217 574.729 747.823 574.729C747.406 574.729 747.042 574.814 746.732 574.985C746.421 575.155 746.183 575.396 746.016 575.706C745.849 576.017 745.766 576.381 745.766 576.797H744.09C744.09 576.089 744.253 575.47 744.578 574.939C744.904 574.409 745.351 573.998 745.919 573.706C746.487 573.411 747.133 573.263 747.857 573.263C748.588 573.263 749.232 573.409 749.789 573.701C750.349 573.989 750.787 574.382 751.101 574.882C751.416 575.379 751.573 575.939 751.573 576.564C751.573 576.996 751.491 577.418 751.328 577.831C751.169 578.244 750.891 578.704 750.493 579.212C750.095 579.716 749.542 580.328 748.834 581.047L746.522 583.468V583.553H751.76V585.059H744.101Z" fill="black"/>
</svg>
