<svg width="1041" height="680" viewBox="0 0 1041 680" fill="none" xmlns="http://www.w3.org/2000/svg">
<rect width="1040" height="680" transform="translate(0.632324)" fill="#F5F5F4"/>
<path d="M566.641 247.364L563.817 255H562.624L559.8 247.364H561.073L563.181 253.449H563.26L565.368 247.364H566.641ZM568.17 255V254.105L571.53 250.426C571.925 249.995 572.25 249.621 572.505 249.303C572.76 248.981 572.949 248.679 573.072 248.398C573.198 248.113 573.261 247.814 573.261 247.503C573.261 247.145 573.174 246.835 573.002 246.573C572.833 246.311 572.601 246.109 572.306 245.967C572.011 245.824 571.68 245.753 571.312 245.753C570.921 245.753 570.579 245.834 570.288 245.996C569.999 246.156 569.776 246.379 569.616 246.668C569.461 246.956 569.383 247.294 569.383 247.682H568.209C568.209 247.085 568.347 246.562 568.622 246.111C568.897 245.66 569.272 245.309 569.746 245.057C570.223 244.805 570.758 244.679 571.352 244.679C571.948 244.679 572.477 244.805 572.937 245.057C573.398 245.309 573.759 245.648 574.021 246.076C574.283 246.504 574.414 246.979 574.414 247.503C574.414 247.877 574.346 248.244 574.21 248.602C574.078 248.956 573.846 249.352 573.514 249.79C573.186 250.224 572.73 250.754 572.147 251.381L569.86 253.827V253.906H574.593V255H568.17ZM580.266 244.341L576.984 256.531H575.91L579.192 244.341H580.266ZM581.656 255V247.364H582.83V255H581.656ZM582.253 246.091C582.024 246.091 581.827 246.013 581.661 245.857C581.499 245.701 581.418 245.514 581.418 245.295C581.418 245.077 581.499 244.889 581.661 244.734C581.827 244.578 582.024 244.5 582.253 244.5C582.482 244.5 582.677 244.578 582.84 244.734C583.005 244.889 583.088 245.077 583.088 245.295C583.088 245.514 583.005 245.701 582.84 245.857C582.677 246.013 582.482 246.091 582.253 246.091ZM590.388 249.074L589.334 249.372C589.267 249.196 589.17 249.026 589.04 248.86C588.914 248.691 588.742 248.552 588.523 248.442C588.305 248.333 588.025 248.278 587.683 248.278C587.216 248.278 586.826 248.386 586.515 248.602C586.207 248.814 586.053 249.084 586.053 249.412C586.053 249.704 586.159 249.934 586.371 250.103C586.583 250.272 586.914 250.413 587.365 250.526L588.499 250.804C589.181 250.97 589.69 251.223 590.025 251.565C590.36 251.903 590.527 252.339 590.527 252.872C590.527 253.31 590.401 253.701 590.149 254.045C589.901 254.39 589.553 254.662 589.105 254.861C588.658 255.06 588.137 255.159 587.544 255.159C586.765 255.159 586.12 254.99 585.61 254.652C585.1 254.314 584.776 253.82 584.641 253.17L585.754 252.892C585.86 253.303 586.061 253.611 586.356 253.817C586.654 254.022 587.044 254.125 587.524 254.125C588.071 254.125 588.505 254.009 588.827 253.777C589.151 253.542 589.314 253.26 589.314 252.932C589.314 252.667 589.221 252.445 589.035 252.266C588.85 252.083 588.565 251.947 588.18 251.858L586.908 251.56C586.208 251.394 585.695 251.137 585.366 250.789C585.042 250.438 584.879 249.999 584.879 249.472C584.879 249.041 585 248.66 585.242 248.328C585.487 247.997 585.821 247.737 586.241 247.548C586.666 247.359 587.146 247.264 587.683 247.264C588.439 247.264 589.032 247.43 589.463 247.761C589.897 248.093 590.205 248.53 590.388 249.074ZM597.702 249.074L596.648 249.372C596.582 249.196 596.484 249.026 596.355 248.86C596.229 248.691 596.057 248.552 595.838 248.442C595.619 248.333 595.339 248.278 594.998 248.278C594.53 248.278 594.141 248.386 593.829 248.602C593.521 248.814 593.367 249.084 593.367 249.412C593.367 249.704 593.473 249.934 593.685 250.103C593.897 250.272 594.229 250.413 594.679 250.526L595.813 250.804C596.496 250.97 597.005 251.223 597.339 251.565C597.674 251.903 597.841 252.339 597.841 252.872C597.841 253.31 597.715 253.701 597.464 254.045C597.215 254.39 596.867 254.662 596.42 254.861C595.972 255.06 595.452 255.159 594.858 255.159C594.08 255.159 593.435 254.99 592.924 254.652C592.414 254.314 592.091 253.82 591.955 253.17L593.069 252.892C593.175 253.303 593.375 253.611 593.67 253.817C593.969 254.022 594.358 254.125 594.839 254.125C595.385 254.125 595.82 254.009 596.141 253.777C596.466 253.542 596.628 253.26 596.628 252.932C596.628 252.667 596.536 252.445 596.35 252.266C596.164 252.083 595.879 251.947 595.495 251.858L594.222 251.56C593.523 251.394 593.009 251.137 592.681 250.789C592.356 250.438 592.194 249.999 592.194 249.472C592.194 249.041 592.315 248.66 592.557 248.328C592.802 247.997 593.135 247.737 593.556 247.548C593.98 247.359 594.461 247.264 594.998 247.264C595.753 247.264 596.347 247.43 596.777 247.761C597.212 248.093 597.52 248.53 597.702 249.074ZM604.42 251.878V247.364H605.593V255H604.42V253.707H604.341C604.162 254.095 603.883 254.425 603.505 254.697C603.127 254.965 602.65 255.099 602.073 255.099C601.596 255.099 601.172 254.995 600.801 254.786C600.43 254.574 600.138 254.256 599.926 253.832C599.714 253.404 599.608 252.866 599.608 252.216V247.364H600.781V252.136C600.781 252.693 600.937 253.137 601.248 253.469C601.563 253.8 601.964 253.966 602.451 253.966C602.743 253.966 603.04 253.891 603.341 253.742C603.646 253.593 603.901 253.364 604.107 253.056C604.316 252.748 604.42 252.355 604.42 251.878ZM607.742 255V247.364H608.916V255H607.742ZM608.339 246.091C608.11 246.091 607.913 246.013 607.747 245.857C607.585 245.701 607.504 245.514 607.504 245.295C607.504 245.077 607.585 244.889 607.747 244.734C607.913 244.578 608.11 244.5 608.339 244.5C608.568 244.5 608.763 244.578 608.926 244.734C609.091 244.889 609.174 245.077 609.174 245.295C609.174 245.514 609.091 245.701 608.926 245.857C608.763 246.013 608.568 246.091 608.339 246.091ZM612.238 250.406V255H611.065V247.364H612.198V248.557H612.298C612.477 248.169 612.748 247.857 613.113 247.622C613.477 247.384 613.948 247.264 614.525 247.264C615.042 247.264 615.494 247.37 615.882 247.582C616.27 247.791 616.571 248.109 616.787 248.537C617.002 248.961 617.11 249.498 617.11 250.148V255H615.937V250.227C615.937 249.627 615.781 249.16 615.469 248.825C615.158 248.487 614.73 248.318 614.187 248.318C613.812 248.318 613.477 248.399 613.182 248.562C612.891 248.724 612.66 248.961 612.491 249.273C612.322 249.584 612.238 249.962 612.238 250.406ZM622.336 258.023C621.77 258.023 621.282 257.95 620.875 257.804C620.467 257.661 620.127 257.473 619.856 257.237C619.587 257.005 619.373 256.757 619.214 256.491L620.149 255.835C620.255 255.974 620.389 256.134 620.552 256.312C620.714 256.495 620.936 256.652 621.218 256.785C621.503 256.921 621.876 256.989 622.336 256.989C622.953 256.989 623.462 256.839 623.863 256.541C624.264 256.243 624.464 255.776 624.464 255.139V253.588H624.365C624.279 253.727 624.156 253.9 623.997 254.105C623.841 254.307 623.616 254.488 623.321 254.647C623.029 254.803 622.635 254.881 622.138 254.881C621.521 254.881 620.968 254.735 620.477 254.443C619.99 254.152 619.604 253.727 619.319 253.17C619.037 252.614 618.896 251.937 618.896 251.142C618.896 250.36 619.034 249.679 619.309 249.099C619.584 248.515 619.967 248.065 620.457 247.746C620.948 247.425 621.514 247.264 622.157 247.264C622.655 247.264 623.049 247.347 623.341 247.513C623.636 247.675 623.861 247.861 624.017 248.07C624.176 248.275 624.299 248.444 624.385 248.577H624.504V247.364H625.638V255.219C625.638 255.875 625.488 256.409 625.19 256.82C624.895 257.234 624.497 257.537 623.997 257.729C623.5 257.925 622.946 258.023 622.336 258.023ZM622.297 253.827C622.767 253.827 623.165 253.719 623.49 253.504C623.815 253.288 624.062 252.978 624.231 252.574C624.4 252.17 624.484 251.686 624.484 251.122C624.484 250.572 624.401 250.086 624.236 249.665C624.07 249.245 623.825 248.915 623.5 248.676C623.175 248.437 622.774 248.318 622.297 248.318C621.799 248.318 621.385 248.444 621.054 248.696C620.726 248.948 620.479 249.286 620.313 249.71C620.151 250.134 620.069 250.605 620.069 251.122C620.069 251.652 620.152 252.121 620.318 252.529C620.487 252.933 620.736 253.252 621.064 253.484C621.395 253.712 621.806 253.827 622.297 253.827ZM631.385 244.341L628.103 256.531H627.03L630.311 244.341H631.385ZM635.878 255.159C635.162 255.159 634.545 254.99 634.028 254.652C633.511 254.314 633.114 253.848 632.835 253.255C632.557 252.662 632.418 251.984 632.418 251.222C632.418 250.446 632.56 249.762 632.845 249.168C633.133 248.572 633.535 248.106 634.048 247.771C634.565 247.433 635.169 247.264 635.858 247.264C636.395 247.264 636.879 247.364 637.31 247.562C637.74 247.761 638.093 248.04 638.369 248.398C638.644 248.756 638.814 249.173 638.881 249.651H637.707C637.618 249.303 637.419 248.994 637.111 248.726C636.806 248.454 636.395 248.318 635.878 248.318C635.42 248.318 635.019 248.437 634.675 248.676C634.333 248.911 634.066 249.245 633.874 249.675C633.685 250.103 633.591 250.605 633.591 251.182C633.591 251.772 633.684 252.286 633.869 252.723C634.058 253.161 634.323 253.5 634.665 253.742C635.009 253.984 635.414 254.105 635.878 254.105C636.183 254.105 636.459 254.052 636.708 253.946C636.957 253.84 637.167 253.688 637.339 253.489C637.512 253.29 637.634 253.051 637.707 252.773H638.881C638.814 253.223 638.65 253.629 638.388 253.991C638.13 254.349 637.787 254.634 637.359 254.846C636.935 255.055 636.441 255.159 635.878 255.159ZM642.843 255.179C642.359 255.179 641.92 255.088 641.526 254.906C641.131 254.72 640.818 254.453 640.586 254.105C640.354 253.754 640.238 253.33 640.238 252.832C640.238 252.395 640.324 252.04 640.496 251.768C640.669 251.493 640.899 251.278 641.187 251.122C641.476 250.966 641.794 250.85 642.142 250.774C642.493 250.695 642.846 250.632 643.201 250.585C643.665 250.526 644.041 250.481 644.33 250.451C644.621 250.418 644.833 250.363 644.966 250.287C645.102 250.211 645.17 250.078 645.17 249.889V249.849C645.17 249.359 645.035 248.978 644.767 248.706C644.502 248.434 644.099 248.298 643.559 248.298C642.999 248.298 642.56 248.421 642.241 248.666C641.923 248.911 641.7 249.173 641.57 249.452L640.457 249.054C640.655 248.59 640.921 248.229 641.252 247.97C641.587 247.708 641.951 247.526 642.346 247.423C642.744 247.317 643.135 247.264 643.519 247.264C643.764 247.264 644.046 247.294 644.364 247.354C644.686 247.41 644.996 247.528 645.294 247.707C645.596 247.886 645.846 248.156 646.045 248.517C646.244 248.878 646.343 249.362 646.343 249.969V255H645.17V253.966H645.11C645.03 254.132 644.898 254.309 644.712 254.498C644.527 254.687 644.28 254.848 643.972 254.98C643.663 255.113 643.287 255.179 642.843 255.179ZM643.022 254.125C643.486 254.125 643.877 254.034 644.195 253.852C644.517 253.669 644.759 253.434 644.921 253.146C645.087 252.857 645.17 252.554 645.17 252.236V251.162C645.12 251.222 645.011 251.276 644.842 251.326C644.676 251.372 644.484 251.414 644.265 251.45C644.049 251.483 643.839 251.513 643.633 251.54C643.431 251.563 643.267 251.583 643.141 251.599C642.836 251.639 642.551 251.704 642.286 251.793C642.024 251.879 641.812 252.01 641.65 252.186C641.491 252.358 641.411 252.594 641.411 252.892C641.411 253.3 641.562 253.608 641.864 253.817C642.169 254.022 642.555 254.125 643.022 254.125ZM648.485 255V247.364H649.618V248.517H649.698C649.837 248.139 650.089 247.833 650.453 247.597C650.818 247.362 651.229 247.244 651.686 247.244C651.772 247.244 651.88 247.246 652.009 247.249C652.139 247.253 652.236 247.258 652.303 247.264V248.457C652.263 248.447 652.172 248.433 652.029 248.413C651.89 248.389 651.743 248.378 651.587 248.378C651.216 248.378 650.884 248.456 650.592 248.612C650.304 248.764 650.075 248.976 649.906 249.248C649.741 249.516 649.658 249.823 649.658 250.168V255H648.485ZM656.345 255.159C655.708 255.159 655.146 254.998 654.659 254.677C654.172 254.352 653.791 253.895 653.516 253.305C653.241 252.711 653.103 252.01 653.103 251.202C653.103 250.4 653.241 249.704 653.516 249.114C653.791 248.524 654.174 248.068 654.664 247.746C655.155 247.425 655.721 247.264 656.364 247.264C656.862 247.264 657.254 247.347 657.543 247.513C657.834 247.675 658.056 247.861 658.209 248.07C658.365 248.275 658.486 248.444 658.572 248.577H658.671V244.818H659.845V255H658.711V253.827H658.572C658.486 253.966 658.363 254.142 658.204 254.354C658.045 254.562 657.818 254.75 657.523 254.915C657.228 255.078 656.835 255.159 656.345 255.159ZM656.504 254.105C656.974 254.105 657.372 253.982 657.697 253.737C658.022 253.489 658.269 253.146 658.438 252.708C658.607 252.267 658.691 251.759 658.691 251.182C658.691 250.612 658.608 250.113 658.443 249.685C658.277 249.254 658.032 248.92 657.707 248.681C657.382 248.439 656.981 248.318 656.504 248.318C656.007 248.318 655.592 248.446 655.261 248.701C654.933 248.953 654.686 249.296 654.52 249.73C654.358 250.161 654.276 250.645 654.276 251.182C654.276 251.725 654.359 252.219 654.525 252.663C654.694 253.104 654.943 253.455 655.271 253.717C655.602 253.976 656.013 254.105 656.504 254.105ZM667.905 255V256.094H661.541V255H667.905ZM670.138 250.406V255H668.965V244.818H670.138V248.557H670.238C670.417 248.162 670.685 247.849 671.043 247.617C671.404 247.382 671.885 247.264 672.485 247.264C673.005 247.264 673.461 247.369 673.852 247.577C674.243 247.783 674.546 248.099 674.762 248.527C674.981 248.951 675.09 249.491 675.09 250.148V255H673.917V250.227C673.917 249.621 673.759 249.152 673.444 248.82C673.133 248.486 672.7 248.318 672.147 248.318C671.762 248.318 671.418 248.399 671.113 248.562C670.811 248.724 670.572 248.961 670.397 249.273C670.224 249.584 670.138 249.962 670.138 250.406ZM680.339 255.159C679.649 255.159 679.044 254.995 678.524 254.667C678.007 254.339 677.603 253.88 677.311 253.29C677.023 252.7 676.879 252.01 676.879 251.222C676.879 250.426 677.023 249.732 677.311 249.138C677.603 248.545 678.007 248.085 678.524 247.756C679.044 247.428 679.649 247.264 680.339 247.264C681.028 247.264 681.631 247.428 682.148 247.756C682.669 248.085 683.073 248.545 683.361 249.138C683.653 249.732 683.799 250.426 683.799 251.222C683.799 252.01 683.653 252.7 683.361 253.29C683.073 253.88 682.669 254.339 682.148 254.667C681.631 254.995 681.028 255.159 680.339 255.159ZM680.339 254.105C680.862 254.105 681.293 253.971 681.631 253.702C681.969 253.434 682.22 253.081 682.382 252.643C682.544 252.206 682.626 251.732 682.626 251.222C682.626 250.711 682.544 250.236 682.382 249.795C682.22 249.354 681.969 248.998 681.631 248.726C681.293 248.454 680.862 248.318 680.339 248.318C679.815 248.318 679.384 248.454 679.046 248.726C678.708 248.998 678.458 249.354 678.295 249.795C678.133 250.236 678.052 250.711 678.052 251.222C678.052 251.732 678.133 252.206 678.295 252.643C678.458 253.081 678.708 253.434 679.046 253.702C679.384 253.971 679.815 254.105 680.339 254.105ZM686.763 244.818V255H685.59V244.818H686.763ZM691.796 255.159C691.159 255.159 690.598 254.998 690.11 254.677C689.623 254.352 689.242 253.895 688.967 253.305C688.692 252.711 688.554 252.01 688.554 251.202C688.554 250.4 688.692 249.704 688.967 249.114C689.242 248.524 689.625 248.068 690.115 247.746C690.606 247.425 691.173 247.264 691.816 247.264C692.313 247.264 692.706 247.347 692.994 247.513C693.286 247.675 693.508 247.861 693.66 248.07C693.816 248.275 693.937 248.444 694.023 248.577H694.122V244.818H695.296V255H694.162V253.827H694.023C693.937 253.966 693.814 254.142 693.655 254.354C693.496 254.562 693.269 254.75 692.974 254.915C692.679 255.078 692.286 255.159 691.796 255.159ZM691.955 254.105C692.426 254.105 692.823 253.982 693.148 253.737C693.473 253.489 693.72 253.146 693.889 252.708C694.058 252.267 694.142 251.759 694.142 251.182C694.142 250.612 694.059 250.113 693.894 249.685C693.728 249.254 693.483 248.92 693.158 248.681C692.833 248.439 692.432 248.318 691.955 248.318C691.458 248.318 691.043 248.446 690.712 248.701C690.384 248.953 690.137 249.296 689.971 249.73C689.809 250.161 689.728 250.645 689.728 251.182C689.728 251.725 689.81 252.219 689.976 252.663C690.145 253.104 690.394 253.455 690.722 253.717C691.053 253.976 691.464 254.105 691.955 254.105ZM700.809 255.159C700.073 255.159 699.439 254.997 698.905 254.672C698.375 254.344 697.966 253.886 697.677 253.3C697.392 252.71 697.25 252.024 697.25 251.241C697.25 250.459 697.392 249.77 697.677 249.173C697.966 248.573 698.367 248.106 698.88 247.771C699.397 247.433 700.001 247.264 700.69 247.264C701.088 247.264 701.48 247.33 701.868 247.463C702.256 247.596 702.609 247.811 702.927 248.109C703.245 248.404 703.499 248.795 703.688 249.283C703.877 249.77 703.971 250.37 703.971 251.082V251.58H698.085V250.565H702.778C702.778 250.134 702.692 249.75 702.519 249.412C702.35 249.074 702.109 248.807 701.794 248.612C701.482 248.416 701.114 248.318 700.69 248.318C700.223 248.318 699.818 248.434 699.477 248.666C699.139 248.895 698.879 249.193 698.696 249.561C698.514 249.929 698.423 250.323 698.423 250.744V251.42C698.423 251.997 698.522 252.486 698.721 252.887C698.923 253.285 699.203 253.588 699.561 253.797C699.919 254.002 700.335 254.105 700.809 254.105C701.117 254.105 701.396 254.062 701.644 253.976C701.896 253.886 702.113 253.754 702.296 253.578C702.478 253.399 702.619 253.177 702.718 252.912L703.852 253.23C703.733 253.615 703.532 253.953 703.25 254.244C702.969 254.533 702.621 254.758 702.206 254.92C701.792 255.08 701.326 255.159 700.809 255.159ZM705.756 255V247.364H706.89V248.517H706.969C707.108 248.139 707.36 247.833 707.725 247.597C708.089 247.362 708.5 247.244 708.958 247.244C709.044 247.244 709.152 247.246 709.281 247.249C709.41 247.253 709.508 247.258 709.574 247.264V248.457C709.534 248.447 709.443 248.433 709.301 248.413C709.162 248.389 709.014 248.378 708.858 248.378C708.487 248.378 708.156 248.456 707.864 248.612C707.576 248.764 707.347 248.976 707.178 249.248C707.012 249.516 706.929 249.823 706.929 250.168V255H705.756Z" fill="black"/>
<path d="M566.545 428.364L563.721 436H562.528L559.704 428.364H560.977L563.085 434.449H563.165L565.273 428.364H566.545ZM568.074 436V435.105L571.435 431.426C571.829 430.995 572.154 430.621 572.409 430.303C572.664 429.981 572.853 429.679 572.976 429.398C573.102 429.113 573.165 428.814 573.165 428.503C573.165 428.145 573.079 427.835 572.906 427.573C572.737 427.311 572.505 427.109 572.21 426.967C571.915 426.824 571.584 426.753 571.216 426.753C570.825 426.753 570.484 426.834 570.192 426.996C569.904 427.156 569.68 427.379 569.521 427.668C569.365 427.956 569.287 428.294 569.287 428.682H568.114C568.114 428.085 568.251 427.562 568.526 427.111C568.802 426.66 569.176 426.309 569.65 426.057C570.127 425.805 570.663 425.679 571.256 425.679C571.852 425.679 572.381 425.805 572.842 426.057C573.302 426.309 573.664 426.648 573.926 427.076C574.187 427.504 574.318 427.979 574.318 428.503C574.318 428.877 574.25 429.244 574.114 429.602C573.982 429.956 573.75 430.352 573.418 430.79C573.09 431.224 572.635 431.754 572.051 432.381L569.764 434.827V434.906H574.497V436H568.074ZM580.17 425.341L576.889 437.531H575.815L579.096 425.341H580.17ZM581.561 436V428.364H582.734V436H581.561ZM582.157 427.091C581.929 427.091 581.731 427.013 581.566 426.857C581.403 426.701 581.322 426.514 581.322 426.295C581.322 426.077 581.403 425.889 581.566 425.734C581.731 425.578 581.929 425.5 582.157 425.5C582.386 425.5 582.582 425.578 582.744 425.734C582.91 425.889 582.992 426.077 582.992 426.295C582.992 426.514 582.91 426.701 582.744 426.857C582.582 427.013 582.386 427.091 582.157 427.091ZM590.292 430.074L589.238 430.372C589.172 430.196 589.074 430.026 588.945 429.86C588.819 429.691 588.646 429.552 588.428 429.442C588.209 429.333 587.929 429.278 587.587 429.278C587.12 429.278 586.731 429.386 586.419 429.602C586.111 429.814 585.957 430.084 585.957 430.412C585.957 430.704 586.063 430.934 586.275 431.103C586.487 431.272 586.819 431.413 587.269 431.526L588.403 431.804C589.086 431.97 589.594 432.223 589.929 432.565C590.264 432.903 590.431 433.339 590.431 433.872C590.431 434.31 590.305 434.701 590.053 435.045C589.805 435.39 589.457 435.662 589.009 435.861C588.562 436.06 588.042 436.159 587.448 436.159C586.669 436.159 586.025 435.99 585.514 435.652C585.004 435.314 584.681 434.82 584.545 434.17L585.659 433.892C585.765 434.303 585.965 434.611 586.26 434.817C586.558 435.022 586.948 435.125 587.428 435.125C587.975 435.125 588.409 435.009 588.731 434.777C589.056 434.542 589.218 434.26 589.218 433.932C589.218 433.667 589.125 433.445 588.94 433.266C588.754 433.083 588.469 432.947 588.085 432.858L586.812 432.56C586.113 432.394 585.599 432.137 585.271 431.789C584.946 431.438 584.784 430.999 584.784 430.472C584.784 430.041 584.904 429.66 585.146 429.328C585.392 428.997 585.725 428.737 586.146 428.548C586.57 428.359 587.051 428.264 587.587 428.264C588.343 428.264 588.936 428.43 589.367 428.761C589.802 429.093 590.11 429.53 590.292 430.074ZM597.606 430.074L596.553 430.372C596.486 430.196 596.388 430.026 596.259 429.86C596.133 429.691 595.961 429.552 595.742 429.442C595.523 429.333 595.243 429.278 594.902 429.278C594.435 429.278 594.045 429.386 593.734 429.602C593.425 429.814 593.271 430.084 593.271 430.412C593.271 430.704 593.377 430.934 593.589 431.103C593.802 431.272 594.133 431.413 594.584 431.526L595.717 431.804C596.4 431.97 596.909 432.223 597.244 432.565C597.578 432.903 597.746 433.339 597.746 433.872C597.746 434.31 597.62 434.701 597.368 435.045C597.119 435.39 596.771 435.662 596.324 435.861C595.876 436.06 595.356 436.159 594.763 436.159C593.984 436.159 593.339 435.99 592.829 435.652C592.318 435.314 591.995 434.82 591.859 434.17L592.973 433.892C593.079 434.303 593.28 434.611 593.575 434.817C593.873 435.022 594.262 435.125 594.743 435.125C595.29 435.125 595.724 435.009 596.045 434.777C596.37 434.542 596.533 434.26 596.533 433.932C596.533 433.667 596.44 433.445 596.254 433.266C596.069 433.083 595.784 432.947 595.399 432.858L594.126 432.56C593.427 432.394 592.913 432.137 592.585 431.789C592.26 431.438 592.098 430.999 592.098 430.472C592.098 430.041 592.219 429.66 592.461 429.328C592.706 428.997 593.039 428.737 593.46 428.548C593.884 428.359 594.365 428.264 594.902 428.264C595.658 428.264 596.251 428.43 596.682 428.761C597.116 429.093 597.424 429.53 597.606 430.074ZM604.324 432.878V428.364H605.498V436H604.324V434.707H604.245C604.066 435.095 603.787 435.425 603.41 435.697C603.032 435.965 602.554 436.099 601.978 436.099C601.5 436.099 601.076 435.995 600.705 435.786C600.334 435.574 600.042 435.256 599.83 434.832C599.618 434.404 599.512 433.866 599.512 433.216V428.364H600.685V433.136C600.685 433.693 600.841 434.137 601.152 434.469C601.467 434.8 601.868 434.966 602.356 434.966C602.647 434.966 602.944 434.891 603.246 434.742C603.55 434.593 603.806 434.364 604.011 434.056C604.22 433.748 604.324 433.355 604.324 432.878ZM607.647 436V428.364H608.82V436H607.647ZM608.243 427.091C608.015 427.091 607.817 427.013 607.652 426.857C607.489 426.701 607.408 426.514 607.408 426.295C607.408 426.077 607.489 425.889 607.652 425.734C607.817 425.578 608.015 425.5 608.243 425.5C608.472 425.5 608.667 425.578 608.83 425.734C608.996 425.889 609.078 426.077 609.078 426.295C609.078 426.514 608.996 426.701 608.83 426.857C608.667 427.013 608.472 427.091 608.243 427.091ZM612.142 431.406V436H610.969V428.364H612.102V429.557H612.202C612.381 429.169 612.653 428.857 613.017 428.622C613.382 428.384 613.852 428.264 614.429 428.264C614.946 428.264 615.399 428.37 615.786 428.582C616.174 428.791 616.476 429.109 616.691 429.537C616.907 429.961 617.014 430.498 617.014 431.148V436H615.841V431.227C615.841 430.627 615.685 430.16 615.374 429.825C615.062 429.487 614.635 429.318 614.091 429.318C613.717 429.318 613.382 429.399 613.087 429.562C612.795 429.724 612.565 429.961 612.396 430.273C612.227 430.584 612.142 430.962 612.142 431.406ZM622.241 439.023C621.674 439.023 621.187 438.95 620.779 438.804C620.371 438.661 620.032 438.473 619.76 438.237C619.491 438.005 619.278 437.757 619.119 437.491L620.053 436.835C620.159 436.974 620.294 437.134 620.456 437.312C620.618 437.495 620.84 437.652 621.122 437.785C621.407 437.921 621.78 437.989 622.241 437.989C622.857 437.989 623.366 437.839 623.767 437.541C624.168 437.243 624.369 436.776 624.369 436.139V434.588H624.269C624.183 434.727 624.06 434.9 623.901 435.105C623.745 435.307 623.52 435.488 623.225 435.647C622.933 435.803 622.539 435.881 622.042 435.881C621.425 435.881 620.872 435.735 620.381 435.443C619.894 435.152 619.508 434.727 619.223 434.17C618.941 433.614 618.8 432.937 618.8 432.142C618.8 431.36 618.938 430.679 619.213 430.099C619.488 429.515 619.871 429.065 620.361 428.746C620.852 428.425 621.419 428.264 622.062 428.264C622.559 428.264 622.953 428.347 623.245 428.513C623.54 428.675 623.765 428.861 623.921 429.07C624.08 429.275 624.203 429.444 624.289 429.577H624.408V428.364H625.542V436.219C625.542 436.875 625.393 437.409 625.094 437.82C624.799 438.234 624.402 438.537 623.901 438.729C623.404 438.925 622.851 439.023 622.241 439.023ZM622.201 434.827C622.672 434.827 623.069 434.719 623.394 434.504C623.719 434.288 623.966 433.978 624.135 433.574C624.304 433.17 624.388 432.686 624.388 432.122C624.388 431.572 624.306 431.086 624.14 430.665C623.974 430.245 623.729 429.915 623.404 429.676C623.079 429.437 622.678 429.318 622.201 429.318C621.704 429.318 621.289 429.444 620.958 429.696C620.63 429.948 620.383 430.286 620.217 430.71C620.055 431.134 619.974 431.605 619.974 432.122C619.974 432.652 620.057 433.121 620.222 433.529C620.391 433.933 620.64 434.252 620.968 434.484C621.299 434.712 621.71 434.827 622.201 434.827ZM631.289 425.341L628.008 437.531H626.934L630.215 425.341H631.289ZM635.782 436.159C635.066 436.159 634.45 435.99 633.933 435.652C633.416 435.314 633.018 434.848 632.739 434.255C632.461 433.662 632.322 432.984 632.322 432.222C632.322 431.446 632.464 430.762 632.749 430.168C633.038 429.572 633.439 429.106 633.953 428.771C634.47 428.433 635.073 428.264 635.762 428.264C636.299 428.264 636.783 428.364 637.214 428.562C637.645 428.761 637.998 429.04 638.273 429.398C638.548 429.756 638.719 430.173 638.785 430.651H637.612C637.522 430.303 637.323 429.994 637.015 429.726C636.71 429.454 636.299 429.318 635.782 429.318C635.325 429.318 634.924 429.437 634.579 429.676C634.238 429.911 633.971 430.245 633.779 430.675C633.59 431.103 633.495 431.605 633.495 432.182C633.495 432.772 633.588 433.286 633.774 433.723C633.962 434.161 634.228 434.5 634.569 434.742C634.914 434.984 635.318 435.105 635.782 435.105C636.087 435.105 636.364 435.052 636.612 434.946C636.861 434.84 637.071 434.688 637.244 434.489C637.416 434.29 637.539 434.051 637.612 433.773H638.785C638.719 434.223 638.555 434.629 638.293 434.991C638.034 435.349 637.691 435.634 637.264 435.846C636.839 436.055 636.346 436.159 635.782 436.159ZM642.747 436.179C642.263 436.179 641.824 436.088 641.43 435.906C641.035 435.72 640.722 435.453 640.49 435.105C640.258 434.754 640.142 434.33 640.142 433.832C640.142 433.395 640.228 433.04 640.401 432.768C640.573 432.493 640.803 432.278 641.092 432.122C641.38 431.966 641.698 431.85 642.046 431.774C642.398 431.695 642.751 431.632 643.105 431.585C643.569 431.526 643.945 431.481 644.234 431.451C644.525 431.418 644.738 431.363 644.87 431.287C645.006 431.211 645.074 431.078 645.074 430.889V430.849C645.074 430.359 644.94 429.978 644.671 429.706C644.406 429.434 644.003 429.298 643.463 429.298C642.903 429.298 642.464 429.421 642.146 429.666C641.828 429.911 641.604 430.173 641.475 430.452L640.361 430.054C640.56 429.59 640.825 429.229 641.156 428.97C641.491 428.708 641.856 428.526 642.25 428.423C642.648 428.317 643.039 428.264 643.423 428.264C643.669 428.264 643.95 428.294 644.269 428.354C644.59 428.41 644.9 428.528 645.198 428.707C645.5 428.886 645.75 429.156 645.949 429.517C646.148 429.878 646.247 430.362 646.247 430.969V436H645.074V434.966H645.014C644.935 435.132 644.802 435.309 644.617 435.498C644.431 435.687 644.184 435.848 643.876 435.98C643.568 436.113 643.191 436.179 642.747 436.179ZM642.926 435.125C643.39 435.125 643.781 435.034 644.1 434.852C644.421 434.669 644.663 434.434 644.825 434.146C644.991 433.857 645.074 433.554 645.074 433.236V432.162C645.024 432.222 644.915 432.276 644.746 432.326C644.58 432.372 644.388 432.414 644.169 432.45C643.954 432.483 643.743 432.513 643.538 432.54C643.336 432.563 643.172 432.583 643.046 432.599C642.741 432.639 642.456 432.704 642.19 432.793C641.929 432.879 641.717 433.01 641.554 433.186C641.395 433.358 641.315 433.594 641.315 433.892C641.315 434.3 641.466 434.608 641.768 434.817C642.073 435.022 642.459 435.125 642.926 435.125ZM648.389 436V428.364H649.522V429.517H649.602C649.741 429.139 649.993 428.833 650.358 428.597C650.722 428.362 651.133 428.244 651.591 428.244C651.677 428.244 651.784 428.246 651.914 428.249C652.043 428.253 652.141 428.258 652.207 428.264V429.457C652.167 429.447 652.076 429.433 651.934 429.413C651.794 429.389 651.647 429.378 651.491 429.378C651.12 429.378 650.788 429.456 650.497 429.612C650.208 429.764 649.98 429.976 649.811 430.248C649.645 430.516 649.562 430.823 649.562 431.168V436H648.389ZM656.249 436.159C655.613 436.159 655.051 435.998 654.564 435.677C654.076 435.352 653.695 434.895 653.42 434.305C653.145 433.711 653.007 433.01 653.007 432.202C653.007 431.4 653.145 430.704 653.42 430.114C653.695 429.524 654.078 429.068 654.568 428.746C655.059 428.425 655.626 428.264 656.269 428.264C656.766 428.264 657.159 428.347 657.447 428.513C657.739 428.675 657.961 428.861 658.113 429.07C658.269 429.275 658.39 429.444 658.476 429.577H658.576V425.818H659.749V436H658.615V434.827H658.476C658.39 434.966 658.267 435.142 658.108 435.354C657.949 435.562 657.722 435.75 657.427 435.915C657.132 436.078 656.739 436.159 656.249 436.159ZM656.408 435.105C656.879 435.105 657.276 434.982 657.601 434.737C657.926 434.489 658.173 434.146 658.342 433.708C658.511 433.267 658.595 432.759 658.595 432.182C658.595 431.612 658.513 431.113 658.347 430.685C658.181 430.254 657.936 429.92 657.611 429.681C657.286 429.439 656.885 429.318 656.408 429.318C655.911 429.318 655.497 429.446 655.165 429.701C654.837 429.953 654.59 430.296 654.424 430.73C654.262 431.161 654.181 431.645 654.181 432.182C654.181 432.725 654.264 433.219 654.429 433.663C654.598 434.104 654.847 434.455 655.175 434.717C655.506 434.976 655.917 435.105 656.408 435.105Z" fill="black"/>
<rect x="331.658" y="195.227" width="199" height="108.546" rx="3.5" fill="white"/>
<rect x="331.658" y="195.227" width="199" height="108.546" rx="3.5" stroke="#D6D3D1"/>
<mask id="mask0_9151_11679" style="mask-type:alpha" maskUnits="userSpaceOnUse" x="351" y="218" width="27" height="28">
<rect x="351.158" y="218.727" width="26.5464" height="26.5464" fill="#D9D9D9"/>
</mask>
<g mask="url(#mask0_9151_11679)">
<path d="M356.688 238.471C357.684 237.494 358.841 236.724 360.159 236.162C361.477 235.6 362.901 235.318 364.431 235.318C365.961 235.318 367.385 235.6 368.703 236.162C370.021 236.724 371.178 237.494 372.174 238.471V224.257H356.688V238.471ZM364.431 233.106C365.5 233.106 366.413 232.728 367.169 231.972C367.924 231.217 368.302 230.304 368.302 229.235C368.302 228.166 367.924 227.253 367.169 226.497C366.413 225.741 365.5 225.363 364.431 225.363C363.362 225.363 362.449 225.741 361.693 226.497C360.938 227.253 360.56 228.166 360.56 229.235C360.56 230.304 360.938 231.217 361.693 231.972C362.449 232.728 363.362 233.106 364.431 233.106ZM354.476 241.955V222.045H374.386V241.955H354.476ZM358.9 239.743H369.961V239.466C369.187 238.821 368.33 238.337 367.39 238.015C366.45 237.692 365.463 237.531 364.431 237.531C363.399 237.531 362.412 237.692 361.472 238.015C360.532 238.337 359.675 238.821 358.9 239.466V239.743ZM364.431 230.894C363.97 230.894 363.578 230.733 363.256 230.41C362.933 230.087 362.772 229.696 362.772 229.235C362.772 228.774 362.933 228.382 363.256 228.06C363.578 227.737 363.97 227.576 364.431 227.576C364.892 227.576 365.284 227.737 365.606 228.06C365.929 228.382 366.09 228.774 366.09 229.235C366.09 229.696 365.929 230.087 365.606 230.41C365.284 230.733 364.892 230.894 364.431 230.894Z" fill="#16A34A"/>
</g>
<path d="M362.101 268.421H360.328C360.26 268.042 360.133 267.709 359.947 267.421C359.762 267.133 359.535 266.889 359.266 266.688C358.997 266.487 358.696 266.336 358.362 266.233C358.033 266.131 357.682 266.08 357.311 266.08C356.641 266.08 356.04 266.249 355.51 266.586C354.983 266.923 354.567 267.417 354.26 268.069C353.957 268.72 353.805 269.516 353.805 270.455C353.805 271.402 353.957 272.201 354.26 272.853C354.567 273.504 354.985 273.997 355.516 274.33C356.046 274.663 356.643 274.83 357.305 274.83C357.673 274.83 358.021 274.781 358.351 274.682C358.684 274.58 358.985 274.43 359.254 274.233C359.523 274.036 359.751 273.796 359.936 273.512C360.126 273.224 360.256 272.894 360.328 272.523L362.101 272.529C362.006 273.101 361.822 273.627 361.55 274.108C361.281 274.586 360.934 274.999 360.51 275.347C360.09 275.692 359.608 275.959 359.067 276.148C358.525 276.338 357.934 276.432 357.294 276.432C356.287 276.432 355.389 276.194 354.601 275.716C353.813 275.235 353.192 274.548 352.737 273.654C352.287 272.76 352.061 271.694 352.061 270.455C352.061 269.213 352.288 268.146 352.743 267.256C353.197 266.362 353.819 265.677 354.607 265.199C355.394 264.718 356.29 264.478 357.294 264.478C357.912 264.478 358.487 264.567 359.021 264.745C359.559 264.919 360.042 265.177 360.47 265.518C360.898 265.855 361.252 266.268 361.533 266.756C361.813 267.241 362.002 267.796 362.101 268.421ZM366.605 276.466C366.052 276.466 365.552 276.364 365.105 276.16C364.658 275.951 364.304 275.65 364.043 275.256C363.785 274.862 363.656 274.379 363.656 273.807C363.656 273.315 363.751 272.91 363.94 272.591C364.13 272.273 364.385 272.021 364.707 271.836C365.029 271.65 365.389 271.51 365.787 271.415C366.185 271.321 366.59 271.249 367.003 271.199C367.526 271.139 367.95 271.089 368.276 271.052C368.601 271.01 368.838 270.944 368.986 270.853C369.134 270.762 369.207 270.614 369.207 270.41V270.37C369.207 269.874 369.067 269.489 368.787 269.216C368.51 268.944 368.098 268.807 367.548 268.807C366.976 268.807 366.526 268.934 366.196 269.188C365.87 269.438 365.645 269.716 365.52 270.023L363.923 269.66C364.113 269.129 364.389 268.701 364.753 268.375C365.12 268.046 365.543 267.807 366.02 267.66C366.497 267.508 366.999 267.432 367.526 267.432C367.874 267.432 368.243 267.474 368.634 267.557C369.028 267.637 369.395 267.785 369.736 268C370.081 268.216 370.363 268.525 370.582 268.927C370.802 269.324 370.912 269.841 370.912 270.478V276.273H369.253V275.08H369.185C369.075 275.3 368.91 275.516 368.69 275.728C368.471 275.94 368.188 276.116 367.844 276.256C367.499 276.396 367.086 276.466 366.605 276.466ZM366.974 275.103C367.444 275.103 367.846 275.01 368.179 274.824C368.516 274.639 368.772 274.396 368.946 274.097C369.124 273.794 369.213 273.47 369.213 273.125V272C369.153 272.061 369.035 272.118 368.861 272.171C368.69 272.22 368.495 272.264 368.276 272.302C368.056 272.336 367.842 272.368 367.634 272.398C367.425 272.425 367.251 272.447 367.111 272.466C366.781 272.508 366.48 272.578 366.207 272.677C365.938 272.775 365.723 272.917 365.56 273.103C365.401 273.285 365.321 273.527 365.321 273.83C365.321 274.25 365.476 274.569 365.787 274.785C366.098 274.997 366.493 275.103 366.974 275.103ZM373.175 276.273V267.546H374.817V268.932H374.908C375.067 268.463 375.347 268.093 375.749 267.824C376.154 267.552 376.612 267.415 377.124 267.415C377.23 267.415 377.355 267.419 377.499 267.427C377.646 267.434 377.762 267.444 377.845 267.455V269.08C377.777 269.061 377.656 269.04 377.482 269.018C377.307 268.991 377.133 268.978 376.959 268.978C376.557 268.978 376.199 269.063 375.885 269.233C375.574 269.4 375.328 269.633 375.146 269.932C374.965 270.228 374.874 270.565 374.874 270.944V276.273H373.175ZM382.27 276.444C381.565 276.444 380.937 276.264 380.384 275.904C379.834 275.54 379.403 275.023 379.088 274.353C378.778 273.678 378.622 272.87 378.622 271.927C378.622 270.983 378.779 270.177 379.094 269.506C379.412 268.836 379.848 268.322 380.401 267.966C380.954 267.61 381.581 267.432 382.281 267.432C382.823 267.432 383.259 267.523 383.588 267.705C383.921 267.883 384.179 268.091 384.361 268.33C384.546 268.569 384.69 268.779 384.793 268.961H384.895V264.637H386.594V276.273H384.935V274.915H384.793C384.69 275.101 384.543 275.313 384.349 275.552C384.16 275.79 383.899 275.999 383.565 276.177C383.232 276.355 382.8 276.444 382.27 276.444ZM382.645 274.995C383.134 274.995 383.546 274.866 383.884 274.608C384.224 274.347 384.482 273.985 384.656 273.523C384.834 273.061 384.923 272.523 384.923 271.91C384.923 271.303 384.836 270.773 384.662 270.319C384.488 269.864 384.232 269.51 383.895 269.256C383.558 269.002 383.141 268.875 382.645 268.875C382.134 268.875 381.707 269.008 381.367 269.273C381.026 269.538 380.768 269.9 380.594 270.358C380.423 270.817 380.338 271.334 380.338 271.91C380.338 272.493 380.425 273.018 380.599 273.483C380.774 273.949 381.031 274.319 381.372 274.591C381.717 274.86 382.141 274.995 382.645 274.995ZM393.389 276.273V264.637H395.145V269.694H400.946V264.637H402.707V276.273H400.946V271.199H395.145V276.273H393.389ZM408.804 276.449C407.986 276.449 407.272 276.262 406.662 275.887C406.052 275.512 405.579 274.987 405.242 274.313C404.904 273.639 404.736 272.851 404.736 271.949C404.736 271.044 404.904 270.252 405.242 269.574C405.579 268.896 406.052 268.37 406.662 267.995C407.272 267.62 407.986 267.432 408.804 267.432C409.622 267.432 410.336 267.62 410.946 267.995C411.556 268.37 412.029 268.896 412.367 269.574C412.704 270.252 412.872 271.044 412.872 271.949C412.872 272.851 412.704 273.639 412.367 274.313C412.029 274.987 411.556 275.512 410.946 275.887C410.336 276.262 409.622 276.449 408.804 276.449ZM408.81 275.023C409.34 275.023 409.779 274.883 410.128 274.603C410.476 274.322 410.734 273.949 410.901 273.483C411.071 273.018 411.156 272.504 411.156 271.944C411.156 271.387 411.071 270.875 410.901 270.41C410.734 269.94 410.476 269.563 410.128 269.279C409.779 268.995 409.34 268.853 408.81 268.853C408.276 268.853 407.832 268.995 407.48 269.279C407.132 269.563 406.872 269.94 406.702 270.41C406.535 270.875 406.452 271.387 406.452 271.944C406.452 272.504 406.535 273.018 406.702 273.483C406.872 273.949 407.132 274.322 407.48 274.603C407.832 274.883 408.276 275.023 408.81 275.023ZM416.467 264.637V276.273H414.769V264.637H416.467ZM422.02 276.444C421.315 276.444 420.687 276.264 420.134 275.904C419.584 275.54 419.153 275.023 418.838 274.353C418.528 273.678 418.372 272.87 418.372 271.927C418.372 270.983 418.529 270.177 418.844 269.506C419.162 268.836 419.598 268.322 420.151 267.966C420.704 267.61 421.331 267.432 422.031 267.432C422.573 267.432 423.009 267.523 423.338 267.705C423.671 267.883 423.929 268.091 424.111 268.33C424.296 268.569 424.44 268.779 424.543 268.961H424.645V264.637H426.344V276.273H424.685V274.915H424.543C424.44 275.101 424.293 275.313 424.099 275.552C423.91 275.79 423.649 275.999 423.315 276.177C422.982 276.355 422.55 276.444 422.02 276.444ZM422.395 274.995C422.884 274.995 423.296 274.866 423.634 274.608C423.974 274.347 424.232 273.985 424.406 273.523C424.584 273.061 424.673 272.523 424.673 271.91C424.673 271.303 424.586 270.773 424.412 270.319C424.238 269.864 423.982 269.51 423.645 269.256C423.308 269.002 422.891 268.875 422.395 268.875C421.884 268.875 421.457 269.008 421.117 269.273C420.776 269.538 420.518 269.9 420.344 270.358C420.173 270.817 420.088 271.334 420.088 271.91C420.088 272.493 420.175 273.018 420.349 273.483C420.524 273.949 420.781 274.319 421.122 274.591C421.467 274.86 421.891 274.995 422.395 274.995ZM432.53 276.449C431.67 276.449 430.929 276.266 430.308 275.898C429.691 275.527 429.214 275.006 428.876 274.336C428.543 273.661 428.376 272.872 428.376 271.966C428.376 271.072 428.543 270.285 428.876 269.603C429.214 268.921 429.683 268.389 430.286 268.006C430.892 267.624 431.6 267.432 432.411 267.432C432.903 267.432 433.38 267.514 433.842 267.677C434.304 267.839 434.719 268.095 435.087 268.444C435.454 268.792 435.744 269.245 435.956 269.802C436.168 270.355 436.274 271.027 436.274 271.819V272.421H429.337V271.148H434.609C434.609 270.701 434.519 270.305 434.337 269.961C434.155 269.612 433.899 269.338 433.57 269.137C433.244 268.936 432.861 268.836 432.422 268.836C431.945 268.836 431.528 268.953 431.172 269.188C430.82 269.419 430.547 269.722 430.354 270.097C430.164 270.468 430.07 270.872 430.07 271.307V272.302C430.07 272.885 430.172 273.381 430.376 273.79C430.585 274.199 430.875 274.512 431.246 274.728C431.617 274.94 432.051 275.046 432.547 275.046C432.869 275.046 433.162 275 433.428 274.91C433.693 274.815 433.922 274.675 434.115 274.489C434.308 274.303 434.456 274.074 434.558 273.802L436.166 274.091C436.037 274.565 435.806 274.98 435.473 275.336C435.144 275.688 434.729 275.963 434.229 276.16C433.733 276.353 433.166 276.449 432.53 276.449ZM438.159 276.273V267.546H439.801V268.932H439.892C440.051 268.463 440.331 268.093 440.733 267.824C441.138 267.552 441.597 267.415 442.108 267.415C442.214 267.415 442.339 267.419 442.483 267.427C442.631 267.434 442.746 267.444 442.83 267.455V269.08C442.761 269.061 442.64 269.04 442.466 269.018C442.292 268.991 442.117 268.978 441.943 268.978C441.542 268.978 441.184 269.063 440.869 269.233C440.559 269.4 440.313 269.633 440.131 269.932C439.949 270.228 439.858 270.565 439.858 270.944V276.273H438.159ZM449.028 271.444C449.028 270.019 449.216 268.709 449.591 267.512C449.966 266.315 450.513 265.211 451.233 264.199H452.79C452.51 264.574 452.248 265.035 452.006 265.58C451.763 266.125 451.551 266.724 451.369 267.375C451.188 268.023 451.045 268.696 450.943 269.393C450.841 270.086 450.79 270.769 450.79 271.444C450.79 272.345 450.879 273.258 451.057 274.182C451.235 275.107 451.475 275.964 451.778 276.756C452.081 277.548 452.419 278.194 452.79 278.694H451.233C450.513 277.682 449.966 276.578 449.591 275.381C449.216 274.184 449.028 272.872 449.028 271.444ZM454.581 279.546V267.546H456.24V268.961H456.382C456.481 268.779 456.623 268.569 456.808 268.33C456.994 268.091 457.251 267.883 457.581 267.705C457.911 267.523 458.346 267.432 458.888 267.432C459.592 267.432 460.221 267.61 460.774 267.966C461.327 268.322 461.761 268.836 462.075 269.506C462.394 270.177 462.553 270.983 462.553 271.927C462.553 272.87 462.395 273.678 462.081 274.353C461.767 275.023 461.335 275.54 460.786 275.904C460.236 276.264 459.609 276.444 458.905 276.444C458.375 276.444 457.941 276.355 457.604 276.177C457.27 275.999 457.009 275.79 456.82 275.552C456.63 275.313 456.484 275.101 456.382 274.915H456.28V279.546H454.581ZM456.246 271.91C456.246 272.523 456.335 273.061 456.513 273.523C456.691 273.985 456.948 274.347 457.286 274.608C457.623 274.866 458.036 274.995 458.524 274.995C459.032 274.995 459.456 274.86 459.797 274.591C460.138 274.319 460.395 273.949 460.57 273.483C460.748 273.018 460.837 272.493 460.837 271.91C460.837 271.334 460.75 270.817 460.575 270.358C460.405 269.9 460.147 269.538 459.803 269.273C459.462 269.008 459.036 268.875 458.524 268.875C458.032 268.875 457.615 269.002 457.274 269.256C456.937 269.51 456.681 269.864 456.507 270.319C456.333 270.773 456.246 271.303 456.246 271.91ZM468.217 276.449C467.358 276.449 466.617 276.266 465.996 275.898C465.378 275.527 464.901 275.006 464.564 274.336C464.231 273.661 464.064 272.872 464.064 271.966C464.064 271.072 464.231 270.285 464.564 269.603C464.901 268.921 465.371 268.389 465.973 268.006C466.579 267.624 467.287 267.432 468.098 267.432C468.59 267.432 469.068 267.514 469.53 267.677C469.992 267.839 470.407 268.095 470.774 268.444C471.142 268.792 471.431 269.245 471.644 269.802C471.856 270.355 471.962 271.027 471.962 271.819V272.421H465.024V271.148H470.297C470.297 270.701 470.206 270.305 470.024 269.961C469.842 269.612 469.587 269.338 469.257 269.137C468.931 268.936 468.549 268.836 468.109 268.836C467.632 268.836 467.215 268.953 466.859 269.188C466.507 269.419 466.234 269.722 466.041 270.097C465.852 270.468 465.757 270.872 465.757 271.307V272.302C465.757 272.885 465.859 273.381 466.064 273.79C466.272 274.199 466.562 274.512 466.933 274.728C467.304 274.94 467.738 275.046 468.234 275.046C468.556 275.046 468.85 275 469.115 274.91C469.38 274.815 469.609 274.675 469.803 274.489C469.996 274.303 470.144 274.074 470.246 273.802L471.854 274.091C471.725 274.565 471.494 274.98 471.161 275.336C470.831 275.688 470.416 275.963 469.916 276.16C469.42 276.353 468.854 276.449 468.217 276.449ZM473.847 276.273V267.546H475.489V268.932H475.58C475.739 268.463 476.019 268.093 476.42 267.824C476.826 267.552 477.284 267.415 477.795 267.415C477.902 267.415 478.027 267.419 478.17 267.427C478.318 267.434 478.434 267.444 478.517 267.455V269.08C478.449 269.061 478.328 269.04 478.153 269.018C477.979 268.991 477.805 268.978 477.631 268.978C477.229 268.978 476.871 269.063 476.557 269.233C476.246 269.4 476 269.633 475.818 269.932C475.636 270.228 475.545 270.565 475.545 270.944V276.273H473.847ZM486.527 269.677L484.987 269.949C484.923 269.752 484.821 269.565 484.68 269.387C484.544 269.209 484.358 269.063 484.124 268.949C483.889 268.836 483.595 268.779 483.243 268.779C482.762 268.779 482.36 268.887 482.038 269.103C481.716 269.315 481.555 269.589 481.555 269.927C481.555 270.218 481.663 270.453 481.879 270.631C482.095 270.809 482.444 270.955 482.925 271.069L484.311 271.387C485.114 271.572 485.713 271.858 486.107 272.245C486.501 272.631 486.697 273.133 486.697 273.75C486.697 274.273 486.546 274.739 486.243 275.148C485.944 275.553 485.525 275.872 484.987 276.103C484.453 276.334 483.834 276.449 483.129 276.449C482.152 276.449 481.355 276.241 480.737 275.824C480.12 275.404 479.741 274.807 479.601 274.035L481.243 273.785C481.345 274.213 481.555 274.536 481.874 274.756C482.192 274.972 482.607 275.08 483.118 275.08C483.675 275.08 484.12 274.964 484.453 274.733C484.787 274.499 484.953 274.213 484.953 273.875C484.953 273.603 484.851 273.374 484.646 273.188C484.446 273.002 484.137 272.862 483.72 272.768L482.243 272.444C481.429 272.258 480.826 271.963 480.436 271.557C480.05 271.152 479.857 270.639 479.857 270.018C479.857 269.502 480.001 269.052 480.288 268.665C480.576 268.279 480.974 267.978 481.482 267.762C481.989 267.542 482.571 267.432 483.226 267.432C484.169 267.432 484.912 267.637 485.453 268.046C485.995 268.451 486.353 268.995 486.527 269.677ZM492.242 276.449C491.423 276.449 490.709 276.262 490.099 275.887C489.49 275.512 489.016 274.987 488.679 274.313C488.342 273.639 488.173 272.851 488.173 271.949C488.173 271.044 488.342 270.252 488.679 269.574C489.016 268.896 489.49 268.37 490.099 267.995C490.709 267.62 491.423 267.432 492.242 267.432C493.06 267.432 493.774 267.62 494.384 267.995C494.993 268.37 495.467 268.896 495.804 269.574C496.141 270.252 496.31 271.044 496.31 271.949C496.31 272.851 496.141 273.639 495.804 274.313C495.467 274.987 494.993 275.512 494.384 275.887C493.774 276.262 493.06 276.449 492.242 276.449ZM492.247 275.023C492.778 275.023 493.217 274.883 493.565 274.603C493.914 274.322 494.171 273.949 494.338 273.483C494.509 273.018 494.594 272.504 494.594 271.944C494.594 271.387 494.509 270.875 494.338 270.41C494.171 269.94 493.914 269.563 493.565 269.279C493.217 268.995 492.778 268.853 492.247 268.853C491.713 268.853 491.27 268.995 490.918 269.279C490.569 269.563 490.31 269.94 490.139 270.41C489.973 270.875 489.889 271.387 489.889 271.944C489.889 272.504 489.973 273.018 490.139 273.483C490.31 273.949 490.569 274.322 490.918 274.603C491.27 274.883 491.713 275.023 492.247 275.023ZM499.905 271.091V276.273H498.206V267.546H499.837V268.966H499.945C500.145 268.504 500.46 268.133 500.888 267.853C501.32 267.572 501.863 267.432 502.519 267.432C503.113 267.432 503.634 267.557 504.081 267.807C504.528 268.053 504.875 268.421 505.121 268.91C505.367 269.398 505.49 270.002 505.49 270.722V276.273H503.791V270.927C503.791 270.294 503.626 269.8 503.297 269.444C502.967 269.084 502.515 268.904 501.939 268.904C501.545 268.904 501.195 268.989 500.888 269.16C500.585 269.33 500.344 269.58 500.166 269.91C499.992 270.235 499.905 270.629 499.905 271.091ZM511.036 271.444C511.036 272.872 510.848 274.184 510.473 275.381C510.098 276.578 509.551 277.682 508.831 278.694H507.274C507.554 278.319 507.816 277.858 508.058 277.313C508.301 276.768 508.513 276.171 508.695 275.523C508.876 274.872 509.019 274.197 509.121 273.5C509.223 272.803 509.274 272.118 509.274 271.444C509.274 270.546 509.185 269.635 509.007 268.711C508.829 267.786 508.589 266.928 508.286 266.137C507.983 265.345 507.645 264.699 507.274 264.199H508.831C509.551 265.211 510.098 266.315 510.473 267.512C510.848 268.709 511.036 270.019 511.036 271.444Z" fill="black"/>
<rect x="331.658" y="376.227" width="199" height="108.546" rx="3.5" fill="white"/>
<rect x="331.658" y="376.227" width="199" height="108.546" rx="3.5" stroke="#D6D3D1"/>
<mask id="mask1_9151_11679" style="mask-type:alpha" maskUnits="userSpaceOnUse" x="351" y="399" width="27" height="28">
<rect x="351.158" y="399.727" width="26.5464" height="26.5464" fill="#D9D9D9"/>
</mask>
<g mask="url(#mask1_9151_11679)">
<path d="M353.37 421.849V404.151H375.492V421.849H353.37ZM355.582 408.576H373.28V406.363H355.582V408.576ZM355.582 419.637H373.28V413H355.582V419.637Z" fill="#16A34A"/>
</g>
<path d="M362.101 449.421H360.328C360.26 449.042 360.133 448.709 359.947 448.421C359.762 448.133 359.535 447.889 359.266 447.688C358.997 447.487 358.696 447.336 358.362 447.233C358.033 447.131 357.682 447.08 357.311 447.08C356.641 447.08 356.04 447.249 355.51 447.586C354.983 447.923 354.567 448.417 354.26 449.069C353.957 449.72 353.805 450.516 353.805 451.455C353.805 452.402 353.957 453.201 354.26 453.853C354.567 454.504 354.985 454.997 355.516 455.33C356.046 455.663 356.643 455.83 357.305 455.83C357.673 455.83 358.021 455.781 358.351 455.682C358.684 455.58 358.985 455.43 359.254 455.233C359.523 455.036 359.751 454.796 359.936 454.512C360.126 454.224 360.256 453.894 360.328 453.523L362.101 453.529C362.006 454.101 361.822 454.627 361.55 455.108C361.281 455.586 360.934 455.999 360.51 456.347C360.09 456.692 359.608 456.959 359.067 457.148C358.525 457.338 357.934 457.432 357.294 457.432C356.287 457.432 355.389 457.194 354.601 456.716C353.813 456.235 353.192 455.548 352.737 454.654C352.287 453.76 352.061 452.694 352.061 451.455C352.061 450.213 352.288 449.146 352.743 448.256C353.197 447.362 353.819 446.677 354.607 446.199C355.394 445.718 356.29 445.478 357.294 445.478C357.912 445.478 358.487 445.567 359.021 445.745C359.559 445.919 360.042 446.177 360.47 446.518C360.898 446.855 361.252 447.268 361.533 447.756C361.813 448.241 362.002 448.796 362.101 449.421ZM366.605 457.466C366.052 457.466 365.552 457.364 365.105 457.16C364.658 456.951 364.304 456.65 364.043 456.256C363.785 455.862 363.656 455.379 363.656 454.807C363.656 454.315 363.751 453.91 363.94 453.591C364.13 453.273 364.385 453.021 364.707 452.836C365.029 452.65 365.389 452.51 365.787 452.415C366.185 452.321 366.59 452.249 367.003 452.199C367.526 452.139 367.95 452.089 368.276 452.052C368.601 452.01 368.838 451.944 368.986 451.853C369.134 451.762 369.207 451.614 369.207 451.41V451.37C369.207 450.874 369.067 450.489 368.787 450.216C368.51 449.944 368.098 449.807 367.548 449.807C366.976 449.807 366.526 449.934 366.196 450.188C365.87 450.438 365.645 450.716 365.52 451.023L363.923 450.66C364.113 450.129 364.389 449.701 364.753 449.375C365.12 449.046 365.543 448.807 366.02 448.66C366.497 448.508 366.999 448.432 367.526 448.432C367.874 448.432 368.243 448.474 368.634 448.557C369.028 448.637 369.395 448.785 369.736 449C370.081 449.216 370.363 449.525 370.582 449.927C370.802 450.324 370.912 450.841 370.912 451.478V457.273H369.253V456.08H369.185C369.075 456.3 368.91 456.516 368.69 456.728C368.471 456.94 368.188 457.116 367.844 457.256C367.499 457.396 367.086 457.466 366.605 457.466ZM366.974 456.103C367.444 456.103 367.846 456.01 368.179 455.824C368.516 455.639 368.772 455.396 368.946 455.097C369.124 454.794 369.213 454.47 369.213 454.125V453C369.153 453.061 369.035 453.118 368.861 453.171C368.69 453.22 368.495 453.264 368.276 453.302C368.056 453.336 367.842 453.368 367.634 453.398C367.425 453.425 367.251 453.447 367.111 453.466C366.781 453.508 366.48 453.578 366.207 453.677C365.938 453.775 365.723 453.917 365.56 454.103C365.401 454.285 365.321 454.527 365.321 454.83C365.321 455.25 365.476 455.569 365.787 455.785C366.098 455.997 366.493 456.103 366.974 456.103ZM373.175 457.273V448.546H374.817V449.932H374.908C375.067 449.463 375.347 449.093 375.749 448.824C376.154 448.552 376.612 448.415 377.124 448.415C377.23 448.415 377.355 448.419 377.499 448.427C377.646 448.434 377.762 448.444 377.845 448.455V450.08C377.777 450.061 377.656 450.04 377.482 450.018C377.307 449.991 377.133 449.978 376.959 449.978C376.557 449.978 376.199 450.063 375.885 450.233C375.574 450.4 375.328 450.633 375.146 450.932C374.965 451.228 374.874 451.565 374.874 451.944V457.273H373.175ZM382.27 457.444C381.565 457.444 380.937 457.264 380.384 456.904C379.834 456.54 379.403 456.023 379.088 455.353C378.778 454.678 378.622 453.87 378.622 452.927C378.622 451.983 378.779 451.177 379.094 450.506C379.412 449.836 379.848 449.322 380.401 448.966C380.954 448.61 381.581 448.432 382.281 448.432C382.823 448.432 383.259 448.523 383.588 448.705C383.921 448.883 384.179 449.091 384.361 449.33C384.546 449.569 384.69 449.779 384.793 449.961H384.895V445.637H386.594V457.273H384.935V455.915H384.793C384.69 456.101 384.543 456.313 384.349 456.552C384.16 456.79 383.899 456.999 383.565 457.177C383.232 457.355 382.8 457.444 382.27 457.444ZM382.645 455.995C383.134 455.995 383.546 455.866 383.884 455.608C384.224 455.347 384.482 454.985 384.656 454.523C384.834 454.061 384.923 453.523 384.923 452.91C384.923 452.303 384.836 451.773 384.662 451.319C384.488 450.864 384.232 450.51 383.895 450.256C383.558 450.002 383.141 449.875 382.645 449.875C382.134 449.875 381.707 450.008 381.367 450.273C381.026 450.538 380.768 450.9 380.594 451.358C380.423 451.817 380.338 452.334 380.338 452.91C380.338 453.493 380.425 454.018 380.599 454.483C380.774 454.949 381.031 455.319 381.372 455.591C381.717 455.86 382.141 455.995 382.645 455.995Z" fill="black"/>
<path d="M431.192 375.727L435.522 368.227L426.862 368.227L431.192 375.727ZM430.442 304.273L430.442 368.977L431.942 368.977L431.942 304.273L430.442 304.273Z" fill="#78716C"/>
</svg>
