<svg width="1041" height="680" viewBox="0 0 1041 680" fill="none" xmlns="http://www.w3.org/2000/svg">
<rect width="1040" height="680" transform="translate(0.059082)" fill="#F5F5F4"/>
<path d="M420.559 46.5573C420.559 44.6243 422.126 43.0573 424.059 43.0573H616.059C617.992 43.0573 619.559 44.6243 619.559 46.5573V167.104C619.559 169.037 617.992 170.604 616.059 170.604H424.059C422.126 170.604 420.559 169.037 420.559 167.104V46.5573Z" fill="#16A34A"/>
<path d="M420.559 46.5573C420.559 44.6243 422.126 43.0573 424.059 43.0573H616.059C617.992 43.0573 619.559 44.6243 619.559 46.5573V167.104C619.559 169.037 617.992 170.604 616.059 170.604H424.059C422.126 170.604 420.559 169.037 420.559 167.104V46.5573Z" stroke="#D6D3D1"/>
<mask id="mask0_9154_12294" style="mask-type:alpha" maskUnits="userSpaceOnUse" x="440" y="66" width="27" height="28">
<rect x="440.059" y="66.5573" width="26.5464" height="26.5464" fill="#D9D9D9"/>
</mask>
<g mask="url(#mask0_9154_12294)">
<path d="M445.59 85.361V77.6182H447.802V85.361H445.59ZM452.226 85.361V77.6182H454.438V85.361H452.226ZM442.271 89.7854V87.5732H464.393V89.7854H442.271ZM458.863 85.361V77.6182H461.075V85.361H458.863ZM442.271 75.406V73.1938L453.332 67.6633L464.393 73.1938V75.406H442.271ZM447.193 73.1938H459.471L453.332 70.1521L447.193 73.1938Z" fill="white"/>
</g>
<path d="M441.337 124.104V112.467H448.553V113.979H443.093V117.524H448.036V119.03H443.093V124.104H441.337ZM450.712 124.104V112.467H454.974C455.8 112.467 456.483 112.604 457.025 112.876C457.567 113.145 457.972 113.511 458.241 113.973C458.51 114.431 458.644 114.948 458.644 115.524C458.644 116.009 458.555 116.418 458.377 116.751C458.199 117.081 457.961 117.346 457.661 117.547C457.366 117.744 457.04 117.888 456.684 117.979V118.092C457.07 118.111 457.447 118.236 457.815 118.467C458.186 118.695 458.493 119.018 458.735 119.439C458.978 119.859 459.099 120.371 459.099 120.973C459.099 121.568 458.959 122.102 458.678 122.575C458.402 123.045 457.974 123.418 457.394 123.695C456.815 123.967 456.074 124.104 455.173 124.104H450.712ZM452.468 122.598H455.002C455.843 122.598 456.445 122.435 456.809 122.109C457.173 121.784 457.355 121.376 457.355 120.888C457.355 120.52 457.262 120.183 457.076 119.876C456.891 119.57 456.625 119.325 456.281 119.143C455.94 118.962 455.534 118.871 455.065 118.871H452.468V122.598ZM452.468 117.501H454.82C455.214 117.501 455.569 117.426 455.883 117.274C456.201 117.123 456.453 116.91 456.639 116.638C456.828 116.361 456.923 116.035 456.923 115.66C456.923 115.179 456.754 114.776 456.417 114.45C456.08 114.124 455.563 113.962 454.866 113.962H452.468V117.501ZM471.289 118.285C471.289 119.528 471.062 120.596 470.607 121.49C470.153 122.38 469.53 123.066 468.738 123.547C467.95 124.024 467.054 124.263 466.051 124.263C465.043 124.263 464.143 124.024 463.352 123.547C462.564 123.066 461.943 122.378 461.488 121.484C461.034 120.59 460.806 119.524 460.806 118.285C460.806 117.043 461.034 115.977 461.488 115.087C461.943 114.193 462.564 113.507 463.352 113.03C464.143 112.549 465.043 112.308 466.051 112.308C467.054 112.308 467.95 112.549 468.738 113.03C469.53 113.507 470.153 114.193 470.607 115.087C471.062 115.977 471.289 117.043 471.289 118.285ZM469.551 118.285C469.551 117.338 469.397 116.541 469.09 115.893C468.787 115.242 468.371 114.749 467.84 114.416C467.314 114.079 466.717 113.91 466.051 113.91C465.38 113.91 464.782 114.079 464.255 114.416C463.729 114.749 463.312 115.242 463.005 115.893C462.702 116.541 462.551 117.338 462.551 118.285C462.551 119.232 462.702 120.032 463.005 120.683C463.312 121.331 463.729 121.823 464.255 122.16C464.782 122.494 465.38 122.66 466.051 122.66C466.717 122.66 467.314 122.494 467.84 122.16C468.371 121.823 468.787 121.331 469.09 120.683C469.397 120.032 469.551 119.232 469.551 118.285ZM441.695 137.285C441.695 135.861 441.883 134.551 442.258 133.354C442.633 132.157 443.18 131.053 443.9 130.041H445.457C445.177 130.416 444.915 130.876 444.673 131.422C444.43 131.967 444.218 132.566 444.036 133.217C443.855 133.865 443.712 134.537 443.61 135.234C443.508 135.928 443.457 136.611 443.457 137.285C443.457 138.187 443.546 139.1 443.724 140.024C443.902 140.948 444.142 141.806 444.445 142.598C444.748 143.39 445.086 144.035 445.457 144.535H443.9C443.18 143.524 442.633 142.42 442.258 141.223C441.883 140.026 441.695 138.713 441.695 137.285ZM447.384 143.104V131.467H451.532C452.437 131.467 453.187 131.632 453.782 131.962C454.377 132.291 454.822 132.742 455.117 133.314C455.413 133.882 455.561 134.522 455.561 135.234C455.561 135.95 455.411 136.594 455.112 137.166C454.816 137.734 454.369 138.185 453.771 138.518C453.176 138.848 452.428 139.013 451.526 139.013H448.674V137.524H451.367C451.939 137.524 452.403 137.426 452.759 137.229C453.115 137.028 453.377 136.755 453.543 136.41C453.71 136.066 453.793 135.674 453.793 135.234C453.793 134.795 453.71 134.405 453.543 134.064C453.377 133.723 453.114 133.456 452.754 133.263C452.398 133.07 451.928 132.973 451.345 132.973H449.14V143.104H447.384ZM459.944 143.297C459.391 143.297 458.891 143.195 458.444 142.99C457.997 142.782 457.643 142.481 457.382 142.087C457.124 141.693 456.995 141.21 456.995 140.638C456.995 140.145 457.09 139.74 457.279 139.422C457.469 139.104 457.724 138.852 458.046 138.666C458.368 138.481 458.728 138.34 459.126 138.246C459.524 138.151 459.929 138.079 460.342 138.03C460.864 137.969 461.289 137.92 461.614 137.882C461.94 137.84 462.177 137.774 462.325 137.683C462.472 137.592 462.546 137.445 462.546 137.24V137.2C462.546 136.704 462.406 136.32 462.126 136.047C461.849 135.774 461.436 135.638 460.887 135.638C460.315 135.638 459.864 135.765 459.535 136.018C459.209 136.268 458.984 136.547 458.859 136.854L457.262 136.49C457.452 135.96 457.728 135.532 458.092 135.206C458.459 134.876 458.882 134.638 459.359 134.49C459.836 134.338 460.338 134.263 460.864 134.263C461.213 134.263 461.582 134.304 461.972 134.388C462.366 134.467 462.734 134.615 463.075 134.831C463.419 135.047 463.702 135.356 463.921 135.757C464.141 136.155 464.251 136.672 464.251 137.308V143.104H462.592V141.91H462.524C462.414 142.13 462.249 142.346 462.029 142.558C461.81 142.77 461.527 142.946 461.183 143.087C460.838 143.227 460.425 143.297 459.944 143.297ZM460.313 141.933C460.783 141.933 461.185 141.84 461.518 141.655C461.855 141.469 462.111 141.227 462.285 140.928C462.463 140.624 462.552 140.301 462.552 139.956V138.831C462.491 138.892 462.374 138.948 462.2 139.001C462.029 139.051 461.834 139.094 461.614 139.132C461.395 139.166 461.181 139.198 460.972 139.229C460.764 139.255 460.59 139.278 460.45 139.297C460.12 139.338 459.819 139.409 459.546 139.507C459.277 139.606 459.061 139.748 458.899 139.933C458.739 140.115 458.66 140.357 458.66 140.66C458.66 141.081 458.815 141.399 459.126 141.615C459.436 141.827 459.832 141.933 460.313 141.933ZM466.514 143.104V134.376H468.156V135.763H468.247C468.406 135.293 468.686 134.924 469.087 134.655C469.493 134.382 469.951 134.246 470.462 134.246C470.569 134.246 470.694 134.249 470.837 134.257C470.985 134.265 471.101 134.274 471.184 134.285V135.91C471.116 135.892 470.995 135.871 470.82 135.848C470.646 135.821 470.472 135.808 470.298 135.808C469.896 135.808 469.538 135.893 469.224 136.064C468.913 136.231 468.667 136.463 468.485 136.763C468.303 137.058 468.212 137.395 468.212 137.774V143.104H466.514ZM477.244 134.376V135.74H472.477V134.376H477.244ZM473.755 132.285H475.454V140.541C475.454 140.871 475.503 141.119 475.602 141.285C475.7 141.448 475.827 141.56 475.982 141.621C476.141 141.678 476.314 141.706 476.499 141.706C476.636 141.706 476.755 141.696 476.857 141.678C476.96 141.659 477.039 141.643 477.096 141.632L477.403 143.035C477.304 143.073 477.164 143.111 476.982 143.149C476.801 143.191 476.573 143.213 476.301 143.217C475.854 143.225 475.437 143.145 475.051 142.979C474.664 142.812 474.352 142.554 474.113 142.206C473.874 141.857 473.755 141.42 473.755 140.893V132.285ZM480.822 137.922V143.104H479.123V134.376H480.754V135.797H480.862C481.062 135.335 481.377 134.963 481.805 134.683C482.237 134.403 482.78 134.263 483.436 134.263C484.03 134.263 484.551 134.388 484.998 134.638C485.445 134.884 485.792 135.251 486.038 135.74C486.284 136.229 486.407 136.833 486.407 137.553V143.104H484.708V137.757C484.708 137.124 484.543 136.63 484.214 136.274C483.884 135.914 483.432 135.734 482.856 135.734C482.462 135.734 482.112 135.82 481.805 135.99C481.502 136.16 481.261 136.41 481.083 136.74C480.909 137.066 480.822 137.46 480.822 137.922ZM492.447 143.28C491.587 143.28 490.846 143.096 490.225 142.729C489.608 142.357 489.131 141.837 488.793 141.166C488.46 140.492 488.293 139.702 488.293 138.797C488.293 137.903 488.46 137.115 488.793 136.433C489.131 135.751 489.6 135.219 490.203 134.837C490.809 134.454 491.517 134.263 492.328 134.263C492.82 134.263 493.297 134.344 493.759 134.507C494.221 134.67 494.636 134.926 495.004 135.274C495.371 135.623 495.661 136.075 495.873 136.632C496.085 137.185 496.191 137.857 496.191 138.649V139.251H489.254V137.979H494.526C494.526 137.532 494.436 137.136 494.254 136.791C494.072 136.443 493.816 136.168 493.487 135.967C493.161 135.767 492.778 135.666 492.339 135.666C491.862 135.666 491.445 135.784 491.089 136.018C490.737 136.249 490.464 136.553 490.271 136.928C490.081 137.299 489.987 137.702 489.987 138.138V139.132C489.987 139.715 490.089 140.212 490.293 140.621C490.502 141.03 490.792 141.342 491.163 141.558C491.534 141.77 491.968 141.876 492.464 141.876C492.786 141.876 493.079 141.831 493.345 141.74C493.61 141.645 493.839 141.505 494.032 141.32C494.225 141.134 494.373 140.905 494.475 140.632L496.083 140.922C495.954 141.395 495.723 141.81 495.39 142.166C495.061 142.518 494.646 142.793 494.146 142.99C493.65 143.183 493.083 143.28 492.447 143.28ZM498.076 143.104V134.376H499.718V135.763H499.809C499.968 135.293 500.248 134.924 500.65 134.655C501.055 134.382 501.514 134.246 502.025 134.246C502.131 134.246 502.256 134.249 502.4 134.257C502.548 134.265 502.663 134.274 502.747 134.285V135.91C502.678 135.892 502.557 135.871 502.383 135.848C502.209 135.821 502.034 135.808 501.86 135.808C501.459 135.808 501.101 135.893 500.786 136.064C500.476 136.231 500.23 136.463 500.048 136.763C499.866 137.058 499.775 137.395 499.775 137.774V143.104H498.076ZM508.587 143.104V131.467H512.849C513.675 131.467 514.358 131.604 514.9 131.876C515.442 132.145 515.847 132.511 516.116 132.973C516.385 133.431 516.519 133.948 516.519 134.524C516.519 135.009 516.43 135.418 516.252 135.751C516.074 136.081 515.836 136.346 515.536 136.547C515.241 136.744 514.915 136.888 514.559 136.979V137.092C514.945 137.111 515.322 137.236 515.69 137.467C516.061 137.695 516.368 138.018 516.61 138.439C516.853 138.859 516.974 139.371 516.974 139.973C516.974 140.568 516.834 141.102 516.553 141.575C516.277 142.045 515.849 142.418 515.269 142.695C514.69 142.967 513.949 143.104 513.048 143.104H508.587ZM510.343 141.598H512.877C513.718 141.598 514.32 141.435 514.684 141.109C515.048 140.784 515.23 140.376 515.23 139.888C515.23 139.52 515.137 139.183 514.951 138.876C514.766 138.57 514.5 138.325 514.156 138.143C513.815 137.962 513.409 137.871 512.94 137.871H510.343V141.598ZM510.343 136.501H512.695C513.089 136.501 513.444 136.426 513.758 136.274C514.076 136.123 514.328 135.91 514.514 135.638C514.703 135.361 514.798 135.035 514.798 134.66C514.798 134.179 514.629 133.776 514.292 133.45C513.955 133.124 513.438 132.962 512.741 132.962H510.343V136.501ZM521.46 143.297C520.907 143.297 520.407 143.195 519.96 142.99C519.513 142.782 519.159 142.481 518.897 142.087C518.64 141.693 518.511 141.21 518.511 140.638C518.511 140.145 518.605 139.74 518.795 139.422C518.984 139.104 519.24 138.852 519.562 138.666C519.884 138.481 520.244 138.34 520.641 138.246C521.039 138.151 521.444 138.079 521.857 138.03C522.38 137.969 522.804 137.92 523.13 137.882C523.456 137.84 523.693 137.774 523.84 137.683C523.988 137.592 524.062 137.445 524.062 137.24V137.2C524.062 136.704 523.922 136.32 523.641 136.047C523.365 135.774 522.952 135.638 522.403 135.638C521.831 135.638 521.38 135.765 521.051 136.018C520.725 136.268 520.499 136.547 520.374 136.854L518.778 136.49C518.967 135.96 519.244 135.532 519.607 135.206C519.975 134.876 520.397 134.638 520.874 134.49C521.352 134.338 521.854 134.263 522.38 134.263C522.729 134.263 523.098 134.304 523.488 134.388C523.882 134.467 524.249 134.615 524.59 134.831C524.935 135.047 525.217 135.356 525.437 135.757C525.657 136.155 525.766 136.672 525.766 137.308V143.104H524.107V141.91H524.039C523.929 142.13 523.765 142.346 523.545 142.558C523.325 142.77 523.043 142.946 522.698 143.087C522.354 143.227 521.941 143.297 521.46 143.297ZM521.829 141.933C522.299 141.933 522.7 141.84 523.034 141.655C523.371 141.469 523.626 141.227 523.801 140.928C523.979 140.624 524.068 140.301 524.068 139.956V138.831C524.007 138.892 523.89 138.948 523.715 139.001C523.545 139.051 523.35 139.094 523.13 139.132C522.91 139.166 522.696 139.198 522.488 139.229C522.28 139.255 522.105 139.278 521.965 139.297C521.636 139.338 521.335 139.409 521.062 139.507C520.793 139.606 520.577 139.748 520.414 139.933C520.255 140.115 520.176 140.357 520.176 140.66C520.176 141.081 520.331 141.399 520.641 141.615C520.952 141.827 521.348 141.933 521.829 141.933ZM529.728 137.922V143.104H528.029V134.376H529.66V135.797H529.768C529.969 135.335 530.283 134.963 530.711 134.683C531.143 134.403 531.686 134.263 532.342 134.263C532.936 134.263 533.457 134.388 533.904 134.638C534.351 134.884 534.698 135.251 534.944 135.74C535.19 136.229 535.313 136.833 535.313 137.553V143.104H533.614V137.757C533.614 137.124 533.45 136.63 533.12 136.274C532.791 135.914 532.338 135.734 531.762 135.734C531.368 135.734 531.018 135.82 530.711 135.99C530.408 136.16 530.168 136.41 529.989 136.74C529.815 137.066 529.728 137.46 529.728 137.922ZM539.154 140.143L539.143 138.07H539.438L542.916 134.376H544.95L540.984 138.581H540.717L539.154 140.143ZM537.592 143.104V131.467H539.291V143.104H537.592ZM543.103 143.104L539.978 138.956L541.149 137.768L545.188 143.104H543.103ZM549.765 138.274C549.765 139.702 549.578 141.015 549.203 142.212C548.828 143.409 548.28 144.513 547.561 145.524H546.004C546.284 145.149 546.545 144.689 546.788 144.143C547.03 143.598 547.242 143.001 547.424 142.354C547.606 141.702 547.748 141.028 547.85 140.331C547.953 139.634 548.004 138.948 548.004 138.274C548.004 137.376 547.915 136.465 547.737 135.541C547.559 134.617 547.318 133.759 547.015 132.967C546.712 132.176 546.375 131.53 546.004 131.03H547.561C548.28 132.041 548.828 133.145 549.203 134.342C549.578 135.539 549.765 136.85 549.765 138.274Z" fill="white"/>
<path d="M520.093 171.104L520.093 417.802" stroke="#78716C" stroke-width="1.5"/>
<path d="M326.923 417.657L326.923 416.907L326.173 416.907L326.173 417.657L326.923 417.657ZM326.923 503.512L331.253 496.012L322.593 496.012L326.923 503.512ZM520.093 416.907L326.923 416.907L326.923 418.407L520.093 418.407L520.093 416.907ZM326.173 417.657L326.173 496.762L327.673 496.762L327.673 417.657L326.173 417.657Z" fill="#78716C"/>
<path d="M711.032 417.657L711.032 416.907L711.782 416.907L711.782 417.657L711.032 417.657ZM711.032 503.512L706.702 496.012L715.362 496.012L711.032 503.512ZM520.093 416.907L711.032 416.907L711.032 418.407L520.093 418.407L520.093 416.907ZM711.782 417.657L711.782 496.762L710.282 496.762L710.282 417.657L711.782 417.657Z" fill="#78716C"/>
<rect x="245.559" y="504.012" width="174" height="108.546" rx="3.5" fill="white"/>
<rect x="245.559" y="504.012" width="174" height="108.546" rx="3.5" stroke="#D6D3D1"/>
<mask id="mask1_9154_12294" style="mask-type:alpha" maskUnits="userSpaceOnUse" x="265" y="527" width="27" height="28">
<rect x="265.059" y="527.512" width="26.5464" height="26.5464" fill="#D9D9D9"/>
</mask>
<g mask="url(#mask1_9154_12294)">
<path d="M288.287 535.808H286.075V533.043H270.59V548.528H286.075V545.763H288.287V550.74H268.377V530.831H288.287V535.808ZM277.226 546.316V535.255H289.393V546.316H277.226ZM282.757 542.445C283.218 542.445 283.609 542.283 283.932 541.961C284.255 541.638 284.416 541.246 284.416 540.785C284.416 540.325 284.255 539.933 283.932 539.61C283.609 539.288 283.218 539.126 282.757 539.126C282.296 539.126 281.904 539.288 281.582 539.61C281.259 539.933 281.098 540.325 281.098 540.785C281.098 541.246 281.259 541.638 281.582 541.961C281.904 542.283 282.296 542.445 282.757 542.445ZM287.181 544.104V537.467H279.438V544.104H287.181Z" fill="#16A34A"/>
<mask id="path-11-outside-1_9154_12294" maskUnits="userSpaceOnUse" x="264.059" y="540.512" width="13" height="13" fill="black">
<rect fill="white" x="264.059" y="540.512" width="13" height="13"/>
<path fill-rule="evenodd" clip-rule="evenodd" d="M270.356 551.106C272.729 551.106 274.653 549.182 274.653 546.809C274.653 544.436 272.729 542.512 270.356 542.512C267.983 542.512 266.059 544.436 266.059 546.809C266.059 549.182 267.983 551.106 270.356 551.106ZM271.071 545.861L270.329 544.668L269.587 545.861L268.222 546.198L269.128 547.273L269.027 548.674L270.329 548.145L271.63 548.674L271.529 547.273L272.435 546.198L271.071 545.861Z"/>
</mask>
<path fill-rule="evenodd" clip-rule="evenodd" d="M270.356 551.106C272.729 551.106 274.653 549.182 274.653 546.809C274.653 544.436 272.729 542.512 270.356 542.512C267.983 542.512 266.059 544.436 266.059 546.809C266.059 549.182 267.983 551.106 270.356 551.106ZM271.071 545.861L270.329 544.668L269.587 545.861L268.222 546.198L269.128 547.273L269.027 548.674L270.329 548.145L271.63 548.674L271.529 547.273L272.435 546.198L271.071 545.861Z" fill="#16A34A"/>
<path d="M270.329 544.668L272.027 543.612L270.329 540.88L268.63 543.612L270.329 544.668ZM271.071 545.861L269.372 546.917L269.802 547.608L270.591 547.803L271.071 545.861ZM269.587 545.861L270.066 547.803L270.856 547.608L271.285 546.917L269.587 545.861ZM268.222 546.198L267.743 544.256L264.62 545.028L266.693 547.487L268.222 546.198ZM269.128 547.273L271.123 547.417L271.181 546.606L270.657 545.984L269.128 547.273ZM269.027 548.674L267.032 548.53L266.8 551.739L269.78 550.527L269.027 548.674ZM270.329 548.145L271.082 546.292L270.329 545.986L269.575 546.292L270.329 548.145ZM271.63 548.674L270.877 550.527L273.857 551.739L273.625 548.53L271.63 548.674ZM271.529 547.273L270 545.984L269.476 546.606L269.534 547.417L271.529 547.273ZM272.435 546.198L273.964 547.487L276.037 545.028L272.915 544.256L272.435 546.198ZM272.653 546.809C272.653 548.078 271.624 549.106 270.356 549.106V553.106C273.834 553.106 276.653 550.287 276.653 546.809H272.653ZM270.356 544.512C271.624 544.512 272.653 545.541 272.653 546.809H276.653C276.653 543.331 273.834 540.512 270.356 540.512V544.512ZM268.059 546.809C268.059 545.541 269.087 544.512 270.356 544.512V540.512C266.878 540.512 264.059 543.331 264.059 546.809H268.059ZM270.356 549.106C269.087 549.106 268.059 548.078 268.059 546.809H264.059C264.059 550.287 266.878 553.106 270.356 553.106V549.106ZM268.63 545.724L269.372 546.917L272.769 544.805L272.027 543.612L268.63 545.724ZM271.285 546.917L272.027 545.724L268.63 543.612L267.888 544.805L271.285 546.917ZM268.702 548.14L270.066 547.803L269.107 543.92L267.743 544.256L268.702 548.14ZM270.657 545.984L269.751 544.909L266.693 547.487L267.599 548.562L270.657 545.984ZM271.022 548.818L271.123 547.417L267.133 547.129L267.032 548.53L271.022 548.818ZM269.575 546.292L268.273 546.822L269.78 550.527L271.082 549.998L269.575 546.292ZM272.384 546.822L271.082 546.292L269.575 549.998L270.877 550.527L272.384 546.822ZM269.534 547.417L269.636 548.818L273.625 548.53L273.524 547.129L269.534 547.417ZM270.906 544.909L270 545.984L273.058 548.562L273.964 547.487L270.906 544.909ZM270.591 547.803L271.956 548.14L272.915 544.256L271.55 543.92L270.591 547.803Z" fill="white" mask="url(#path-11-outside-1_9154_12294)"/>
</g>
<path d="M266.337 573.422H268.468L272.173 582.468H272.309L276.014 573.422H278.144V585.059H276.474V576.638H276.366L272.934 585.042H271.548L268.116 576.632H268.008V585.059H266.337V573.422ZM283.1 585.252C282.547 585.252 282.047 585.15 281.6 584.945C281.153 584.737 280.799 584.435 280.538 584.042C280.28 583.648 280.151 583.165 280.151 582.593C280.151 582.1 280.246 581.695 280.436 581.377C280.625 581.059 280.881 580.807 281.203 580.621C281.525 580.435 281.884 580.295 282.282 580.201C282.68 580.106 283.085 580.034 283.498 579.985C284.021 579.924 284.445 579.875 284.771 579.837C285.096 579.795 285.333 579.729 285.481 579.638C285.629 579.547 285.703 579.4 285.703 579.195V579.155C285.703 578.659 285.562 578.275 285.282 578.002C285.006 577.729 284.593 577.593 284.043 577.593C283.471 577.593 283.021 577.72 282.691 577.973C282.365 578.223 282.14 578.502 282.015 578.809L280.418 578.445C280.608 577.915 280.884 577.487 281.248 577.161C281.615 576.831 282.038 576.593 282.515 576.445C282.992 576.293 283.494 576.218 284.021 576.218C284.369 576.218 284.739 576.259 285.129 576.343C285.523 576.422 285.89 576.57 286.231 576.786C286.576 577.002 286.858 577.31 287.078 577.712C287.297 578.11 287.407 578.627 287.407 579.263V585.059H285.748V583.865H285.68C285.57 584.085 285.405 584.301 285.186 584.513C284.966 584.725 284.684 584.901 284.339 585.042C283.994 585.182 283.581 585.252 283.1 585.252ZM283.47 583.888C283.939 583.888 284.341 583.795 284.674 583.61C285.011 583.424 285.267 583.182 285.441 582.882C285.619 582.579 285.708 582.256 285.708 581.911V580.786C285.648 580.846 285.53 580.903 285.356 580.956C285.186 581.006 284.99 581.049 284.771 581.087C284.551 581.121 284.337 581.153 284.129 581.184C283.92 581.21 283.746 581.233 283.606 581.252C283.276 581.293 282.975 581.364 282.703 581.462C282.434 581.56 282.218 581.703 282.055 581.888C281.896 582.07 281.816 582.312 281.816 582.615C281.816 583.036 281.971 583.354 282.282 583.57C282.593 583.782 282.989 583.888 283.47 583.888ZM296.21 578.462L294.67 578.735C294.605 578.538 294.503 578.35 294.363 578.172C294.227 577.994 294.041 577.848 293.806 577.735C293.571 577.621 293.278 577.564 292.926 577.564C292.444 577.564 292.043 577.672 291.721 577.888C291.399 578.1 291.238 578.375 291.238 578.712C291.238 579.004 291.346 579.239 291.562 579.417C291.778 579.595 292.126 579.74 292.607 579.854L293.994 580.172C294.797 580.358 295.395 580.644 295.789 581.03C296.183 581.417 296.38 581.918 296.38 582.536C296.38 583.059 296.229 583.525 295.926 583.934C295.626 584.339 295.208 584.657 294.67 584.888C294.136 585.119 293.516 585.235 292.812 585.235C291.835 585.235 291.037 585.026 290.42 584.61C289.802 584.189 289.424 583.593 289.284 582.82L290.926 582.57C291.028 582.998 291.238 583.322 291.556 583.542C291.874 583.757 292.289 583.865 292.801 583.865C293.357 583.865 293.802 583.75 294.136 583.519C294.469 583.284 294.636 582.998 294.636 582.661C294.636 582.388 294.534 582.159 294.329 581.973C294.128 581.788 293.819 581.648 293.403 581.553L291.926 581.229C291.111 581.043 290.509 580.748 290.119 580.343C289.732 579.937 289.539 579.424 289.539 578.803C289.539 578.288 289.683 577.837 289.971 577.451C290.259 577.064 290.657 576.763 291.164 576.547C291.672 576.328 292.253 576.218 292.909 576.218C293.852 576.218 294.594 576.422 295.136 576.831C295.677 577.237 296.035 577.78 296.21 578.462ZM302.322 576.331V577.695H297.555V576.331H302.322ZM298.833 574.24H300.532V582.496C300.532 582.826 300.581 583.074 300.68 583.24C300.778 583.403 300.905 583.515 301.061 583.576C301.22 583.632 301.392 583.661 301.578 583.661C301.714 583.661 301.833 583.651 301.936 583.632C302.038 583.614 302.117 583.598 302.174 583.587L302.481 584.99C302.382 585.028 302.242 585.066 302.061 585.104C301.879 585.146 301.651 585.168 301.379 585.172C300.932 585.18 300.515 585.1 300.129 584.934C299.742 584.767 299.43 584.509 299.191 584.161C298.953 583.812 298.833 583.375 298.833 582.848V574.24ZM307.869 585.235C307.009 585.235 306.268 585.051 305.647 584.684C305.03 584.312 304.552 583.792 304.215 583.121C303.882 582.447 303.715 581.657 303.715 580.752C303.715 579.858 303.882 579.07 304.215 578.388C304.552 577.706 305.022 577.174 305.624 576.792C306.23 576.409 306.939 576.218 307.749 576.218C308.242 576.218 308.719 576.299 309.181 576.462C309.643 576.625 310.058 576.881 310.426 577.229C310.793 577.578 311.083 578.03 311.295 578.587C311.507 579.14 311.613 579.812 311.613 580.604V581.206H304.676V579.934H309.948C309.948 579.487 309.857 579.091 309.676 578.746C309.494 578.398 309.238 578.123 308.909 577.922C308.583 577.721 308.2 577.621 307.761 577.621C307.284 577.621 306.867 577.739 306.511 577.973C306.159 578.204 305.886 578.507 305.693 578.882C305.503 579.254 305.409 579.657 305.409 580.093V581.087C305.409 581.67 305.511 582.167 305.715 582.576C305.924 582.985 306.213 583.297 306.585 583.513C306.956 583.725 307.39 583.831 307.886 583.831C308.208 583.831 308.501 583.786 308.766 583.695C309.032 583.6 309.261 583.46 309.454 583.275C309.647 583.089 309.795 582.86 309.897 582.587L311.505 582.877C311.376 583.35 311.145 583.765 310.812 584.121C310.482 584.473 310.068 584.748 309.568 584.945C309.071 585.138 308.505 585.235 307.869 585.235ZM313.498 585.059V576.331H315.14V577.718H315.231C315.39 577.248 315.67 576.879 316.072 576.61C316.477 576.337 316.936 576.201 317.447 576.201C317.553 576.201 317.678 576.204 317.822 576.212C317.97 576.22 318.085 576.229 318.168 576.24V577.865C318.1 577.846 317.979 577.826 317.805 577.803C317.631 577.776 317.456 577.763 317.282 577.763C316.881 577.763 316.523 577.848 316.208 578.019C315.898 578.185 315.651 578.418 315.47 578.718C315.288 579.013 315.197 579.35 315.197 579.729V585.059H313.498ZM324.992 585.059H323.129L327.316 573.422H329.345L333.532 585.059H331.668L328.379 575.536H328.288L324.992 585.059ZM325.305 580.502H331.35V581.979H325.305V580.502ZM338.612 585.235C337.767 585.235 337.04 585.043 336.43 584.661C335.824 584.275 335.358 583.742 335.032 583.064C334.706 582.386 334.543 581.61 334.543 580.735C334.543 579.848 334.71 579.066 335.043 578.388C335.377 577.706 335.846 577.174 336.453 576.792C337.059 576.409 337.773 576.218 338.595 576.218C339.257 576.218 339.848 576.341 340.367 576.587C340.886 576.829 341.305 577.17 341.623 577.61C341.945 578.049 342.136 578.562 342.197 579.15H340.543C340.453 578.74 340.244 578.388 339.918 578.093C339.596 577.797 339.165 577.65 338.623 577.65C338.15 577.65 337.735 577.775 337.379 578.025C337.026 578.271 336.752 578.623 336.555 579.081C336.358 579.536 336.259 580.074 336.259 580.695C336.259 581.331 336.356 581.881 336.549 582.343C336.742 582.805 337.015 583.163 337.367 583.417C337.723 583.67 338.142 583.797 338.623 583.797C338.945 583.797 339.237 583.739 339.498 583.621C339.763 583.5 339.985 583.328 340.163 583.104C340.345 582.881 340.471 582.612 340.543 582.297H342.197C342.136 582.862 341.953 583.365 341.646 583.809C341.339 584.252 340.928 584.6 340.413 584.854C339.901 585.108 339.301 585.235 338.612 585.235ZM347.69 585.235C346.845 585.235 346.118 585.043 345.508 584.661C344.902 584.275 344.436 583.742 344.11 583.064C343.784 582.386 343.622 581.61 343.622 580.735C343.622 579.848 343.788 579.066 344.122 578.388C344.455 577.706 344.925 577.174 345.531 576.792C346.137 576.409 346.851 576.218 347.673 576.218C348.336 576.218 348.927 576.341 349.445 576.587C349.964 576.829 350.383 577.17 350.701 577.61C351.023 578.049 351.214 578.562 351.275 579.15H349.622C349.531 578.74 349.322 578.388 348.997 578.093C348.675 577.797 348.243 577.65 347.701 577.65C347.228 577.65 346.813 577.775 346.457 578.025C346.105 578.271 345.83 578.623 345.633 579.081C345.436 579.536 345.337 580.074 345.337 580.695C345.337 581.331 345.434 581.881 345.627 582.343C345.82 582.805 346.093 583.163 346.445 583.417C346.802 583.67 347.22 583.797 347.701 583.797C348.023 583.797 348.315 583.739 348.576 583.621C348.841 583.5 349.063 583.328 349.241 583.104C349.423 582.881 349.55 582.612 349.622 582.297H351.275C351.214 582.862 351.031 583.365 350.724 583.809C350.417 584.252 350.006 584.6 349.491 584.854C348.98 585.108 348.379 585.235 347.69 585.235ZM356.768 585.235C355.95 585.235 355.236 585.047 354.626 584.672C354.016 584.297 353.543 583.773 353.205 583.098C352.868 582.424 352.7 581.636 352.7 580.735C352.7 579.829 352.868 579.038 353.205 578.36C353.543 577.682 354.016 577.155 354.626 576.78C355.236 576.405 355.95 576.218 356.768 576.218C357.586 576.218 358.3 576.405 358.91 576.78C359.52 577.155 359.993 577.682 360.33 578.36C360.668 579.038 360.836 579.829 360.836 580.735C360.836 581.636 360.668 582.424 360.33 583.098C359.993 583.773 359.52 584.297 358.91 584.672C358.3 585.047 357.586 585.235 356.768 585.235ZM356.774 583.809C357.304 583.809 357.743 583.668 358.092 583.388C358.44 583.108 358.698 582.735 358.864 582.269C359.035 581.803 359.12 581.29 359.12 580.729C359.12 580.172 359.035 579.661 358.864 579.195C358.698 578.725 358.44 578.348 358.092 578.064C357.743 577.78 357.304 577.638 356.774 577.638C356.239 577.638 355.796 577.78 355.444 578.064C355.096 578.348 354.836 578.725 354.666 579.195C354.499 579.661 354.416 580.172 354.416 580.729C354.416 581.29 354.499 581.803 354.666 582.269C354.836 582.735 355.096 583.108 355.444 583.388C355.796 583.668 356.239 583.809 356.774 583.809ZM368.261 581.439V576.331H369.965V585.059H368.295V583.547H368.204C368.003 584.013 367.681 584.401 367.238 584.712C366.799 585.019 366.251 585.172 365.596 585.172C365.035 585.172 364.539 585.049 364.107 584.803C363.679 584.553 363.342 584.184 363.096 583.695C362.854 583.206 362.732 582.602 362.732 581.882V576.331H364.431V581.678C364.431 582.273 364.596 582.746 364.926 583.098C365.255 583.451 365.683 583.627 366.21 583.627C366.528 583.627 366.844 583.547 367.159 583.388C367.477 583.229 367.74 582.989 367.948 582.667C368.16 582.345 368.265 581.935 368.261 581.439ZM373.947 579.877V585.059H372.248V576.331H373.879V577.752H373.987C374.187 577.29 374.502 576.918 374.93 576.638C375.362 576.358 375.905 576.218 376.561 576.218C377.155 576.218 377.676 576.343 378.123 576.593C378.57 576.839 378.917 577.206 379.163 577.695C379.409 578.184 379.532 578.788 379.532 579.507V585.059H377.833V579.712C377.833 579.079 377.668 578.585 377.339 578.229C377.009 577.869 376.557 577.689 375.981 577.689C375.587 577.689 375.237 577.775 374.93 577.945C374.627 578.115 374.386 578.365 374.208 578.695C374.034 579.021 373.947 579.415 373.947 579.877ZM385.884 576.331V577.695H381.117V576.331H385.884ZM382.396 574.24H384.095V582.496C384.095 582.826 384.144 583.074 384.242 583.24C384.341 583.403 384.468 583.515 384.623 583.576C384.782 583.632 384.954 583.661 385.14 583.661C385.276 583.661 385.396 583.651 385.498 583.632C385.6 583.614 385.68 583.598 385.737 583.587L386.043 584.99C385.945 585.028 385.805 585.066 385.623 585.104C385.441 585.146 385.214 585.168 384.941 585.172C384.494 585.18 384.078 585.1 383.691 584.934C383.305 584.767 382.992 584.509 382.754 584.161C382.515 583.812 382.396 583.375 382.396 582.848V574.24ZM396.39 573.422V585.059H394.629V575.184H394.561L391.776 577.002V575.32L394.68 573.422H396.39Z" fill="black"/>
<rect x="620.559" y="504.012" width="174" height="108.546" rx="3.5" fill="white"/>
<rect x="620.559" y="504.012" width="174" height="108.546" rx="3.5" stroke="#D6D3D1"/>
<mask id="mask2_9154_12294" style="mask-type:alpha" maskUnits="userSpaceOnUse" x="640" y="527" width="27" height="28">
<rect x="640.059" y="527.512" width="26.5464" height="26.5464" fill="#D9D9D9"/>
</mask>
<g mask="url(#mask2_9154_12294)">
<path d="M663.287 535.808H661.075V533.043H645.59V548.528H661.075V545.763H663.287V550.74H643.377V530.831H663.287V535.808ZM652.226 546.316V535.255H664.393V546.316H652.226ZM657.757 542.445C658.218 542.445 658.609 542.283 658.932 541.961C659.255 541.638 659.416 541.246 659.416 540.785C659.416 540.325 659.255 539.933 658.932 539.61C658.609 539.288 658.218 539.126 657.757 539.126C657.296 539.126 656.904 539.288 656.582 539.61C656.259 539.933 656.098 540.325 656.098 540.785C656.098 541.246 656.259 541.638 656.582 541.961C656.904 542.283 657.296 542.445 657.757 542.445ZM662.181 544.104V537.467H654.438V544.104H662.181Z" fill="#16A34A"/>
<mask id="path-17-outside-2_9154_12294" maskUnits="userSpaceOnUse" x="639.059" y="540.512" width="13" height="13" fill="black">
<rect fill="white" x="639.059" y="540.512" width="13" height="13"/>
<path fill-rule="evenodd" clip-rule="evenodd" d="M645.356 551.106C647.729 551.106 649.653 549.182 649.653 546.809C649.653 544.436 647.729 542.512 645.356 542.512C642.983 542.512 641.059 544.436 641.059 546.809C641.059 549.182 642.983 551.106 645.356 551.106ZM646.071 545.861L645.329 544.668L644.587 545.861L643.222 546.198L644.128 547.273L644.027 548.674L645.329 548.145L646.63 548.674L646.529 547.273L647.435 546.198L646.071 545.861Z"/>
</mask>
<path fill-rule="evenodd" clip-rule="evenodd" d="M645.356 551.106C647.729 551.106 649.653 549.182 649.653 546.809C649.653 544.436 647.729 542.512 645.356 542.512C642.983 542.512 641.059 544.436 641.059 546.809C641.059 549.182 642.983 551.106 645.356 551.106ZM646.071 545.861L645.329 544.668L644.587 545.861L643.222 546.198L644.128 547.273L644.027 548.674L645.329 548.145L646.63 548.674L646.529 547.273L647.435 546.198L646.071 545.861Z" fill="#16A34A"/>
<path d="M645.329 544.668L647.027 543.612L645.329 540.88L643.63 543.612L645.329 544.668ZM646.071 545.861L644.372 546.917L644.802 547.608L645.591 547.803L646.071 545.861ZM644.587 545.861L645.066 547.803L645.856 547.608L646.285 546.917L644.587 545.861ZM643.222 546.198L642.743 544.256L639.62 545.028L641.693 547.487L643.222 546.198ZM644.128 547.273L646.123 547.417L646.181 546.606L645.657 545.984L644.128 547.273ZM644.027 548.674L642.032 548.53L641.8 551.739L644.78 550.527L644.027 548.674ZM645.329 548.145L646.082 546.292L645.329 545.986L644.575 546.292L645.329 548.145ZM646.63 548.674L645.877 550.527L648.857 551.739L648.625 548.53L646.63 548.674ZM646.529 547.273L645 545.984L644.476 546.606L644.534 547.417L646.529 547.273ZM647.435 546.198L648.964 547.487L651.037 545.028L647.915 544.256L647.435 546.198ZM647.653 546.809C647.653 548.078 646.624 549.106 645.356 549.106V553.106C648.834 553.106 651.653 550.287 651.653 546.809H647.653ZM645.356 544.512C646.624 544.512 647.653 545.541 647.653 546.809H651.653C651.653 543.331 648.834 540.512 645.356 540.512V544.512ZM643.059 546.809C643.059 545.541 644.087 544.512 645.356 544.512V540.512C641.878 540.512 639.059 543.331 639.059 546.809H643.059ZM645.356 549.106C644.087 549.106 643.059 548.078 643.059 546.809H639.059C639.059 550.287 641.878 553.106 645.356 553.106V549.106ZM643.63 545.724L644.372 546.917L647.769 544.805L647.027 543.612L643.63 545.724ZM646.285 546.917L647.027 545.724L643.63 543.612L642.888 544.805L646.285 546.917ZM643.702 548.14L645.066 547.803L644.107 543.92L642.743 544.256L643.702 548.14ZM645.657 545.984L644.751 544.909L641.693 547.487L642.599 548.562L645.657 545.984ZM646.022 548.818L646.123 547.417L642.133 547.129L642.032 548.53L646.022 548.818ZM644.575 546.292L643.273 546.822L644.78 550.527L646.082 549.998L644.575 546.292ZM647.384 546.822L646.082 546.292L644.575 549.998L645.877 550.527L647.384 546.822ZM644.534 547.417L644.636 548.818L648.625 548.53L648.524 547.129L644.534 547.417ZM645.906 544.909L645 545.984L648.058 548.562L648.964 547.487L645.906 544.909ZM645.591 547.803L646.956 548.14L647.915 544.256L646.55 543.92L645.591 547.803Z" fill="white" mask="url(#path-17-outside-2_9154_12294)"/>
</g>
<path d="M641.337 573.422H643.468L647.173 582.468H647.309L651.014 573.422H653.144V585.059H651.474V576.638H651.366L647.934 585.042H646.548L643.116 576.632H643.008V585.059H641.337V573.422ZM658.1 585.252C657.547 585.252 657.047 585.15 656.6 584.945C656.153 584.737 655.799 584.435 655.538 584.042C655.28 583.648 655.151 583.165 655.151 582.593C655.151 582.1 655.246 581.695 655.436 581.377C655.625 581.059 655.881 580.807 656.203 580.621C656.525 580.435 656.884 580.295 657.282 580.201C657.68 580.106 658.085 580.034 658.498 579.985C659.021 579.924 659.445 579.875 659.771 579.837C660.096 579.795 660.333 579.729 660.481 579.638C660.629 579.547 660.703 579.4 660.703 579.195V579.155C660.703 578.659 660.562 578.275 660.282 578.002C660.006 577.729 659.593 577.593 659.043 577.593C658.471 577.593 658.021 577.72 657.691 577.973C657.365 578.223 657.14 578.502 657.015 578.809L655.418 578.445C655.608 577.915 655.884 577.487 656.248 577.161C656.615 576.831 657.038 576.593 657.515 576.445C657.992 576.293 658.494 576.218 659.021 576.218C659.369 576.218 659.739 576.259 660.129 576.343C660.523 576.422 660.89 576.57 661.231 576.786C661.576 577.002 661.858 577.31 662.078 577.712C662.297 578.11 662.407 578.627 662.407 579.263V585.059H660.748V583.865H660.68C660.57 584.085 660.405 584.301 660.186 584.513C659.966 584.725 659.684 584.901 659.339 585.042C658.994 585.182 658.581 585.252 658.1 585.252ZM658.47 583.888C658.939 583.888 659.341 583.795 659.674 583.61C660.011 583.424 660.267 583.182 660.441 582.882C660.619 582.579 660.708 582.256 660.708 581.911V580.786C660.648 580.846 660.53 580.903 660.356 580.956C660.186 581.006 659.99 581.049 659.771 581.087C659.551 581.121 659.337 581.153 659.129 581.184C658.92 581.21 658.746 581.233 658.606 581.252C658.276 581.293 657.975 581.364 657.703 581.462C657.434 581.56 657.218 581.703 657.055 581.888C656.896 582.07 656.816 582.312 656.816 582.615C656.816 583.036 656.971 583.354 657.282 583.57C657.593 583.782 657.989 583.888 658.47 583.888ZM671.21 578.462L669.67 578.735C669.605 578.538 669.503 578.35 669.363 578.172C669.227 577.994 669.041 577.848 668.806 577.735C668.571 577.621 668.278 577.564 667.926 577.564C667.444 577.564 667.043 577.672 666.721 577.888C666.399 578.1 666.238 578.375 666.238 578.712C666.238 579.004 666.346 579.239 666.562 579.417C666.778 579.595 667.126 579.74 667.607 579.854L668.994 580.172C669.797 580.358 670.395 580.644 670.789 581.03C671.183 581.417 671.38 581.918 671.38 582.536C671.38 583.059 671.229 583.525 670.926 583.934C670.626 584.339 670.208 584.657 669.67 584.888C669.136 585.119 668.516 585.235 667.812 585.235C666.835 585.235 666.037 585.026 665.42 584.61C664.802 584.189 664.424 583.593 664.284 582.82L665.926 582.57C666.028 582.998 666.238 583.322 666.556 583.542C666.874 583.757 667.289 583.865 667.801 583.865C668.357 583.865 668.802 583.75 669.136 583.519C669.469 583.284 669.636 582.998 669.636 582.661C669.636 582.388 669.534 582.159 669.329 581.973C669.128 581.788 668.819 581.648 668.403 581.553L666.926 581.229C666.111 581.043 665.509 580.748 665.119 580.343C664.732 579.937 664.539 579.424 664.539 578.803C664.539 578.288 664.683 577.837 664.971 577.451C665.259 577.064 665.657 576.763 666.164 576.547C666.672 576.328 667.253 576.218 667.909 576.218C668.852 576.218 669.594 576.422 670.136 576.831C670.677 577.237 671.035 577.78 671.21 578.462ZM677.322 576.331V577.695H672.555V576.331H677.322ZM673.833 574.24H675.532V582.496C675.532 582.826 675.581 583.074 675.68 583.24C675.778 583.403 675.905 583.515 676.061 583.576C676.22 583.632 676.392 583.661 676.578 583.661C676.714 583.661 676.833 583.651 676.936 583.632C677.038 583.614 677.117 583.598 677.174 583.587L677.481 584.99C677.382 585.028 677.242 585.066 677.061 585.104C676.879 585.146 676.651 585.168 676.379 585.172C675.932 585.18 675.515 585.1 675.129 584.934C674.742 584.767 674.43 584.509 674.191 584.161C673.953 583.812 673.833 583.375 673.833 582.848V574.24ZM682.869 585.235C682.009 585.235 681.268 585.051 680.647 584.684C680.03 584.312 679.552 583.792 679.215 583.121C678.882 582.447 678.715 581.657 678.715 580.752C678.715 579.858 678.882 579.07 679.215 578.388C679.552 577.706 680.022 577.174 680.624 576.792C681.23 576.409 681.939 576.218 682.749 576.218C683.242 576.218 683.719 576.299 684.181 576.462C684.643 576.625 685.058 576.881 685.426 577.229C685.793 577.578 686.083 578.03 686.295 578.587C686.507 579.14 686.613 579.812 686.613 580.604V581.206H679.676V579.934H684.948C684.948 579.487 684.857 579.091 684.676 578.746C684.494 578.398 684.238 578.123 683.909 577.922C683.583 577.721 683.2 577.621 682.761 577.621C682.284 577.621 681.867 577.739 681.511 577.973C681.159 578.204 680.886 578.507 680.693 578.882C680.503 579.254 680.409 579.657 680.409 580.093V581.087C680.409 581.67 680.511 582.167 680.715 582.576C680.924 582.985 681.213 583.297 681.585 583.513C681.956 583.725 682.39 583.831 682.886 583.831C683.208 583.831 683.501 583.786 683.766 583.695C684.032 583.6 684.261 583.46 684.454 583.275C684.647 583.089 684.795 582.86 684.897 582.587L686.505 582.877C686.376 583.35 686.145 583.765 685.812 584.121C685.482 584.473 685.068 584.748 684.568 584.945C684.071 585.138 683.505 585.235 682.869 585.235ZM688.498 585.059V576.331H690.14V577.718H690.231C690.39 577.248 690.67 576.879 691.072 576.61C691.477 576.337 691.936 576.201 692.447 576.201C692.553 576.201 692.678 576.204 692.822 576.212C692.97 576.22 693.085 576.229 693.168 576.24V577.865C693.1 577.846 692.979 577.826 692.805 577.803C692.631 577.776 692.456 577.763 692.282 577.763C691.881 577.763 691.523 577.848 691.208 578.019C690.898 578.185 690.651 578.418 690.47 578.718C690.288 579.013 690.197 579.35 690.197 579.729V585.059H688.498ZM699.992 585.059H698.129L702.316 573.422H704.345L708.532 585.059H706.668L703.379 575.536H703.288L699.992 585.059ZM700.305 580.502H706.35V581.979H700.305V580.502ZM713.612 585.235C712.767 585.235 712.04 585.043 711.43 584.661C710.824 584.275 710.358 583.742 710.032 583.064C709.706 582.386 709.543 581.61 709.543 580.735C709.543 579.848 709.71 579.066 710.043 578.388C710.377 577.706 710.846 577.174 711.453 576.792C712.059 576.409 712.773 576.218 713.595 576.218C714.257 576.218 714.848 576.341 715.367 576.587C715.886 576.829 716.305 577.17 716.623 577.61C716.945 578.049 717.136 578.562 717.197 579.15H715.543C715.453 578.74 715.244 578.388 714.918 578.093C714.596 577.797 714.165 577.65 713.623 577.65C713.15 577.65 712.735 577.775 712.379 578.025C712.026 578.271 711.752 578.623 711.555 579.081C711.358 579.536 711.259 580.074 711.259 580.695C711.259 581.331 711.356 581.881 711.549 582.343C711.742 582.805 712.015 583.163 712.367 583.417C712.723 583.67 713.142 583.797 713.623 583.797C713.945 583.797 714.237 583.739 714.498 583.621C714.763 583.5 714.985 583.328 715.163 583.104C715.345 582.881 715.471 582.612 715.543 582.297H717.197C717.136 582.862 716.953 583.365 716.646 583.809C716.339 584.252 715.928 584.6 715.413 584.854C714.901 585.108 714.301 585.235 713.612 585.235ZM722.69 585.235C721.845 585.235 721.118 585.043 720.508 584.661C719.902 584.275 719.436 583.742 719.11 583.064C718.784 582.386 718.622 581.61 718.622 580.735C718.622 579.848 718.788 579.066 719.122 578.388C719.455 577.706 719.925 577.174 720.531 576.792C721.137 576.409 721.851 576.218 722.673 576.218C723.336 576.218 723.927 576.341 724.445 576.587C724.964 576.829 725.383 577.17 725.701 577.61C726.023 578.049 726.214 578.562 726.275 579.15H724.622C724.531 578.74 724.322 578.388 723.997 578.093C723.675 577.797 723.243 577.65 722.701 577.65C722.228 577.65 721.813 577.775 721.457 578.025C721.105 578.271 720.83 578.623 720.633 579.081C720.436 579.536 720.337 580.074 720.337 580.695C720.337 581.331 720.434 581.881 720.627 582.343C720.82 582.805 721.093 583.163 721.445 583.417C721.802 583.67 722.22 583.797 722.701 583.797C723.023 583.797 723.315 583.739 723.576 583.621C723.841 583.5 724.063 583.328 724.241 583.104C724.423 582.881 724.55 582.612 724.622 582.297H726.275C726.214 582.862 726.031 583.365 725.724 583.809C725.417 584.252 725.006 584.6 724.491 584.854C723.98 585.108 723.379 585.235 722.69 585.235ZM731.768 585.235C730.95 585.235 730.236 585.047 729.626 584.672C729.016 584.297 728.543 583.773 728.205 583.098C727.868 582.424 727.7 581.636 727.7 580.735C727.7 579.829 727.868 579.038 728.205 578.36C728.543 577.682 729.016 577.155 729.626 576.78C730.236 576.405 730.95 576.218 731.768 576.218C732.586 576.218 733.3 576.405 733.91 576.78C734.52 577.155 734.993 577.682 735.33 578.36C735.668 579.038 735.836 579.829 735.836 580.735C735.836 581.636 735.668 582.424 735.33 583.098C734.993 583.773 734.52 584.297 733.91 584.672C733.3 585.047 732.586 585.235 731.768 585.235ZM731.774 583.809C732.304 583.809 732.743 583.668 733.092 583.388C733.44 583.108 733.698 582.735 733.864 582.269C734.035 581.803 734.12 581.29 734.12 580.729C734.12 580.172 734.035 579.661 733.864 579.195C733.698 578.725 733.44 578.348 733.092 578.064C732.743 577.78 732.304 577.638 731.774 577.638C731.239 577.638 730.796 577.78 730.444 578.064C730.096 578.348 729.836 578.725 729.666 579.195C729.499 579.661 729.416 580.172 729.416 580.729C729.416 581.29 729.499 581.803 729.666 582.269C729.836 582.735 730.096 583.108 730.444 583.388C730.796 583.668 731.239 583.809 731.774 583.809ZM743.261 581.439V576.331H744.965V585.059H743.295V583.547H743.204C743.003 584.013 742.681 584.401 742.238 584.712C741.799 585.019 741.251 585.172 740.596 585.172C740.035 585.172 739.539 585.049 739.107 584.803C738.679 584.553 738.342 584.184 738.096 583.695C737.854 583.206 737.732 582.602 737.732 581.882V576.331H739.431V581.678C739.431 582.273 739.596 582.746 739.926 583.098C740.255 583.451 740.683 583.627 741.21 583.627C741.528 583.627 741.844 583.547 742.159 583.388C742.477 583.229 742.74 582.989 742.948 582.667C743.16 582.345 743.265 581.935 743.261 581.439ZM748.947 579.877V585.059H747.248V576.331H748.879V577.752H748.987C749.187 577.29 749.502 576.918 749.93 576.638C750.362 576.358 750.905 576.218 751.561 576.218C752.155 576.218 752.676 576.343 753.123 576.593C753.57 576.839 753.917 577.206 754.163 577.695C754.409 578.184 754.532 578.788 754.532 579.507V585.059H752.833V579.712C752.833 579.079 752.668 578.585 752.339 578.229C752.009 577.869 751.557 577.689 750.981 577.689C750.587 577.689 750.237 577.775 749.93 577.945C749.627 578.115 749.386 578.365 749.208 578.695C749.034 579.021 748.947 579.415 748.947 579.877ZM760.884 576.331V577.695H756.117V576.331H760.884ZM757.396 574.24H759.095V582.496C759.095 582.826 759.144 583.074 759.242 583.24C759.341 583.403 759.468 583.515 759.623 583.576C759.782 583.632 759.954 583.661 760.14 583.661C760.276 583.661 760.396 583.651 760.498 583.632C760.6 583.614 760.68 583.598 760.737 583.587L761.043 584.99C760.945 585.028 760.805 585.066 760.623 585.104C760.441 585.146 760.214 585.168 759.941 585.172C759.494 585.18 759.078 585.1 758.691 584.934C758.305 584.767 757.992 584.509 757.754 584.161C757.515 583.812 757.396 583.375 757.396 582.848V574.24ZM766.975 585.059V583.786L770.913 579.706C771.333 579.263 771.68 578.875 771.953 578.542C772.229 578.204 772.436 577.884 772.572 577.581C772.708 577.278 772.776 576.956 772.776 576.615C772.776 576.229 772.686 575.896 772.504 575.615C772.322 575.331 772.074 575.114 771.759 574.962C771.445 574.807 771.091 574.729 770.697 574.729C770.28 574.729 769.917 574.814 769.606 574.985C769.295 575.155 769.057 575.396 768.89 575.706C768.723 576.017 768.64 576.381 768.64 576.797H766.964C766.964 576.089 767.127 575.47 767.453 574.939C767.778 574.409 768.225 573.998 768.793 573.706C769.362 573.411 770.007 573.263 770.731 573.263C771.462 573.263 772.106 573.409 772.663 573.701C773.223 573.989 773.661 574.382 773.975 574.882C774.29 575.379 774.447 575.939 774.447 576.564C774.447 576.996 774.365 577.418 774.203 577.831C774.043 578.244 773.765 578.704 773.367 579.212C772.97 579.716 772.417 580.328 771.708 581.047L769.396 583.468V583.553H774.634V585.059H766.975Z" fill="black"/>
<rect x="424.343" y="284.75" width="191.5" height="33.5" rx="3.25" fill="#F5F5F4"/>
<rect x="424.343" y="284.75" width="191.5" height="33.5" rx="3.25" stroke="#16A34A" stroke-width="1.5"/>
<path d="M432.872 295.364H435.002L438.707 304.409H438.843L442.548 295.364H444.678V307H443.008V298.58H442.9L439.468 306.983H438.082L434.65 298.574H434.542V307H432.872V295.364ZM449.634 307.193C449.081 307.193 448.581 307.091 448.134 306.886C447.687 306.678 447.333 306.377 447.072 305.983C446.814 305.589 446.686 305.106 446.686 304.534C446.686 304.042 446.78 303.636 446.97 303.318C447.159 303 447.415 302.748 447.737 302.562C448.059 302.377 448.419 302.237 448.816 302.142C449.214 302.047 449.619 301.975 450.032 301.926C450.555 301.866 450.979 301.816 451.305 301.778C451.631 301.737 451.867 301.67 452.015 301.58C452.163 301.489 452.237 301.341 452.237 301.136V301.097C452.237 300.6 452.097 300.216 451.816 299.943C451.54 299.67 451.127 299.534 450.578 299.534C450.006 299.534 449.555 299.661 449.225 299.915C448.9 300.165 448.674 300.443 448.549 300.75L446.953 300.386C447.142 299.856 447.419 299.428 447.782 299.102C448.15 298.773 448.572 298.534 449.049 298.386C449.527 298.235 450.028 298.159 450.555 298.159C450.903 298.159 451.273 298.201 451.663 298.284C452.057 298.364 452.424 298.511 452.765 298.727C453.11 298.943 453.392 299.252 453.612 299.653C453.831 300.051 453.941 300.568 453.941 301.205V307H452.282V305.807H452.214C452.104 306.027 451.939 306.242 451.72 306.455C451.5 306.667 451.218 306.843 450.873 306.983C450.528 307.123 450.116 307.193 449.634 307.193ZM450.004 305.83C450.473 305.83 450.875 305.737 451.208 305.551C451.545 305.366 451.801 305.123 451.975 304.824C452.153 304.521 452.242 304.197 452.242 303.852V302.727C452.182 302.788 452.064 302.845 451.89 302.898C451.72 302.947 451.525 302.991 451.305 303.028C451.085 303.062 450.871 303.095 450.663 303.125C450.455 303.152 450.28 303.174 450.14 303.193C449.811 303.235 449.509 303.305 449.237 303.403C448.968 303.502 448.752 303.644 448.589 303.83C448.43 304.011 448.35 304.254 448.35 304.557C448.35 304.977 448.506 305.295 448.816 305.511C449.127 305.723 449.523 305.83 450.004 305.83ZM462.744 300.403L461.204 300.676C461.14 300.479 461.037 300.292 460.897 300.114C460.761 299.936 460.575 299.79 460.34 299.676C460.106 299.562 459.812 299.506 459.46 299.506C458.979 299.506 458.577 299.614 458.255 299.83C457.933 300.042 457.772 300.316 457.772 300.653C457.772 300.945 457.88 301.18 458.096 301.358C458.312 301.536 458.66 301.682 459.142 301.795L460.528 302.114C461.331 302.299 461.929 302.585 462.323 302.972C462.717 303.358 462.914 303.86 462.914 304.477C462.914 305 462.763 305.466 462.46 305.875C462.16 306.28 461.742 306.598 461.204 306.83C460.67 307.061 460.051 307.176 459.346 307.176C458.369 307.176 457.571 306.968 456.954 306.551C456.337 306.131 455.958 305.534 455.818 304.761L457.46 304.511C457.562 304.939 457.772 305.263 458.09 305.483C458.409 305.699 458.823 305.807 459.335 305.807C459.892 305.807 460.337 305.691 460.67 305.46C461.003 305.225 461.17 304.939 461.17 304.602C461.17 304.33 461.068 304.1 460.863 303.915C460.662 303.729 460.354 303.589 459.937 303.494L458.46 303.17C457.645 302.985 457.043 302.689 456.653 302.284C456.267 301.879 456.073 301.366 456.073 300.744C456.073 300.229 456.217 299.778 456.505 299.392C456.793 299.006 457.191 298.705 457.698 298.489C458.206 298.269 458.787 298.159 459.443 298.159C460.386 298.159 461.128 298.364 461.67 298.773C462.212 299.178 462.57 299.722 462.744 300.403ZM468.856 298.273V299.636H464.089V298.273H468.856ZM465.367 296.182H467.066V304.438C467.066 304.767 467.116 305.015 467.214 305.182C467.312 305.345 467.439 305.456 467.595 305.517C467.754 305.574 467.926 305.602 468.112 305.602C468.248 305.602 468.367 305.593 468.47 305.574C468.572 305.555 468.652 305.54 468.708 305.528L469.015 306.932C468.917 306.97 468.777 307.008 468.595 307.045C468.413 307.087 468.186 307.11 467.913 307.114C467.466 307.121 467.049 307.042 466.663 306.875C466.277 306.708 465.964 306.451 465.725 306.102C465.487 305.754 465.367 305.316 465.367 304.79V296.182ZM474.403 307.176C473.543 307.176 472.803 306.992 472.181 306.625C471.564 306.254 471.087 305.733 470.75 305.062C470.416 304.388 470.25 303.598 470.25 302.693C470.25 301.799 470.416 301.011 470.75 300.33C471.087 299.648 471.556 299.116 472.159 298.733C472.765 298.35 473.473 298.159 474.284 298.159C474.776 298.159 475.253 298.241 475.715 298.403C476.178 298.566 476.592 298.822 476.96 299.17C477.327 299.519 477.617 299.972 477.829 300.528C478.041 301.081 478.147 301.754 478.147 302.545V303.148H471.21V301.875H476.482C476.482 301.428 476.392 301.032 476.21 300.688C476.028 300.339 475.772 300.064 475.443 299.864C475.117 299.663 474.734 299.562 474.295 299.562C473.818 299.562 473.401 299.68 473.045 299.915C472.693 300.146 472.42 300.449 472.227 300.824C472.037 301.195 471.943 301.598 471.943 302.034V303.028C471.943 303.612 472.045 304.108 472.25 304.517C472.458 304.926 472.748 305.239 473.119 305.455C473.49 305.667 473.924 305.773 474.42 305.773C474.742 305.773 475.035 305.727 475.301 305.636C475.566 305.542 475.795 305.402 475.988 305.216C476.181 305.03 476.329 304.801 476.431 304.528L478.039 304.818C477.91 305.292 477.679 305.706 477.346 306.062C477.017 306.415 476.602 306.689 476.102 306.886C475.606 307.08 475.039 307.176 474.403 307.176ZM480.032 307V298.273H481.674V299.659H481.765C481.924 299.189 482.205 298.82 482.606 298.551C483.011 298.278 483.47 298.142 483.981 298.142C484.087 298.142 484.212 298.146 484.356 298.153C484.504 298.161 484.619 298.17 484.703 298.182V299.807C484.634 299.788 484.513 299.767 484.339 299.744C484.165 299.718 483.991 299.705 483.816 299.705C483.415 299.705 483.057 299.79 482.742 299.96C482.432 300.127 482.186 300.36 482.004 300.659C481.822 300.955 481.731 301.292 481.731 301.67V307H480.032ZM491.527 307H489.663L493.85 295.364H495.879L500.066 307H498.203L494.913 297.477H494.822L491.527 307ZM491.839 302.443H497.884V303.92H491.839V302.443ZM505.146 307.176C504.301 307.176 503.574 306.985 502.964 306.602C502.358 306.216 501.892 305.684 501.566 305.006C501.241 304.328 501.078 303.551 501.078 302.676C501.078 301.79 501.244 301.008 501.578 300.33C501.911 299.648 502.381 299.116 502.987 298.733C503.593 298.35 504.307 298.159 505.129 298.159C505.792 298.159 506.383 298.282 506.902 298.528C507.42 298.771 507.839 299.112 508.157 299.551C508.479 299.991 508.67 300.504 508.731 301.091H507.078C506.987 300.682 506.778 300.33 506.453 300.034C506.131 299.739 505.699 299.591 505.157 299.591C504.684 299.591 504.269 299.716 503.913 299.966C503.561 300.212 503.286 300.564 503.089 301.023C502.892 301.477 502.794 302.015 502.794 302.636C502.794 303.273 502.89 303.822 503.083 304.284C503.277 304.746 503.549 305.104 503.902 305.358C504.258 305.612 504.676 305.739 505.157 305.739C505.479 305.739 505.771 305.68 506.032 305.562C506.297 305.441 506.519 305.269 506.697 305.045C506.879 304.822 507.006 304.553 507.078 304.239H508.731C508.67 304.803 508.487 305.307 508.18 305.75C507.873 306.193 507.462 306.542 506.947 306.795C506.436 307.049 505.835 307.176 505.146 307.176ZM514.224 307.176C513.379 307.176 512.652 306.985 512.042 306.602C511.436 306.216 510.97 305.684 510.644 305.006C510.319 304.328 510.156 303.551 510.156 302.676C510.156 301.79 510.322 301.008 510.656 300.33C510.989 299.648 511.459 299.116 512.065 298.733C512.671 298.35 513.385 298.159 514.207 298.159C514.87 298.159 515.461 298.282 515.98 298.528C516.499 298.771 516.917 299.112 517.235 299.551C517.557 299.991 517.749 300.504 517.809 301.091H516.156C516.065 300.682 515.857 300.33 515.531 300.034C515.209 299.739 514.777 299.591 514.235 299.591C513.762 299.591 513.347 299.716 512.991 299.966C512.639 300.212 512.364 300.564 512.167 301.023C511.97 301.477 511.872 302.015 511.872 302.636C511.872 303.273 511.968 303.822 512.161 304.284C512.355 304.746 512.627 305.104 512.98 305.358C513.336 305.612 513.754 305.739 514.235 305.739C514.557 305.739 514.849 305.68 515.11 305.562C515.375 305.441 515.597 305.269 515.775 305.045C515.957 304.822 516.084 304.553 516.156 304.239H517.809C517.749 304.803 517.565 305.307 517.258 305.75C516.951 306.193 516.54 306.542 516.025 306.795C515.514 307.049 514.913 307.176 514.224 307.176ZM523.302 307.176C522.484 307.176 521.77 306.989 521.16 306.614C520.55 306.239 520.077 305.714 519.74 305.04C519.402 304.366 519.234 303.578 519.234 302.676C519.234 301.771 519.402 300.979 519.74 300.301C520.077 299.623 520.55 299.097 521.16 298.722C521.77 298.347 522.484 298.159 523.302 298.159C524.12 298.159 524.834 298.347 525.444 298.722C526.054 299.097 526.527 299.623 526.865 300.301C527.202 300.979 527.37 301.771 527.37 302.676C527.37 303.578 527.202 304.366 526.865 305.04C526.527 305.714 526.054 306.239 525.444 306.614C524.834 306.989 524.12 307.176 523.302 307.176ZM523.308 305.75C523.838 305.75 524.277 305.61 524.626 305.33C524.974 305.049 525.232 304.676 525.399 304.21C525.569 303.744 525.654 303.231 525.654 302.67C525.654 302.114 525.569 301.602 525.399 301.136C525.232 300.667 524.974 300.29 524.626 300.006C524.277 299.722 523.838 299.58 523.308 299.58C522.774 299.58 522.33 299.722 521.978 300.006C521.63 300.29 521.37 300.667 521.2 301.136C521.033 301.602 520.95 302.114 520.95 302.67C520.95 303.231 521.033 303.744 521.2 304.21C521.37 304.676 521.63 305.049 521.978 305.33C522.33 305.61 522.774 305.75 523.308 305.75ZM534.795 303.381V298.273H536.5V307H534.829V305.489H534.738C534.537 305.955 534.215 306.343 533.772 306.653C533.333 306.96 532.785 307.114 532.13 307.114C531.57 307.114 531.073 306.991 530.642 306.744C530.214 306.494 529.876 306.125 529.63 305.636C529.388 305.148 529.267 304.544 529.267 303.824V298.273H530.965V303.619C530.965 304.214 531.13 304.687 531.46 305.04C531.789 305.392 532.217 305.568 532.744 305.568C533.062 305.568 533.378 305.489 533.693 305.33C534.011 305.17 534.274 304.93 534.482 304.608C534.695 304.286 534.799 303.877 534.795 303.381ZM540.481 301.818V307H538.782V298.273H540.413V299.693H540.521C540.722 299.231 541.036 298.86 541.464 298.58C541.896 298.299 542.439 298.159 543.095 298.159C543.689 298.159 544.21 298.284 544.657 298.534C545.104 298.78 545.451 299.148 545.697 299.636C545.943 300.125 546.066 300.729 546.066 301.449V307H544.367V301.653C544.367 301.021 544.203 300.527 543.873 300.17C543.544 299.811 543.091 299.631 542.515 299.631C542.121 299.631 541.771 299.716 541.464 299.886C541.161 300.057 540.92 300.307 540.742 300.636C540.568 300.962 540.481 301.356 540.481 301.818ZM552.419 298.273V299.636H547.652V298.273H552.419ZM548.93 296.182H550.629V304.438C550.629 304.767 550.678 305.015 550.777 305.182C550.875 305.345 551.002 305.456 551.157 305.517C551.316 305.574 551.489 305.602 551.674 305.602C551.811 305.602 551.93 305.593 552.032 305.574C552.134 305.555 552.214 305.54 552.271 305.528L552.578 306.932C552.479 306.97 552.339 307.008 552.157 307.045C551.975 307.087 551.748 307.11 551.475 307.114C551.028 307.121 550.612 307.042 550.225 306.875C549.839 306.708 549.527 306.451 549.288 306.102C549.049 305.754 548.93 305.316 548.93 304.79V296.182ZM558.669 307V295.364H560.424V300.42H566.225V295.364H567.987V307H566.225V301.926H560.424V307H558.669ZM574.083 307.176C573.265 307.176 572.551 306.989 571.941 306.614C571.331 306.239 570.858 305.714 570.521 305.04C570.184 304.366 570.015 303.578 570.015 302.676C570.015 301.771 570.184 300.979 570.521 300.301C570.858 299.623 571.331 299.097 571.941 298.722C572.551 298.347 573.265 298.159 574.083 298.159C574.902 298.159 575.616 298.347 576.225 298.722C576.835 299.097 577.309 299.623 577.646 300.301C577.983 300.979 578.152 301.771 578.152 302.676C578.152 303.578 577.983 304.366 577.646 305.04C577.309 305.714 576.835 306.239 576.225 306.614C575.616 306.989 574.902 307.176 574.083 307.176ZM574.089 305.75C574.619 305.75 575.059 305.61 575.407 305.33C575.756 305.049 576.013 304.676 576.18 304.21C576.35 303.744 576.436 303.231 576.436 302.67C576.436 302.114 576.35 301.602 576.18 301.136C576.013 300.667 575.756 300.29 575.407 300.006C575.059 299.722 574.619 299.58 574.089 299.58C573.555 299.58 573.112 299.722 572.759 300.006C572.411 300.29 572.152 300.667 571.981 301.136C571.814 301.602 571.731 302.114 571.731 302.67C571.731 303.231 571.814 303.744 571.981 304.21C572.152 304.676 572.411 305.049 572.759 305.33C573.112 305.61 573.555 305.75 574.089 305.75ZM581.747 295.364V307H580.048V295.364H581.747ZM587.299 307.17C586.595 307.17 585.966 306.991 585.413 306.631C584.864 306.267 584.432 305.75 584.117 305.08C583.807 304.405 583.652 303.597 583.652 302.653C583.652 301.71 583.809 300.903 584.123 300.233C584.441 299.562 584.877 299.049 585.43 298.693C585.983 298.337 586.61 298.159 587.311 298.159C587.852 298.159 588.288 298.25 588.617 298.432C588.951 298.61 589.208 298.818 589.39 299.057C589.576 299.295 589.72 299.506 589.822 299.688H589.924V295.364H591.623V307H589.964V305.642H589.822C589.72 305.828 589.572 306.04 589.379 306.278C589.189 306.517 588.928 306.725 588.595 306.903C588.261 307.081 587.83 307.17 587.299 307.17ZM587.674 305.722C588.163 305.722 588.576 305.593 588.913 305.335C589.254 305.074 589.511 304.712 589.686 304.25C589.864 303.788 589.953 303.25 589.953 302.636C589.953 302.03 589.866 301.5 589.691 301.045C589.517 300.591 589.261 300.237 588.924 299.983C588.587 299.729 588.17 299.602 587.674 299.602C587.163 299.602 586.737 299.735 586.396 300C586.055 300.265 585.797 300.627 585.623 301.085C585.453 301.544 585.367 302.061 585.367 302.636C585.367 303.22 585.455 303.744 585.629 304.21C585.803 304.676 586.061 305.045 586.402 305.318C586.746 305.587 587.17 305.722 587.674 305.722ZM597.809 307.176C596.949 307.176 596.209 306.992 595.588 306.625C594.97 306.254 594.493 305.733 594.156 305.062C593.822 304.388 593.656 303.598 593.656 302.693C593.656 301.799 593.822 301.011 594.156 300.33C594.493 299.648 594.963 299.116 595.565 298.733C596.171 298.35 596.879 298.159 597.69 298.159C598.182 298.159 598.66 298.241 599.122 298.403C599.584 298.566 599.999 298.822 600.366 299.17C600.733 299.519 601.023 299.972 601.235 300.528C601.447 301.081 601.553 301.754 601.553 302.545V303.148H594.616V301.875H599.889C599.889 301.428 599.798 301.032 599.616 300.688C599.434 300.339 599.178 300.064 598.849 299.864C598.523 299.663 598.141 299.562 597.701 299.562C597.224 299.562 596.807 299.68 596.451 299.915C596.099 300.146 595.826 300.449 595.633 300.824C595.444 301.195 595.349 301.598 595.349 302.034V303.028C595.349 303.612 595.451 304.108 595.656 304.517C595.864 304.926 596.154 305.239 596.525 305.455C596.896 305.667 597.33 305.773 597.826 305.773C598.148 305.773 598.442 305.727 598.707 305.636C598.972 305.542 599.201 305.402 599.394 305.216C599.588 305.03 599.735 304.801 599.838 304.528L601.446 304.818C601.317 305.292 601.086 305.706 600.752 306.062C600.423 306.415 600.008 306.689 599.508 306.886C599.012 307.08 598.446 307.176 597.809 307.176ZM603.438 307V298.273H605.08V299.659H605.171C605.33 299.189 605.611 298.82 606.012 298.551C606.418 298.278 606.876 298.142 607.387 298.142C607.493 298.142 607.618 298.146 607.762 298.153C607.91 298.161 608.026 298.17 608.109 298.182V299.807C608.041 299.788 607.919 299.767 607.745 299.744C607.571 299.718 607.397 299.705 607.223 299.705C606.821 299.705 606.463 299.79 606.149 299.96C605.838 300.127 605.592 300.36 605.41 300.659C605.228 300.955 605.137 301.292 605.137 301.67V307H603.438Z" fill="#16A34A"/>
</svg>
