<svg width="1041" height="680" viewBox="0 0 1041 680" fill="none" xmlns="http://www.w3.org/2000/svg">
<rect width="1040" height="680" transform="translate(0.529419)" fill="#F5F5F4"/>
<rect x="54.7045" y="130.227" width="174" height="108.546" rx="3.5" fill="white"/>
<rect x="54.7045" y="130.227" width="174" height="108.546" rx="3.5" stroke="#D6D3D1"/>
<mask id="mask0_9154_11998" style="mask-type:alpha" maskUnits="userSpaceOnUse" x="74" y="153" width="27" height="28">
<rect x="74.2045" y="153.727" width="26.5464" height="26.5464" fill="#D9D9D9"/>
</mask>
<g mask="url(#mask0_9154_11998)">
<path d="M97.4327 162.023H95.2205V159.257H79.735V174.743H95.2205V171.978H97.4327V176.955H77.5228V157.045H97.4327V162.023ZM86.3716 172.531V161.47H98.5388V172.531H86.3716ZM91.9021 168.659C92.363 168.659 92.7548 168.498 93.0774 168.175C93.4 167.853 93.5613 167.461 93.5613 167C93.5613 166.539 93.4 166.147 93.0774 165.825C92.7548 165.502 92.363 165.341 91.9021 165.341C91.4413 165.341 91.0495 165.502 90.7269 165.825C90.4043 166.147 90.243 166.539 90.243 167C90.243 167.461 90.4043 167.853 90.7269 168.175C91.0495 168.498 91.4413 168.659 91.9021 168.659ZM96.3266 170.318V163.682H88.5838V170.318H96.3266Z" fill="#16A34A"/>
</g>
<path d="M81.8295 202.694C81.7689 202.156 81.5189 201.739 81.0795 201.444C80.6401 201.144 80.087 200.995 79.4204 200.995C78.9431 200.995 78.5302 201.071 78.1817 201.222C77.8333 201.37 77.5624 201.574 77.3692 201.836C77.1798 202.093 77.0851 202.387 77.0851 202.716C77.0851 202.993 77.1495 203.232 77.2783 203.432C77.4109 203.633 77.5833 203.802 77.7954 203.938C78.0113 204.071 78.2423 204.182 78.4886 204.273C78.7348 204.36 78.9715 204.432 79.1988 204.489L80.3351 204.785C80.7064 204.875 81.087 204.999 81.4772 205.154C81.8673 205.309 82.2291 205.514 82.5624 205.768C82.8958 206.021 83.1647 206.336 83.3692 206.711C83.5776 207.086 83.6817 207.535 83.6817 208.057C83.6817 208.716 83.5113 209.302 83.1704 209.813C82.8333 210.324 82.3427 210.728 81.6988 211.023C81.0586 211.319 80.284 211.466 79.3749 211.466C78.5037 211.466 77.7499 211.328 77.1136 211.052C76.4772 210.775 75.9791 210.383 75.6192 209.875C75.2594 209.364 75.0605 208.758 75.0226 208.057H76.784C76.8181 208.478 76.9545 208.828 77.1931 209.108C77.4355 209.385 77.7442 209.591 78.1192 209.728C78.498 209.86 78.9128 209.927 79.3636 209.927C79.8598 209.927 80.3011 209.849 80.6874 209.694C81.0776 209.535 81.3844 209.315 81.6079 209.035C81.8314 208.75 81.9431 208.419 81.9431 208.04C81.9431 207.696 81.8446 207.413 81.6476 207.194C81.4545 206.974 81.1912 206.792 80.8579 206.648C80.5283 206.504 80.1552 206.377 79.7386 206.268L78.3636 205.893C77.4317 205.639 76.6931 205.266 76.1476 204.773C75.606 204.281 75.3351 203.629 75.3351 202.819C75.3351 202.148 75.517 201.563 75.8806 201.063C76.2442 200.563 76.7367 200.175 77.3579 199.898C77.9791 199.618 78.6798 199.478 79.4601 199.478C80.248 199.478 80.9431 199.616 81.5454 199.893C82.1514 200.169 82.6287 200.55 82.9772 201.035C83.3257 201.516 83.5075 202.069 83.5226 202.694H81.8295ZM91.1718 207.654V202.546H92.8763V211.273H91.2059V209.762H91.115C90.9142 210.228 90.5923 210.616 90.1491 210.927C89.7097 211.233 89.1623 211.387 88.507 211.387C87.9464 211.387 87.4502 211.264 87.0184 211.018C86.5904 210.768 86.2532 210.398 86.007 209.91C85.7646 209.421 85.6434 208.817 85.6434 208.097V202.546H87.3423V207.893C87.3423 208.487 87.507 208.961 87.8366 209.313C88.1661 209.665 88.5941 209.841 89.1207 209.841C89.4388 209.841 89.7551 209.762 90.0695 209.603C90.3877 209.444 90.651 209.203 90.8593 208.881C91.0714 208.559 91.1756 208.15 91.1718 207.654ZM95.2954 211.273V199.637H96.9942V203.961H97.0965C97.195 203.779 97.337 203.569 97.5226 203.33C97.7083 203.091 97.9658 202.883 98.2954 202.705C98.6249 202.523 99.0605 202.432 99.6022 202.432C100.307 202.432 100.936 202.61 101.489 202.966C102.042 203.322 102.475 203.836 102.79 204.506C103.108 205.177 103.267 205.983 103.267 206.927C103.267 207.87 103.11 208.678 102.795 209.353C102.481 210.023 102.049 210.54 101.5 210.904C100.951 211.264 100.324 211.444 99.6192 211.444C99.0889 211.444 98.6552 211.355 98.3181 211.177C97.9848 210.999 97.7234 210.79 97.534 210.552C97.3446 210.313 97.1988 210.101 97.0965 209.915H96.9545V211.273H95.2954ZM96.9601 206.91C96.9601 207.523 97.0492 208.061 97.2272 208.523C97.4052 208.985 97.6628 209.347 97.9999 209.608C98.337 209.866 98.7499 209.995 99.2386 209.995C99.7461 209.995 100.17 209.86 100.511 209.591C100.852 209.319 101.11 208.949 101.284 208.483C101.462 208.018 101.551 207.493 101.551 206.91C101.551 206.334 101.464 205.817 101.29 205.358C101.119 204.9 100.862 204.538 100.517 204.273C100.176 204.008 99.7499 203.875 99.2386 203.875C98.7461 203.875 98.3295 204.002 97.9886 204.256C97.6514 204.51 97.3958 204.864 97.2215 205.319C97.0473 205.773 96.9601 206.303 96.9601 206.91ZM110.528 211.273H108.665L112.852 199.637H114.881L119.068 211.273H117.204L113.915 201.75H113.824L110.528 211.273ZM110.841 206.716H116.886V208.194H110.841V206.716ZM124.148 211.449C123.303 211.449 122.576 211.258 121.966 210.875C121.36 210.489 120.894 209.957 120.568 209.279C120.242 208.601 120.079 207.824 120.079 206.949C120.079 206.063 120.246 205.281 120.579 204.603C120.913 203.921 121.382 203.389 121.989 203.006C122.595 202.624 123.309 202.432 124.131 202.432C124.793 202.432 125.384 202.555 125.903 202.802C126.422 203.044 126.841 203.385 127.159 203.824C127.481 204.264 127.672 204.777 127.733 205.364H126.079C125.989 204.955 125.78 204.603 125.454 204.307C125.132 204.012 124.701 203.864 124.159 203.864C123.686 203.864 123.271 203.989 122.915 204.239C122.562 204.485 122.288 204.838 122.091 205.296C121.894 205.75 121.795 206.288 121.795 206.91C121.795 207.546 121.892 208.095 122.085 208.557C122.278 209.019 122.551 209.377 122.903 209.631C123.259 209.885 123.678 210.012 124.159 210.012C124.481 210.012 124.773 209.953 125.034 209.836C125.299 209.714 125.521 209.542 125.699 209.319C125.881 209.095 126.007 208.826 126.079 208.512H127.733C127.672 209.076 127.489 209.58 127.182 210.023C126.875 210.466 126.464 210.815 125.949 211.069C125.437 211.322 124.837 211.449 124.148 211.449ZM133.226 211.449C132.381 211.449 131.654 211.258 131.044 210.875C130.438 210.489 129.972 209.957 129.646 209.279C129.32 208.601 129.158 207.824 129.158 206.949C129.158 206.063 129.324 205.281 129.658 204.603C129.991 203.921 130.461 203.389 131.067 203.006C131.673 202.624 132.387 202.432 133.209 202.432C133.872 202.432 134.463 202.555 134.981 202.802C135.5 203.044 135.919 203.385 136.237 203.824C136.559 204.264 136.75 204.777 136.811 205.364H135.158C135.067 204.955 134.858 204.603 134.533 204.307C134.211 204.012 133.779 203.864 133.237 203.864C132.764 203.864 132.349 203.989 131.993 204.239C131.641 204.485 131.366 204.838 131.169 205.296C130.972 205.75 130.874 206.288 130.874 206.91C130.874 207.546 130.97 208.095 131.163 208.557C131.356 209.019 131.629 209.377 131.981 209.631C132.338 209.885 132.756 210.012 133.237 210.012C133.559 210.012 133.851 209.953 134.112 209.836C134.377 209.714 134.599 209.542 134.777 209.319C134.959 209.095 135.086 208.826 135.158 208.512H136.811C136.75 209.076 136.567 209.58 136.26 210.023C135.953 210.466 135.542 210.815 135.027 211.069C134.516 211.322 133.915 211.449 133.226 211.449ZM142.304 211.449C141.486 211.449 140.772 211.262 140.162 210.887C139.552 210.512 139.079 209.987 138.741 209.313C138.404 208.639 138.236 207.851 138.236 206.949C138.236 206.044 138.404 205.252 138.741 204.574C139.079 203.896 139.552 203.37 140.162 202.995C140.772 202.62 141.486 202.432 142.304 202.432C143.122 202.432 143.836 202.62 144.446 202.995C145.056 203.37 145.529 203.896 145.866 204.574C146.204 205.252 146.372 206.044 146.372 206.949C146.372 207.851 146.204 208.639 145.866 209.313C145.529 209.987 145.056 210.512 144.446 210.887C143.836 211.262 143.122 211.449 142.304 211.449ZM142.31 210.023C142.84 210.023 143.279 209.883 143.628 209.603C143.976 209.322 144.234 208.949 144.4 208.483C144.571 208.018 144.656 207.504 144.656 206.944C144.656 206.387 144.571 205.875 144.4 205.41C144.234 204.94 143.976 204.563 143.628 204.279C143.279 203.995 142.84 203.853 142.31 203.853C141.775 203.853 141.332 203.995 140.98 204.279C140.632 204.563 140.372 204.94 140.202 205.41C140.035 205.875 139.952 206.387 139.952 206.944C139.952 207.504 140.035 208.018 140.202 208.483C140.372 208.949 140.632 209.322 140.98 209.603C141.332 209.883 141.775 210.023 142.31 210.023ZM153.797 207.654V202.546H155.501V211.273H153.831V209.762H153.74C153.539 210.228 153.217 210.616 152.774 210.927C152.335 211.233 151.787 211.387 151.132 211.387C150.571 211.387 150.075 211.264 149.643 211.018C149.215 210.768 148.878 210.398 148.632 209.91C148.39 209.421 148.268 208.817 148.268 208.097V202.546H149.967V207.893C149.967 208.487 150.132 208.961 150.462 209.313C150.791 209.665 151.219 209.841 151.746 209.841C152.064 209.841 152.38 209.762 152.695 209.603C153.013 209.444 153.276 209.203 153.484 208.881C153.696 208.559 153.801 208.15 153.797 207.654ZM159.483 206.091V211.273H157.784V202.546H159.415V203.966H159.523C159.723 203.504 160.038 203.133 160.466 202.853C160.898 202.572 161.441 202.432 162.097 202.432C162.691 202.432 163.212 202.557 163.659 202.807C164.106 203.053 164.453 203.421 164.699 203.91C164.945 204.398 165.068 205.002 165.068 205.722V211.273H163.369V205.927C163.369 205.294 163.204 204.8 162.875 204.444C162.545 204.084 162.093 203.904 161.517 203.904C161.123 203.904 160.773 203.989 160.466 204.16C160.163 204.33 159.922 204.58 159.744 204.91C159.57 205.235 159.483 205.629 159.483 206.091ZM171.42 202.546V203.91H166.653V202.546H171.42ZM167.932 200.455H169.631V208.711C169.631 209.04 169.68 209.288 169.778 209.455C169.877 209.618 170.004 209.73 170.159 209.79C170.318 209.847 170.49 209.875 170.676 209.875C170.812 209.875 170.932 209.866 171.034 209.847C171.136 209.828 171.216 209.813 171.273 209.802L171.579 211.205C171.481 211.243 171.341 211.281 171.159 211.319C170.977 211.36 170.75 211.383 170.477 211.387C170.03 211.394 169.614 211.315 169.227 211.148C168.841 210.982 168.528 210.724 168.29 210.375C168.051 210.027 167.932 209.589 167.932 209.063V200.455Z" fill="black"/>
<rect x="427.529" y="130.227" width="180" height="108.546" rx="3.5" fill="white"/>
<rect x="427.529" y="130.227" width="180" height="108.546" rx="3.5" stroke="#D6D3D1"/>
<mask id="mask1_9154_11998" style="mask-type:alpha" maskUnits="userSpaceOnUse" x="447" y="153" width="27" height="28">
<rect x="447.029" y="153.727" width="26.5464" height="26.5464" fill="#D9D9D9"/>
</mask>
<g mask="url(#mask1_9154_11998)">
<path d="M470.258 162.023H468.045V159.257H452.56V174.743H468.045V171.978H470.258V176.955H450.348V157.045H470.258V162.023ZM459.197 172.531V161.47H471.364V172.531H459.197ZM464.727 168.659C465.188 168.659 465.58 168.498 465.902 168.175C466.225 167.853 466.386 167.461 466.386 167C466.386 166.539 466.225 166.147 465.902 165.825C465.58 165.502 465.188 165.341 464.727 165.341C464.266 165.341 463.874 165.502 463.552 165.825C463.229 166.147 463.068 166.539 463.068 167C463.068 167.461 463.229 167.853 463.552 168.175C463.874 168.498 464.266 168.659 464.727 168.659ZM469.152 170.318V163.682H461.409V170.318H469.152Z" fill="#16A34A"/>
<mask id="path-8-outside-1_9154_11998" maskUnits="userSpaceOnUse" x="446.029" y="166.727" width="13" height="13" fill="black">
<rect fill="white" x="446.029" y="166.727" width="13" height="13"/>
<path fill-rule="evenodd" clip-rule="evenodd" d="M452.326 177.321C454.699 177.321 456.623 175.397 456.623 173.024C456.623 170.651 454.699 168.727 452.326 168.727C449.953 168.727 448.029 170.651 448.029 173.024C448.029 175.397 449.953 177.321 452.326 177.321ZM453.041 172.076L452.299 170.882L451.557 172.076L450.193 172.413L451.098 173.487L450.997 174.889L452.299 174.36L453.601 174.889L453.5 173.487L454.405 172.413L453.041 172.076Z"/>
</mask>
<path fill-rule="evenodd" clip-rule="evenodd" d="M452.326 177.321C454.699 177.321 456.623 175.397 456.623 173.024C456.623 170.651 454.699 168.727 452.326 168.727C449.953 168.727 448.029 170.651 448.029 173.024C448.029 175.397 449.953 177.321 452.326 177.321ZM453.041 172.076L452.299 170.882L451.557 172.076L450.193 172.413L451.098 173.487L450.997 174.889L452.299 174.36L453.601 174.889L453.5 173.487L454.405 172.413L453.041 172.076Z" fill="#16A34A"/>
<path d="M452.299 170.882L453.997 169.826L452.299 167.095L450.6 169.826L452.299 170.882ZM453.041 172.076L451.343 173.132L451.772 173.823L452.562 174.017L453.041 172.076ZM451.557 172.076L452.036 174.017L452.826 173.823L453.255 173.132L451.557 172.076ZM450.193 172.413L449.713 170.471L446.59 171.242L448.663 173.702L450.193 172.413ZM451.098 173.487L453.093 173.631L453.152 172.82L452.627 172.198L451.098 173.487ZM450.997 174.889L449.002 174.745L448.771 177.953L451.75 176.742L450.997 174.889ZM452.299 174.36L453.052 172.507L452.299 172.201L451.546 172.507L452.299 174.36ZM453.601 174.889L452.847 176.742L455.827 177.953L455.596 174.745L453.601 174.889ZM453.5 173.487L451.97 172.198L451.446 172.82L451.505 173.631L453.5 173.487ZM454.405 172.413L455.935 173.702L458.008 171.242L454.885 170.471L454.405 172.413ZM454.623 173.024C454.623 174.292 453.595 175.321 452.326 175.321V179.321C455.804 179.321 458.623 176.501 458.623 173.024H454.623ZM452.326 170.727C453.595 170.727 454.623 171.755 454.623 173.024H458.623C458.623 169.546 455.804 166.727 452.326 166.727V170.727ZM450.029 173.024C450.029 171.755 451.058 170.727 452.326 170.727V166.727C448.849 166.727 446.029 169.546 446.029 173.024H450.029ZM452.326 175.321C451.058 175.321 450.029 174.292 450.029 173.024H446.029C446.029 176.501 448.849 179.321 452.326 179.321V175.321ZM450.6 171.938L451.343 173.132L454.739 171.02L453.997 169.826L450.6 171.938ZM453.255 173.132L453.997 171.938L450.6 169.826L449.858 171.02L453.255 173.132ZM450.672 174.354L452.036 174.017L451.077 170.134L449.713 170.471L450.672 174.354ZM452.627 172.198L451.722 171.124L448.663 173.702L449.569 174.776L452.627 172.198ZM452.992 175.033L453.093 173.631L449.103 173.343L449.002 174.745L452.992 175.033ZM451.546 172.507L450.244 173.036L451.75 176.742L453.052 176.212L451.546 172.507ZM454.354 173.036L453.052 172.507L451.546 176.212L452.847 176.742L454.354 173.036ZM451.505 173.631L451.606 175.033L455.596 174.745L455.494 173.343L451.505 173.631ZM452.876 171.124L451.97 172.198L455.029 174.776L455.935 173.702L452.876 171.124ZM452.562 174.017L453.926 174.354L454.885 170.471L453.52 170.134L452.562 174.017Z" fill="white" mask="url(#path-8-outside-1_9154_11998)"/>
</g>
<path d="M448.308 199.637H450.439L454.143 208.682H454.279L457.984 199.637H460.115V211.273H458.444V202.853H458.336L454.904 211.256H453.518L450.086 202.847H449.978V211.273H448.308V199.637ZM465.071 211.466C464.518 211.466 464.018 211.364 463.571 211.16C463.124 210.951 462.769 210.65 462.508 210.256C462.251 209.862 462.122 209.379 462.122 208.807C462.122 208.315 462.216 207.91 462.406 207.591C462.595 207.273 462.851 207.021 463.173 206.836C463.495 206.65 463.855 206.51 464.252 206.415C464.65 206.321 465.055 206.249 465.468 206.199C465.991 206.139 466.415 206.089 466.741 206.052C467.067 206.01 467.304 205.944 467.451 205.853C467.599 205.762 467.673 205.614 467.673 205.41V205.37C467.673 204.874 467.533 204.489 467.252 204.216C466.976 203.944 466.563 203.807 466.014 203.807C465.442 203.807 464.991 203.934 464.662 204.188C464.336 204.438 464.11 204.716 463.985 205.023L462.389 204.66C462.578 204.129 462.855 203.701 463.218 203.375C463.586 203.046 464.008 202.807 464.485 202.66C464.963 202.508 465.465 202.432 465.991 202.432C466.34 202.432 466.709 202.474 467.099 202.557C467.493 202.637 467.86 202.785 468.201 203C468.546 203.216 468.828 203.525 469.048 203.927C469.268 204.324 469.377 204.841 469.377 205.478V211.273H467.718V210.08H467.65C467.54 210.3 467.376 210.516 467.156 210.728C466.936 210.94 466.654 211.116 466.309 211.256C465.965 211.396 465.552 211.466 465.071 211.466ZM465.44 210.103C465.91 210.103 466.311 210.01 466.644 209.824C466.982 209.639 467.237 209.396 467.412 209.097C467.59 208.794 467.679 208.47 467.679 208.125V207C467.618 207.061 467.501 207.118 467.326 207.171C467.156 207.22 466.961 207.264 466.741 207.302C466.521 207.336 466.307 207.368 466.099 207.398C465.891 207.425 465.716 207.447 465.576 207.466C465.247 207.508 464.946 207.578 464.673 207.677C464.404 207.775 464.188 207.917 464.025 208.103C463.866 208.285 463.787 208.527 463.787 208.83C463.787 209.25 463.942 209.569 464.252 209.785C464.563 209.997 464.959 210.103 465.44 210.103ZM478.18 204.677L476.64 204.949C476.576 204.752 476.474 204.565 476.333 204.387C476.197 204.209 476.011 204.063 475.777 203.949C475.542 203.836 475.248 203.779 474.896 203.779C474.415 203.779 474.013 203.887 473.691 204.103C473.369 204.315 473.208 204.589 473.208 204.927C473.208 205.218 473.316 205.453 473.532 205.631C473.748 205.809 474.097 205.955 474.578 206.069L475.964 206.387C476.767 206.572 477.366 206.858 477.76 207.245C478.153 207.631 478.35 208.133 478.35 208.75C478.35 209.273 478.199 209.739 477.896 210.148C477.597 210.553 477.178 210.872 476.64 211.103C476.106 211.334 475.487 211.449 474.782 211.449C473.805 211.449 473.008 211.241 472.39 210.824C471.773 210.404 471.394 209.807 471.254 209.035L472.896 208.785C472.998 209.213 473.208 209.536 473.527 209.756C473.845 209.972 474.26 210.08 474.771 210.08C475.328 210.08 475.773 209.964 476.106 209.733C476.439 209.499 476.606 209.213 476.606 208.875C476.606 208.603 476.504 208.374 476.299 208.188C476.099 208.002 475.79 207.862 475.373 207.768L473.896 207.444C473.082 207.258 472.479 206.963 472.089 206.557C471.703 206.152 471.51 205.639 471.51 205.018C471.51 204.502 471.653 204.052 471.941 203.665C472.229 203.279 472.627 202.978 473.135 202.762C473.642 202.542 474.224 202.432 474.879 202.432C475.822 202.432 476.564 202.637 477.106 203.046C477.648 203.451 478.006 203.995 478.18 204.677ZM484.292 202.546V203.91H479.525V202.546H484.292ZM480.804 200.455H482.502V208.711C482.502 209.04 482.552 209.288 482.65 209.455C482.749 209.618 482.876 209.73 483.031 209.79C483.19 209.847 483.362 209.875 483.548 209.875C483.684 209.875 483.804 209.866 483.906 209.847C484.008 209.828 484.088 209.813 484.144 209.802L484.451 211.205C484.353 211.243 484.213 211.281 484.031 211.319C483.849 211.36 483.622 211.383 483.349 211.387C482.902 211.394 482.485 211.315 482.099 211.148C481.713 210.982 481.4 210.724 481.162 210.375C480.923 210.027 480.804 209.589 480.804 209.063V200.455ZM489.839 211.449C488.979 211.449 488.239 211.266 487.617 210.898C487 210.527 486.523 210.006 486.186 209.336C485.852 208.661 485.686 207.872 485.686 206.966C485.686 206.072 485.852 205.285 486.186 204.603C486.523 203.921 486.992 203.389 487.595 203.006C488.201 202.624 488.909 202.432 489.72 202.432C490.212 202.432 490.689 202.514 491.152 202.677C491.614 202.839 492.028 203.095 492.396 203.444C492.763 203.792 493.053 204.245 493.265 204.802C493.477 205.355 493.583 206.027 493.583 206.819V207.421H486.646V206.148H491.919C491.919 205.701 491.828 205.305 491.646 204.961C491.464 204.612 491.208 204.338 490.879 204.137C490.553 203.936 490.171 203.836 489.731 203.836C489.254 203.836 488.837 203.953 488.481 204.188C488.129 204.419 487.856 204.722 487.663 205.097C487.474 205.468 487.379 205.872 487.379 206.307V207.302C487.379 207.885 487.481 208.381 487.686 208.79C487.894 209.199 488.184 209.512 488.555 209.728C488.926 209.94 489.36 210.046 489.856 210.046C490.178 210.046 490.472 210 490.737 209.91C491.002 209.815 491.231 209.675 491.424 209.489C491.617 209.303 491.765 209.074 491.867 208.802L493.475 209.091C493.347 209.565 493.116 209.98 492.782 210.336C492.453 210.688 492.038 210.963 491.538 211.16C491.042 211.353 490.475 211.449 489.839 211.449ZM495.468 211.273V202.546H497.11V203.932H497.201C497.36 203.463 497.641 203.093 498.042 202.824C498.448 202.552 498.906 202.415 499.417 202.415C499.523 202.415 499.648 202.419 499.792 202.427C499.94 202.434 500.055 202.444 500.139 202.455V204.08C500.071 204.061 499.949 204.04 499.775 204.018C499.601 203.991 499.427 203.978 499.252 203.978C498.851 203.978 498.493 204.063 498.179 204.233C497.868 204.4 497.622 204.633 497.44 204.932C497.258 205.228 497.167 205.565 497.167 205.944V211.273H495.468ZM506.963 211.273H505.099L509.287 199.637H511.315L515.502 211.273H513.639L510.349 201.75H510.258L506.963 211.273ZM507.275 206.716H513.321V208.194H507.275V206.716ZM520.582 211.449C519.737 211.449 519.01 211.258 518.4 210.875C517.794 210.489 517.328 209.957 517.002 209.279C516.677 208.601 516.514 207.824 516.514 206.949C516.514 206.063 516.68 205.281 517.014 204.603C517.347 203.921 517.817 203.389 518.423 203.006C519.029 202.624 519.743 202.432 520.565 202.432C521.228 202.432 521.819 202.555 522.338 202.802C522.857 203.044 523.275 203.385 523.593 203.824C523.915 204.264 524.107 204.777 524.167 205.364H522.514C522.423 204.955 522.215 204.603 521.889 204.307C521.567 204.012 521.135 203.864 520.593 203.864C520.12 203.864 519.705 203.989 519.349 204.239C518.997 204.485 518.722 204.838 518.525 205.296C518.328 205.75 518.23 206.288 518.23 206.91C518.23 207.546 518.326 208.095 518.519 208.557C518.713 209.019 518.985 209.377 519.338 209.631C519.694 209.885 520.112 210.012 520.593 210.012C520.915 210.012 521.207 209.953 521.468 209.836C521.733 209.714 521.955 209.542 522.133 209.319C522.315 209.095 522.442 208.826 522.514 208.512H524.167C524.107 209.076 523.923 209.58 523.616 210.023C523.309 210.466 522.898 210.815 522.383 211.069C521.872 211.322 521.271 211.449 520.582 211.449ZM529.66 211.449C528.815 211.449 528.088 211.258 527.478 210.875C526.872 210.489 526.406 209.957 526.081 209.279C525.755 208.601 525.592 207.824 525.592 206.949C525.592 206.063 525.759 205.281 526.092 204.603C526.425 203.921 526.895 203.389 527.501 203.006C528.107 202.624 528.821 202.432 529.643 202.432C530.306 202.432 530.897 202.555 531.416 202.802C531.935 203.044 532.353 203.385 532.671 203.824C532.993 204.264 533.185 204.777 533.245 205.364H531.592C531.501 204.955 531.293 204.603 530.967 204.307C530.645 204.012 530.213 203.864 529.671 203.864C529.198 203.864 528.783 203.989 528.427 204.239C528.075 204.485 527.8 204.838 527.603 205.296C527.406 205.75 527.308 206.288 527.308 206.91C527.308 207.546 527.404 208.095 527.598 208.557C527.791 209.019 528.064 209.377 528.416 209.631C528.772 209.885 529.19 210.012 529.671 210.012C529.993 210.012 530.285 209.953 530.546 209.836C530.812 209.714 531.033 209.542 531.211 209.319C531.393 209.095 531.52 208.826 531.592 208.512H533.245C533.185 209.076 533.001 209.58 532.694 210.023C532.387 210.466 531.976 210.815 531.461 211.069C530.95 211.322 530.349 211.449 529.66 211.449ZM538.738 211.449C537.92 211.449 537.206 211.262 536.596 210.887C535.986 210.512 535.513 209.987 535.176 209.313C534.839 208.639 534.67 207.851 534.67 206.949C534.67 206.044 534.839 205.252 535.176 204.574C535.513 203.896 535.986 203.37 536.596 202.995C537.206 202.62 537.92 202.432 538.738 202.432C539.556 202.432 540.27 202.62 540.88 202.995C541.49 203.37 541.964 203.896 542.301 204.574C542.638 205.252 542.806 206.044 542.806 206.949C542.806 207.851 542.638 208.639 542.301 209.313C541.964 209.987 541.49 210.512 540.88 210.887C540.27 211.262 539.556 211.449 538.738 211.449ZM538.744 210.023C539.274 210.023 539.714 209.883 540.062 209.603C540.411 209.322 540.668 208.949 540.835 208.483C541.005 208.018 541.09 207.504 541.09 206.944C541.09 206.387 541.005 205.875 540.835 205.41C540.668 204.94 540.411 204.563 540.062 204.279C539.714 203.995 539.274 203.853 538.744 203.853C538.21 203.853 537.767 203.995 537.414 204.279C537.066 204.563 536.806 204.94 536.636 205.41C536.469 205.875 536.386 206.387 536.386 206.944C536.386 207.504 536.469 208.018 536.636 208.483C536.806 208.949 537.066 209.322 537.414 209.603C537.767 209.883 538.21 210.023 538.744 210.023ZM550.231 207.654V202.546H551.936V211.273H550.265V209.762H550.174C549.974 210.228 549.652 210.616 549.208 210.927C548.769 211.233 548.222 211.387 547.566 211.387C547.006 211.387 546.51 211.264 546.078 211.018C545.65 210.768 545.313 210.398 545.066 209.91C544.824 209.421 544.703 208.817 544.703 208.097V202.546H546.402V207.893C546.402 208.487 546.566 208.961 546.896 209.313C547.225 209.665 547.653 209.841 548.18 209.841C548.498 209.841 548.814 209.762 549.129 209.603C549.447 209.444 549.71 209.203 549.919 208.881C550.131 208.559 550.235 208.15 550.231 207.654ZM555.917 206.091V211.273H554.218V202.546H555.849V203.966H555.957C556.158 203.504 556.472 203.133 556.9 202.853C557.332 202.572 557.876 202.432 558.531 202.432C559.126 202.432 559.646 202.557 560.093 202.807C560.54 203.053 560.887 203.421 561.133 203.91C561.379 204.398 561.502 205.002 561.502 205.722V211.273H559.804V205.927C559.804 205.294 559.639 204.8 559.309 204.444C558.98 204.084 558.527 203.904 557.951 203.904C557.557 203.904 557.207 203.989 556.9 204.16C556.597 204.33 556.357 204.58 556.179 204.91C556.004 205.235 555.917 205.629 555.917 206.091ZM567.855 202.546V203.91H563.088V202.546H567.855ZM564.366 200.455H566.065V208.711C566.065 209.04 566.114 209.288 566.213 209.455C566.311 209.618 566.438 209.73 566.593 209.79C566.752 209.847 566.925 209.875 567.11 209.875C567.247 209.875 567.366 209.866 567.468 209.847C567.571 209.828 567.65 209.813 567.707 209.802L568.014 211.205C567.915 211.243 567.775 211.281 567.593 211.319C567.412 211.36 567.184 211.383 566.912 211.387C566.465 211.394 566.048 211.315 565.662 211.148C565.275 210.982 564.963 210.724 564.724 210.375C564.485 210.027 564.366 209.589 564.366 209.063V200.455Z" fill="black"/>
<rect x="806.354" y="120.557" width="180" height="127.546" rx="3.5" fill="#16A34A"/>
<rect x="806.354" y="120.557" width="180" height="127.546" rx="3.5" stroke="#D6D3D1"/>
<mask id="mask2_9154_11998" style="mask-type:alpha" maskUnits="userSpaceOnUse" x="825" y="144" width="28" height="27">
<rect x="825.854" y="144.057" width="26.5464" height="26.5464" fill="#D9D9D9"/>
</mask>
<g mask="url(#mask2_9154_11998)">
<path d="M831.385 162.861V155.118H833.597V162.861H831.385ZM838.022 162.861V155.118H840.234V162.861H838.022ZM828.067 167.285V165.073H850.189V167.285H828.067ZM844.658 162.861V155.118H846.87V162.861H844.658ZM828.067 152.906V150.694L839.128 145.163L850.189 150.694V152.906H828.067ZM832.989 150.694H845.266L839.128 147.652L832.989 150.694Z" fill="white"/>
</g>
<path d="M827.133 201.604V189.967H834.428V191.479H828.888V195.024H834.048V196.53H828.888V200.092H834.496V201.604H827.133ZM837.978 192.876L839.904 196.274L841.847 192.876H843.705L840.984 197.24L843.728 201.604H841.87L839.904 198.342L837.944 201.604H836.08L838.796 197.24L836.114 192.876H837.978ZM849.523 192.876V194.24H844.756V192.876H849.523ZM846.035 190.786H847.734V199.041C847.734 199.371 847.783 199.619 847.881 199.786C847.98 199.948 848.107 200.06 848.262 200.121C848.421 200.178 848.593 200.206 848.779 200.206C848.915 200.206 849.035 200.197 849.137 200.178C849.239 200.159 849.319 200.144 849.376 200.132L849.682 201.536C849.584 201.573 849.444 201.611 849.262 201.649C849.08 201.691 848.853 201.714 848.58 201.717C848.133 201.725 847.717 201.645 847.33 201.479C846.944 201.312 846.631 201.055 846.393 200.706C846.154 200.358 846.035 199.92 846.035 199.394V190.786ZM855.07 201.78C854.21 201.78 853.47 201.596 852.849 201.229C852.231 200.858 851.754 200.337 851.417 199.666C851.084 198.992 850.917 198.202 850.917 197.297C850.917 196.403 851.084 195.615 851.417 194.933C851.754 194.251 852.224 193.719 852.826 193.337C853.432 192.954 854.14 192.763 854.951 192.763C855.443 192.763 855.921 192.844 856.383 193.007C856.845 193.17 857.26 193.426 857.627 193.774C857.995 194.123 858.284 194.575 858.496 195.132C858.709 195.685 858.815 196.358 858.815 197.149V197.751H851.877V196.479H857.15C857.15 196.032 857.059 195.636 856.877 195.291C856.695 194.943 856.44 194.668 856.11 194.467C855.784 194.267 855.402 194.166 854.962 194.166C854.485 194.166 854.068 194.284 853.712 194.519C853.36 194.75 853.087 195.053 852.894 195.428C852.705 195.799 852.61 196.202 852.61 196.638V197.632C852.61 198.216 852.712 198.712 852.917 199.121C853.125 199.53 853.415 199.842 853.786 200.058C854.157 200.27 854.591 200.376 855.087 200.376C855.409 200.376 855.703 200.331 855.968 200.24C856.233 200.145 856.462 200.005 856.656 199.82C856.849 199.634 856.996 199.405 857.099 199.132L858.707 199.422C858.578 199.895 858.347 200.31 858.013 200.666C857.684 201.019 857.269 201.293 856.769 201.49C856.273 201.683 855.707 201.78 855.07 201.78ZM860.7 201.604V192.876H862.342V194.263H862.432C862.592 193.793 862.872 193.424 863.273 193.155C863.679 192.882 864.137 192.746 864.648 192.746C864.754 192.746 864.879 192.75 865.023 192.757C865.171 192.765 865.287 192.774 865.37 192.786V194.411C865.302 194.392 865.181 194.371 865.006 194.348C864.832 194.322 864.658 194.308 864.484 194.308C864.082 194.308 863.724 194.394 863.41 194.564C863.099 194.731 862.853 194.964 862.671 195.263C862.489 195.558 862.398 195.895 862.398 196.274V201.604H860.7ZM868.539 196.422V201.604H866.84V192.876H868.471V194.297H868.579C868.78 193.835 869.094 193.464 869.522 193.183C869.954 192.903 870.497 192.763 871.153 192.763C871.747 192.763 872.268 192.888 872.715 193.138C873.162 193.384 873.509 193.751 873.755 194.24C874.001 194.729 874.124 195.333 874.124 196.053V201.604H872.425V196.257C872.425 195.625 872.261 195.13 871.931 194.774C871.602 194.414 871.149 194.234 870.573 194.234C870.179 194.234 869.829 194.32 869.522 194.49C869.219 194.661 868.978 194.911 868.8 195.24C868.626 195.566 868.539 195.96 868.539 196.422ZM878.942 201.797C878.389 201.797 877.889 201.695 877.442 201.49C876.995 201.282 876.641 200.981 876.38 200.587C876.122 200.193 875.994 199.71 875.994 199.138C875.994 198.645 876.088 198.24 876.278 197.922C876.467 197.604 876.723 197.352 877.045 197.166C877.367 196.981 877.727 196.841 878.124 196.746C878.522 196.651 878.927 196.579 879.34 196.53C879.863 196.469 880.287 196.42 880.613 196.382C880.939 196.341 881.175 196.274 881.323 196.183C881.471 196.092 881.545 195.945 881.545 195.74V195.7C881.545 195.204 881.405 194.82 881.124 194.547C880.848 194.274 880.435 194.138 879.886 194.138C879.314 194.138 878.863 194.265 878.533 194.519C878.208 194.769 877.982 195.047 877.857 195.354L876.261 194.99C876.45 194.46 876.727 194.032 877.09 193.706C877.458 193.376 877.88 193.138 878.357 192.99C878.834 192.839 879.336 192.763 879.863 192.763C880.211 192.763 880.581 192.805 880.971 192.888C881.365 192.967 881.732 193.115 882.073 193.331C882.418 193.547 882.7 193.856 882.92 194.257C883.139 194.655 883.249 195.172 883.249 195.808V201.604H881.59V200.411H881.522C881.412 200.63 881.247 200.846 881.028 201.058C880.808 201.27 880.526 201.447 880.181 201.587C879.836 201.727 879.423 201.797 878.942 201.797ZM879.312 200.433C879.781 200.433 880.183 200.341 880.516 200.155C880.853 199.969 881.109 199.727 881.283 199.428C881.461 199.125 881.55 198.801 881.55 198.456V197.331C881.49 197.392 881.372 197.448 881.198 197.501C881.028 197.551 880.833 197.594 880.613 197.632C880.393 197.666 880.179 197.698 879.971 197.729C879.763 197.755 879.588 197.778 879.448 197.797C879.119 197.839 878.817 197.909 878.545 198.007C878.276 198.106 878.06 198.248 877.897 198.433C877.738 198.615 877.658 198.858 877.658 199.161C877.658 199.581 877.814 199.899 878.124 200.115C878.435 200.327 878.831 200.433 879.312 200.433ZM887.211 189.967V201.604H885.512V189.967H887.211ZM893.867 201.604V189.967H898.129C898.954 189.967 899.638 190.104 900.18 190.376C900.721 190.645 901.127 191.011 901.396 191.473C901.665 191.931 901.799 192.448 901.799 193.024C901.799 193.509 901.71 193.918 901.532 194.251C901.354 194.581 901.115 194.846 900.816 195.047C900.521 195.244 900.195 195.388 899.839 195.479V195.592C900.225 195.611 900.602 195.736 900.969 195.967C901.341 196.195 901.647 196.519 901.89 196.939C902.132 197.359 902.254 197.871 902.254 198.473C902.254 199.068 902.113 199.602 901.833 200.075C901.557 200.545 901.129 200.918 900.549 201.195C899.969 201.467 899.229 201.604 898.327 201.604H893.867ZM895.623 200.098H898.157C898.998 200.098 899.6 199.935 899.964 199.609C900.327 199.284 900.509 198.876 900.509 198.388C900.509 198.02 900.416 197.683 900.231 197.376C900.045 197.07 899.78 196.825 899.435 196.644C899.094 196.462 898.689 196.371 898.219 196.371H895.623V200.098ZM895.623 195.001H897.975C898.369 195.001 898.723 194.926 899.038 194.774C899.356 194.623 899.608 194.411 899.793 194.138C899.983 193.861 900.077 193.536 900.077 193.161C900.077 192.68 899.909 192.276 899.572 191.95C899.235 191.625 898.718 191.462 898.021 191.462H895.623V195.001ZM906.739 201.797C906.186 201.797 905.686 201.695 905.239 201.49C904.792 201.282 904.438 200.981 904.177 200.587C903.919 200.193 903.79 199.71 903.79 199.138C903.79 198.645 903.885 198.24 904.075 197.922C904.264 197.604 904.52 197.352 904.842 197.166C905.164 196.981 905.523 196.841 905.921 196.746C906.319 196.651 906.724 196.579 907.137 196.53C907.66 196.469 908.084 196.42 908.41 196.382C908.736 196.341 908.972 196.274 909.12 196.183C909.268 196.092 909.342 195.945 909.342 195.74V195.7C909.342 195.204 909.201 194.82 908.921 194.547C908.645 194.274 908.232 194.138 907.682 194.138C907.111 194.138 906.66 194.265 906.33 194.519C906.004 194.769 905.779 195.047 905.654 195.354L904.057 194.99C904.247 194.46 904.523 194.032 904.887 193.706C905.254 193.376 905.677 193.138 906.154 192.99C906.631 192.839 907.133 192.763 907.66 192.763C908.008 192.763 908.378 192.805 908.768 192.888C909.162 192.967 909.529 193.115 909.87 193.331C910.215 193.547 910.497 193.856 910.717 194.257C910.936 194.655 911.046 195.172 911.046 195.808V201.604H909.387V200.411H909.319C909.209 200.63 909.044 200.846 908.825 201.058C908.605 201.27 908.323 201.447 907.978 201.587C907.633 201.727 907.22 201.797 906.739 201.797ZM907.109 200.433C907.578 200.433 907.98 200.341 908.313 200.155C908.65 199.969 908.906 199.727 909.08 199.428C909.258 199.125 909.347 198.801 909.347 198.456V197.331C909.287 197.392 909.169 197.448 908.995 197.501C908.825 197.551 908.629 197.594 908.41 197.632C908.19 197.666 907.976 197.698 907.768 197.729C907.559 197.755 907.385 197.778 907.245 197.797C906.915 197.839 906.614 197.909 906.342 198.007C906.073 198.106 905.857 198.248 905.694 198.433C905.535 198.615 905.455 198.858 905.455 199.161C905.455 199.581 905.611 199.899 905.921 200.115C906.232 200.327 906.628 200.433 907.109 200.433ZM915.008 196.422V201.604H913.309V192.876H914.94V194.297H915.048C915.248 193.835 915.563 193.464 915.991 193.183C916.423 192.903 916.966 192.763 917.621 192.763C918.216 192.763 918.737 192.888 919.184 193.138C919.631 193.384 919.977 193.751 920.224 194.24C920.47 194.729 920.593 195.333 920.593 196.053V201.604H918.894V196.257C918.894 195.625 918.729 195.13 918.4 194.774C918.07 194.414 917.618 194.234 917.042 194.234C916.648 194.234 916.298 194.32 915.991 194.49C915.688 194.661 915.447 194.911 915.269 195.24C915.095 195.566 915.008 195.96 915.008 196.422ZM924.434 198.644L924.423 196.57H924.718L928.195 192.876H930.229L926.263 197.081H925.996L924.434 198.644ZM922.871 201.604V189.967H924.57V201.604H922.871ZM928.383 201.604L925.258 197.456L926.428 196.269L930.468 201.604H928.383ZM828.116 220.604H826.252L830.44 208.967H832.468L836.656 220.604H834.792L831.502 211.081H831.411L828.116 220.604ZM828.428 216.047H834.474V217.524H828.428V216.047ZM841.735 220.78C840.89 220.78 840.163 220.589 839.553 220.206C838.947 219.82 838.481 219.287 838.156 218.609C837.83 217.931 837.667 217.155 837.667 216.28C837.667 215.394 837.834 214.611 838.167 213.933C838.5 213.251 838.97 212.719 839.576 212.337C840.182 211.954 840.896 211.763 841.718 211.763C842.381 211.763 842.972 211.886 843.491 212.132C844.01 212.375 844.428 212.716 844.746 213.155C845.068 213.594 845.26 214.108 845.32 214.695H843.667C843.576 214.286 843.368 213.933 843.042 213.638C842.72 213.342 842.288 213.195 841.746 213.195C841.273 213.195 840.858 213.32 840.502 213.57C840.15 213.816 839.875 214.168 839.678 214.626C839.481 215.081 839.383 215.619 839.383 216.24C839.383 216.876 839.479 217.426 839.673 217.888C839.866 218.35 840.138 218.708 840.491 218.962C840.847 219.216 841.265 219.342 841.746 219.342C842.068 219.342 842.36 219.284 842.621 219.166C842.887 219.045 843.108 218.873 843.286 218.649C843.468 218.426 843.595 218.157 843.667 217.842H845.32C845.26 218.407 845.076 218.911 844.769 219.354C844.462 219.797 844.051 220.145 843.536 220.399C843.025 220.653 842.424 220.78 841.735 220.78ZM850.813 220.78C849.968 220.78 849.241 220.589 848.631 220.206C848.025 219.82 847.559 219.287 847.234 218.609C846.908 217.931 846.745 217.155 846.745 216.28C846.745 215.394 846.912 214.611 847.245 213.933C847.578 213.251 848.048 212.719 848.654 212.337C849.26 211.954 849.974 211.763 850.796 211.763C851.459 211.763 852.05 211.886 852.569 212.132C853.088 212.375 853.506 212.716 853.825 213.155C854.147 213.594 854.338 214.108 854.398 214.695H852.745C852.654 214.286 852.446 213.933 852.12 213.638C851.798 213.342 851.366 213.195 850.825 213.195C850.351 213.195 849.936 213.32 849.58 213.57C849.228 213.816 848.953 214.168 848.756 214.626C848.559 215.081 848.461 215.619 848.461 216.24C848.461 216.876 848.557 217.426 848.751 217.888C848.944 218.35 849.217 218.708 849.569 218.962C849.925 219.216 850.343 219.342 850.825 219.342C851.147 219.342 851.438 219.284 851.7 219.166C851.965 219.045 852.186 218.873 852.364 218.649C852.546 218.426 852.673 218.157 852.745 217.842H854.398C854.338 218.407 854.154 218.911 853.847 219.354C853.54 219.797 853.129 220.145 852.614 220.399C852.103 220.653 851.503 220.78 850.813 220.78ZM859.891 220.78C859.073 220.78 858.359 220.592 857.749 220.217C857.139 219.842 856.666 219.318 856.329 218.644C855.992 217.969 855.823 217.181 855.823 216.28C855.823 215.375 855.992 214.583 856.329 213.905C856.666 213.227 857.139 212.7 857.749 212.325C858.359 211.95 859.073 211.763 859.891 211.763C860.709 211.763 861.423 211.95 862.033 212.325C862.643 212.7 863.117 213.227 863.454 213.905C863.791 214.583 863.959 215.375 863.959 216.28C863.959 217.181 863.791 217.969 863.454 218.644C863.117 219.318 862.643 219.842 862.033 220.217C861.423 220.592 860.709 220.78 859.891 220.78ZM859.897 219.354C860.427 219.354 860.867 219.214 861.215 218.933C861.564 218.653 861.821 218.28 861.988 217.814C862.158 217.348 862.244 216.835 862.244 216.274C862.244 215.717 862.158 215.206 861.988 214.74C861.821 214.27 861.564 213.894 861.215 213.609C860.867 213.325 860.427 213.183 859.897 213.183C859.363 213.183 858.92 213.325 858.567 213.609C858.219 213.894 857.959 214.27 857.789 214.74C857.622 215.206 857.539 215.717 857.539 216.274C857.539 216.835 857.622 217.348 857.789 217.814C857.959 218.28 858.219 218.653 858.567 218.933C858.92 219.214 859.363 219.354 859.897 219.354ZM871.384 216.984V211.876H873.089V220.604H871.418V219.092H871.327C871.127 219.558 870.805 219.947 870.361 220.257C869.922 220.564 869.375 220.717 868.719 220.717C868.159 220.717 867.663 220.594 867.231 220.348C866.803 220.098 866.466 219.729 866.219 219.24C865.977 218.751 865.856 218.147 865.856 217.428V211.876H867.555V217.223C867.555 217.818 867.719 218.291 868.049 218.644C868.379 218.996 868.807 219.172 869.333 219.172C869.651 219.172 869.968 219.092 870.282 218.933C870.6 218.774 870.863 218.534 871.072 218.212C871.284 217.89 871.388 217.481 871.384 216.984ZM877.07 215.422V220.604H875.371V211.876H877.002V213.297H877.11C877.311 212.835 877.625 212.464 878.053 212.183C878.485 211.903 879.029 211.763 879.684 211.763C880.279 211.763 880.799 211.888 881.246 212.138C881.693 212.384 882.04 212.751 882.286 213.24C882.532 213.729 882.656 214.333 882.656 215.053V220.604H880.957V215.257C880.957 214.625 880.792 214.13 880.462 213.774C880.133 213.414 879.68 213.234 879.104 213.234C878.71 213.234 878.36 213.32 878.053 213.49C877.75 213.661 877.51 213.911 877.332 214.24C877.157 214.566 877.07 214.96 877.07 215.422ZM889.008 211.876V213.24H884.241V211.876H889.008ZM885.519 209.786H887.218V218.041C887.218 218.371 887.267 218.619 887.366 218.786C887.464 218.948 887.591 219.06 887.746 219.121C887.906 219.178 888.078 219.206 888.263 219.206C888.4 219.206 888.519 219.197 888.621 219.178C888.724 219.159 888.803 219.144 888.86 219.132L889.167 220.536C889.068 220.573 888.928 220.611 888.746 220.649C888.565 220.691 888.337 220.714 888.065 220.717C887.618 220.725 887.201 220.645 886.815 220.479C886.428 220.312 886.116 220.055 885.877 219.706C885.638 219.358 885.519 218.92 885.519 218.394V209.786Z" fill="white"/>
<rect x="427.529" y="422.227" width="180" height="146.546" rx="3.5" fill="white"/>
<rect x="427.529" y="422.227" width="180" height="146.546" rx="3.5" stroke="#D6D3D1"/>
<mask id="mask3_9154_11998" style="mask-type:alpha" maskUnits="userSpaceOnUse" x="447" y="445" width="27" height="28">
<rect x="447.029" y="445.727" width="26.5464" height="26.5464" fill="#D9D9D9"/>
</mask>
<g mask="url(#mask3_9154_11998)">
<path d="M455.877 470.424L454.328 468.848L457.177 466H449.24V463.788H457.177L454.328 460.94L455.877 459.363L461.407 464.894L455.877 470.424ZM464.726 463.788L459.195 458.257L464.726 452.727L466.274 454.303L463.426 457.151H471.362V459.363H463.426L466.274 462.212L464.726 463.788Z" fill="#16A34A"/>
<mask id="path-18-outside-2_9154_11998" maskUnits="userSpaceOnUse" x="449.029" y="445.727" width="13" height="13" fill="black">
<rect fill="white" x="449.029" y="445.727" width="13" height="13"/>
<path fill-rule="evenodd" clip-rule="evenodd" d="M455.326 456.321C457.699 456.321 459.623 454.397 459.623 452.024C459.623 449.651 457.699 447.727 455.326 447.727C452.953 447.727 451.029 449.651 451.029 452.024C451.029 454.397 452.953 456.321 455.326 456.321ZM456.041 451.076L455.299 449.882L454.557 451.076L453.193 451.413L454.098 452.487L453.997 453.889L455.299 453.36L456.601 453.889L456.5 452.487L457.405 451.413L456.041 451.076Z"/>
</mask>
<path fill-rule="evenodd" clip-rule="evenodd" d="M455.326 456.321C457.699 456.321 459.623 454.397 459.623 452.024C459.623 449.651 457.699 447.727 455.326 447.727C452.953 447.727 451.029 449.651 451.029 452.024C451.029 454.397 452.953 456.321 455.326 456.321ZM456.041 451.076L455.299 449.882L454.557 451.076L453.193 451.413L454.098 452.487L453.997 453.889L455.299 453.36L456.601 453.889L456.5 452.487L457.405 451.413L456.041 451.076Z" fill="#16A34A"/>
<path d="M455.299 449.882L456.997 448.826L455.299 446.095L453.6 448.826L455.299 449.882ZM456.041 451.076L454.343 452.132L454.772 452.823L455.562 453.017L456.041 451.076ZM454.557 451.076L455.036 453.017L455.826 452.823L456.255 452.132L454.557 451.076ZM453.193 451.413L452.713 449.471L449.59 450.242L451.663 452.702L453.193 451.413ZM454.098 452.487L456.093 452.631L456.152 451.82L455.627 451.198L454.098 452.487ZM453.997 453.889L452.002 453.745L451.771 456.953L454.75 455.742L453.997 453.889ZM455.299 453.36L456.052 451.507L455.299 451.201L454.546 451.507L455.299 453.36ZM456.601 453.889L455.847 455.742L458.827 456.953L458.596 453.745L456.601 453.889ZM456.5 452.487L454.97 451.198L454.446 451.82L454.505 452.631L456.5 452.487ZM457.405 451.413L458.935 452.702L461.008 450.242L457.885 449.471L457.405 451.413ZM457.623 452.024C457.623 453.292 456.595 454.321 455.326 454.321V458.321C458.804 458.321 461.623 455.501 461.623 452.024H457.623ZM455.326 449.727C456.595 449.727 457.623 450.755 457.623 452.024H461.623C461.623 448.546 458.804 445.727 455.326 445.727V449.727ZM453.029 452.024C453.029 450.755 454.058 449.727 455.326 449.727V445.727C451.849 445.727 449.029 448.546 449.029 452.024H453.029ZM455.326 454.321C454.058 454.321 453.029 453.292 453.029 452.024H449.029C449.029 455.501 451.849 458.321 455.326 458.321V454.321ZM453.6 450.938L454.343 452.132L457.739 450.02L456.997 448.826L453.6 450.938ZM456.255 452.132L456.997 450.938L453.6 448.826L452.858 450.02L456.255 452.132ZM453.672 453.354L455.036 453.017L454.077 449.134L452.713 449.471L453.672 453.354ZM455.627 451.198L454.722 450.124L451.663 452.702L452.569 453.776L455.627 451.198ZM455.992 454.033L456.093 452.631L452.103 452.343L452.002 453.745L455.992 454.033ZM454.546 451.507L453.244 452.036L454.75 455.742L456.052 455.212L454.546 451.507ZM457.354 452.036L456.052 451.507L454.546 455.212L455.847 455.742L457.354 452.036ZM454.505 452.631L454.606 454.033L458.596 453.745L458.494 452.343L454.505 452.631ZM455.876 450.124L454.97 451.198L458.029 453.776L458.935 452.702L455.876 450.124ZM455.562 453.017L456.926 453.354L457.885 449.471L456.52 449.134L455.562 453.017Z" fill="white" mask="url(#path-18-outside-2_9154_11998)"/>
</g>
<path d="M448.308 491.637H450.439L454.143 500.682H454.279L457.984 491.637H460.115V503.273H458.444V494.853H458.336L454.904 503.256H453.518L450.086 494.847H449.978V503.273H448.308V491.637ZM465.071 503.466C464.518 503.466 464.018 503.364 463.571 503.16C463.124 502.951 462.769 502.65 462.508 502.256C462.251 501.862 462.122 501.379 462.122 500.807C462.122 500.315 462.216 499.91 462.406 499.591C462.595 499.273 462.851 499.021 463.173 498.836C463.495 498.65 463.855 498.51 464.252 498.415C464.65 498.321 465.055 498.249 465.468 498.199C465.991 498.139 466.415 498.089 466.741 498.052C467.067 498.01 467.304 497.944 467.451 497.853C467.599 497.762 467.673 497.614 467.673 497.41V497.37C467.673 496.874 467.533 496.489 467.252 496.216C466.976 495.944 466.563 495.807 466.014 495.807C465.442 495.807 464.991 495.934 464.662 496.188C464.336 496.438 464.11 496.716 463.985 497.023L462.389 496.66C462.578 496.129 462.855 495.701 463.218 495.375C463.586 495.046 464.008 494.807 464.485 494.66C464.963 494.508 465.465 494.432 465.991 494.432C466.34 494.432 466.709 494.474 467.099 494.557C467.493 494.637 467.86 494.785 468.201 495C468.546 495.216 468.828 495.525 469.048 495.927C469.268 496.324 469.377 496.841 469.377 497.478V503.273H467.718V502.08H467.65C467.54 502.3 467.376 502.516 467.156 502.728C466.936 502.94 466.654 503.116 466.309 503.256C465.965 503.396 465.552 503.466 465.071 503.466ZM465.44 502.103C465.91 502.103 466.311 502.01 466.644 501.824C466.982 501.639 467.237 501.396 467.412 501.097C467.59 500.794 467.679 500.47 467.679 500.125V499C467.618 499.061 467.501 499.118 467.326 499.171C467.156 499.22 466.961 499.264 466.741 499.302C466.521 499.336 466.307 499.368 466.099 499.398C465.891 499.425 465.716 499.447 465.576 499.466C465.247 499.508 464.946 499.578 464.673 499.677C464.404 499.775 464.188 499.917 464.025 500.103C463.866 500.285 463.787 500.527 463.787 500.83C463.787 501.25 463.942 501.569 464.252 501.785C464.563 501.997 464.959 502.103 465.44 502.103ZM478.18 496.677L476.64 496.949C476.576 496.752 476.474 496.565 476.333 496.387C476.197 496.209 476.011 496.063 475.777 495.949C475.542 495.836 475.248 495.779 474.896 495.779C474.415 495.779 474.013 495.887 473.691 496.103C473.369 496.315 473.208 496.589 473.208 496.927C473.208 497.218 473.316 497.453 473.532 497.631C473.748 497.809 474.097 497.955 474.578 498.069L475.964 498.387C476.767 498.572 477.366 498.858 477.76 499.245C478.153 499.631 478.35 500.133 478.35 500.75C478.35 501.273 478.199 501.739 477.896 502.148C477.597 502.553 477.178 502.872 476.64 503.103C476.106 503.334 475.487 503.449 474.782 503.449C473.805 503.449 473.008 503.241 472.39 502.824C471.773 502.404 471.394 501.807 471.254 501.035L472.896 500.785C472.998 501.213 473.208 501.536 473.527 501.756C473.845 501.972 474.26 502.08 474.771 502.08C475.328 502.08 475.773 501.964 476.106 501.733C476.439 501.499 476.606 501.213 476.606 500.875C476.606 500.603 476.504 500.374 476.299 500.188C476.099 500.002 475.79 499.862 475.373 499.768L473.896 499.444C473.082 499.258 472.479 498.963 472.089 498.557C471.703 498.152 471.51 497.639 471.51 497.018C471.51 496.502 471.653 496.052 471.941 495.665C472.229 495.279 472.627 494.978 473.135 494.762C473.642 494.542 474.224 494.432 474.879 494.432C475.822 494.432 476.564 494.637 477.106 495.046C477.648 495.451 478.006 495.995 478.18 496.677ZM484.292 494.546V495.91H479.525V494.546H484.292ZM480.804 492.455H482.502V500.711C482.502 501.04 482.552 501.288 482.65 501.455C482.749 501.618 482.876 501.73 483.031 501.79C483.19 501.847 483.362 501.875 483.548 501.875C483.684 501.875 483.804 501.866 483.906 501.847C484.008 501.828 484.088 501.813 484.144 501.802L484.451 503.205C484.353 503.243 484.213 503.281 484.031 503.319C483.849 503.36 483.622 503.383 483.349 503.387C482.902 503.394 482.485 503.315 482.099 503.148C481.713 502.982 481.4 502.724 481.162 502.375C480.923 502.027 480.804 501.589 480.804 501.063V492.455ZM489.839 503.449C488.979 503.449 488.239 503.266 487.617 502.898C487 502.527 486.523 502.006 486.186 501.336C485.852 500.661 485.686 499.872 485.686 498.966C485.686 498.072 485.852 497.285 486.186 496.603C486.523 495.921 486.992 495.389 487.595 495.006C488.201 494.624 488.909 494.432 489.72 494.432C490.212 494.432 490.689 494.514 491.152 494.677C491.614 494.839 492.028 495.095 492.396 495.444C492.763 495.792 493.053 496.245 493.265 496.802C493.477 497.355 493.583 498.027 493.583 498.819V499.421H486.646V498.148H491.919C491.919 497.701 491.828 497.305 491.646 496.961C491.464 496.612 491.208 496.338 490.879 496.137C490.553 495.936 490.171 495.836 489.731 495.836C489.254 495.836 488.837 495.953 488.481 496.188C488.129 496.419 487.856 496.722 487.663 497.097C487.474 497.468 487.379 497.872 487.379 498.307V499.302C487.379 499.885 487.481 500.381 487.686 500.79C487.894 501.199 488.184 501.512 488.555 501.728C488.926 501.94 489.36 502.046 489.856 502.046C490.178 502.046 490.472 502 490.737 501.91C491.002 501.815 491.231 501.675 491.424 501.489C491.617 501.303 491.765 501.074 491.867 500.802L493.475 501.091C493.347 501.565 493.116 501.98 492.782 502.336C492.453 502.688 492.038 502.963 491.538 503.16C491.042 503.353 490.475 503.449 489.839 503.449ZM495.468 503.273V494.546H497.11V495.932H497.201C497.36 495.463 497.641 495.093 498.042 494.824C498.448 494.552 498.906 494.415 499.417 494.415C499.523 494.415 499.648 494.419 499.792 494.427C499.94 494.434 500.055 494.444 500.139 494.455V496.08C500.071 496.061 499.949 496.04 499.775 496.018C499.601 495.991 499.427 495.978 499.252 495.978C498.851 495.978 498.493 496.063 498.179 496.233C497.868 496.4 497.622 496.633 497.44 496.932C497.258 497.228 497.167 497.565 497.167 497.944V503.273H495.468ZM506.963 503.273H505.099L509.287 491.637H511.315L515.502 503.273H513.639L510.349 493.75H510.258L506.963 503.273ZM507.275 498.716H513.321V500.194H507.275V498.716ZM520.582 503.449C519.737 503.449 519.01 503.258 518.4 502.875C517.794 502.489 517.328 501.957 517.002 501.279C516.677 500.601 516.514 499.824 516.514 498.949C516.514 498.063 516.68 497.281 517.014 496.603C517.347 495.921 517.817 495.389 518.423 495.006C519.029 494.624 519.743 494.432 520.565 494.432C521.228 494.432 521.819 494.555 522.338 494.802C522.857 495.044 523.275 495.385 523.593 495.824C523.915 496.264 524.107 496.777 524.167 497.364H522.514C522.423 496.955 522.215 496.603 521.889 496.307C521.567 496.012 521.135 495.864 520.593 495.864C520.12 495.864 519.705 495.989 519.349 496.239C518.997 496.485 518.722 496.838 518.525 497.296C518.328 497.75 518.23 498.288 518.23 498.91C518.23 499.546 518.326 500.095 518.519 500.557C518.713 501.019 518.985 501.377 519.338 501.631C519.694 501.885 520.112 502.012 520.593 502.012C520.915 502.012 521.207 501.953 521.468 501.836C521.733 501.714 521.955 501.542 522.133 501.319C522.315 501.095 522.442 500.826 522.514 500.512H524.167C524.107 501.076 523.923 501.58 523.616 502.023C523.309 502.466 522.898 502.815 522.383 503.069C521.872 503.322 521.271 503.449 520.582 503.449ZM529.66 503.449C528.815 503.449 528.088 503.258 527.478 502.875C526.872 502.489 526.406 501.957 526.081 501.279C525.755 500.601 525.592 499.824 525.592 498.949C525.592 498.063 525.759 497.281 526.092 496.603C526.425 495.921 526.895 495.389 527.501 495.006C528.107 494.624 528.821 494.432 529.643 494.432C530.306 494.432 530.897 494.555 531.416 494.802C531.935 495.044 532.353 495.385 532.671 495.824C532.993 496.264 533.185 496.777 533.245 497.364H531.592C531.501 496.955 531.293 496.603 530.967 496.307C530.645 496.012 530.213 495.864 529.671 495.864C529.198 495.864 528.783 495.989 528.427 496.239C528.075 496.485 527.8 496.838 527.603 497.296C527.406 497.75 527.308 498.288 527.308 498.91C527.308 499.546 527.404 500.095 527.598 500.557C527.791 501.019 528.064 501.377 528.416 501.631C528.772 501.885 529.19 502.012 529.671 502.012C529.993 502.012 530.285 501.953 530.546 501.836C530.812 501.714 531.033 501.542 531.211 501.319C531.393 501.095 531.52 500.826 531.592 500.512H533.245C533.185 501.076 533.001 501.58 532.694 502.023C532.387 502.466 531.976 502.815 531.461 503.069C530.95 503.322 530.349 503.449 529.66 503.449ZM538.738 503.449C537.92 503.449 537.206 503.262 536.596 502.887C535.986 502.512 535.513 501.987 535.176 501.313C534.839 500.639 534.67 499.851 534.67 498.949C534.67 498.044 534.839 497.252 535.176 496.574C535.513 495.896 535.986 495.37 536.596 494.995C537.206 494.62 537.92 494.432 538.738 494.432C539.556 494.432 540.27 494.62 540.88 494.995C541.49 495.37 541.964 495.896 542.301 496.574C542.638 497.252 542.806 498.044 542.806 498.949C542.806 499.851 542.638 500.639 542.301 501.313C541.964 501.987 541.49 502.512 540.88 502.887C540.27 503.262 539.556 503.449 538.738 503.449ZM538.744 502.023C539.274 502.023 539.714 501.883 540.062 501.603C540.411 501.322 540.668 500.949 540.835 500.483C541.005 500.018 541.09 499.504 541.09 498.944C541.09 498.387 541.005 497.875 540.835 497.41C540.668 496.94 540.411 496.563 540.062 496.279C539.714 495.995 539.274 495.853 538.744 495.853C538.21 495.853 537.767 495.995 537.414 496.279C537.066 496.563 536.806 496.94 536.636 497.41C536.469 497.875 536.386 498.387 536.386 498.944C536.386 499.504 536.469 500.018 536.636 500.483C536.806 500.949 537.066 501.322 537.414 501.603C537.767 501.883 538.21 502.023 538.744 502.023ZM550.231 499.654V494.546H551.936V503.273H550.265V501.762H550.174C549.974 502.228 549.652 502.616 549.208 502.927C548.769 503.233 548.222 503.387 547.566 503.387C547.006 503.387 546.51 503.264 546.078 503.018C545.65 502.768 545.313 502.398 545.066 501.91C544.824 501.421 544.703 500.817 544.703 500.097V494.546H546.402V499.893C546.402 500.487 546.566 500.961 546.896 501.313C547.225 501.665 547.653 501.841 548.18 501.841C548.498 501.841 548.814 501.762 549.129 501.603C549.447 501.444 549.71 501.203 549.919 500.881C550.131 500.559 550.235 500.15 550.231 499.654ZM555.917 498.091V503.273H554.218V494.546H555.849V495.966H555.957C556.158 495.504 556.472 495.133 556.9 494.853C557.332 494.572 557.876 494.432 558.531 494.432C559.126 494.432 559.646 494.557 560.093 494.807C560.54 495.053 560.887 495.421 561.133 495.91C561.379 496.398 561.502 497.002 561.502 497.722V503.273H559.804V497.927C559.804 497.294 559.639 496.8 559.309 496.444C558.98 496.084 558.527 495.904 557.951 495.904C557.557 495.904 557.207 495.989 556.9 496.16C556.597 496.33 556.357 496.58 556.179 496.91C556.004 497.235 555.917 497.629 555.917 498.091ZM567.855 494.546V495.91H563.088V494.546H567.855ZM564.366 492.455H566.065V500.711C566.065 501.04 566.114 501.288 566.213 501.455C566.311 501.618 566.438 501.73 566.593 501.79C566.752 501.847 566.925 501.875 567.11 501.875C567.247 501.875 567.366 501.866 567.468 501.847C567.571 501.828 567.65 501.813 567.707 501.802L568.014 503.205C567.915 503.243 567.775 503.281 567.593 503.319C567.412 503.36 567.184 503.383 566.912 503.387C566.465 503.394 566.048 503.315 565.662 503.148C565.275 502.982 564.963 502.724 564.724 502.375C564.485 502.027 564.366 501.589 564.366 501.063V492.455ZM447.734 512.148V510.637H456.74V512.148H453.109V522.273H451.359V512.148H447.734ZM457.687 522.273V513.546H459.329V514.932H459.42C459.579 514.463 459.859 514.093 460.261 513.824C460.666 513.552 461.125 513.415 461.636 513.415C461.742 513.415 461.867 513.419 462.011 513.427C462.159 513.434 462.274 513.444 462.358 513.455V515.08C462.289 515.061 462.168 515.04 461.994 515.018C461.82 514.991 461.645 514.978 461.471 514.978C461.07 514.978 460.712 515.063 460.397 515.233C460.087 515.4 459.84 515.633 459.659 515.932C459.477 516.228 459.386 516.565 459.386 516.944V522.273H457.687ZM466.289 522.466C465.736 522.466 465.236 522.364 464.789 522.16C464.342 521.951 463.988 521.65 463.727 521.256C463.469 520.862 463.34 520.379 463.34 519.807C463.34 519.315 463.435 518.91 463.625 518.591C463.814 518.273 464.07 518.021 464.392 517.836C464.714 517.65 465.073 517.51 465.471 517.415C465.869 517.321 466.274 517.249 466.687 517.199C467.21 517.139 467.634 517.089 467.96 517.052C468.286 517.01 468.522 516.944 468.67 516.853C468.818 516.762 468.892 516.614 468.892 516.41V516.37C468.892 515.874 468.751 515.489 468.471 515.216C468.195 514.944 467.782 514.807 467.233 514.807C466.661 514.807 466.21 514.934 465.88 515.188C465.555 515.438 465.329 515.716 465.204 516.023L463.608 515.66C463.797 515.129 464.073 514.701 464.437 514.375C464.805 514.046 465.227 513.807 465.704 513.66C466.181 513.508 466.683 513.432 467.21 513.432C467.558 513.432 467.928 513.474 468.318 513.557C468.712 513.637 469.079 513.785 469.42 514C469.765 514.216 470.047 514.525 470.267 514.927C470.486 515.324 470.596 515.841 470.596 516.478V522.273H468.937V521.08H468.869C468.759 521.3 468.594 521.516 468.375 521.728C468.155 521.94 467.873 522.116 467.528 522.256C467.183 522.396 466.77 522.466 466.289 522.466ZM466.659 521.103C467.128 521.103 467.53 521.01 467.863 520.824C468.2 520.639 468.456 520.396 468.63 520.097C468.808 519.794 468.897 519.47 468.897 519.125V518C468.837 518.061 468.719 518.118 468.545 518.171C468.375 518.22 468.18 518.264 467.96 518.302C467.74 518.336 467.526 518.368 467.318 518.398C467.109 518.425 466.935 518.447 466.795 518.466C466.465 518.508 466.164 518.578 465.892 518.677C465.623 518.775 465.407 518.917 465.244 519.103C465.085 519.285 465.005 519.527 465.005 519.83C465.005 520.25 465.161 520.569 465.471 520.785C465.782 520.997 466.178 521.103 466.659 521.103ZM474.558 517.091V522.273H472.859V513.546H474.49V514.966H474.598C474.798 514.504 475.113 514.133 475.541 513.853C475.973 513.572 476.516 513.432 477.171 513.432C477.766 513.432 478.287 513.557 478.734 513.807C479.181 514.053 479.528 514.421 479.774 514.91C480.02 515.398 480.143 516.002 480.143 516.722V522.273H478.444V516.927C478.444 516.294 478.279 515.8 477.95 515.444C477.62 515.084 477.168 514.904 476.592 514.904C476.198 514.904 475.848 514.989 475.541 515.16C475.238 515.33 474.997 515.58 474.819 515.91C474.645 516.235 474.558 516.629 474.558 517.091ZM488.961 515.677L487.421 515.949C487.357 515.752 487.255 515.565 487.115 515.387C486.978 515.209 486.793 515.063 486.558 514.949C486.323 514.836 486.029 514.779 485.677 514.779C485.196 514.779 484.795 514.887 484.473 515.103C484.151 515.315 483.99 515.589 483.99 515.927C483.99 516.218 484.098 516.453 484.314 516.631C484.529 516.809 484.878 516.955 485.359 517.069L486.745 517.387C487.548 517.572 488.147 517.858 488.541 518.245C488.935 518.631 489.132 519.133 489.132 519.75C489.132 520.273 488.98 520.739 488.677 521.148C488.378 521.553 487.959 521.872 487.421 522.103C486.887 522.334 486.268 522.449 485.564 522.449C484.586 522.449 483.789 522.241 483.171 521.824C482.554 521.404 482.175 520.807 482.035 520.035L483.677 519.785C483.779 520.213 483.99 520.536 484.308 520.756C484.626 520.972 485.041 521.08 485.552 521.08C486.109 521.08 486.554 520.964 486.887 520.733C487.221 520.499 487.387 520.213 487.387 519.875C487.387 519.603 487.285 519.374 487.081 519.188C486.88 519.002 486.571 518.862 486.154 518.768L484.677 518.444C483.863 518.258 483.26 517.963 482.87 517.557C482.484 517.152 482.291 516.639 482.291 516.018C482.291 515.502 482.435 515.052 482.723 514.665C483.01 514.279 483.408 513.978 483.916 513.762C484.423 513.542 485.005 513.432 485.66 513.432C486.603 513.432 487.346 513.637 487.887 514.046C488.429 514.451 488.787 514.995 488.961 515.677ZM493.539 522.466C492.986 522.466 492.486 522.364 492.039 522.16C491.592 521.951 491.238 521.65 490.977 521.256C490.719 520.862 490.59 520.379 490.59 519.807C490.59 519.315 490.685 518.91 490.875 518.591C491.064 518.273 491.32 518.021 491.642 517.836C491.964 517.65 492.323 517.51 492.721 517.415C493.119 517.321 493.524 517.249 493.937 517.199C494.46 517.139 494.884 517.089 495.21 517.052C495.536 517.01 495.772 516.944 495.92 516.853C496.068 516.762 496.142 516.614 496.142 516.41V516.37C496.142 515.874 496.001 515.489 495.721 515.216C495.445 514.944 495.032 514.807 494.483 514.807C493.911 514.807 493.46 514.934 493.13 515.188C492.805 515.438 492.579 515.716 492.454 516.023L490.858 515.66C491.047 515.129 491.323 514.701 491.687 514.375C492.055 514.046 492.477 513.807 492.954 513.66C493.431 513.508 493.933 513.432 494.46 513.432C494.808 513.432 495.178 513.474 495.568 513.557C495.962 513.637 496.329 513.785 496.67 514C497.015 514.216 497.297 514.525 497.517 514.927C497.736 515.324 497.846 515.841 497.846 516.478V522.273H496.187V521.08H496.119C496.009 521.3 495.844 521.516 495.625 521.728C495.405 521.94 495.123 522.116 494.778 522.256C494.433 522.396 494.02 522.466 493.539 522.466ZM493.909 521.103C494.378 521.103 494.78 521.01 495.113 520.824C495.45 520.639 495.706 520.396 495.88 520.097C496.058 519.794 496.147 519.47 496.147 519.125V518C496.087 518.061 495.969 518.118 495.795 518.171C495.625 518.22 495.43 518.264 495.21 518.302C494.99 518.336 494.776 518.368 494.568 518.398C494.359 518.425 494.185 518.447 494.045 518.466C493.715 518.508 493.414 518.578 493.142 518.677C492.873 518.775 492.657 518.917 492.494 519.103C492.335 519.285 492.255 519.527 492.255 519.83C492.255 520.25 492.411 520.569 492.721 520.785C493.032 520.997 493.428 521.103 493.909 521.103ZM503.785 522.449C502.94 522.449 502.213 522.258 501.603 521.875C500.997 521.489 500.531 520.957 500.206 520.279C499.88 519.601 499.717 518.824 499.717 517.949C499.717 517.063 499.884 516.281 500.217 515.603C500.55 514.921 501.02 514.389 501.626 514.006C502.232 513.624 502.946 513.432 503.768 513.432C504.431 513.432 505.022 513.555 505.541 513.802C506.06 514.044 506.478 514.385 506.796 514.824C507.118 515.264 507.31 515.777 507.37 516.364H505.717C505.626 515.955 505.418 515.603 505.092 515.307C504.77 515.012 504.338 514.864 503.796 514.864C503.323 514.864 502.908 514.989 502.552 515.239C502.2 515.485 501.925 515.838 501.728 516.296C501.531 516.75 501.433 517.288 501.433 517.91C501.433 518.546 501.529 519.095 501.723 519.557C501.916 520.019 502.189 520.377 502.541 520.631C502.897 520.885 503.315 521.012 503.796 521.012C504.118 521.012 504.41 520.953 504.671 520.836C504.937 520.714 505.158 520.542 505.336 520.319C505.518 520.095 505.645 519.826 505.717 519.512H507.37C507.31 520.076 507.126 520.58 506.819 521.023C506.512 521.466 506.101 521.815 505.586 522.069C505.075 522.322 504.474 522.449 503.785 522.449ZM513.261 513.546V514.91H508.494V513.546H513.261ZM509.772 511.455H511.471V519.711C511.471 520.04 511.52 520.288 511.619 520.455C511.717 520.618 511.844 520.73 512 520.79C512.159 520.847 512.331 520.875 512.517 520.875C512.653 520.875 512.772 520.866 512.875 520.847C512.977 520.828 513.056 520.813 513.113 520.802L513.42 522.205C513.322 522.243 513.181 522.281 513 522.319C512.818 522.36 512.59 522.383 512.318 522.387C511.871 522.394 511.454 522.315 511.068 522.148C510.681 521.982 510.369 521.724 510.13 521.375C509.892 521.027 509.772 520.589 509.772 520.063V511.455ZM515.14 522.273V513.546H516.839V522.273H515.14ZM515.998 512.199C515.703 512.199 515.449 512.101 515.237 511.904C515.028 511.703 514.924 511.464 514.924 511.188C514.924 510.908 515.028 510.669 515.237 510.472C515.449 510.271 515.703 510.171 515.998 510.171C516.294 510.171 516.546 510.271 516.754 510.472C516.966 510.669 517.072 510.908 517.072 511.188C517.072 511.464 516.966 511.703 516.754 511.904C516.546 512.101 516.294 512.199 515.998 512.199ZM522.801 522.449C521.983 522.449 521.269 522.262 520.659 521.887C520.049 521.512 519.575 520.987 519.238 520.313C518.901 519.639 518.733 518.851 518.733 517.949C518.733 517.044 518.901 516.252 519.238 515.574C519.575 514.896 520.049 514.37 520.659 513.995C521.269 513.62 521.983 513.432 522.801 513.432C523.619 513.432 524.333 513.62 524.943 513.995C525.553 514.37 526.026 514.896 526.363 515.574C526.7 516.252 526.869 517.044 526.869 517.949C526.869 518.851 526.7 519.639 526.363 520.313C526.026 520.987 525.553 521.512 524.943 521.887C524.333 522.262 523.619 522.449 522.801 522.449ZM522.806 521.023C523.337 521.023 523.776 520.883 524.125 520.603C524.473 520.322 524.731 519.949 524.897 519.483C525.068 519.018 525.153 518.504 525.153 517.944C525.153 517.387 525.068 516.875 524.897 516.41C524.731 515.94 524.473 515.563 524.125 515.279C523.776 514.995 523.337 514.853 522.806 514.853C522.272 514.853 521.829 514.995 521.477 515.279C521.128 515.563 520.869 515.94 520.698 516.41C520.532 516.875 520.448 517.387 520.448 517.944C520.448 518.504 520.532 519.018 520.698 519.483C520.869 519.949 521.128 520.322 521.477 520.603C521.829 520.883 522.272 521.023 522.806 521.023ZM530.464 517.091V522.273H528.765V513.546H530.396V514.966H530.504C530.705 514.504 531.019 514.133 531.447 513.853C531.879 513.572 532.422 513.432 533.078 513.432C533.672 513.432 534.193 513.557 534.64 513.807C535.087 514.053 535.434 514.421 535.68 514.91C535.926 515.398 536.049 516.002 536.049 516.722V522.273H534.35V516.927C534.35 516.294 534.186 515.8 533.856 515.444C533.527 515.084 533.074 514.904 532.498 514.904C532.104 514.904 531.754 514.989 531.447 515.16C531.144 515.33 530.903 515.58 530.725 515.91C530.551 516.235 530.464 516.629 530.464 517.091ZM452.245 532.546V533.91H447.478V532.546H452.245ZM448.757 530.455H450.456V538.711C450.456 539.04 450.505 539.288 450.603 539.455C450.702 539.618 450.829 539.73 450.984 539.79C451.143 539.847 451.315 539.875 451.501 539.875C451.637 539.875 451.757 539.866 451.859 539.847C451.961 539.828 452.041 539.813 452.098 539.802L452.404 541.205C452.306 541.243 452.166 541.281 451.984 541.319C451.802 541.36 451.575 541.383 451.302 541.387C450.855 541.394 450.439 541.315 450.052 541.148C449.666 540.982 449.353 540.724 449.115 540.375C448.876 540.027 448.757 539.589 448.757 539.063V530.455ZM455.465 532.546L457.392 535.944L459.335 532.546H461.193L458.471 536.91L461.215 541.273H459.358L457.392 538.012L455.431 541.273H453.568L456.284 536.91L453.602 532.546H455.465ZM464.636 536.091V541.273H462.937V532.546H464.568V533.966H464.676C464.876 533.504 465.191 533.133 465.619 532.853C466.051 532.572 466.594 532.432 467.25 532.432C467.844 532.432 468.365 532.557 468.812 532.807C469.259 533.053 469.606 533.421 469.852 533.91C470.098 534.398 470.221 535.002 470.221 535.722V541.273H468.522V535.927C468.522 535.294 468.358 534.8 468.028 534.444C467.698 534.084 467.246 533.904 466.67 533.904C466.276 533.904 465.926 533.989 465.619 534.16C465.316 534.33 465.075 534.58 464.897 534.91C464.723 535.235 464.636 535.629 464.636 536.091ZM478.733 541.273V542.716H471.34V541.273H478.733ZM479.836 541.273V540L483.774 535.921C484.194 535.478 484.541 535.089 484.814 534.756C485.09 534.419 485.296 534.099 485.433 533.796C485.569 533.493 485.637 533.171 485.637 532.83C485.637 532.444 485.546 532.11 485.365 531.83C485.183 531.546 484.935 531.328 484.62 531.177C484.306 531.021 483.952 530.944 483.558 530.944C483.141 530.944 482.778 531.029 482.467 531.199C482.156 531.37 481.918 531.61 481.751 531.921C481.584 532.232 481.501 532.595 481.501 533.012H479.825C479.825 532.303 479.988 531.684 480.314 531.154C480.639 530.624 481.086 530.213 481.654 529.921C482.223 529.625 482.868 529.478 483.592 529.478C484.323 529.478 484.967 529.624 485.524 529.915C486.084 530.203 486.522 530.597 486.836 531.097C487.151 531.593 487.308 532.154 487.308 532.779C487.308 533.211 487.226 533.633 487.064 534.046C486.904 534.459 486.626 534.919 486.228 535.427C485.831 535.93 485.278 536.542 484.569 537.262L482.257 539.682V539.768H487.495V541.273H479.836Z" fill="black"/>
<rect x="54.7045" y="422.227" width="174" height="146.546" rx="3.5" fill="white"/>
<rect x="54.7045" y="422.227" width="174" height="146.546" rx="3.5" stroke="#D6D3D1"/>
<mask id="mask4_9154_11998" style="mask-type:alpha" maskUnits="userSpaceOnUse" x="74" y="445" width="27" height="28">
<rect x="74.2045" y="445.727" width="26.5464" height="26.5464" fill="#D9D9D9"/>
</mask>
<g mask="url(#mask4_9154_11998)">
<path d="M83.0532 467.849L81.5047 466.273L84.3529 463.424H76.4166V461.212H84.3529L81.5047 458.364L83.0532 456.788L88.5837 462.318L83.0532 467.849ZM91.9021 461.212L86.3715 455.682L91.9021 450.151L93.4506 451.727L90.6024 454.576H98.5387V456.788H90.6024L93.4506 459.636L91.9021 461.212Z" fill="#16A34A"/>
</g>
<path d="M81.8295 494.694C81.7689 494.156 81.5189 493.739 81.0795 493.444C80.6401 493.144 80.087 492.995 79.4204 492.995C78.9431 492.995 78.5302 493.071 78.1817 493.222C77.8333 493.37 77.5624 493.574 77.3692 493.836C77.1798 494.093 77.0851 494.387 77.0851 494.716C77.0851 494.993 77.1495 495.232 77.2783 495.432C77.4109 495.633 77.5833 495.802 77.7954 495.938C78.0113 496.071 78.2423 496.182 78.4886 496.273C78.7348 496.36 78.9715 496.432 79.1988 496.489L80.3351 496.785C80.7064 496.875 81.087 496.999 81.4772 497.154C81.8673 497.309 82.2291 497.514 82.5624 497.768C82.8958 498.021 83.1647 498.336 83.3692 498.711C83.5776 499.086 83.6817 499.535 83.6817 500.057C83.6817 500.716 83.5113 501.302 83.1704 501.813C82.8333 502.324 82.3427 502.728 81.6988 503.023C81.0586 503.319 80.284 503.466 79.3749 503.466C78.5037 503.466 77.7499 503.328 77.1136 503.052C76.4772 502.775 75.9791 502.383 75.6192 501.875C75.2594 501.364 75.0605 500.758 75.0226 500.057H76.784C76.8181 500.478 76.9545 500.828 77.1931 501.108C77.4355 501.385 77.7442 501.591 78.1192 501.728C78.498 501.86 78.9128 501.927 79.3636 501.927C79.8598 501.927 80.3011 501.849 80.6874 501.694C81.0776 501.535 81.3844 501.315 81.6079 501.035C81.8314 500.75 81.9431 500.419 81.9431 500.04C81.9431 499.696 81.8446 499.413 81.6476 499.194C81.4545 498.974 81.1912 498.792 80.8579 498.648C80.5283 498.504 80.1552 498.377 79.7386 498.268L78.3636 497.893C77.4317 497.639 76.6931 497.266 76.1476 496.773C75.606 496.281 75.3351 495.629 75.3351 494.819C75.3351 494.148 75.517 493.563 75.8806 493.063C76.2442 492.563 76.7367 492.175 77.3579 491.898C77.9791 491.618 78.6798 491.478 79.4601 491.478C80.248 491.478 80.9431 491.616 81.5454 491.893C82.1514 492.169 82.6287 492.55 82.9772 493.035C83.3257 493.516 83.5075 494.069 83.5226 494.694H81.8295ZM91.1718 499.654V494.546H92.8763V503.273H91.2059V501.762H91.115C90.9142 502.228 90.5923 502.616 90.1491 502.927C89.7097 503.233 89.1623 503.387 88.507 503.387C87.9464 503.387 87.4502 503.264 87.0184 503.018C86.5904 502.768 86.2532 502.398 86.007 501.91C85.7646 501.421 85.6434 500.817 85.6434 500.097V494.546H87.3423V499.893C87.3423 500.487 87.507 500.961 87.8366 501.313C88.1661 501.665 88.5941 501.841 89.1207 501.841C89.4388 501.841 89.7551 501.762 90.0695 501.603C90.3877 501.444 90.651 501.203 90.8593 500.881C91.0714 500.559 91.1756 500.15 91.1718 499.654ZM95.2954 503.273V491.637H96.9942V495.961H97.0965C97.195 495.779 97.337 495.569 97.5226 495.33C97.7083 495.091 97.9658 494.883 98.2954 494.705C98.6249 494.523 99.0605 494.432 99.6022 494.432C100.307 494.432 100.936 494.61 101.489 494.966C102.042 495.322 102.475 495.836 102.79 496.506C103.108 497.177 103.267 497.983 103.267 498.927C103.267 499.87 103.11 500.678 102.795 501.353C102.481 502.023 102.049 502.54 101.5 502.904C100.951 503.264 100.324 503.444 99.6192 503.444C99.0889 503.444 98.6552 503.355 98.3181 503.177C97.9848 502.999 97.7234 502.79 97.534 502.552C97.3446 502.313 97.1988 502.101 97.0965 501.915H96.9545V503.273H95.2954ZM96.9601 498.91C96.9601 499.523 97.0492 500.061 97.2272 500.523C97.4052 500.985 97.6628 501.347 97.9999 501.608C98.337 501.866 98.7499 501.995 99.2386 501.995C99.7461 501.995 100.17 501.86 100.511 501.591C100.852 501.319 101.11 500.949 101.284 500.483C101.462 500.018 101.551 499.493 101.551 498.91C101.551 498.334 101.464 497.817 101.29 497.358C101.119 496.9 100.862 496.538 100.517 496.273C100.176 496.008 99.7499 495.875 99.2386 495.875C98.7461 495.875 98.3295 496.002 97.9886 496.256C97.6514 496.51 97.3958 496.864 97.2215 497.319C97.0473 497.773 96.9601 498.303 96.9601 498.91ZM110.528 503.273H108.665L112.852 491.637H114.881L119.068 503.273H117.204L113.915 493.75H113.824L110.528 503.273ZM110.841 498.716H116.886V500.194H110.841V498.716ZM124.148 503.449C123.303 503.449 122.576 503.258 121.966 502.875C121.36 502.489 120.894 501.957 120.568 501.279C120.242 500.601 120.079 499.824 120.079 498.949C120.079 498.063 120.246 497.281 120.579 496.603C120.913 495.921 121.382 495.389 121.989 495.006C122.595 494.624 123.309 494.432 124.131 494.432C124.793 494.432 125.384 494.555 125.903 494.802C126.422 495.044 126.841 495.385 127.159 495.824C127.481 496.264 127.672 496.777 127.733 497.364H126.079C125.989 496.955 125.78 496.603 125.454 496.307C125.132 496.012 124.701 495.864 124.159 495.864C123.686 495.864 123.271 495.989 122.915 496.239C122.562 496.485 122.288 496.838 122.091 497.296C121.894 497.75 121.795 498.288 121.795 498.91C121.795 499.546 121.892 500.095 122.085 500.557C122.278 501.019 122.551 501.377 122.903 501.631C123.259 501.885 123.678 502.012 124.159 502.012C124.481 502.012 124.773 501.953 125.034 501.836C125.299 501.714 125.521 501.542 125.699 501.319C125.881 501.095 126.007 500.826 126.079 500.512H127.733C127.672 501.076 127.489 501.58 127.182 502.023C126.875 502.466 126.464 502.815 125.949 503.069C125.437 503.322 124.837 503.449 124.148 503.449ZM133.226 503.449C132.381 503.449 131.654 503.258 131.044 502.875C130.438 502.489 129.972 501.957 129.646 501.279C129.32 500.601 129.158 499.824 129.158 498.949C129.158 498.063 129.324 497.281 129.658 496.603C129.991 495.921 130.461 495.389 131.067 495.006C131.673 494.624 132.387 494.432 133.209 494.432C133.872 494.432 134.463 494.555 134.981 494.802C135.5 495.044 135.919 495.385 136.237 495.824C136.559 496.264 136.75 496.777 136.811 497.364H135.158C135.067 496.955 134.858 496.603 134.533 496.307C134.211 496.012 133.779 495.864 133.237 495.864C132.764 495.864 132.349 495.989 131.993 496.239C131.641 496.485 131.366 496.838 131.169 497.296C130.972 497.75 130.874 498.288 130.874 498.91C130.874 499.546 130.97 500.095 131.163 500.557C131.356 501.019 131.629 501.377 131.981 501.631C132.338 501.885 132.756 502.012 133.237 502.012C133.559 502.012 133.851 501.953 134.112 501.836C134.377 501.714 134.599 501.542 134.777 501.319C134.959 501.095 135.086 500.826 135.158 500.512H136.811C136.75 501.076 136.567 501.58 136.26 502.023C135.953 502.466 135.542 502.815 135.027 503.069C134.516 503.322 133.915 503.449 133.226 503.449ZM142.304 503.449C141.486 503.449 140.772 503.262 140.162 502.887C139.552 502.512 139.079 501.987 138.741 501.313C138.404 500.639 138.236 499.851 138.236 498.949C138.236 498.044 138.404 497.252 138.741 496.574C139.079 495.896 139.552 495.37 140.162 494.995C140.772 494.62 141.486 494.432 142.304 494.432C143.122 494.432 143.836 494.62 144.446 494.995C145.056 495.37 145.529 495.896 145.866 496.574C146.204 497.252 146.372 498.044 146.372 498.949C146.372 499.851 146.204 500.639 145.866 501.313C145.529 501.987 145.056 502.512 144.446 502.887C143.836 503.262 143.122 503.449 142.304 503.449ZM142.31 502.023C142.84 502.023 143.279 501.883 143.628 501.603C143.976 501.322 144.234 500.949 144.4 500.483C144.571 500.018 144.656 499.504 144.656 498.944C144.656 498.387 144.571 497.875 144.4 497.41C144.234 496.94 143.976 496.563 143.628 496.279C143.279 495.995 142.84 495.853 142.31 495.853C141.775 495.853 141.332 495.995 140.98 496.279C140.632 496.563 140.372 496.94 140.202 497.41C140.035 497.875 139.952 498.387 139.952 498.944C139.952 499.504 140.035 500.018 140.202 500.483C140.372 500.949 140.632 501.322 140.98 501.603C141.332 501.883 141.775 502.023 142.31 502.023ZM153.797 499.654V494.546H155.501V503.273H153.831V501.762H153.74C153.539 502.228 153.217 502.616 152.774 502.927C152.335 503.233 151.787 503.387 151.132 503.387C150.571 503.387 150.075 503.264 149.643 503.018C149.215 502.768 148.878 502.398 148.632 501.91C148.39 501.421 148.268 500.817 148.268 500.097V494.546H149.967V499.893C149.967 500.487 150.132 500.961 150.462 501.313C150.791 501.665 151.219 501.841 151.746 501.841C152.064 501.841 152.38 501.762 152.695 501.603C153.013 501.444 153.276 501.203 153.484 500.881C153.696 500.559 153.801 500.15 153.797 499.654ZM159.483 498.091V503.273H157.784V494.546H159.415V495.966H159.523C159.723 495.504 160.038 495.133 160.466 494.853C160.898 494.572 161.441 494.432 162.097 494.432C162.691 494.432 163.212 494.557 163.659 494.807C164.106 495.053 164.453 495.421 164.699 495.91C164.945 496.398 165.068 497.002 165.068 497.722V503.273H163.369V497.927C163.369 497.294 163.204 496.8 162.875 496.444C162.545 496.084 162.093 495.904 161.517 495.904C161.123 495.904 160.773 495.989 160.466 496.16C160.163 496.33 159.922 496.58 159.744 496.91C159.57 497.235 159.483 497.629 159.483 498.091ZM171.42 494.546V495.91H166.653V494.546H171.42ZM167.932 492.455H169.631V500.711C169.631 501.04 169.68 501.288 169.778 501.455C169.877 501.618 170.004 501.73 170.159 501.79C170.318 501.847 170.49 501.875 170.676 501.875C170.812 501.875 170.932 501.866 171.034 501.847C171.136 501.828 171.216 501.813 171.273 501.802L171.579 503.205C171.481 503.243 171.341 503.281 171.159 503.319C170.977 503.36 170.75 503.383 170.477 503.387C170.03 503.394 169.614 503.315 169.227 503.148C168.841 502.982 168.528 502.724 168.29 502.375C168.051 502.027 167.932 501.589 167.932 501.063V492.455ZM74.909 512.148V510.637H83.9147V512.148H80.284V522.273H78.534V512.148H74.909ZM84.8621 522.273V513.546H86.5042V514.932H86.5951C86.7542 514.463 87.0345 514.093 87.436 513.824C87.8413 513.552 88.2996 513.415 88.811 513.415C88.9171 513.415 89.0421 513.419 89.186 513.427C89.3337 513.434 89.4493 513.444 89.5326 513.455V515.08C89.4644 515.061 89.3432 515.04 89.169 515.018C88.9947 514.991 88.8205 514.978 88.6462 514.978C88.2447 514.978 87.8868 515.063 87.5724 515.233C87.2618 515.4 87.0155 515.633 86.8337 515.932C86.6519 516.228 86.561 516.565 86.561 516.944V522.273H84.8621ZM93.4644 522.466C92.9114 522.466 92.4114 522.364 91.9644 522.16C91.5174 521.951 91.1633 521.65 90.9019 521.256C90.6443 520.862 90.5155 520.379 90.5155 519.807C90.5155 519.315 90.6102 518.91 90.7996 518.591C90.989 518.273 91.2447 518.021 91.5667 517.836C91.8887 517.65 92.2485 517.51 92.6462 517.415C93.044 517.321 93.4493 517.249 93.8621 517.199C94.3849 517.139 94.8091 517.089 95.1349 517.052C95.4606 517.01 95.6974 516.944 95.8451 516.853C95.9928 516.762 96.0667 516.614 96.0667 516.41V516.37C96.0667 515.874 95.9265 515.489 95.6462 515.216C95.3697 514.944 94.9568 514.807 94.4076 514.807C93.8356 514.807 93.3849 514.934 93.0553 515.188C92.7296 515.438 92.5042 515.716 92.3792 516.023L90.7826 515.66C90.972 515.129 91.2485 514.701 91.6121 514.375C91.9796 514.046 92.4019 513.807 92.8792 513.66C93.3565 513.508 93.8584 513.432 94.3849 513.432C94.7334 513.432 95.1027 513.474 95.4928 513.557C95.8868 513.637 96.2542 513.785 96.5951 514C96.9398 514.216 97.222 514.525 97.4417 514.927C97.6614 515.324 97.7712 515.841 97.7712 516.478V522.273H96.1121V521.08H96.044C95.9341 521.3 95.7693 521.516 95.5496 521.728C95.3299 521.94 95.0477 522.116 94.703 522.256C94.3584 522.396 93.9455 522.466 93.4644 522.466ZM93.8337 521.103C94.3034 521.103 94.7049 521.01 95.0383 520.824C95.3754 520.639 95.6311 520.396 95.8053 520.097C95.9834 519.794 96.0724 519.47 96.0724 519.125V518C96.0118 518.061 95.8943 518.118 95.7201 518.171C95.5496 518.22 95.3546 518.264 95.1349 518.302C94.9152 518.336 94.7012 518.368 94.4928 518.398C94.2845 518.425 94.1102 518.447 93.9701 518.466C93.6405 518.508 93.3394 518.578 93.0667 518.677C92.7977 518.775 92.5818 518.917 92.419 519.103C92.2599 519.285 92.1803 519.527 92.1803 519.83C92.1803 520.25 92.3356 520.569 92.6462 520.785C92.9568 520.997 93.3527 521.103 93.8337 521.103ZM101.733 517.091V522.273H100.034V513.546H101.665V514.966H101.773C101.973 514.504 102.288 514.133 102.716 513.853C103.148 513.572 103.691 513.432 104.347 513.432C104.941 513.432 105.462 513.557 105.909 513.807C106.356 514.053 106.703 514.421 106.949 514.91C107.195 515.398 107.318 516.002 107.318 516.722V522.273H105.619V516.927C105.619 516.294 105.454 515.8 105.125 515.444C104.795 515.084 104.343 514.904 103.767 514.904C103.373 514.904 103.023 514.989 102.716 515.16C102.413 515.33 102.172 515.58 101.994 515.91C101.82 516.235 101.733 516.629 101.733 517.091ZM116.136 515.677L114.597 515.949C114.532 515.752 114.43 515.565 114.29 515.387C114.153 515.209 113.968 515.063 113.733 514.949C113.498 514.836 113.204 514.779 112.852 514.779C112.371 514.779 111.97 514.887 111.648 515.103C111.326 515.315 111.165 515.589 111.165 515.927C111.165 516.218 111.273 516.453 111.489 516.631C111.704 516.809 112.053 516.955 112.534 517.069L113.92 517.387C114.723 517.572 115.322 517.858 115.716 518.245C116.11 518.631 116.307 519.133 116.307 519.75C116.307 520.273 116.155 520.739 115.852 521.148C115.553 521.553 115.134 521.872 114.597 522.103C114.062 522.334 113.443 522.449 112.739 522.449C111.761 522.449 110.964 522.241 110.347 521.824C109.729 521.404 109.35 520.807 109.21 520.035L110.852 519.785C110.954 520.213 111.165 520.536 111.483 520.756C111.801 520.972 112.216 521.08 112.727 521.08C113.284 521.08 113.729 520.964 114.062 520.733C114.396 520.499 114.562 520.213 114.562 519.875C114.562 519.603 114.46 519.374 114.256 519.188C114.055 519.002 113.746 518.862 113.329 518.768L111.852 518.444C111.038 518.258 110.436 517.963 110.045 517.557C109.659 517.152 109.466 516.639 109.466 516.018C109.466 515.502 109.61 515.052 109.898 514.665C110.186 514.279 110.583 513.978 111.091 513.762C111.598 513.542 112.18 513.432 112.835 513.432C113.778 513.432 114.521 513.637 115.062 514.046C115.604 514.451 115.962 514.995 116.136 515.677ZM120.714 522.466C120.161 522.466 119.661 522.364 119.214 522.16C118.767 521.951 118.413 521.65 118.152 521.256C117.894 520.862 117.766 520.379 117.766 519.807C117.766 519.315 117.86 518.91 118.05 518.591C118.239 518.273 118.495 518.021 118.817 517.836C119.139 517.65 119.499 517.51 119.896 517.415C120.294 517.321 120.699 517.249 121.112 517.199C121.635 517.139 122.059 517.089 122.385 517.052C122.711 517.01 122.947 516.944 123.095 516.853C123.243 516.762 123.317 516.614 123.317 516.41V516.37C123.317 515.874 123.177 515.489 122.896 515.216C122.62 514.944 122.207 514.807 121.658 514.807C121.086 514.807 120.635 514.934 120.305 515.188C119.98 515.438 119.754 515.716 119.629 516.023L118.033 515.66C118.222 515.129 118.499 514.701 118.862 514.375C119.23 514.046 119.652 513.807 120.129 513.66C120.606 513.508 121.108 513.432 121.635 513.432C121.983 513.432 122.353 513.474 122.743 513.557C123.137 513.637 123.504 513.785 123.845 514C124.19 514.216 124.472 514.525 124.692 514.927C124.911 515.324 125.021 515.841 125.021 516.478V522.273H123.362V521.08H123.294C123.184 521.3 123.019 521.516 122.8 521.728C122.58 521.94 122.298 522.116 121.953 522.256C121.608 522.396 121.195 522.466 120.714 522.466ZM121.084 521.103C121.553 521.103 121.955 521.01 122.288 520.824C122.625 520.639 122.881 520.396 123.055 520.097C123.233 519.794 123.322 519.47 123.322 519.125V518C123.262 518.061 123.144 518.118 122.97 518.171C122.8 518.22 122.605 518.264 122.385 518.302C122.165 518.336 121.951 518.368 121.743 518.398C121.534 518.425 121.36 518.447 121.22 518.466C120.891 518.508 120.589 518.578 120.317 518.677C120.048 518.775 119.832 518.917 119.669 519.103C119.51 519.285 119.43 519.527 119.43 519.83C119.43 520.25 119.586 520.569 119.896 520.785C120.207 520.997 120.603 521.103 121.084 521.103ZM130.96 522.449C130.115 522.449 129.388 522.258 128.778 521.875C128.172 521.489 127.706 520.957 127.381 520.279C127.055 519.601 126.892 518.824 126.892 517.949C126.892 517.063 127.059 516.281 127.392 515.603C127.725 514.921 128.195 514.389 128.801 514.006C129.407 513.624 130.121 513.432 130.943 513.432C131.606 513.432 132.197 513.555 132.716 513.802C133.235 514.044 133.653 514.385 133.972 514.824C134.293 515.264 134.485 515.777 134.545 516.364H132.892C132.801 515.955 132.593 515.603 132.267 515.307C131.945 515.012 131.513 514.864 130.972 514.864C130.498 514.864 130.083 514.989 129.727 515.239C129.375 515.485 129.1 515.838 128.903 516.296C128.706 516.75 128.608 517.288 128.608 517.91C128.608 518.546 128.704 519.095 128.898 519.557C129.091 520.019 129.364 520.377 129.716 520.631C130.072 520.885 130.49 521.012 130.972 521.012C131.293 521.012 131.585 520.953 131.847 520.836C132.112 520.714 132.333 520.542 132.511 520.319C132.693 520.095 132.82 519.826 132.892 519.512H134.545C134.485 520.076 134.301 520.58 133.994 521.023C133.687 521.466 133.276 521.815 132.761 522.069C132.25 522.322 131.65 522.449 130.96 522.449ZM140.436 513.546V514.91H135.669V513.546H140.436ZM136.947 511.455H138.646V519.711C138.646 520.04 138.695 520.288 138.794 520.455C138.892 520.618 139.019 520.73 139.175 520.79C139.334 520.847 139.506 520.875 139.692 520.875C139.828 520.875 139.947 520.866 140.05 520.847C140.152 520.828 140.231 520.813 140.288 520.802L140.595 522.205C140.497 522.243 140.356 522.281 140.175 522.319C139.993 522.36 139.766 522.383 139.493 522.387C139.046 522.394 138.629 522.315 138.243 522.148C137.856 521.982 137.544 521.724 137.305 521.375C137.067 521.027 136.947 520.589 136.947 520.063V511.455ZM142.315 522.273V513.546H144.014V522.273H142.315ZM143.173 512.199C142.878 512.199 142.624 512.101 142.412 511.904C142.204 511.703 142.099 511.464 142.099 511.188C142.099 510.908 142.204 510.669 142.412 510.472C142.624 510.271 142.878 510.171 143.173 510.171C143.469 510.171 143.721 510.271 143.929 510.472C144.141 510.669 144.247 510.908 144.247 511.188C144.247 511.464 144.141 511.703 143.929 511.904C143.721 512.101 143.469 512.199 143.173 512.199ZM149.976 522.449C149.158 522.449 148.444 522.262 147.834 521.887C147.224 521.512 146.75 520.987 146.413 520.313C146.076 519.639 145.908 518.851 145.908 517.949C145.908 517.044 146.076 516.252 146.413 515.574C146.75 514.896 147.224 514.37 147.834 513.995C148.444 513.62 149.158 513.432 149.976 513.432C150.794 513.432 151.508 513.62 152.118 513.995C152.728 514.37 153.201 514.896 153.538 515.574C153.875 516.252 154.044 517.044 154.044 517.949C154.044 518.851 153.875 519.639 153.538 520.313C153.201 520.987 152.728 521.512 152.118 521.887C151.508 522.262 150.794 522.449 149.976 522.449ZM149.981 521.023C150.512 521.023 150.951 520.883 151.3 520.603C151.648 520.322 151.906 519.949 152.072 519.483C152.243 519.018 152.328 518.504 152.328 517.944C152.328 517.387 152.243 516.875 152.072 516.41C151.906 515.94 151.648 515.563 151.3 515.279C150.951 514.995 150.512 514.853 149.981 514.853C149.447 514.853 149.004 514.995 148.652 515.279C148.303 515.563 148.044 515.94 147.874 516.41C147.707 516.875 147.624 517.387 147.624 517.944C147.624 518.504 147.707 519.018 147.874 519.483C148.044 519.949 148.303 520.322 148.652 520.603C149.004 520.883 149.447 521.023 149.981 521.023ZM157.639 517.091V522.273H155.94V513.546H157.571V514.966H157.679C157.88 514.504 158.194 514.133 158.622 513.853C159.054 513.572 159.597 513.432 160.253 513.432C160.847 513.432 161.368 513.557 161.815 513.807C162.262 514.053 162.609 514.421 162.855 514.91C163.101 515.398 163.224 516.002 163.224 516.722V522.273H161.525V516.927C161.525 516.294 161.361 515.8 161.031 515.444C160.702 515.084 160.249 514.904 159.673 514.904C159.279 514.904 158.929 514.989 158.622 515.16C158.319 515.33 158.079 515.58 157.9 515.91C157.726 516.235 157.639 516.629 157.639 517.091ZM79.4204 532.546V533.91H74.6533V532.546H79.4204ZM75.9317 530.455H77.6306V538.711C77.6306 539.04 77.6798 539.288 77.7783 539.455C77.8768 539.618 78.0037 539.73 78.159 539.79C78.3181 539.847 78.4905 539.875 78.6761 539.875C78.8124 539.875 78.9317 539.866 79.034 539.847C79.1363 539.828 79.2158 539.813 79.2726 539.802L79.5795 541.205C79.481 541.243 79.3408 541.281 79.159 541.319C78.9772 541.36 78.7499 541.383 78.4772 541.387C78.0302 541.394 77.6136 541.315 77.2272 541.148C76.8408 540.982 76.5283 540.724 76.2897 540.375C76.0511 540.027 75.9317 539.589 75.9317 539.063V530.455ZM82.6405 532.546L84.5667 535.944L86.5099 532.546H88.3678L85.6462 536.91L88.3905 541.273H86.5326L84.5667 538.012L82.6065 541.273H80.7428L83.4587 536.91L80.7769 532.546H82.6405ZM91.811 536.091V541.273H90.1121V532.546H91.7428V533.966H91.8508C92.0515 533.504 92.3659 533.133 92.794 532.853C93.2258 532.572 93.7693 532.432 94.4246 532.432C95.0193 532.432 95.5402 532.557 95.9871 532.807C96.4341 533.053 96.7807 533.421 97.0269 533.91C97.2731 534.398 97.3962 535.002 97.3962 535.722V541.273H95.6974V535.927C95.6974 535.294 95.5326 534.8 95.203 534.444C94.8735 534.084 94.4209 533.904 93.8451 533.904C93.4512 533.904 93.1008 533.989 92.794 534.16C92.4909 534.33 92.2504 534.58 92.0724 534.91C91.8981 535.235 91.811 535.629 91.811 536.091ZM105.908 541.273V542.716H98.5155V541.273H105.908ZM109.692 529.637V541.273H107.93V531.398H107.862L105.078 533.216V531.535L107.981 529.637H109.692Z" fill="black"/>
<path d="M427.03 184.331L419.53 180V188.661L427.03 184.331ZM229.204 185.081H420.28V183.581H229.204V185.081Z" fill="#78716C"/>
<path d="M805.854 184.331L798.354 180V188.661L805.854 184.331ZM608.029 185.081H799.104V183.581H608.029V185.081Z" fill="#78716C"/>
<path d="M141.704 421.727L146.035 414.227L137.374 414.227L141.704 421.727ZM140.954 239.104L140.954 414.977L142.454 414.977L142.454 239.104L140.954 239.104Z" fill="#78716C"/>
<path d="M520.529 421.727L524.86 414.227L516.199 414.227L520.529 421.727ZM519.779 239.104L519.779 414.977L521.279 414.977L521.279 239.104L519.779 239.104Z" fill="#78716C"/>
<rect x="280.954" y="167.581" width="81.5" height="33.5" rx="3.25" fill="#F5F5F4"/>
<rect x="280.954" y="167.581" width="81.5" height="33.5" rx="3.25" stroke="#16A34A" stroke-width="1.5"/>
<path d="M290.466 189.831H288.602L292.79 178.194H294.818L299.006 189.831H297.142L293.852 180.308H293.761L290.466 189.831ZM290.778 185.274H296.824V186.751H290.778V185.274ZM309.804 181.978H308.031C307.963 181.6 307.836 181.266 307.65 180.978C307.465 180.69 307.238 180.446 306.969 180.245C306.7 180.045 306.399 179.893 306.065 179.791C305.736 179.689 305.385 179.637 305.014 179.637C304.344 179.637 303.743 179.806 303.213 180.143C302.686 180.48 302.27 180.975 301.963 181.626C301.66 182.278 301.508 183.073 301.508 184.012C301.508 184.959 301.66 185.759 301.963 186.41C302.27 187.062 302.688 187.554 303.219 187.887C303.749 188.221 304.346 188.387 305.008 188.387C305.376 188.387 305.724 188.338 306.054 188.24C306.387 188.137 306.688 187.988 306.957 187.791C307.226 187.594 307.454 187.353 307.639 187.069C307.829 186.781 307.959 186.452 308.031 186.081L309.804 186.086C309.709 186.658 309.525 187.185 309.253 187.666C308.984 188.143 308.637 188.556 308.213 188.904C307.793 189.249 307.311 189.516 306.77 189.706C306.228 189.895 305.637 189.99 304.997 189.99C303.99 189.99 303.092 189.751 302.304 189.274C301.516 188.793 300.895 188.105 300.44 187.211C299.99 186.317 299.764 185.251 299.764 184.012C299.764 182.77 299.991 181.704 300.446 180.814C300.9 179.92 301.522 179.234 302.31 178.757C303.097 178.276 303.993 178.035 304.997 178.035C305.615 178.035 306.19 178.124 306.724 178.302C307.262 178.476 307.745 178.734 308.173 179.075C308.601 179.412 308.955 179.825 309.236 180.314C309.516 180.798 309.705 181.353 309.804 181.978ZM311.905 189.831V178.194H313.66V183.251H319.462V178.194H321.223V189.831H319.462V184.757H313.66V189.831H311.905ZM331.446 191.285V176.74H332.378V191.285H331.446ZM334.361 181.251C334.3 180.713 334.05 180.296 333.611 180.001C333.171 179.702 332.618 179.552 331.952 179.552C331.474 179.552 331.061 179.628 330.713 179.779C330.365 179.927 330.094 180.132 329.9 180.393C329.711 180.651 329.616 180.944 329.616 181.274C329.616 181.55 329.681 181.789 329.81 181.99C329.942 182.19 330.115 182.359 330.327 182.495C330.543 182.628 330.774 182.74 331.02 182.831C331.266 182.918 331.503 182.99 331.73 183.046L332.866 183.342C333.238 183.433 333.618 183.556 334.008 183.711C334.399 183.867 334.76 184.071 335.094 184.325C335.427 184.579 335.696 184.893 335.9 185.268C336.109 185.643 336.213 186.092 336.213 186.615C336.213 187.274 336.043 187.859 335.702 188.37C335.365 188.882 334.874 189.285 334.23 189.581C333.59 189.876 332.815 190.024 331.906 190.024C331.035 190.024 330.281 189.885 329.645 189.609C329.008 189.332 328.51 188.94 328.15 188.433C327.791 187.921 327.592 187.315 327.554 186.615H329.315C329.349 187.035 329.486 187.385 329.724 187.666C329.967 187.942 330.275 188.149 330.65 188.285C331.029 188.418 331.444 188.484 331.895 188.484C332.391 188.484 332.832 188.406 333.219 188.251C333.609 188.092 333.916 187.872 334.139 187.592C334.363 187.308 334.474 186.976 334.474 186.598C334.474 186.253 334.376 185.971 334.179 185.751C333.986 185.531 333.722 185.35 333.389 185.206C333.06 185.062 332.686 184.935 332.27 184.825L330.895 184.45C329.963 184.196 329.224 183.823 328.679 183.331C328.137 182.838 327.866 182.187 327.866 181.376C327.866 180.706 328.048 180.12 328.412 179.62C328.775 179.12 329.268 178.732 329.889 178.456C330.51 178.175 331.211 178.035 331.991 178.035C332.779 178.035 333.474 178.173 334.077 178.45C334.683 178.726 335.16 179.107 335.508 179.592C335.857 180.073 336.039 180.626 336.054 181.251H334.361ZM342.567 178.194V189.831H340.805V179.956H340.737L337.953 181.774V180.092L340.856 178.194H342.567ZM349.766 190.024C348.868 190.02 348.101 189.783 347.464 189.314C346.828 188.844 346.341 188.16 346.004 187.262C345.667 186.365 345.499 185.283 345.499 184.018C345.499 182.757 345.667 181.679 346.004 180.785C346.345 179.891 346.834 179.209 347.47 178.74C348.11 178.27 348.875 178.035 349.766 178.035C350.656 178.035 351.419 178.272 352.055 178.745C352.692 179.215 353.178 179.897 353.516 180.791C353.856 181.681 354.027 182.757 354.027 184.018C354.027 185.287 353.858 186.37 353.521 187.268C353.184 188.162 352.697 188.846 352.061 189.319C351.425 189.789 350.659 190.024 349.766 190.024ZM349.766 188.507C350.553 188.507 351.169 188.122 351.612 187.353C352.059 186.584 352.283 185.473 352.283 184.018C352.283 183.052 352.18 182.236 351.976 181.569C351.775 180.899 351.485 180.391 351.106 180.046C350.731 179.698 350.284 179.524 349.766 179.524C348.981 179.524 348.366 179.91 347.919 180.683C347.472 181.456 347.247 182.567 347.243 184.018C347.243 184.988 347.343 185.808 347.544 186.478C347.749 187.145 348.038 187.651 348.413 187.995C348.788 188.336 349.239 188.507 349.766 188.507Z" fill="#16A34A"/>
<rect x="659.779" y="167.581" width="81.5" height="33.5" rx="3.25" fill="#F5F5F4"/>
<rect x="659.779" y="167.581" width="81.5" height="33.5" rx="3.25" stroke="#16A34A" stroke-width="1.5"/>
<path d="M669.291 189.831H667.427L671.615 178.194H673.643L677.831 189.831H675.967L672.677 180.308H672.586L669.291 189.831ZM669.603 185.274H675.649V186.751H669.603V185.274ZM688.629 181.978H686.856C686.788 181.6 686.661 181.266 686.475 180.978C686.29 180.69 686.063 180.446 685.794 180.245C685.525 180.045 685.224 179.893 684.89 179.791C684.561 179.689 684.21 179.637 683.839 179.637C683.169 179.637 682.568 179.806 682.038 180.143C681.511 180.48 681.095 180.975 680.788 181.626C680.485 182.278 680.333 183.073 680.333 184.012C680.333 184.959 680.485 185.759 680.788 186.41C681.095 187.062 681.513 187.554 682.044 187.887C682.574 188.221 683.171 188.387 683.833 188.387C684.201 188.387 684.549 188.338 684.879 188.24C685.212 188.137 685.513 187.988 685.782 187.791C686.051 187.594 686.278 187.353 686.464 187.069C686.653 186.781 686.784 186.452 686.856 186.081L688.629 186.086C688.534 186.658 688.35 187.185 688.078 187.666C687.809 188.143 687.462 188.556 687.038 188.904C686.617 189.249 686.136 189.516 685.595 189.706C685.053 189.895 684.462 189.99 683.822 189.99C682.814 189.99 681.917 189.751 681.129 189.274C680.341 188.793 679.72 188.105 679.265 187.211C678.814 186.317 678.589 185.251 678.589 184.012C678.589 182.77 678.816 181.704 679.271 180.814C679.725 179.92 680.347 179.234 681.135 178.757C681.922 178.276 682.818 178.035 683.822 178.035C684.439 178.035 685.015 178.124 685.549 178.302C686.087 178.476 686.57 178.734 686.998 179.075C687.426 179.412 687.78 179.825 688.061 180.314C688.341 180.798 688.53 181.353 688.629 181.978ZM690.73 189.831V178.194H692.485V183.251H698.287V178.194H700.048V189.831H698.287V184.757H692.485V189.831H690.73ZM710.271 191.285V176.74H711.203V191.285H710.271ZM713.186 181.251C713.125 180.713 712.875 180.296 712.436 180.001C711.996 179.702 711.443 179.552 710.777 179.552C710.299 179.552 709.886 179.628 709.538 179.779C709.189 179.927 708.919 180.132 708.725 180.393C708.536 180.651 708.441 180.944 708.441 181.274C708.441 181.55 708.506 181.789 708.635 181.99C708.767 182.19 708.939 182.359 709.152 182.495C709.367 182.628 709.599 182.74 709.845 182.831C710.091 182.918 710.328 182.99 710.555 183.046L711.691 183.342C712.063 183.433 712.443 183.556 712.833 183.711C713.224 183.867 713.585 184.071 713.919 184.325C714.252 184.579 714.521 184.893 714.725 185.268C714.934 185.643 715.038 186.092 715.038 186.615C715.038 187.274 714.867 187.859 714.527 188.37C714.189 188.882 713.699 189.285 713.055 189.581C712.415 189.876 711.64 190.024 710.731 190.024C709.86 190.024 709.106 189.885 708.47 189.609C707.833 189.332 707.335 188.94 706.975 188.433C706.616 187.921 706.417 187.315 706.379 186.615H708.14C708.174 187.035 708.311 187.385 708.549 187.666C708.792 187.942 709.1 188.149 709.475 188.285C709.854 188.418 710.269 188.484 710.72 188.484C711.216 188.484 711.657 188.406 712.044 188.251C712.434 188.092 712.741 187.872 712.964 187.592C713.188 187.308 713.299 186.976 713.299 186.598C713.299 186.253 713.201 185.971 713.004 185.751C712.811 185.531 712.547 185.35 712.214 185.206C711.885 185.062 711.511 184.935 711.095 184.825L709.72 184.45C708.788 184.196 708.049 183.823 707.504 183.331C706.962 182.838 706.691 182.187 706.691 181.376C706.691 180.706 706.873 180.12 707.237 179.62C707.6 179.12 708.093 178.732 708.714 178.456C709.335 178.175 710.036 178.035 710.816 178.035C711.604 178.035 712.299 178.173 712.902 178.45C713.508 178.726 713.985 179.107 714.333 179.592C714.682 180.073 714.864 180.626 714.879 181.251H713.186ZM721.392 178.194V189.831H719.63V179.956H719.562L716.778 181.774V180.092L719.681 178.194H721.392ZM728.59 190.024C727.693 190.02 726.926 189.783 726.289 189.314C725.653 188.844 725.166 188.16 724.829 187.262C724.492 186.365 724.323 185.283 724.323 184.018C724.323 182.757 724.492 181.679 724.829 180.785C725.17 179.891 725.659 179.209 726.295 178.74C726.935 178.27 727.7 178.035 728.59 178.035C729.481 178.035 730.244 178.272 730.88 178.745C731.517 179.215 732.003 179.897 732.34 180.791C732.681 181.681 732.852 182.757 732.852 184.018C732.852 185.287 732.683 186.37 732.346 187.268C732.009 188.162 731.522 188.846 730.886 189.319C730.25 189.789 729.484 190.024 728.59 190.024ZM728.59 188.507C729.378 188.507 729.994 188.122 730.437 187.353C730.884 186.584 731.108 185.473 731.108 184.018C731.108 183.052 731.005 182.236 730.801 181.569C730.6 180.899 730.31 180.391 729.931 180.046C729.556 179.698 729.109 179.524 728.59 179.524C727.806 179.524 727.191 179.91 726.744 180.683C726.297 181.456 726.072 182.567 726.068 184.018C726.068 184.988 726.168 185.808 726.369 186.478C726.573 187.145 726.863 187.651 727.238 187.995C727.613 188.336 728.064 188.507 728.59 188.507Z" fill="#16A34A"/>
</svg>
