<svg width="1041" height="680" viewBox="0 0 1041 680" fill="none" xmlns="http://www.w3.org/2000/svg">
<rect width="1040" height="680" transform="translate(0.324219)" fill="#F5F5F4"/>
<path d="M420.824 58.7493C420.824 56.8163 422.391 55.2493 424.324 55.2493H616.324C618.257 55.2493 619.824 56.8163 619.824 58.7493V179.296C619.824 181.229 618.257 182.796 616.324 182.796H424.324C422.391 182.796 420.824 181.229 420.824 179.296V58.7493Z" fill="#16A34A"/>
<path d="M420.824 58.7493C420.824 56.8163 422.391 55.2493 424.324 55.2493H616.324C618.257 55.2493 619.824 56.8163 619.824 58.7493V179.296C619.824 181.229 618.257 182.796 616.324 182.796H424.324C422.391 182.796 420.824 181.229 420.824 179.296V58.7493Z" stroke="#D6D3D1"/>
<mask id="mask0_9156_12487" style="mask-type:alpha" maskUnits="userSpaceOnUse" x="440" y="78" width="27" height="28">
<rect x="440.324" y="78.7493" width="26.5464" height="26.5464" fill="#D9D9D9"/>
</mask>
<g mask="url(#mask0_9156_12487)">
<path d="M445.855 97.553V89.8103H448.067V97.553H445.855ZM452.492 97.553V89.8103H454.704V97.553H452.492ZM442.537 101.977V99.7652H464.659V101.977H442.537ZM459.128 97.553V89.8103H461.34V97.553H459.128ZM442.537 87.5981V85.3859L453.598 79.8553L464.659 85.3859V87.5981H442.537ZM447.459 85.3859H459.737L453.598 82.3441L447.459 85.3859Z" fill="white"/>
</g>
<path d="M441.603 136.296V124.659H448.819V126.171H443.358V129.716H448.301V131.222H443.358V136.296H441.603ZM450.978 136.296V124.659H455.239C456.065 124.659 456.748 124.796 457.29 125.068C457.832 125.337 458.237 125.703 458.506 126.165C458.775 126.623 458.909 127.14 458.909 127.716C458.909 128.201 458.82 128.61 458.642 128.943C458.464 129.273 458.226 129.538 457.926 129.739C457.631 129.936 457.305 130.08 456.949 130.171V130.284C457.336 130.303 457.712 130.428 458.08 130.659C458.451 130.887 458.758 131.21 459 131.631C459.243 132.051 459.364 132.563 459.364 133.165C459.364 133.76 459.224 134.294 458.944 134.767C458.667 135.237 458.239 135.61 457.659 135.887C457.08 136.159 456.339 136.296 455.438 136.296H450.978ZM452.733 134.79H455.267C456.108 134.79 456.711 134.627 457.074 134.301C457.438 133.976 457.62 133.568 457.62 133.08C457.62 132.712 457.527 132.375 457.341 132.068C457.156 131.762 456.891 131.517 456.546 131.335C456.205 131.154 455.8 131.063 455.33 131.063H452.733V134.79ZM452.733 129.693H455.086C455.48 129.693 455.834 129.618 456.148 129.466C456.466 129.315 456.718 129.102 456.904 128.83C457.093 128.553 457.188 128.227 457.188 127.852C457.188 127.371 457.019 126.968 456.682 126.642C456.345 126.316 455.828 126.154 455.131 126.154H452.733V129.693ZM471.554 130.477C471.554 131.72 471.327 132.788 470.873 133.682C470.418 134.572 469.795 135.258 469.003 135.739C468.215 136.216 467.319 136.455 466.316 136.455C465.308 136.455 464.408 136.216 463.617 135.739C462.829 135.258 462.208 134.57 461.753 133.676C461.299 132.782 461.071 131.716 461.071 130.477C461.071 129.235 461.299 128.169 461.753 127.279C462.208 126.385 462.829 125.699 463.617 125.222C464.408 124.741 465.308 124.5 466.316 124.5C467.319 124.5 468.215 124.741 469.003 125.222C469.795 125.699 470.418 126.385 470.873 127.279C471.327 128.169 471.554 129.235 471.554 130.477ZM469.816 130.477C469.816 129.531 469.662 128.733 469.355 128.085C469.052 127.434 468.636 126.941 468.105 126.608C467.579 126.271 466.982 126.102 466.316 126.102C465.645 126.102 465.047 126.271 464.52 126.608C463.994 126.941 463.577 127.434 463.27 128.085C462.967 128.733 462.816 129.531 462.816 130.477C462.816 131.424 462.967 132.224 463.27 132.875C463.577 133.523 463.994 134.015 464.52 134.352C465.047 134.686 465.645 134.852 466.316 134.852C466.982 134.852 467.579 134.686 468.105 134.352C468.636 134.015 469.052 133.523 469.355 132.875C469.662 132.224 469.816 131.424 469.816 130.477ZM441.961 149.477C441.961 148.053 442.148 146.743 442.523 145.546C442.898 144.349 443.445 143.245 444.165 142.233H445.722C445.442 142.608 445.18 143.068 444.938 143.614C444.695 144.159 444.483 144.758 444.301 145.409C444.12 146.057 443.978 146.729 443.875 147.426C443.773 148.12 443.722 148.803 443.722 149.477C443.722 150.379 443.811 151.292 443.989 152.216C444.167 153.14 444.408 153.998 444.711 154.79C445.014 155.582 445.351 156.227 445.722 156.727H444.165C443.445 155.716 442.898 154.612 442.523 153.415C442.148 152.218 441.961 150.906 441.961 149.477ZM447.65 155.296V143.659H451.797C452.703 143.659 453.453 143.824 454.047 144.154C454.642 144.483 455.087 144.934 455.382 145.506C455.678 146.074 455.826 146.714 455.826 147.426C455.826 148.142 455.676 148.786 455.377 149.358C455.081 149.926 454.634 150.377 454.036 150.71C453.441 151.04 452.693 151.205 451.792 151.205H448.939V149.716H451.632C452.204 149.716 452.668 149.618 453.025 149.421C453.381 149.22 453.642 148.947 453.809 148.602C453.975 148.258 454.059 147.866 454.059 147.426C454.059 146.987 453.975 146.597 453.809 146.256C453.642 145.915 453.379 145.648 453.019 145.455C452.663 145.262 452.193 145.165 451.61 145.165H449.405V155.296H447.65ZM460.209 155.489C459.656 155.489 459.156 155.387 458.709 155.182C458.262 154.974 457.908 154.673 457.647 154.279C457.389 153.885 457.26 153.402 457.26 152.83C457.26 152.337 457.355 151.932 457.544 151.614C457.734 151.296 457.989 151.044 458.311 150.858C458.633 150.673 458.993 150.532 459.391 150.438C459.789 150.343 460.194 150.271 460.607 150.222C461.13 150.161 461.554 150.112 461.88 150.074C462.205 150.032 462.442 149.966 462.59 149.875C462.738 149.784 462.811 149.637 462.811 149.432V149.392C462.811 148.896 462.671 148.512 462.391 148.239C462.114 147.966 461.702 147.83 461.152 147.83C460.58 147.83 460.13 147.957 459.8 148.21C459.474 148.46 459.249 148.739 459.124 149.046L457.527 148.682C457.717 148.152 457.993 147.724 458.357 147.398C458.724 147.068 459.147 146.83 459.624 146.682C460.101 146.531 460.603 146.455 461.13 146.455C461.478 146.455 461.847 146.496 462.238 146.58C462.632 146.659 462.999 146.807 463.34 147.023C463.685 147.239 463.967 147.548 464.186 147.949C464.406 148.347 464.516 148.864 464.516 149.5V155.296H462.857V154.102H462.789C462.679 154.322 462.514 154.538 462.294 154.75C462.075 154.962 461.792 155.138 461.448 155.279C461.103 155.419 460.69 155.489 460.209 155.489ZM460.578 154.125C461.048 154.125 461.45 154.032 461.783 153.847C462.12 153.661 462.376 153.419 462.55 153.12C462.728 152.816 462.817 152.493 462.817 152.148V151.023C462.757 151.084 462.639 151.14 462.465 151.193C462.294 151.243 462.099 151.286 461.88 151.324C461.66 151.358 461.446 151.39 461.238 151.421C461.029 151.447 460.855 151.47 460.715 151.489C460.385 151.531 460.084 151.601 459.811 151.699C459.542 151.798 459.327 151.94 459.164 152.125C459.005 152.307 458.925 152.549 458.925 152.852C458.925 153.273 459.08 153.591 459.391 153.807C459.702 154.019 460.097 154.125 460.578 154.125ZM466.779 155.296V146.568H468.421V147.955H468.512C468.671 147.485 468.951 147.116 469.353 146.847C469.758 146.574 470.216 146.438 470.728 146.438C470.834 146.438 470.959 146.441 471.103 146.449C471.25 146.457 471.366 146.466 471.449 146.477V148.102C471.381 148.084 471.26 148.063 471.086 148.04C470.911 148.013 470.737 148 470.563 148C470.161 148 469.803 148.085 469.489 148.256C469.178 148.423 468.932 148.656 468.75 148.955C468.569 149.25 468.478 149.587 468.478 149.966V155.296H466.779ZM477.509 146.568V147.932H472.742V146.568H477.509ZM474.02 144.477H475.719V152.733C475.719 153.063 475.768 153.311 475.867 153.477C475.965 153.64 476.092 153.752 476.248 153.813C476.407 153.87 476.579 153.898 476.765 153.898C476.901 153.898 477.02 153.888 477.123 153.87C477.225 153.851 477.304 153.835 477.361 153.824L477.668 155.227C477.569 155.265 477.429 155.303 477.248 155.341C477.066 155.383 476.838 155.406 476.566 155.409C476.119 155.417 475.702 155.337 475.316 155.171C474.929 155.004 474.617 154.746 474.378 154.398C474.14 154.049 474.02 153.612 474.02 153.085V144.477ZM481.087 150.114V155.296H479.388V146.568H481.019V147.989H481.127C481.328 147.527 481.642 147.156 482.07 146.875C482.502 146.595 483.045 146.455 483.701 146.455C484.295 146.455 484.816 146.58 485.263 146.83C485.71 147.076 486.057 147.443 486.303 147.932C486.549 148.421 486.672 149.025 486.672 149.745V155.296H484.973V149.949C484.973 149.316 484.809 148.822 484.479 148.466C484.15 148.106 483.697 147.926 483.121 147.926C482.727 147.926 482.377 148.012 482.07 148.182C481.767 148.352 481.526 148.602 481.348 148.932C481.174 149.258 481.087 149.652 481.087 150.114ZM492.712 155.472C491.852 155.472 491.112 155.288 490.49 154.921C489.873 154.549 489.396 154.029 489.059 153.358C488.725 152.684 488.559 151.894 488.559 150.989C488.559 150.095 488.725 149.307 489.059 148.625C489.396 147.943 489.865 147.411 490.468 147.029C491.074 146.646 491.782 146.455 492.593 146.455C493.085 146.455 493.562 146.536 494.025 146.699C494.487 146.862 494.901 147.118 495.269 147.466C495.636 147.815 495.926 148.267 496.138 148.824C496.35 149.377 496.456 150.049 496.456 150.841V151.443H489.519V150.171H494.792C494.792 149.724 494.701 149.328 494.519 148.983C494.337 148.635 494.081 148.36 493.752 148.159C493.426 147.959 493.043 147.858 492.604 147.858C492.127 147.858 491.71 147.976 491.354 148.21C491.002 148.441 490.729 148.745 490.536 149.12C490.346 149.491 490.252 149.894 490.252 150.33V151.324C490.252 151.907 490.354 152.404 490.559 152.813C490.767 153.222 491.057 153.534 491.428 153.75C491.799 153.962 492.233 154.068 492.729 154.068C493.051 154.068 493.345 154.023 493.61 153.932C493.875 153.837 494.104 153.697 494.297 153.512C494.49 153.326 494.638 153.097 494.74 152.824L496.348 153.114C496.22 153.587 495.989 154.002 495.655 154.358C495.326 154.71 494.911 154.985 494.411 155.182C493.915 155.375 493.348 155.472 492.712 155.472ZM498.341 155.296V146.568H499.983V147.955H500.074C500.233 147.485 500.514 147.116 500.915 146.847C501.32 146.574 501.779 146.438 502.29 146.438C502.396 146.438 502.521 146.441 502.665 146.449C502.813 146.457 502.928 146.466 503.012 146.477V148.102C502.944 148.084 502.822 148.063 502.648 148.04C502.474 148.013 502.3 148 502.125 148C501.724 148 501.366 148.085 501.051 148.256C500.741 148.423 500.495 148.656 500.313 148.955C500.131 149.25 500.04 149.587 500.04 149.966V155.296H498.341ZM508.853 155.296V143.659H513.114C513.94 143.659 514.623 143.796 515.165 144.068C515.707 144.337 516.112 144.703 516.381 145.165C516.65 145.623 516.784 146.14 516.784 146.716C516.784 147.201 516.695 147.61 516.517 147.943C516.339 148.273 516.101 148.538 515.801 148.739C515.506 148.936 515.18 149.08 514.824 149.171V149.284C515.211 149.303 515.587 149.428 515.955 149.659C516.326 149.887 516.633 150.21 516.875 150.631C517.118 151.051 517.239 151.563 517.239 152.165C517.239 152.76 517.099 153.294 516.819 153.767C516.542 154.237 516.114 154.61 515.534 154.887C514.955 155.159 514.214 155.296 513.313 155.296H508.853ZM510.608 153.79H513.142C513.983 153.79 514.586 153.627 514.949 153.301C515.313 152.976 515.495 152.568 515.495 152.08C515.495 151.712 515.402 151.375 515.216 151.068C515.031 150.762 514.766 150.517 514.421 150.335C514.08 150.154 513.675 150.063 513.205 150.063H510.608V153.79ZM510.608 148.693H512.961C513.355 148.693 513.709 148.618 514.023 148.466C514.341 148.315 514.593 148.102 514.779 147.83C514.968 147.553 515.063 147.227 515.063 146.852C515.063 146.371 514.894 145.968 514.557 145.642C514.22 145.316 513.703 145.154 513.006 145.154H510.608V148.693ZM521.725 155.489C521.172 155.489 520.672 155.387 520.225 155.182C519.778 154.974 519.424 154.673 519.162 154.279C518.905 153.885 518.776 153.402 518.776 152.83C518.776 152.337 518.871 151.932 519.06 151.614C519.249 151.296 519.505 151.044 519.827 150.858C520.149 150.673 520.509 150.532 520.907 150.438C521.304 150.343 521.71 150.271 522.123 150.222C522.645 150.161 523.069 150.112 523.395 150.074C523.721 150.032 523.958 149.966 524.105 149.875C524.253 149.784 524.327 149.637 524.327 149.432V149.392C524.327 148.896 524.187 148.512 523.907 148.239C523.63 147.966 523.217 147.83 522.668 147.83C522.096 147.83 521.645 147.957 521.316 148.21C520.99 148.46 520.765 148.739 520.64 149.046L519.043 148.682C519.232 148.152 519.509 147.724 519.873 147.398C520.24 147.068 520.662 146.83 521.14 146.682C521.617 146.531 522.119 146.455 522.645 146.455C522.994 146.455 523.363 146.496 523.753 146.58C524.147 146.659 524.515 146.807 524.855 147.023C525.2 147.239 525.482 147.548 525.702 147.949C525.922 148.347 526.032 148.864 526.032 149.5V155.296H524.373V154.102H524.304C524.194 154.322 524.03 154.538 523.81 154.75C523.59 154.962 523.308 155.138 522.963 155.279C522.619 155.419 522.206 155.489 521.725 155.489ZM522.094 154.125C522.564 154.125 522.965 154.032 523.299 153.847C523.636 153.661 523.891 153.419 524.066 153.12C524.244 152.816 524.333 152.493 524.333 152.148V151.023C524.272 151.084 524.155 151.14 523.98 151.193C523.81 151.243 523.615 151.286 523.395 151.324C523.176 151.358 522.962 151.39 522.753 151.421C522.545 151.447 522.371 151.47 522.23 151.489C521.901 151.531 521.6 151.601 521.327 151.699C521.058 151.798 520.842 151.94 520.679 152.125C520.52 152.307 520.441 152.549 520.441 152.852C520.441 153.273 520.596 153.591 520.907 153.807C521.217 154.019 521.613 154.125 522.094 154.125ZM529.993 150.114V155.296H528.294V146.568H529.925V147.989H530.033C530.234 147.527 530.548 147.156 530.976 146.875C531.408 146.595 531.952 146.455 532.607 146.455C533.202 146.455 533.722 146.58 534.169 146.83C534.616 147.076 534.963 147.443 535.209 147.932C535.455 148.421 535.578 149.025 535.578 149.745V155.296H533.88V149.949C533.88 149.316 533.715 148.822 533.385 148.466C533.056 148.106 532.603 147.926 532.027 147.926C531.633 147.926 531.283 148.012 530.976 148.182C530.673 148.352 530.433 148.602 530.255 148.932C530.08 149.258 529.993 149.652 529.993 150.114ZM539.419 152.335L539.408 150.262H539.703L543.181 146.568H545.215L541.249 150.773H540.982L539.419 152.335ZM537.857 155.296V143.659H539.556V155.296H537.857ZM543.368 155.296L540.243 151.148L541.414 149.96L545.453 155.296H543.368ZM550.03 150.466C550.03 151.894 549.843 153.207 549.468 154.404C549.093 155.601 548.545 156.705 547.826 157.716H546.269C546.549 157.341 546.81 156.881 547.053 156.335C547.295 155.79 547.507 155.193 547.689 154.546C547.871 153.894 548.013 153.22 548.115 152.523C548.218 151.826 548.269 151.14 548.269 150.466C548.269 149.568 548.18 148.657 548.002 147.733C547.824 146.809 547.583 145.951 547.28 145.159C546.977 144.368 546.64 143.722 546.269 143.222H547.826C548.545 144.233 549.093 145.337 549.468 146.534C549.843 147.731 550.03 149.042 550.03 150.466Z" fill="white"/>
<path d="M520.324 183.296L515.994 190.796L524.654 190.796L520.324 183.296ZM520.324 235.573L524.654 228.073L515.994 228.073L520.324 235.573ZM519.574 190.046L519.574 228.823L521.074 228.823L521.074 190.046L519.574 190.046Z" fill="#78716C"/>
<path d="M520.324 343.433L515.994 350.933L524.654 350.933L520.324 343.433ZM520.324 391.73L519.574 391.73L520.324 391.73ZM520.324 514.619L524.654 507.119L515.994 507.119L520.324 514.619ZM520.324 455.967L519.574 455.967L520.324 455.967ZM519.574 347.961L519.574 350.98L521.074 350.98L521.074 347.961L519.574 347.961ZM519.574 353.998L519.574 357.017L521.074 357.017L521.074 353.998L519.574 353.998ZM519.574 360.035L519.574 363.054L521.074 363.054L521.074 360.035L519.574 360.035ZM519.574 366.072L519.574 369.091L521.074 369.091L521.074 366.072L519.574 366.072ZM519.574 372.109L519.574 375.128L521.074 375.128L521.074 372.109L519.574 372.109ZM519.574 378.146L519.574 381.165L521.074 381.165L521.074 378.146L519.574 378.146ZM519.574 384.184L519.574 387.202L521.074 387.202L521.074 384.184L519.574 384.184ZM519.574 390.221L519.574 391.73L521.074 391.73L521.074 390.221L519.574 390.221ZM519.574 391.73L519.574 393.19L521.074 393.19L521.074 391.73L519.574 391.73ZM519.574 396.11L519.574 399.03L521.074 399.03L521.074 396.11L519.574 396.11ZM519.574 401.949L519.574 404.869L521.074 404.869L521.074 401.949L519.574 401.949ZM519.574 407.789L519.574 410.709L521.074 410.709L521.074 407.789L519.574 407.789ZM519.574 413.629L519.574 416.549L521.074 416.549L521.074 413.629L519.574 413.629ZM519.574 419.469L519.574 422.389L521.074 422.389L521.074 419.469L519.574 419.469ZM519.574 425.309L519.574 428.228L521.074 428.228L521.074 425.309L519.574 425.309ZM519.574 431.148L519.574 434.068L521.074 434.068L521.074 431.148L519.574 431.148ZM519.574 436.988L519.574 439.908L521.074 439.908L521.074 436.988L519.574 436.988ZM519.574 442.828L519.574 445.748L521.074 445.748L521.074 442.828L519.574 442.828ZM519.574 448.668L519.574 451.587L521.074 451.587L521.074 448.668L519.574 448.668ZM519.574 454.507L519.574 455.967L521.074 455.967L521.074 454.507L519.574 454.507ZM519.574 455.967L519.574 457.434L521.074 457.434L521.074 455.967L519.574 455.967ZM519.574 460.366L519.574 463.299L521.074 463.299L521.074 460.366L519.574 460.366ZM519.574 466.231L519.574 469.164L521.074 469.164L521.074 466.231L519.574 466.231ZM519.574 472.097L519.574 475.029L521.074 475.029L521.074 472.097L519.574 472.097ZM519.574 477.962L519.574 480.894L521.074 480.894L521.074 477.962L519.574 477.962ZM519.574 483.827L519.574 486.76L521.074 486.76L521.074 483.827L519.574 483.827ZM519.574 489.692L519.574 492.625L521.074 492.625L521.074 489.692L519.574 489.692ZM519.574 495.557L519.574 498.49L521.074 498.49L521.074 495.557L519.574 495.557ZM519.574 501.423L519.574 504.355L521.074 504.355L521.074 501.423L519.574 501.423ZM519.574 507.288L519.574 510.22L521.074 510.22L521.074 507.288L519.574 507.288Z" fill="#78716C"/>
<rect x="433.324" y="234.692" width="174" height="108.546" rx="3.5" fill="white"/>
<rect x="433.324" y="234.692" width="174" height="108.546" rx="3.5" stroke="#D6D3D1"/>
<mask id="mask1_9156_12487" style="mask-type:alpha" maskUnits="userSpaceOnUse" x="452" y="258" width="28" height="27">
<rect x="452.824" y="258.192" width="26.5464" height="26.5464" fill="#D9D9D9"/>
</mask>
<g mask="url(#mask1_9156_12487)">
<path d="M476.052 266.488H473.84V263.723H458.355V279.208H473.84V276.443H476.052V281.42H456.143V261.51H476.052V266.488ZM464.991 276.996V265.935H477.159V276.996H464.991ZM470.522 273.125C470.983 273.125 471.375 272.963 471.697 272.641C472.02 272.318 472.181 271.926 472.181 271.465C472.181 271.005 472.02 270.613 471.697 270.29C471.375 269.968 470.983 269.806 470.522 269.806C470.061 269.806 469.669 269.968 469.347 270.29C469.024 270.613 468.863 271.005 468.863 271.465C468.863 271.926 469.024 272.318 469.347 272.641C469.669 272.963 470.061 273.125 470.522 273.125ZM474.946 274.784V268.147H467.204V274.784H474.946Z" fill="#16A34A"/>
<mask id="path-10-outside-1_9156_12487" maskUnits="userSpaceOnUse" x="451.824" y="271.192" width="13" height="13" fill="black">
<rect fill="white" x="451.824" y="271.192" width="13" height="13"/>
<path fill-rule="evenodd" clip-rule="evenodd" d="M458.121 281.786C460.494 281.786 462.418 279.862 462.418 277.489C462.418 275.116 460.494 273.192 458.121 273.192C455.748 273.192 453.824 275.116 453.824 277.489C453.824 279.862 455.748 281.786 458.121 281.786ZM458.836 276.541L458.094 275.348L457.352 276.541L455.987 276.878L456.893 277.953L456.792 279.354L458.094 278.825L459.396 279.354L459.294 277.953L460.2 276.878L458.836 276.541Z"/>
</mask>
<path fill-rule="evenodd" clip-rule="evenodd" d="M458.121 281.786C460.494 281.786 462.418 279.862 462.418 277.489C462.418 275.116 460.494 273.192 458.121 273.192C455.748 273.192 453.824 275.116 453.824 277.489C453.824 279.862 455.748 281.786 458.121 281.786ZM458.836 276.541L458.094 275.348L457.352 276.541L455.987 276.878L456.893 277.953L456.792 279.354L458.094 278.825L459.396 279.354L459.294 277.953L460.2 276.878L458.836 276.541Z" fill="#16A34A"/>
<path d="M458.094 275.348L459.792 274.292L458.094 271.56L456.395 274.292L458.094 275.348ZM458.836 276.541L457.137 277.597L457.567 278.288L458.356 278.483L458.836 276.541ZM457.352 276.541L457.831 278.483L458.621 278.288L459.05 277.597L457.352 276.541ZM455.987 276.878L455.508 274.936L452.385 275.708L454.458 278.167L455.987 276.878ZM456.893 277.953L458.888 278.097L458.946 277.285L458.422 276.664L456.893 277.953ZM456.792 279.354L454.797 279.21L454.565 282.419L457.545 281.207L456.792 279.354ZM458.094 278.825L458.847 276.972L458.094 276.666L457.34 276.972L458.094 278.825ZM459.396 279.354L458.642 281.207L461.622 282.419L461.39 279.21L459.396 279.354ZM459.294 277.953L457.765 276.664L457.241 277.285L457.3 278.097L459.294 277.953ZM460.2 276.878L461.729 278.167L463.803 275.708L460.68 274.936L460.2 276.878ZM460.418 277.489C460.418 278.758 459.39 279.786 458.121 279.786V283.786C461.599 283.786 464.418 280.967 464.418 277.489H460.418ZM458.121 275.192C459.39 275.192 460.418 276.22 460.418 277.489H464.418C464.418 274.011 461.599 271.192 458.121 271.192V275.192ZM455.824 277.489C455.824 276.22 456.853 275.192 458.121 275.192V271.192C454.643 271.192 451.824 274.011 451.824 277.489H455.824ZM458.121 279.786C456.853 279.786 455.824 278.758 455.824 277.489H451.824C451.824 280.967 454.643 283.786 458.121 283.786V279.786ZM456.395 276.404L457.137 277.597L460.534 275.485L459.792 274.292L456.395 276.404ZM459.05 277.597L459.792 276.404L456.395 274.292L455.653 275.485L459.05 277.597ZM456.467 278.82L457.831 278.483L456.872 274.599L455.508 274.936L456.467 278.82ZM458.422 276.664L457.517 275.589L454.458 278.167L455.364 279.242L458.422 276.664ZM458.787 279.498L458.888 278.097L454.898 277.809L454.797 279.21L458.787 279.498ZM457.34 276.972L456.039 277.502L457.545 281.207L458.847 280.678L457.34 276.972ZM460.149 277.502L458.847 276.972L457.34 280.678L458.642 281.207L460.149 277.502ZM457.3 278.097L457.401 279.498L461.39 279.21L461.289 277.809L457.3 278.097ZM458.671 275.589L457.765 276.664L460.824 279.242L461.729 278.167L458.671 275.589ZM458.356 278.483L459.721 278.82L460.68 274.936L459.315 274.599L458.356 278.483Z" fill="white" mask="url(#path-10-outside-1_9156_12487)"/>
</g>
<path d="M454.103 304.102H456.233L459.938 313.148H460.074L463.779 304.102H465.909V315.739H464.239V307.318H464.131L460.699 315.721H459.313L455.881 307.312H455.773V315.739H454.103V304.102ZM470.865 315.932C470.312 315.932 469.812 315.829 469.365 315.625C468.918 315.417 468.564 315.115 468.303 314.721C468.045 314.328 467.917 313.845 467.917 313.273C467.917 312.78 468.011 312.375 468.201 312.057C468.39 311.739 468.646 311.487 468.968 311.301C469.29 311.115 469.65 310.975 470.047 310.881C470.445 310.786 470.85 310.714 471.263 310.665C471.786 310.604 472.21 310.555 472.536 310.517C472.862 310.475 473.098 310.409 473.246 310.318C473.394 310.227 473.468 310.079 473.468 309.875V309.835C473.468 309.339 473.328 308.954 473.047 308.682C472.771 308.409 472.358 308.273 471.809 308.273C471.237 308.273 470.786 308.4 470.456 308.653C470.131 308.903 469.905 309.182 469.78 309.489L468.184 309.125C468.373 308.595 468.65 308.167 469.013 307.841C469.381 307.511 469.803 307.273 470.28 307.125C470.757 306.973 471.259 306.898 471.786 306.898C472.134 306.898 472.504 306.939 472.894 307.023C473.288 307.102 473.655 307.25 473.996 307.466C474.341 307.682 474.623 307.99 474.843 308.392C475.062 308.79 475.172 309.307 475.172 309.943V315.739H473.513V314.545H473.445C473.335 314.765 473.17 314.981 472.951 315.193C472.731 315.405 472.449 315.581 472.104 315.721C471.759 315.862 471.346 315.932 470.865 315.932ZM471.235 314.568C471.704 314.568 472.106 314.475 472.439 314.29C472.776 314.104 473.032 313.862 473.206 313.562C473.384 313.259 473.473 312.935 473.473 312.591V311.466C473.413 311.526 473.295 311.583 473.121 311.636C472.951 311.685 472.756 311.729 472.536 311.767C472.316 311.801 472.102 311.833 471.894 311.864C471.685 311.89 471.511 311.913 471.371 311.932C471.042 311.973 470.74 312.043 470.468 312.142C470.199 312.24 469.983 312.382 469.82 312.568C469.661 312.75 469.581 312.992 469.581 313.295C469.581 313.716 469.737 314.034 470.047 314.25C470.358 314.462 470.754 314.568 471.235 314.568ZM483.975 309.142L482.435 309.415C482.371 309.218 482.268 309.03 482.128 308.852C481.992 308.674 481.806 308.528 481.571 308.415C481.337 308.301 481.043 308.244 480.691 308.244C480.21 308.244 479.808 308.352 479.486 308.568C479.164 308.78 479.003 309.055 479.003 309.392C479.003 309.684 479.111 309.918 479.327 310.096C479.543 310.275 479.891 310.42 480.373 310.534L481.759 310.852C482.562 311.038 483.16 311.324 483.554 311.71C483.948 312.096 484.145 312.598 484.145 313.216C484.145 313.739 483.994 314.204 483.691 314.614C483.391 315.019 482.973 315.337 482.435 315.568C481.901 315.799 481.282 315.915 480.577 315.915C479.6 315.915 478.802 315.706 478.185 315.29C477.568 314.869 477.189 314.273 477.049 313.5L478.691 313.25C478.793 313.678 479.003 314.002 479.321 314.221C479.64 314.437 480.054 314.545 480.566 314.545C481.123 314.545 481.568 314.43 481.901 314.199C482.234 313.964 482.401 313.678 482.401 313.341C482.401 313.068 482.299 312.839 482.094 312.653C481.893 312.468 481.585 312.328 481.168 312.233L479.691 311.909C478.876 311.723 478.274 311.428 477.884 311.023C477.498 310.617 477.304 310.104 477.304 309.483C477.304 308.968 477.448 308.517 477.736 308.131C478.024 307.744 478.422 307.443 478.929 307.227C479.437 307.007 480.018 306.898 480.674 306.898C481.617 306.898 482.359 307.102 482.901 307.511C483.443 307.917 483.801 308.46 483.975 309.142ZM490.087 307.011V308.375H485.32V307.011H490.087ZM486.598 304.92H488.297V313.176C488.297 313.506 488.346 313.754 488.445 313.92C488.543 314.083 488.67 314.195 488.826 314.256C488.985 314.312 489.157 314.341 489.343 314.341C489.479 314.341 489.598 314.331 489.701 314.312C489.803 314.293 489.882 314.278 489.939 314.267L490.246 315.67C490.148 315.708 490.007 315.746 489.826 315.784C489.644 315.826 489.417 315.848 489.144 315.852C488.697 315.86 488.28 315.78 487.894 315.614C487.507 315.447 487.195 315.189 486.956 314.841C486.718 314.492 486.598 314.055 486.598 313.528V304.92ZM495.634 315.915C494.774 315.915 494.033 315.731 493.412 315.364C492.795 314.992 492.318 314.471 491.98 313.801C491.647 313.127 491.48 312.337 491.48 311.432C491.48 310.538 491.647 309.75 491.98 309.068C492.318 308.386 492.787 307.854 493.39 307.471C493.996 307.089 494.704 306.898 495.515 306.898C496.007 306.898 496.484 306.979 496.946 307.142C497.408 307.305 497.823 307.56 498.191 307.909C498.558 308.257 498.848 308.71 499.06 309.267C499.272 309.82 499.378 310.492 499.378 311.284V311.886H492.441V310.614H497.713C497.713 310.167 497.623 309.771 497.441 309.426C497.259 309.078 497.003 308.803 496.674 308.602C496.348 308.401 495.965 308.301 495.526 308.301C495.049 308.301 494.632 308.418 494.276 308.653C493.924 308.884 493.651 309.187 493.458 309.562C493.268 309.934 493.174 310.337 493.174 310.773V311.767C493.174 312.35 493.276 312.846 493.48 313.256C493.689 313.665 493.979 313.977 494.35 314.193C494.721 314.405 495.155 314.511 495.651 314.511C495.973 314.511 496.266 314.466 496.532 314.375C496.797 314.28 497.026 314.14 497.219 313.954C497.412 313.769 497.56 313.54 497.662 313.267L499.27 313.557C499.141 314.03 498.91 314.445 498.577 314.801C498.248 315.153 497.833 315.428 497.333 315.625C496.837 315.818 496.27 315.915 495.634 315.915ZM501.263 315.739V307.011H502.905V308.398H502.996C503.155 307.928 503.435 307.559 503.837 307.29C504.242 307.017 504.701 306.881 505.212 306.881C505.318 306.881 505.443 306.884 505.587 306.892C505.735 306.9 505.85 306.909 505.934 306.92V308.545C505.865 308.526 505.744 308.506 505.57 308.483C505.396 308.456 505.221 308.443 505.047 308.443C504.646 308.443 504.288 308.528 503.973 308.699C503.663 308.865 503.417 309.098 503.235 309.398C503.053 309.693 502.962 310.03 502.962 310.409V315.739H501.263ZM512.757 315.739H510.894L515.081 304.102H517.11L521.297 315.739H519.434L516.144 306.216H516.053L512.757 315.739ZM513.07 311.182H519.115V312.659H513.07V311.182ZM526.377 315.915C525.532 315.915 524.805 315.723 524.195 315.341C523.589 314.954 523.123 314.422 522.797 313.744C522.471 313.066 522.309 312.29 522.309 311.415C522.309 310.528 522.475 309.746 522.809 309.068C523.142 308.386 523.612 307.854 524.218 307.471C524.824 307.089 525.538 306.898 526.36 306.898C527.023 306.898 527.614 307.021 528.132 307.267C528.651 307.509 529.07 307.85 529.388 308.29C529.71 308.729 529.901 309.242 529.962 309.829H528.309C528.218 309.42 528.009 309.068 527.684 308.773C527.362 308.477 526.93 308.329 526.388 308.329C525.915 308.329 525.5 308.454 525.144 308.704C524.792 308.951 524.517 309.303 524.32 309.761C524.123 310.216 524.025 310.754 524.025 311.375C524.025 312.011 524.121 312.56 524.314 313.023C524.507 313.485 524.78 313.843 525.132 314.096C525.489 314.35 525.907 314.477 526.388 314.477C526.71 314.477 527.002 314.418 527.263 314.301C527.528 314.18 527.75 314.007 527.928 313.784C528.11 313.56 528.237 313.292 528.309 312.977H529.962C529.901 313.542 529.718 314.045 529.411 314.489C529.104 314.932 528.693 315.28 528.178 315.534C527.667 315.788 527.066 315.915 526.377 315.915ZM535.455 315.915C534.61 315.915 533.883 315.723 533.273 315.341C532.667 314.954 532.201 314.422 531.875 313.744C531.55 313.066 531.387 312.29 531.387 311.415C531.387 310.528 531.553 309.746 531.887 309.068C532.22 308.386 532.69 307.854 533.296 307.471C533.902 307.089 534.616 306.898 535.438 306.898C536.101 306.898 536.692 307.021 537.211 307.267C537.73 307.509 538.148 307.85 538.466 308.29C538.788 308.729 538.98 309.242 539.04 309.829H537.387C537.296 309.42 537.087 309.068 536.762 308.773C536.44 308.477 536.008 308.329 535.466 308.329C534.993 308.329 534.578 308.454 534.222 308.704C533.87 308.951 533.595 309.303 533.398 309.761C533.201 310.216 533.103 310.754 533.103 311.375C533.103 312.011 533.199 312.56 533.392 313.023C533.586 313.485 533.858 313.843 534.211 314.096C534.567 314.35 534.985 314.477 535.466 314.477C535.788 314.477 536.08 314.418 536.341 314.301C536.606 314.18 536.828 314.007 537.006 313.784C537.188 313.56 537.315 313.292 537.387 312.977H539.04C538.98 313.542 538.796 314.045 538.489 314.489C538.182 314.932 537.771 315.28 537.256 315.534C536.745 315.788 536.144 315.915 535.455 315.915ZM544.533 315.915C543.715 315.915 543.001 315.727 542.391 315.352C541.781 314.977 541.308 314.453 540.971 313.778C540.633 313.104 540.465 312.316 540.465 311.415C540.465 310.509 540.633 309.718 540.971 309.04C541.308 308.362 541.781 307.835 542.391 307.46C543.001 307.085 543.715 306.898 544.533 306.898C545.351 306.898 546.065 307.085 546.675 307.46C547.285 307.835 547.758 308.362 548.096 309.04C548.433 309.718 548.601 310.509 548.601 311.415C548.601 312.316 548.433 313.104 548.096 313.778C547.758 314.453 547.285 314.977 546.675 315.352C546.065 315.727 545.351 315.915 544.533 315.915ZM544.539 314.489C545.069 314.489 545.508 314.348 545.857 314.068C546.205 313.788 546.463 313.415 546.63 312.949C546.8 312.483 546.885 311.97 546.885 311.409C546.885 310.852 546.8 310.341 546.63 309.875C546.463 309.405 546.205 309.028 545.857 308.744C545.508 308.46 545.069 308.318 544.539 308.318C544.005 308.318 543.561 308.46 543.209 308.744C542.861 309.028 542.601 309.405 542.431 309.875C542.264 310.341 542.181 310.852 542.181 311.409C542.181 311.97 542.264 312.483 542.431 312.949C542.601 313.415 542.861 313.788 543.209 314.068C543.561 314.348 544.005 314.489 544.539 314.489ZM556.026 312.119V307.011H557.73V315.739H556.06V314.227H555.969C555.768 314.693 555.446 315.081 555.003 315.392C554.564 315.699 554.016 315.852 553.361 315.852C552.801 315.852 552.304 315.729 551.873 315.483C551.444 315.233 551.107 314.864 550.861 314.375C550.619 313.886 550.498 313.282 550.498 312.562V307.011H552.196V312.358C552.196 312.953 552.361 313.426 552.691 313.778C553.02 314.131 553.448 314.307 553.975 314.307C554.293 314.307 554.609 314.227 554.924 314.068C555.242 313.909 555.505 313.668 555.713 313.346C555.926 313.025 556.03 312.615 556.026 312.119ZM561.712 310.557V315.739H560.013V307.011H561.644V308.432H561.752C561.953 307.97 562.267 307.598 562.695 307.318C563.127 307.038 563.67 306.898 564.326 306.898C564.92 306.898 565.441 307.023 565.888 307.273C566.335 307.519 566.682 307.886 566.928 308.375C567.174 308.864 567.297 309.468 567.297 310.187V315.739H565.598V310.392C565.598 309.759 565.434 309.265 565.104 308.909C564.775 308.549 564.322 308.369 563.746 308.369C563.352 308.369 563.002 308.454 562.695 308.625C562.392 308.795 562.151 309.045 561.973 309.375C561.799 309.701 561.712 310.095 561.712 310.557ZM573.65 307.011V308.375H568.882V307.011H573.65ZM570.161 304.92H571.86V313.176C571.86 313.506 571.909 313.754 572.007 313.92C572.106 314.083 572.233 314.195 572.388 314.256C572.547 314.312 572.72 314.341 572.905 314.341C573.042 314.341 573.161 314.331 573.263 314.312C573.365 314.293 573.445 314.278 573.502 314.267L573.809 315.67C573.71 315.708 573.57 315.746 573.388 315.784C573.206 315.826 572.979 315.848 572.706 315.852C572.259 315.86 571.843 315.78 571.456 315.614C571.07 315.447 570.757 315.189 570.519 314.841C570.28 314.492 570.161 314.055 570.161 313.528V304.92Z" fill="black"/>
<rect x="462.824" y="372.221" width="115" height="115" rx="57.5" fill="#DCFCE7"/>
<rect x="462.824" y="372.221" width="115" height="115" rx="57.5" stroke="#16A34A"/>
<mask id="mask2_9156_12487" style="mask-type:alpha" maskUnits="userSpaceOnUse" x="507" y="404" width="27" height="28">
<rect x="507.051" y="404.948" width="26.5464" height="26.5464" fill="#D9D9D9"/>
</mask>
<g mask="url(#mask2_9156_12487)">
<path d="M517.614 424.858L511.309 418.553L512.885 416.977L517.614 421.706L527.762 411.557L529.339 413.133L517.614 424.858Z" fill="#16A34A"/>
</g>
<path d="M479.103 450.495V438.858H483.25C484.152 438.858 484.9 439.014 485.495 439.324C486.093 439.635 486.54 440.065 486.836 440.614C487.131 441.159 487.279 441.79 487.279 442.506C487.279 443.218 487.129 443.845 486.83 444.387C486.534 444.925 486.087 445.343 485.489 445.642C484.894 445.942 484.146 446.091 483.245 446.091H480.103V444.58H483.086C483.654 444.58 484.116 444.498 484.472 444.336C484.832 444.173 485.095 443.936 485.262 443.625C485.428 443.315 485.512 442.942 485.512 442.506C485.512 442.067 485.426 441.686 485.256 441.364C485.089 441.042 484.826 440.796 484.466 440.625C484.11 440.451 483.642 440.364 483.063 440.364H480.858V450.495H479.103ZM484.847 445.245L487.722 450.495H485.722L482.904 445.245H484.847ZM492.931 450.671C492.071 450.671 491.33 450.487 490.709 450.12C490.092 449.748 489.614 449.228 489.277 448.557C488.944 447.883 488.777 447.093 488.777 446.188C488.777 445.294 488.944 444.506 489.277 443.824C489.614 443.142 490.084 442.61 490.686 442.228C491.292 441.845 492.001 441.654 492.811 441.654C493.304 441.654 493.781 441.735 494.243 441.898C494.705 442.061 495.12 442.317 495.488 442.665C495.855 443.014 496.145 443.466 496.357 444.023C496.569 444.576 496.675 445.248 496.675 446.04V446.642H489.738V445.37H495.01C495.01 444.923 494.919 444.527 494.738 444.182C494.556 443.834 494.3 443.559 493.971 443.358C493.645 443.158 493.262 443.057 492.823 443.057C492.346 443.057 491.929 443.175 491.573 443.409C491.221 443.64 490.948 443.943 490.755 444.318C490.565 444.69 490.471 445.093 490.471 445.529V446.523C490.471 447.106 490.573 447.603 490.777 448.012C490.986 448.421 491.275 448.733 491.647 448.949C492.018 449.161 492.452 449.267 492.948 449.267C493.27 449.267 493.563 449.222 493.828 449.131C494.094 449.036 494.323 448.896 494.516 448.711C494.709 448.525 494.857 448.296 494.959 448.023L496.567 448.313C496.438 448.786 496.207 449.201 495.874 449.557C495.544 449.909 495.13 450.184 494.63 450.381C494.133 450.574 493.567 450.671 492.931 450.671ZM502.236 450.671C501.391 450.671 500.664 450.479 500.054 450.097C499.448 449.711 498.982 449.178 498.657 448.5C498.331 447.822 498.168 447.046 498.168 446.171C498.168 445.284 498.335 444.502 498.668 443.824C499.001 443.142 499.471 442.61 500.077 442.228C500.683 441.845 501.397 441.654 502.219 441.654C502.882 441.654 503.473 441.777 503.992 442.023C504.511 442.265 504.929 442.606 505.248 443.046C505.569 443.485 505.761 443.998 505.821 444.586H504.168C504.077 444.176 503.869 443.824 503.543 443.529C503.221 443.233 502.789 443.086 502.248 443.086C501.774 443.086 501.359 443.211 501.003 443.461C500.651 443.707 500.376 444.059 500.179 444.517C499.982 444.972 499.884 445.51 499.884 446.131C499.884 446.767 499.98 447.317 500.174 447.779C500.367 448.241 500.64 448.599 500.992 448.853C501.348 449.106 501.766 449.233 502.248 449.233C502.569 449.233 502.861 449.175 503.123 449.057C503.388 448.936 503.609 448.764 503.787 448.54C503.969 448.317 504.096 448.048 504.168 447.733H505.821C505.761 448.298 505.577 448.801 505.27 449.245C504.963 449.688 504.552 450.036 504.037 450.29C503.526 450.544 502.926 450.671 502.236 450.671ZM511.314 450.671C510.496 450.671 509.782 450.483 509.172 450.108C508.562 449.733 508.089 449.209 507.752 448.534C507.415 447.86 507.246 447.072 507.246 446.171C507.246 445.265 507.415 444.474 507.752 443.796C508.089 443.118 508.562 442.591 509.172 442.216C509.782 441.841 510.496 441.654 511.314 441.654C512.132 441.654 512.846 441.841 513.456 442.216C514.066 442.591 514.54 443.118 514.877 443.796C515.214 444.474 515.382 445.265 515.382 446.171C515.382 447.072 515.214 447.86 514.877 448.534C514.54 449.209 514.066 449.733 513.456 450.108C512.846 450.483 512.132 450.671 511.314 450.671ZM511.32 449.245C511.85 449.245 512.29 449.104 512.638 448.824C512.987 448.544 513.244 448.171 513.411 447.705C513.581 447.239 513.667 446.726 513.667 446.165C513.667 445.608 513.581 445.097 513.411 444.631C513.244 444.161 512.987 443.784 512.638 443.5C512.29 443.216 511.85 443.074 511.32 443.074C510.786 443.074 510.343 443.216 509.99 443.5C509.642 443.784 509.382 444.161 509.212 444.631C509.045 445.097 508.962 445.608 508.962 446.165C508.962 446.726 509.045 447.239 509.212 447.705C509.382 448.171 509.642 448.544 509.99 448.824C510.343 449.104 510.786 449.245 511.32 449.245ZM518.978 445.313V450.495H517.279V441.767H518.909V443.188H519.017C519.218 442.726 519.533 442.354 519.961 442.074C520.392 441.794 520.936 441.654 521.591 441.654C522.186 441.654 522.707 441.779 523.154 442.029C523.601 442.275 523.947 442.642 524.194 443.131C524.44 443.62 524.563 444.224 524.563 444.943V450.495H522.864V445.148C522.864 444.515 522.699 444.021 522.37 443.665C522.04 443.305 521.587 443.125 521.012 443.125C520.618 443.125 520.267 443.211 519.961 443.381C519.658 443.551 519.417 443.801 519.239 444.131C519.065 444.457 518.978 444.851 518.978 445.313ZM530.517 450.671C529.673 450.671 528.945 450.479 528.336 450.097C527.73 449.711 527.264 449.178 526.938 448.5C526.612 447.822 526.449 447.046 526.449 446.171C526.449 445.284 526.616 444.502 526.949 443.824C527.283 443.142 527.752 442.61 528.358 442.228C528.964 441.845 529.678 441.654 530.5 441.654C531.163 441.654 531.754 441.777 532.273 442.023C532.792 442.265 533.211 442.606 533.529 443.046C533.851 443.485 534.042 443.998 534.103 444.586H532.449C532.358 444.176 532.15 443.824 531.824 443.529C531.502 443.233 531.07 443.086 530.529 443.086C530.055 443.086 529.641 443.211 529.284 443.461C528.932 443.707 528.658 444.059 528.461 444.517C528.264 444.972 528.165 445.51 528.165 446.131C528.165 446.767 528.262 447.317 528.455 447.779C528.648 448.241 528.921 448.599 529.273 448.853C529.629 449.106 530.048 449.233 530.529 449.233C530.851 449.233 531.142 449.175 531.404 449.057C531.669 448.936 531.891 448.764 532.069 448.54C532.25 448.317 532.377 448.048 532.449 447.733H534.103C534.042 448.298 533.858 448.801 533.551 449.245C533.245 449.688 532.834 450.036 532.319 450.29C531.807 450.544 531.207 450.671 530.517 450.671ZM535.919 450.495V441.767H537.618V450.495H535.919ZM536.777 440.421C536.482 440.421 536.228 440.322 536.016 440.125C535.808 439.925 535.703 439.686 535.703 439.409C535.703 439.129 535.808 438.89 536.016 438.693C536.228 438.493 536.482 438.392 536.777 438.392C537.073 438.392 537.325 438.493 537.533 438.693C537.745 438.89 537.851 439.129 537.851 439.409C537.851 439.686 537.745 439.925 537.533 440.125C537.325 440.322 537.073 440.421 536.777 440.421ZM541.603 438.858V450.495H539.904V438.858H541.603ZM547.65 450.671C546.79 450.671 546.049 450.487 545.428 450.12C544.81 449.748 544.333 449.228 543.996 448.557C543.663 447.883 543.496 447.093 543.496 446.188C543.496 445.294 543.663 444.506 543.996 443.824C544.333 443.142 544.803 442.61 545.405 442.228C546.011 441.845 546.72 441.654 547.53 441.654C548.023 441.654 548.5 441.735 548.962 441.898C549.424 442.061 549.839 442.317 550.206 442.665C550.574 443.014 550.864 443.466 551.076 444.023C551.288 444.576 551.394 445.248 551.394 446.04V446.642H544.456V445.37H549.729C549.729 444.923 549.638 444.527 549.456 444.182C549.275 443.834 549.019 443.559 548.689 443.358C548.364 443.158 547.981 443.057 547.542 443.057C547.064 443.057 546.648 443.175 546.292 443.409C545.939 443.64 545.667 443.943 545.473 444.318C545.284 444.69 545.189 445.093 545.189 445.529V446.523C545.189 447.106 545.292 447.603 545.496 448.012C545.704 448.421 545.994 448.733 546.365 448.949C546.737 449.161 547.17 449.267 547.667 449.267C547.989 449.267 548.282 449.222 548.547 449.131C548.812 449.036 549.042 448.896 549.235 448.711C549.428 448.525 549.576 448.296 549.678 448.023L551.286 448.313C551.157 448.786 550.926 449.201 550.593 449.557C550.263 449.909 549.848 450.184 549.348 450.381C548.852 450.574 548.286 450.671 547.65 450.671ZM556.546 450.665C555.841 450.665 555.212 450.485 554.659 450.125C554.11 449.762 553.678 449.245 553.364 448.574C553.053 447.9 552.898 447.091 552.898 446.148C552.898 445.205 553.055 444.398 553.37 443.728C553.688 443.057 554.123 442.544 554.676 442.188C555.23 441.832 555.856 441.654 556.557 441.654C557.099 441.654 557.534 441.745 557.864 441.926C558.197 442.104 558.455 442.313 558.637 442.551C558.822 442.79 558.966 443 559.069 443.182H559.171V438.858H560.87V450.495H559.211V449.137H559.069C558.966 449.322 558.819 449.534 558.625 449.773C558.436 450.012 558.175 450.22 557.841 450.398C557.508 450.576 557.076 450.665 556.546 450.665ZM556.921 449.216C557.409 449.216 557.822 449.087 558.159 448.83C558.5 448.568 558.758 448.207 558.932 447.745C559.11 447.283 559.199 446.745 559.199 446.131C559.199 445.525 559.112 444.995 558.938 444.54C558.764 444.086 558.508 443.731 558.171 443.478C557.834 443.224 557.417 443.097 556.921 443.097C556.409 443.097 555.983 443.229 555.642 443.495C555.301 443.76 555.044 444.122 554.87 444.58C554.699 445.038 554.614 445.555 554.614 446.131C554.614 446.714 554.701 447.239 554.875 447.705C555.05 448.171 555.307 448.54 555.648 448.813C555.993 449.082 556.417 449.216 556.921 449.216Z" fill="#16A34A"/>
<rect x="433.324" y="516.204" width="174" height="108.546" rx="3.5" fill="white"/>
<rect x="433.324" y="516.204" width="174" height="108.546" rx="3.5" stroke="#D6D3D1"/>
<mask id="mask3_9156_12487" style="mask-type:alpha" maskUnits="userSpaceOnUse" x="452" y="539" width="28" height="28">
<rect x="452.824" y="539.704" width="26.5464" height="26.5464" fill="#D9D9D9"/>
</mask>
<g mask="url(#mask3_9156_12487)">
<path d="M476.052 548H473.84V545.235H458.355V560.72H473.84V557.955H476.052V562.933H456.143V543.023H476.052V548ZM464.991 558.508V547.447H477.159V558.508H464.991ZM470.522 554.637C470.983 554.637 471.375 554.475 471.697 554.153C472.02 553.83 472.181 553.438 472.181 552.978C472.181 552.517 472.02 552.125 471.697 551.802C471.375 551.48 470.983 551.318 470.522 551.318C470.061 551.318 469.669 551.48 469.347 551.802C469.024 552.125 468.863 552.517 468.863 552.978C468.863 553.438 469.024 553.83 469.347 554.153C469.669 554.475 470.061 554.637 470.522 554.637ZM474.946 556.296V549.659H467.204V556.296H474.946Z" fill="#16A34A"/>
</g>
<path d="M460.449 588.671C460.389 588.133 460.139 587.717 459.699 587.421C459.26 587.122 458.707 586.972 458.04 586.972C457.563 586.972 457.15 587.048 456.801 587.2C456.453 587.347 456.182 587.552 455.989 587.813C455.8 588.071 455.705 588.364 455.705 588.694C455.705 588.97 455.769 589.209 455.898 589.41C456.031 589.611 456.203 589.779 456.415 589.916C456.631 590.048 456.862 590.16 457.108 590.251C457.355 590.338 457.591 590.41 457.819 590.467L458.955 590.762C459.326 590.853 459.707 590.976 460.097 591.131C460.487 591.287 460.849 591.491 461.182 591.745C461.516 591.999 461.784 592.313 461.989 592.688C462.197 593.063 462.301 593.512 462.301 594.035C462.301 594.694 462.131 595.279 461.79 595.791C461.453 596.302 460.962 596.705 460.319 597.001C459.678 597.296 458.904 597.444 457.995 597.444C457.123 597.444 456.37 597.306 455.733 597.029C455.097 596.753 454.599 596.361 454.239 595.853C453.879 595.342 453.68 594.736 453.642 594.035H455.404C455.438 594.455 455.574 594.806 455.813 595.086C456.055 595.362 456.364 595.569 456.739 595.705C457.118 595.838 457.533 595.904 457.983 595.904C458.48 595.904 458.921 595.826 459.307 595.671C459.697 595.512 460.004 595.292 460.228 595.012C460.451 594.728 460.563 594.397 460.563 594.018C460.563 593.673 460.464 593.391 460.267 593.171C460.074 592.951 459.811 592.77 459.478 592.626C459.148 592.482 458.775 592.355 458.358 592.245L456.983 591.87C456.051 591.616 455.313 591.243 454.767 590.751C454.226 590.258 453.955 589.607 453.955 588.796C453.955 588.126 454.137 587.541 454.5 587.041C454.864 586.541 455.356 586.152 455.978 585.876C456.599 585.595 457.3 585.455 458.08 585.455C458.868 585.455 459.563 585.594 460.165 585.87C460.771 586.147 461.248 586.527 461.597 587.012C461.945 587.493 462.127 588.046 462.142 588.671H460.449ZM469.792 593.631V588.523H471.496V597.251H469.826V595.739H469.735C469.534 596.205 469.212 596.594 468.769 596.904C468.329 597.211 467.782 597.364 467.127 597.364C466.566 597.364 466.07 597.241 465.638 596.995C465.21 596.745 464.873 596.376 464.627 595.887C464.384 595.398 464.263 594.794 464.263 594.075V588.523H465.962V593.87C465.962 594.465 466.127 594.938 466.456 595.291C466.786 595.643 467.214 595.819 467.74 595.819C468.059 595.819 468.375 595.739 468.689 595.58C469.007 595.421 469.271 595.181 469.479 594.859C469.691 594.537 469.795 594.128 469.792 593.631ZM473.915 597.251V585.614H475.614V589.938H475.716C475.815 589.756 475.957 589.546 476.142 589.308C476.328 589.069 476.586 588.861 476.915 588.683C477.245 588.501 477.68 588.41 478.222 588.41C478.926 588.41 479.555 588.588 480.108 588.944C480.661 589.3 481.095 589.813 481.409 590.484C481.728 591.154 481.887 591.961 481.887 592.904C481.887 593.847 481.73 594.656 481.415 595.33C481.101 596.001 480.669 596.518 480.12 596.881C479.57 597.241 478.944 597.421 478.239 597.421C477.709 597.421 477.275 597.332 476.938 597.154C476.605 596.976 476.343 596.768 476.154 596.529C475.964 596.291 475.819 596.078 475.716 595.893H475.574V597.251H473.915ZM475.58 592.887C475.58 593.501 475.669 594.039 475.847 594.501C476.025 594.963 476.283 595.325 476.62 595.586C476.957 595.844 477.37 595.972 477.858 595.972C478.366 595.972 478.79 595.838 479.131 595.569C479.472 595.296 479.73 594.927 479.904 594.461C480.082 593.995 480.171 593.47 480.171 592.887C480.171 592.311 480.084 591.794 479.909 591.336C479.739 590.878 479.481 590.516 479.137 590.251C478.796 589.986 478.37 589.853 477.858 589.853C477.366 589.853 476.949 589.98 476.608 590.234C476.271 590.487 476.016 590.842 475.841 591.296C475.667 591.751 475.58 592.281 475.58 592.887ZM489.148 597.251H487.284L491.472 585.614H493.5L497.688 597.251H495.824L492.534 587.728H492.444L489.148 597.251ZM489.461 592.694H495.506V594.171H489.461V592.694ZM502.767 597.427C501.923 597.427 501.195 597.236 500.586 596.853C499.98 596.467 499.514 595.934 499.188 595.256C498.862 594.578 498.699 593.802 498.699 592.927C498.699 592.041 498.866 591.258 499.199 590.58C499.533 589.898 500.002 589.366 500.608 588.984C501.214 588.601 501.928 588.41 502.75 588.41C503.413 588.41 504.004 588.533 504.523 588.779C505.042 589.022 505.461 589.362 505.779 589.802C506.101 590.241 506.292 590.755 506.353 591.342H504.699C504.608 590.933 504.4 590.58 504.074 590.285C503.752 589.989 503.32 589.842 502.779 589.842C502.305 589.842 501.891 589.967 501.534 590.217C501.182 590.463 500.908 590.815 500.711 591.273C500.514 591.728 500.415 592.266 500.415 592.887C500.415 593.523 500.512 594.073 500.705 594.535C500.898 594.997 501.171 595.355 501.523 595.609C501.879 595.862 502.298 595.989 502.779 595.989C503.101 595.989 503.392 595.931 503.654 595.813C503.919 595.692 504.141 595.52 504.319 595.296C504.5 595.073 504.627 594.804 504.699 594.489H506.353C506.292 595.054 506.108 595.558 505.801 596.001C505.495 596.444 505.084 596.792 504.569 597.046C504.057 597.3 503.457 597.427 502.767 597.427ZM511.846 597.427C511.001 597.427 510.274 597.236 509.664 596.853C509.058 596.467 508.592 595.934 508.266 595.256C507.94 594.578 507.777 593.802 507.777 592.927C507.777 592.041 507.944 591.258 508.277 590.58C508.611 589.898 509.08 589.366 509.686 588.984C510.292 588.601 511.007 588.41 511.828 588.41C512.491 588.41 513.082 588.533 513.601 588.779C514.12 589.022 514.539 589.362 514.857 589.802C515.179 590.241 515.37 590.755 515.431 591.342H513.777C513.686 590.933 513.478 590.58 513.152 590.285C512.83 589.989 512.399 589.842 511.857 589.842C511.383 589.842 510.969 589.967 510.613 590.217C510.26 590.463 509.986 590.815 509.789 591.273C509.592 591.728 509.493 592.266 509.493 592.887C509.493 593.523 509.59 594.073 509.783 594.535C509.976 594.997 510.249 595.355 510.601 595.609C510.957 595.862 511.376 595.989 511.857 595.989C512.179 595.989 512.471 595.931 512.732 595.813C512.997 595.692 513.219 595.52 513.397 595.296C513.578 595.073 513.705 594.804 513.777 594.489H515.431C515.37 595.054 515.186 595.558 514.88 596.001C514.573 596.444 514.162 596.792 513.647 597.046C513.135 597.3 512.535 597.427 511.846 597.427ZM520.924 597.427C520.105 597.427 519.391 597.239 518.782 596.864C518.172 596.489 517.698 595.965 517.361 595.291C517.024 594.616 516.855 593.828 516.855 592.927C516.855 592.022 517.024 591.23 517.361 590.552C517.698 589.874 518.172 589.347 518.782 588.972C519.391 588.597 520.105 588.41 520.924 588.41C521.742 588.41 522.456 588.597 523.066 588.972C523.676 589.347 524.149 589.874 524.486 590.552C524.823 591.23 524.992 592.022 524.992 592.927C524.992 593.828 524.823 594.616 524.486 595.291C524.149 595.965 523.676 596.489 523.066 596.864C522.456 597.239 521.742 597.427 520.924 597.427ZM520.929 596.001C521.46 596.001 521.899 595.861 522.248 595.58C522.596 595.3 522.854 594.927 523.02 594.461C523.191 593.995 523.276 593.482 523.276 592.921C523.276 592.364 523.191 591.853 523.02 591.387C522.854 590.917 522.596 590.541 522.248 590.256C521.899 589.972 521.46 589.83 520.929 589.83C520.395 589.83 519.952 589.972 519.6 590.256C519.251 590.541 518.992 590.917 518.821 591.387C518.655 591.853 518.571 592.364 518.571 592.921C518.571 593.482 518.655 593.995 518.821 594.461C518.992 594.927 519.251 595.3 519.6 595.58C519.952 595.861 520.395 596.001 520.929 596.001ZM532.417 593.631V588.523H534.121V597.251H532.451V595.739H532.36C532.159 596.205 531.837 596.594 531.394 596.904C530.954 597.211 530.407 597.364 529.752 597.364C529.191 597.364 528.695 597.241 528.263 596.995C527.835 596.745 527.498 596.376 527.252 595.887C527.009 595.398 526.888 594.794 526.888 594.075V588.523H528.587V593.87C528.587 594.465 528.752 594.938 529.081 595.291C529.411 595.643 529.839 595.819 530.365 595.819C530.684 595.819 531 595.739 531.314 595.58C531.632 595.421 531.896 595.181 532.104 594.859C532.316 594.537 532.42 594.128 532.417 593.631ZM538.103 592.069V597.251H536.404V588.523H538.034V589.944H538.142C538.343 589.482 538.658 589.111 539.086 588.83C539.517 588.55 540.061 588.41 540.716 588.41C541.311 588.41 541.832 588.535 542.279 588.785C542.726 589.031 543.072 589.398 543.319 589.887C543.565 590.376 543.688 590.98 543.688 591.7V597.251H541.989V591.904C541.989 591.272 541.824 590.777 541.495 590.421C541.165 590.061 540.712 589.881 540.137 589.881C539.743 589.881 539.392 589.967 539.086 590.137C538.783 590.308 538.542 590.558 538.364 590.887C538.19 591.213 538.103 591.607 538.103 592.069ZM550.04 588.523V589.887H545.273V588.523H550.04ZM546.551 586.433H548.25V594.688C548.25 595.018 548.3 595.266 548.398 595.433C548.497 595.595 548.623 595.707 548.779 595.768C548.938 595.825 549.11 595.853 549.296 595.853C549.432 595.853 549.551 595.844 549.654 595.825C549.756 595.806 549.836 595.791 549.892 595.779L550.199 597.183C550.101 597.22 549.961 597.258 549.779 597.296C549.597 597.338 549.37 597.361 549.097 597.364C548.65 597.372 548.233 597.292 547.847 597.126C547.461 596.959 547.148 596.701 546.909 596.353C546.671 596.005 546.551 595.567 546.551 595.041V586.433Z" fill="black"/>
</svg>
