<svg width="1041" height="680" viewBox="0 0 1041 680" fill="none" xmlns="http://www.w3.org/2000/svg">
<rect width="1040" height="680" transform="translate(0.426758)" fill="#F5F5F4"/>
<path d="M420.927 102.07C420.927 100.137 422.494 98.5701 424.427 98.5701H616.427C618.36 98.5701 619.927 100.137 619.927 102.07V222.617C619.927 224.55 618.36 226.117 616.427 226.117H424.427C422.494 226.117 420.927 224.55 420.927 222.617V102.07Z" fill="#16A34A"/>
<path d="M420.927 102.07C420.927 100.137 422.494 98.5701 424.427 98.5701H616.427C618.36 98.5701 619.927 100.137 619.927 102.07V222.617C619.927 224.55 618.36 226.117 616.427 226.117H424.427C422.494 226.117 420.927 224.55 420.927 222.617V102.07Z" stroke="#D6D3D1"/>
<mask id="mask0_9154_12250" style="mask-type:alpha" maskUnits="userSpaceOnUse" x="440" y="122" width="27" height="27">
<rect x="440.427" y="122.07" width="26.5464" height="26.5464" fill="#D9D9D9"/>
</mask>
<g mask="url(#mask0_9154_12250)">
<path d="M445.957 140.874V133.131H448.169V140.874H445.957ZM452.594 140.874V133.131H454.806V140.874H452.594ZM442.639 145.298V143.086H464.761V145.298H442.639ZM459.23 140.874V133.131H461.443V140.874H459.23ZM442.639 130.919V128.707L453.7 123.176L464.761 128.707V130.919H442.639ZM447.561 128.707H459.839L453.7 125.665L447.561 128.707Z" fill="white"/>
</g>
<path d="M441.705 179.616V167.98H448.921V169.491H443.461V173.037H448.404V174.543H443.461V179.616H441.705ZM451.08 179.616V167.98H455.342C456.167 167.98 456.851 168.116 457.393 168.389C457.934 168.658 458.34 169.024 458.609 169.486C458.878 169.944 459.012 170.461 459.012 171.037C459.012 171.522 458.923 171.931 458.745 172.264C458.567 172.594 458.328 172.859 458.029 173.06C457.734 173.257 457.408 173.401 457.052 173.491V173.605C457.438 173.624 457.815 173.749 458.182 173.98C458.554 174.207 458.86 174.531 459.103 174.952C459.345 175.372 459.467 175.884 459.467 176.486C459.467 177.08 459.326 177.615 459.046 178.088C458.77 178.558 458.342 178.931 457.762 179.207C457.182 179.48 456.442 179.616 455.54 179.616H451.08ZM452.836 178.111H455.37C456.211 178.111 456.813 177.948 457.177 177.622C457.54 177.296 457.722 176.889 457.722 176.401C457.722 176.033 457.629 175.696 457.444 175.389C457.258 175.082 456.993 174.838 456.648 174.656C456.307 174.474 455.902 174.384 455.432 174.384H452.836V178.111ZM452.836 173.014H455.188C455.582 173.014 455.936 172.938 456.251 172.787C456.569 172.635 456.821 172.423 457.006 172.151C457.196 171.874 457.29 171.548 457.29 171.173C457.29 170.692 457.122 170.289 456.785 169.963C456.448 169.637 455.931 169.474 455.234 169.474H452.836V173.014ZM471.657 173.798C471.657 175.041 471.43 176.109 470.975 177.003C470.521 177.893 469.897 178.579 469.106 179.06C468.318 179.537 467.422 179.776 466.418 179.776C465.411 179.776 464.511 179.537 463.719 179.06C462.931 178.579 462.31 177.891 461.856 176.997C461.401 176.103 461.174 175.037 461.174 173.798C461.174 172.556 461.401 171.49 461.856 170.599C462.31 169.705 462.931 169.02 463.719 168.543C464.511 168.062 465.411 167.821 466.418 167.821C467.422 167.821 468.318 168.062 469.106 168.543C469.897 169.02 470.521 169.705 470.975 170.599C471.43 171.49 471.657 172.556 471.657 173.798ZM469.918 173.798C469.918 172.851 469.765 172.054 469.458 171.406C469.155 170.755 468.738 170.262 468.208 169.929C467.681 169.592 467.085 169.423 466.418 169.423C465.748 169.423 465.149 169.592 464.623 169.929C464.096 170.262 463.68 170.755 463.373 171.406C463.07 172.054 462.918 172.851 462.918 173.798C462.918 174.745 463.07 175.544 463.373 176.196C463.68 176.844 464.096 177.336 464.623 177.673C465.149 178.007 465.748 178.173 466.418 178.173C467.085 178.173 467.681 178.007 468.208 177.673C468.738 177.336 469.155 176.844 469.458 176.196C469.765 175.544 469.918 174.745 469.918 173.798ZM442.063 192.798C442.063 191.374 442.251 190.063 442.626 188.866C443.001 187.669 443.548 186.565 444.268 185.554H445.824C445.544 185.929 445.283 186.389 445.04 186.935C444.798 187.48 444.586 188.079 444.404 188.73C444.222 189.378 444.08 190.05 443.978 190.747C443.876 191.44 443.824 192.124 443.824 192.798C443.824 193.7 443.914 194.613 444.092 195.537C444.27 196.461 444.51 197.319 444.813 198.111C445.116 198.902 445.453 199.548 445.824 200.048H444.268C443.548 199.037 443.001 197.933 442.626 196.736C442.251 195.539 442.063 194.226 442.063 192.798ZM447.752 198.616V186.98H451.9C452.805 186.98 453.555 187.145 454.15 187.474C454.744 187.804 455.19 188.255 455.485 188.827C455.78 189.395 455.928 190.035 455.928 190.747C455.928 191.463 455.779 192.107 455.479 192.679C455.184 193.247 454.737 193.698 454.138 194.031C453.544 194.361 452.796 194.526 451.894 194.526H449.042V193.037H451.735C452.307 193.037 452.771 192.938 453.127 192.741C453.483 192.541 453.744 192.268 453.911 191.923C454.078 191.579 454.161 191.187 454.161 190.747C454.161 190.308 454.078 189.918 453.911 189.577C453.744 189.236 453.481 188.969 453.121 188.776C452.765 188.582 452.296 188.486 451.712 188.486H449.508V198.616H447.752ZM460.312 198.81C459.759 198.81 459.259 198.707 458.812 198.503C458.365 198.294 458.011 197.993 457.749 197.599C457.492 197.205 457.363 196.723 457.363 196.151C457.363 195.658 457.458 195.253 457.647 194.935C457.836 194.616 458.092 194.365 458.414 194.179C458.736 193.993 459.096 193.853 459.494 193.759C459.891 193.664 460.297 193.592 460.709 193.543C461.232 193.482 461.656 193.433 461.982 193.395C462.308 193.353 462.545 193.287 462.692 193.196C462.84 193.105 462.914 192.957 462.914 192.753V192.713C462.914 192.217 462.774 191.832 462.494 191.56C462.217 191.287 461.804 191.151 461.255 191.151C460.683 191.151 460.232 191.277 459.903 191.531C459.577 191.781 459.351 192.06 459.226 192.366L457.63 192.003C457.819 191.473 458.096 191.044 458.459 190.719C458.827 190.389 459.249 190.151 459.726 190.003C460.204 189.851 460.706 189.776 461.232 189.776C461.581 189.776 461.95 189.817 462.34 189.901C462.734 189.98 463.101 190.128 463.442 190.344C463.787 190.56 464.069 190.868 464.289 191.27C464.509 191.668 464.619 192.185 464.619 192.821V198.616H462.959V197.423H462.891C462.781 197.643 462.617 197.859 462.397 198.071C462.177 198.283 461.895 198.459 461.55 198.599C461.206 198.74 460.793 198.81 460.312 198.81ZM460.681 197.446C461.151 197.446 461.552 197.353 461.886 197.168C462.223 196.982 462.478 196.74 462.653 196.44C462.831 196.137 462.92 195.813 462.92 195.469V194.344C462.859 194.404 462.742 194.461 462.567 194.514C462.397 194.563 462.202 194.607 461.982 194.645C461.762 194.679 461.548 194.711 461.34 194.741C461.132 194.768 460.958 194.791 460.817 194.81C460.488 194.851 460.187 194.921 459.914 195.02C459.645 195.118 459.429 195.26 459.266 195.446C459.107 195.628 459.028 195.87 459.028 196.173C459.028 196.594 459.183 196.912 459.494 197.128C459.804 197.34 460.2 197.446 460.681 197.446ZM466.881 198.616V189.889H468.523V191.276H468.614C468.773 190.806 469.054 190.437 469.455 190.168C469.86 189.895 470.319 189.759 470.83 189.759C470.936 189.759 471.061 189.762 471.205 189.77C471.353 189.777 471.468 189.787 471.552 189.798V191.423C471.484 191.404 471.362 191.384 471.188 191.361C471.014 191.334 470.84 191.321 470.665 191.321C470.264 191.321 469.906 191.406 469.592 191.577C469.281 191.743 469.035 191.976 468.853 192.276C468.671 192.571 468.58 192.908 468.58 193.287V198.616H466.881ZM477.611 189.889V191.253H472.844V189.889H477.611ZM474.123 187.798H475.822V196.054C475.822 196.384 475.871 196.632 475.969 196.798C476.068 196.961 476.195 197.073 476.35 197.134C476.509 197.19 476.681 197.219 476.867 197.219C477.003 197.219 477.123 197.209 477.225 197.19C477.327 197.171 477.407 197.156 477.464 197.145L477.771 198.548C477.672 198.586 477.532 198.624 477.35 198.662C477.168 198.704 476.941 198.726 476.668 198.73C476.221 198.738 475.805 198.658 475.418 198.491C475.032 198.325 474.719 198.067 474.481 197.719C474.242 197.37 474.123 196.933 474.123 196.406V187.798ZM481.19 193.435V198.616H479.491V189.889H481.121V191.31H481.229C481.43 190.848 481.744 190.476 482.172 190.196C482.604 189.916 483.148 189.776 483.803 189.776C484.398 189.776 484.919 189.901 485.366 190.151C485.813 190.397 486.159 190.764 486.405 191.253C486.652 191.741 486.775 192.346 486.775 193.065V198.616H485.076V193.27C485.076 192.637 484.911 192.143 484.582 191.787C484.252 191.427 483.799 191.247 483.224 191.247C482.83 191.247 482.479 191.332 482.172 191.503C481.869 191.673 481.629 191.923 481.451 192.253C481.277 192.579 481.19 192.973 481.19 193.435ZM492.815 198.793C491.955 198.793 491.214 198.609 490.593 198.241C489.976 197.87 489.498 197.349 489.161 196.679C488.828 196.005 488.661 195.215 488.661 194.31C488.661 193.416 488.828 192.628 489.161 191.946C489.498 191.264 489.968 190.732 490.57 190.349C491.176 189.967 491.885 189.776 492.695 189.776C493.188 189.776 493.665 189.857 494.127 190.02C494.589 190.183 495.004 190.438 495.371 190.787C495.739 191.135 496.029 191.588 496.241 192.145C496.453 192.698 496.559 193.37 496.559 194.162V194.764H489.621V193.491H494.894C494.894 193.044 494.803 192.649 494.621 192.304C494.44 191.955 494.184 191.681 493.854 191.48C493.529 191.279 493.146 191.179 492.707 191.179C492.229 191.179 491.813 191.296 491.457 191.531C491.104 191.762 490.832 192.065 490.638 192.44C490.449 192.812 490.354 193.215 490.354 193.651V194.645C490.354 195.228 490.457 195.724 490.661 196.134C490.869 196.543 491.159 196.855 491.53 197.071C491.902 197.283 492.335 197.389 492.832 197.389C493.154 197.389 493.447 197.344 493.712 197.253C493.977 197.158 494.207 197.018 494.4 196.832C494.593 196.647 494.741 196.418 494.843 196.145L496.451 196.435C496.322 196.908 496.091 197.323 495.758 197.679C495.428 198.031 495.013 198.306 494.513 198.503C494.017 198.696 493.451 198.793 492.815 198.793ZM498.444 198.616V189.889H500.086V191.276H500.177C500.336 190.806 500.616 190.437 501.018 190.168C501.423 189.895 501.881 189.759 502.393 189.759C502.499 189.759 502.624 189.762 502.768 189.77C502.915 189.777 503.031 189.787 503.114 189.798V191.423C503.046 191.404 502.925 191.384 502.751 191.361C502.576 191.334 502.402 191.321 502.228 191.321C501.826 191.321 501.468 191.406 501.154 191.577C500.843 191.743 500.597 191.976 500.415 192.276C500.234 192.571 500.143 192.908 500.143 193.287V198.616H498.444ZM508.955 198.616V186.98H513.217C514.042 186.98 514.726 187.116 515.268 187.389C515.809 187.658 516.215 188.024 516.484 188.486C516.753 188.944 516.887 189.461 516.887 190.037C516.887 190.522 516.798 190.931 516.62 191.264C516.442 191.594 516.203 191.859 515.904 192.06C515.609 192.257 515.283 192.401 514.927 192.491V192.605C515.313 192.624 515.69 192.749 516.057 192.98C516.429 193.207 516.735 193.531 516.978 193.952C517.22 194.372 517.342 194.884 517.342 195.486C517.342 196.08 517.201 196.615 516.921 197.088C516.645 197.558 516.217 197.931 515.637 198.207C515.057 198.48 514.317 198.616 513.415 198.616H508.955ZM510.711 197.111H513.245C514.086 197.111 514.688 196.948 515.052 196.622C515.415 196.296 515.597 195.889 515.597 195.401C515.597 195.033 515.504 194.696 515.319 194.389C515.133 194.082 514.868 193.838 514.523 193.656C514.182 193.474 513.777 193.384 513.307 193.384H510.711V197.111ZM510.711 192.014H513.063C513.457 192.014 513.811 191.938 514.126 191.787C514.444 191.635 514.696 191.423 514.881 191.151C515.071 190.874 515.165 190.548 515.165 190.173C515.165 189.692 514.997 189.289 514.66 188.963C514.323 188.637 513.806 188.474 513.109 188.474H510.711V192.014ZM521.827 198.81C521.274 198.81 520.774 198.707 520.327 198.503C519.88 198.294 519.526 197.993 519.265 197.599C519.007 197.205 518.878 196.723 518.878 196.151C518.878 195.658 518.973 195.253 519.163 194.935C519.352 194.616 519.608 194.365 519.93 194.179C520.252 193.993 520.611 193.853 521.009 193.759C521.407 193.664 521.812 193.592 522.225 193.543C522.748 193.482 523.172 193.433 523.498 193.395C523.824 193.353 524.06 193.287 524.208 193.196C524.356 193.105 524.43 192.957 524.43 192.753V192.713C524.43 192.217 524.289 191.832 524.009 191.56C523.733 191.287 523.32 191.151 522.771 191.151C522.199 191.151 521.748 191.277 521.418 191.531C521.092 191.781 520.867 192.06 520.742 192.366L519.146 192.003C519.335 191.473 519.611 191.044 519.975 190.719C520.342 190.389 520.765 190.151 521.242 190.003C521.719 189.851 522.221 189.776 522.748 189.776C523.096 189.776 523.466 189.817 523.856 189.901C524.25 189.98 524.617 190.128 524.958 190.344C525.303 190.56 525.585 190.868 525.805 191.27C526.024 191.668 526.134 192.185 526.134 192.821V198.616H524.475V197.423H524.407C524.297 197.643 524.132 197.859 523.913 198.071C523.693 198.283 523.411 198.459 523.066 198.599C522.721 198.74 522.308 198.81 521.827 198.81ZM522.197 197.446C522.666 197.446 523.068 197.353 523.401 197.168C523.738 196.982 523.994 196.74 524.168 196.44C524.346 196.137 524.435 195.813 524.435 195.469V194.344C524.375 194.404 524.257 194.461 524.083 194.514C523.913 194.563 523.717 194.607 523.498 194.645C523.278 194.679 523.064 194.711 522.856 194.741C522.647 194.768 522.473 194.791 522.333 194.81C522.003 194.851 521.702 194.921 521.43 195.02C521.161 195.118 520.945 195.26 520.782 195.446C520.623 195.628 520.543 195.87 520.543 196.173C520.543 196.594 520.699 196.912 521.009 197.128C521.32 197.34 521.716 197.446 522.197 197.446ZM530.096 193.435V198.616H528.397V189.889H530.028V191.31H530.136C530.336 190.848 530.651 190.476 531.079 190.196C531.511 189.916 532.054 189.776 532.709 189.776C533.304 189.776 533.825 189.901 534.272 190.151C534.719 190.397 535.065 190.764 535.312 191.253C535.558 191.741 535.681 192.346 535.681 193.065V198.616H533.982V193.27C533.982 192.637 533.817 192.143 533.488 191.787C533.158 191.427 532.706 191.247 532.13 191.247C531.736 191.247 531.386 191.332 531.079 191.503C530.776 191.673 530.535 191.923 530.357 192.253C530.183 192.579 530.096 192.973 530.096 193.435ZM539.522 195.656L539.511 193.582H539.806L543.283 189.889H545.317L541.351 194.094H541.084L539.522 195.656ZM537.959 198.616V186.98H539.658V198.616H537.959ZM543.471 198.616L540.346 194.469L541.516 193.281L545.556 198.616H543.471ZM550.133 193.787C550.133 195.215 549.945 196.527 549.57 197.724C549.195 198.921 548.648 200.026 547.928 201.037H546.371C546.652 200.662 546.913 200.202 547.155 199.656C547.398 199.111 547.61 198.514 547.792 197.866C547.974 197.215 548.116 196.541 548.218 195.844C548.32 195.147 548.371 194.461 548.371 193.787C548.371 192.889 548.282 191.978 548.104 191.054C547.926 190.13 547.686 189.272 547.383 188.48C547.08 187.688 546.743 187.043 546.371 186.543H547.928C548.648 187.554 549.195 188.658 549.57 189.855C549.945 191.052 550.133 192.363 550.133 193.787Z" fill="white"/>
<path d="M520.461 472.383L524.791 464.883L516.131 464.883L520.461 472.383ZM519.711 226.616L519.711 465.633L521.211 465.633L521.211 226.616L519.711 226.616Z" fill="#78716C"/>
<rect x="436.927" y="472.884" width="174" height="108.546" rx="3.5" fill="white"/>
<rect x="436.927" y="472.884" width="174" height="108.546" rx="3.5" stroke="#D6D3D1"/>
<mask id="mask1_9154_12250" style="mask-type:alpha" maskUnits="userSpaceOnUse" x="456" y="496" width="27" height="27">
<rect x="456.427" y="496.384" width="26.5464" height="26.5464" fill="#D9D9D9"/>
</mask>
<g mask="url(#mask1_9154_12250)">
<path d="M479.655 504.679H477.443V501.914H461.957V517.4H477.443V514.634H479.655V519.612H459.745V499.702H479.655V504.679ZM468.594 515.187V504.126H480.761V515.187H468.594ZM474.124 511.316C474.585 511.316 474.977 511.155 475.3 510.832C475.622 510.509 475.784 510.118 475.784 509.657C475.784 509.196 475.622 508.804 475.3 508.482C474.977 508.159 474.585 507.998 474.124 507.998C473.664 507.998 473.272 508.159 472.949 508.482C472.627 508.804 472.465 509.196 472.465 509.657C472.465 510.118 472.627 510.509 472.949 510.832C473.272 511.155 473.664 511.316 474.124 511.316ZM478.549 512.975V506.339H470.806V512.975H478.549Z" fill="#16A34A"/>
<mask id="path-9-outside-1_9154_12250" maskUnits="userSpaceOnUse" x="455.427" y="509.384" width="13" height="13" fill="black">
<rect fill="white" x="455.427" y="509.384" width="13" height="13"/>
<path fill-rule="evenodd" clip-rule="evenodd" d="M461.724 519.977C464.097 519.977 466.021 518.054 466.021 515.68C466.021 513.307 464.097 511.384 461.724 511.384C459.351 511.384 457.427 513.307 457.427 515.68C457.427 518.054 459.351 519.977 461.724 519.977ZM462.438 514.733L461.696 513.539L460.954 514.733L459.59 515.069L460.496 516.144L460.394 517.546L461.696 517.016L462.998 517.546L462.897 516.144L463.803 515.069L462.438 514.733Z"/>
</mask>
<path fill-rule="evenodd" clip-rule="evenodd" d="M461.724 519.977C464.097 519.977 466.021 518.054 466.021 515.68C466.021 513.307 464.097 511.384 461.724 511.384C459.351 511.384 457.427 513.307 457.427 515.68C457.427 518.054 459.351 519.977 461.724 519.977ZM462.438 514.733L461.696 513.539L460.954 514.733L459.59 515.069L460.496 516.144L460.394 517.546L461.696 517.016L462.998 517.546L462.897 516.144L463.803 515.069L462.438 514.733Z" fill="#16A34A"/>
<path d="M461.696 513.539L463.395 512.483L461.696 509.751L459.998 512.483L461.696 513.539ZM462.438 514.733L460.74 515.789L461.169 516.479L461.959 516.674L462.438 514.733ZM460.954 514.733L461.434 516.674L462.223 516.479L462.653 515.789L460.954 514.733ZM459.59 515.069L459.11 513.128L455.987 513.899L458.061 516.358L459.59 515.069ZM460.496 516.144L462.49 516.288L462.549 515.477L462.025 514.855L460.496 516.144ZM460.394 517.546L458.4 517.402L458.168 520.61L461.148 519.398L460.394 517.546ZM461.696 517.016L462.45 515.164L461.696 514.857L460.943 515.164L461.696 517.016ZM462.998 517.546L462.245 519.398L465.225 520.61L464.993 517.402L462.998 517.546ZM462.897 516.144L461.368 514.855L460.844 515.477L460.902 516.288L462.897 516.144ZM463.803 515.069L465.332 516.358L467.405 513.899L464.282 513.128L463.803 515.069ZM464.021 515.68C464.021 516.949 462.992 517.977 461.724 517.977V521.977C465.201 521.977 468.021 519.158 468.021 515.68H464.021ZM461.724 513.384C462.992 513.384 464.021 514.412 464.021 515.68H468.021C468.021 512.203 465.201 509.384 461.724 509.384V513.384ZM459.427 515.68C459.427 514.412 460.455 513.384 461.724 513.384V509.384C458.246 509.384 455.427 512.203 455.427 515.68H459.427ZM461.724 517.977C460.455 517.977 459.427 516.949 459.427 515.68H455.427C455.427 519.158 458.246 521.977 461.724 521.977V517.977ZM459.998 514.595L460.74 515.789L464.137 513.677L463.395 512.483L459.998 514.595ZM462.653 515.789L463.395 514.595L459.998 512.483L459.256 513.677L462.653 515.789ZM460.069 517.011L461.434 516.674L460.475 512.791L459.11 513.128L460.069 517.011ZM462.025 514.855L461.119 513.78L458.061 516.358L458.966 517.433L462.025 514.855ZM462.389 517.69L462.49 516.288L458.501 516L458.4 517.402L462.389 517.69ZM460.943 515.164L459.641 515.693L461.148 519.398L462.45 518.869L460.943 515.164ZM463.752 515.693L462.45 515.164L460.943 518.869L462.245 519.398L463.752 515.693ZM460.902 516.288L461.003 517.69L464.993 517.402L464.892 516L460.902 516.288ZM462.274 513.78L461.368 514.855L464.426 517.433L465.332 516.358L462.274 513.78ZM461.959 516.674L463.323 517.011L464.282 513.128L462.918 512.791L461.959 516.674Z" fill="white" mask="url(#path-9-outside-1_9154_12250)"/>
</g>
<path d="M457.705 542.294H459.836L463.54 551.339H463.677L467.381 542.294H469.512V553.93H467.842V545.509H467.734L464.302 553.913H462.915L459.484 545.504H459.376V553.93H457.705V542.294ZM474.468 554.123C473.915 554.123 473.415 554.021 472.968 553.816C472.521 553.608 472.167 553.307 471.905 552.913C471.648 552.519 471.519 552.036 471.519 551.464C471.519 550.972 471.614 550.566 471.803 550.248C471.993 549.93 472.248 549.678 472.57 549.492C472.892 549.307 473.252 549.167 473.65 549.072C474.047 548.977 474.453 548.905 474.866 548.856C475.388 548.795 475.813 548.746 476.138 548.708C476.464 548.667 476.701 548.6 476.849 548.509C476.996 548.419 477.07 548.271 477.07 548.066V548.027C477.07 547.53 476.93 547.146 476.65 546.873C476.373 546.6 475.96 546.464 475.411 546.464C474.839 546.464 474.388 546.591 474.059 546.845C473.733 547.095 473.508 547.373 473.383 547.68L471.786 547.316C471.976 546.786 472.252 546.358 472.616 546.032C472.983 545.703 473.405 545.464 473.883 545.316C474.36 545.165 474.862 545.089 475.388 545.089C475.737 545.089 476.106 545.131 476.496 545.214C476.89 545.294 477.258 545.441 477.599 545.657C477.943 545.873 478.226 546.182 478.445 546.583C478.665 546.981 478.775 547.498 478.775 548.134V553.93H477.116V552.737H477.047C476.938 552.956 476.773 553.172 476.553 553.384C476.333 553.597 476.051 553.773 475.707 553.913C475.362 554.053 474.949 554.123 474.468 554.123ZM474.837 552.759C475.307 552.759 475.708 552.667 476.042 552.481C476.379 552.295 476.635 552.053 476.809 551.754C476.987 551.451 477.076 551.127 477.076 550.782V549.657C477.015 549.718 476.898 549.775 476.724 549.828C476.553 549.877 476.358 549.92 476.138 549.958C475.919 549.992 475.705 550.025 475.496 550.055C475.288 550.081 475.114 550.104 474.974 550.123C474.644 550.165 474.343 550.235 474.07 550.333C473.801 550.432 473.585 550.574 473.422 550.759C473.263 550.941 473.184 551.184 473.184 551.487C473.184 551.907 473.339 552.225 473.65 552.441C473.96 552.653 474.356 552.759 474.837 552.759ZM487.577 547.333L486.038 547.606C485.973 547.409 485.871 547.222 485.731 547.044C485.594 546.866 485.409 546.72 485.174 546.606C484.939 546.492 484.646 546.436 484.293 546.436C483.812 546.436 483.411 546.544 483.089 546.759C482.767 546.972 482.606 547.246 482.606 547.583C482.606 547.875 482.714 548.11 482.93 548.288C483.146 548.466 483.494 548.612 483.975 548.725L485.361 549.044C486.164 549.229 486.763 549.515 487.157 549.902C487.551 550.288 487.748 550.79 487.748 551.407C487.748 551.93 487.596 552.396 487.293 552.805C486.994 553.21 486.575 553.528 486.038 553.759C485.503 553.991 484.884 554.106 484.18 554.106C483.202 554.106 482.405 553.898 481.788 553.481C481.17 553.061 480.791 552.464 480.651 551.691L482.293 551.441C482.396 551.869 482.606 552.193 482.924 552.413C483.242 552.629 483.657 552.737 484.168 552.737C484.725 552.737 485.17 552.621 485.503 552.39C485.837 552.155 486.003 551.869 486.003 551.532C486.003 551.259 485.901 551.03 485.697 550.845C485.496 550.659 485.187 550.519 484.771 550.424L483.293 550.1C482.479 549.915 481.877 549.619 481.486 549.214C481.1 548.809 480.907 548.295 480.907 547.674C480.907 547.159 481.051 546.708 481.339 546.322C481.627 545.936 482.024 545.634 482.532 545.419C483.039 545.199 483.621 545.089 484.276 545.089C485.219 545.089 485.962 545.294 486.503 545.703C487.045 546.108 487.403 546.652 487.577 547.333ZM493.69 545.203V546.566H488.922V545.203H493.69ZM490.201 543.112H491.9V551.367C491.9 551.697 491.949 551.945 492.047 552.112C492.146 552.275 492.273 552.386 492.428 552.447C492.587 552.504 492.76 552.532 492.945 552.532C493.082 552.532 493.201 552.523 493.303 552.504C493.405 552.485 493.485 552.47 493.542 552.458L493.849 553.862C493.75 553.9 493.61 553.938 493.428 553.975C493.246 554.017 493.019 554.04 492.746 554.044C492.299 554.051 491.883 553.972 491.496 553.805C491.11 553.638 490.797 553.381 490.559 553.032C490.32 552.684 490.201 552.246 490.201 551.72V543.112ZM499.236 554.106C498.377 554.106 497.636 553.922 497.015 553.555C496.397 553.184 495.92 552.663 495.583 551.992C495.25 551.318 495.083 550.528 495.083 549.623C495.083 548.729 495.25 547.941 495.583 547.259C495.92 546.578 496.39 546.045 496.992 545.663C497.598 545.28 498.306 545.089 499.117 545.089C499.61 545.089 500.087 545.17 500.549 545.333C501.011 545.496 501.426 545.752 501.793 546.1C502.161 546.449 502.45 546.902 502.663 547.458C502.875 548.011 502.981 548.684 502.981 549.475V550.078H496.043V548.805H501.316C501.316 548.358 501.225 547.962 501.043 547.617C500.861 547.269 500.606 546.994 500.276 546.794C499.95 546.593 499.568 546.492 499.128 546.492C498.651 546.492 498.235 546.61 497.878 546.845C497.526 547.076 497.253 547.379 497.06 547.754C496.871 548.125 496.776 548.528 496.776 548.964V549.958C496.776 550.542 496.878 551.038 497.083 551.447C497.291 551.856 497.581 552.169 497.952 552.384C498.324 552.597 498.757 552.703 499.253 552.703C499.575 552.703 499.869 552.657 500.134 552.566C500.399 552.472 500.628 552.331 500.822 552.146C501.015 551.96 501.163 551.731 501.265 551.458L502.873 551.748C502.744 552.222 502.513 552.636 502.18 552.992C501.85 553.345 501.435 553.619 500.935 553.816C500.439 554.009 499.873 554.106 499.236 554.106ZM504.866 553.93V545.203H506.508V546.589H506.599C506.758 546.119 507.038 545.75 507.44 545.481C507.845 545.208 508.303 545.072 508.815 545.072C508.921 545.072 509.046 545.076 509.19 545.083C509.337 545.091 509.453 545.1 509.536 545.112V546.737C509.468 546.718 509.347 546.697 509.172 546.674C508.998 546.648 508.824 546.634 508.65 546.634C508.248 546.634 507.89 546.72 507.576 546.89C507.265 547.057 507.019 547.29 506.837 547.589C506.655 547.884 506.565 548.222 506.565 548.6V553.93H504.866ZM516.36 553.93H514.496L518.684 542.294H520.712L524.9 553.93H523.036L519.746 544.407H519.655L516.36 553.93ZM516.672 549.373H522.718V550.85H516.672V549.373ZM529.979 554.106C529.135 554.106 528.407 553.915 527.797 553.532C527.191 553.146 526.726 552.614 526.4 551.936C526.074 551.258 525.911 550.481 525.911 549.606C525.911 548.72 526.078 547.938 526.411 547.259C526.744 546.578 527.214 546.045 527.82 545.663C528.426 545.28 529.14 545.089 529.962 545.089C530.625 545.089 531.216 545.212 531.735 545.458C532.254 545.701 532.672 546.042 532.991 546.481C533.313 546.92 533.504 547.434 533.565 548.021H531.911C531.82 547.612 531.612 547.259 531.286 546.964C530.964 546.669 530.532 546.521 529.991 546.521C529.517 546.521 529.102 546.646 528.746 546.896C528.394 547.142 528.119 547.494 527.922 547.953C527.726 548.407 527.627 548.945 527.627 549.566C527.627 550.203 527.724 550.752 527.917 551.214C528.11 551.676 528.383 552.034 528.735 552.288C529.091 552.542 529.51 552.669 529.991 552.669C530.313 552.669 530.604 552.61 530.866 552.492C531.131 552.371 531.352 552.199 531.53 551.975C531.712 551.752 531.839 551.483 531.911 551.169H533.565C533.504 551.733 533.32 552.237 533.013 552.68C532.707 553.123 532.296 553.472 531.78 553.725C531.269 553.979 530.669 554.106 529.979 554.106ZM539.057 554.106C538.213 554.106 537.485 553.915 536.876 553.532C536.27 553.146 535.804 552.614 535.478 551.936C535.152 551.258 534.989 550.481 534.989 549.606C534.989 548.72 535.156 547.938 535.489 547.259C535.823 546.578 536.292 546.045 536.898 545.663C537.504 545.28 538.218 545.089 539.04 545.089C539.703 545.089 540.294 545.212 540.813 545.458C541.332 545.701 541.751 546.042 542.069 546.481C542.391 546.92 542.582 547.434 542.643 548.021H540.989C540.898 547.612 540.69 547.259 540.364 546.964C540.042 546.669 539.61 546.521 539.069 546.521C538.595 546.521 538.181 546.646 537.824 546.896C537.472 547.142 537.198 547.494 537.001 547.953C536.804 548.407 536.705 548.945 536.705 549.566C536.705 550.203 536.802 550.752 536.995 551.214C537.188 551.676 537.461 552.034 537.813 552.288C538.169 552.542 538.588 552.669 539.069 552.669C539.391 552.669 539.682 552.61 539.944 552.492C540.209 552.371 540.431 552.199 540.609 551.975C540.79 551.752 540.917 551.483 540.989 551.169H542.643C542.582 551.733 542.398 552.237 542.092 552.68C541.785 553.123 541.374 553.472 540.859 553.725C540.347 553.979 539.747 554.106 539.057 554.106ZM548.136 554.106C547.317 554.106 546.603 553.919 545.994 553.544C545.384 553.169 544.91 552.644 544.573 551.97C544.236 551.295 544.067 550.508 544.067 549.606C544.067 548.701 544.236 547.909 544.573 547.231C544.91 546.553 545.384 546.027 545.994 545.652C546.603 545.277 547.317 545.089 548.136 545.089C548.954 545.089 549.668 545.277 550.278 545.652C550.887 546.027 551.361 546.553 551.698 547.231C552.035 547.909 552.204 548.701 552.204 549.606C552.204 550.508 552.035 551.295 551.698 551.97C551.361 552.644 550.887 553.169 550.278 553.544C549.668 553.919 548.954 554.106 548.136 554.106ZM548.141 552.68C548.672 552.68 549.111 552.54 549.459 552.259C549.808 551.979 550.065 551.606 550.232 551.14C550.403 550.674 550.488 550.161 550.488 549.6C550.488 549.044 550.403 548.532 550.232 548.066C550.065 547.597 549.808 547.22 549.459 546.936C549.111 546.652 548.672 546.509 548.141 546.509C547.607 546.509 547.164 546.652 546.812 546.936C546.463 547.22 546.204 547.597 546.033 548.066C545.867 548.532 545.783 549.044 545.783 549.6C545.783 550.161 545.867 550.674 546.033 551.14C546.204 551.606 546.463 551.979 546.812 552.259C547.164 552.54 547.607 552.68 548.141 552.68ZM559.628 550.311V545.203H561.333V553.93H559.663V552.419H559.572C559.371 552.884 559.049 553.273 558.606 553.583C558.166 553.89 557.619 554.044 556.964 554.044C556.403 554.044 555.907 553.92 555.475 553.674C555.047 553.424 554.71 553.055 554.464 552.566C554.221 552.078 554.1 551.473 554.1 550.754V545.203H555.799V550.549C555.799 551.144 555.964 551.617 556.293 551.97C556.623 552.322 557.051 552.498 557.577 552.498C557.896 552.498 558.212 552.419 558.526 552.259C558.844 552.1 559.108 551.86 559.316 551.538C559.528 551.216 559.632 550.807 559.628 550.311ZM565.315 548.748V553.93H563.616V545.203H565.246V546.623H565.354C565.555 546.161 565.869 545.79 566.297 545.509C566.729 545.229 567.273 545.089 567.928 545.089C568.523 545.089 569.044 545.214 569.491 545.464C569.938 545.71 570.284 546.078 570.53 546.566C570.777 547.055 570.9 547.659 570.9 548.379V553.93H569.201V548.583C569.201 547.951 569.036 547.456 568.707 547.1C568.377 546.741 567.924 546.561 567.349 546.561C566.955 546.561 566.604 546.646 566.297 546.816C565.994 546.987 565.754 547.237 565.576 547.566C565.402 547.892 565.315 548.286 565.315 548.748ZM577.252 545.203V546.566H572.485V545.203H577.252ZM573.763 543.112H575.462V551.367C575.462 551.697 575.512 551.945 575.61 552.112C575.708 552.275 575.835 552.386 575.991 552.447C576.15 552.504 576.322 552.532 576.508 552.532C576.644 552.532 576.763 552.523 576.866 552.504C576.968 552.485 577.047 552.47 577.104 552.458L577.411 553.862C577.313 553.9 577.172 553.938 576.991 553.975C576.809 554.017 576.582 554.04 576.309 554.044C575.862 554.051 575.445 553.972 575.059 553.805C574.672 553.638 574.36 553.381 574.121 553.032C573.883 552.684 573.763 552.246 573.763 551.72V543.112Z" fill="black"/>
<rect x="428.177" y="332.75" width="191.5" height="33.5" rx="3.25" fill="#F5F5F4"/>
<rect x="428.177" y="332.75" width="191.5" height="33.5" rx="3.25" stroke="#16A34A" stroke-width="1.5"/>
<path d="M436.705 343.364H438.836L442.54 352.409H442.677L446.381 343.364H448.512V355H446.842V346.58H446.734L443.302 354.983H441.915L438.484 346.574H438.376V355H436.705V343.364ZM453.468 355.193C452.915 355.193 452.415 355.091 451.968 354.886C451.521 354.678 451.167 354.377 450.905 353.983C450.648 353.589 450.519 353.106 450.519 352.534C450.519 352.042 450.614 351.636 450.803 351.318C450.993 351 451.248 350.748 451.57 350.562C451.892 350.377 452.252 350.237 452.65 350.142C453.047 350.047 453.453 349.975 453.866 349.926C454.388 349.866 454.813 349.816 455.138 349.778C455.464 349.737 455.701 349.67 455.849 349.58C455.996 349.489 456.07 349.341 456.07 349.136V349.097C456.07 348.6 455.93 348.216 455.65 347.943C455.373 347.67 454.96 347.534 454.411 347.534C453.839 347.534 453.388 347.661 453.059 347.915C452.733 348.165 452.508 348.443 452.383 348.75L450.786 348.386C450.976 347.856 451.252 347.428 451.616 347.102C451.983 346.773 452.405 346.534 452.883 346.386C453.36 346.235 453.862 346.159 454.388 346.159C454.737 346.159 455.106 346.201 455.496 346.284C455.89 346.364 456.258 346.511 456.599 346.727C456.943 346.943 457.226 347.252 457.445 347.653C457.665 348.051 457.775 348.568 457.775 349.205V355H456.116V353.807H456.047C455.938 354.027 455.773 354.242 455.553 354.455C455.333 354.667 455.051 354.843 454.707 354.983C454.362 355.123 453.949 355.193 453.468 355.193ZM453.837 353.83C454.307 353.83 454.708 353.737 455.042 353.551C455.379 353.366 455.635 353.123 455.809 352.824C455.987 352.521 456.076 352.197 456.076 351.852V350.727C456.015 350.788 455.898 350.845 455.724 350.898C455.553 350.947 455.358 350.991 455.138 351.028C454.919 351.062 454.705 351.095 454.496 351.125C454.288 351.152 454.114 351.174 453.974 351.193C453.644 351.235 453.343 351.305 453.07 351.403C452.801 351.502 452.585 351.644 452.422 351.83C452.263 352.011 452.184 352.254 452.184 352.557C452.184 352.977 452.339 353.295 452.65 353.511C452.96 353.723 453.356 353.83 453.837 353.83ZM466.577 348.403L465.038 348.676C464.973 348.479 464.871 348.292 464.731 348.114C464.594 347.936 464.409 347.79 464.174 347.676C463.939 347.562 463.646 347.506 463.293 347.506C462.812 347.506 462.411 347.614 462.089 347.83C461.767 348.042 461.606 348.316 461.606 348.653C461.606 348.945 461.714 349.18 461.93 349.358C462.146 349.536 462.494 349.682 462.975 349.795L464.361 350.114C465.164 350.299 465.763 350.585 466.157 350.972C466.551 351.358 466.748 351.86 466.748 352.477C466.748 353 466.596 353.466 466.293 353.875C465.994 354.28 465.575 354.598 465.038 354.83C464.503 355.061 463.884 355.176 463.18 355.176C462.202 355.176 461.405 354.968 460.788 354.551C460.17 354.131 459.791 353.534 459.651 352.761L461.293 352.511C461.396 352.939 461.606 353.263 461.924 353.483C462.242 353.699 462.657 353.807 463.168 353.807C463.725 353.807 464.17 353.691 464.503 353.46C464.837 353.225 465.003 352.939 465.003 352.602C465.003 352.33 464.901 352.1 464.697 351.915C464.496 351.729 464.187 351.589 463.771 351.494L462.293 351.17C461.479 350.985 460.877 350.689 460.486 350.284C460.1 349.879 459.907 349.366 459.907 348.744C459.907 348.229 460.051 347.778 460.339 347.392C460.627 347.006 461.024 346.705 461.532 346.489C462.039 346.269 462.621 346.159 463.276 346.159C464.219 346.159 464.962 346.364 465.503 346.773C466.045 347.178 466.403 347.722 466.577 348.403ZM472.69 346.273V347.636H467.922V346.273H472.69ZM469.201 344.182H470.9V352.438C470.9 352.767 470.949 353.015 471.047 353.182C471.146 353.345 471.273 353.456 471.428 353.517C471.587 353.574 471.76 353.602 471.945 353.602C472.082 353.602 472.201 353.593 472.303 353.574C472.405 353.555 472.485 353.54 472.542 353.528L472.849 354.932C472.75 354.97 472.61 355.008 472.428 355.045C472.246 355.087 472.019 355.11 471.746 355.114C471.299 355.121 470.883 355.042 470.496 354.875C470.11 354.708 469.797 354.451 469.559 354.102C469.32 353.754 469.201 353.316 469.201 352.79V344.182ZM478.236 355.176C477.377 355.176 476.636 354.992 476.015 354.625C475.397 354.254 474.92 353.733 474.583 353.062C474.25 352.388 474.083 351.598 474.083 350.693C474.083 349.799 474.25 349.011 474.583 348.33C474.92 347.648 475.39 347.116 475.992 346.733C476.598 346.35 477.306 346.159 478.117 346.159C478.61 346.159 479.087 346.241 479.549 346.403C480.011 346.566 480.426 346.822 480.793 347.17C481.161 347.519 481.45 347.972 481.663 348.528C481.875 349.081 481.981 349.754 481.981 350.545V351.148H475.043V349.875H480.316C480.316 349.428 480.225 349.032 480.043 348.688C479.861 348.339 479.606 348.064 479.276 347.864C478.95 347.663 478.568 347.562 478.128 347.562C477.651 347.562 477.235 347.68 476.878 347.915C476.526 348.146 476.253 348.449 476.06 348.824C475.871 349.195 475.776 349.598 475.776 350.034V351.028C475.776 351.612 475.878 352.108 476.083 352.517C476.291 352.926 476.581 353.239 476.952 353.455C477.324 353.667 477.757 353.773 478.253 353.773C478.575 353.773 478.869 353.727 479.134 353.636C479.399 353.542 479.628 353.402 479.822 353.216C480.015 353.03 480.163 352.801 480.265 352.528L481.873 352.818C481.744 353.292 481.513 353.706 481.18 354.062C480.85 354.415 480.435 354.689 479.935 354.886C479.439 355.08 478.873 355.176 478.236 355.176ZM483.866 355V346.273H485.508V347.659H485.599C485.758 347.189 486.038 346.82 486.44 346.551C486.845 346.278 487.303 346.142 487.815 346.142C487.921 346.142 488.046 346.146 488.19 346.153C488.337 346.161 488.453 346.17 488.536 346.182V347.807C488.468 347.788 488.347 347.767 488.172 347.744C487.998 347.718 487.824 347.705 487.65 347.705C487.248 347.705 486.89 347.79 486.576 347.96C486.265 348.127 486.019 348.36 485.837 348.659C485.655 348.955 485.565 349.292 485.565 349.67V355H483.866ZM495.36 355H493.496L497.684 343.364H499.712L503.9 355H502.036L498.746 345.477H498.655L495.36 355ZM495.672 350.443H501.718V351.92H495.672V350.443ZM508.979 355.176C508.135 355.176 507.407 354.985 506.797 354.602C506.191 354.216 505.726 353.684 505.4 353.006C505.074 352.328 504.911 351.551 504.911 350.676C504.911 349.79 505.078 349.008 505.411 348.33C505.744 347.648 506.214 347.116 506.82 346.733C507.426 346.35 508.14 346.159 508.962 346.159C509.625 346.159 510.216 346.282 510.735 346.528C511.254 346.771 511.672 347.112 511.991 347.551C512.313 347.991 512.504 348.504 512.565 349.091H510.911C510.82 348.682 510.612 348.33 510.286 348.034C509.964 347.739 509.532 347.591 508.991 347.591C508.517 347.591 508.102 347.716 507.746 347.966C507.394 348.212 507.119 348.564 506.922 349.023C506.726 349.477 506.627 350.015 506.627 350.636C506.627 351.273 506.724 351.822 506.917 352.284C507.11 352.746 507.383 353.104 507.735 353.358C508.091 353.612 508.51 353.739 508.991 353.739C509.313 353.739 509.604 353.68 509.866 353.562C510.131 353.441 510.352 353.269 510.53 353.045C510.712 352.822 510.839 352.553 510.911 352.239H512.565C512.504 352.803 512.32 353.307 512.013 353.75C511.707 354.193 511.296 354.542 510.78 354.795C510.269 355.049 509.669 355.176 508.979 355.176ZM518.057 355.176C517.213 355.176 516.485 354.985 515.876 354.602C515.27 354.216 514.804 353.684 514.478 353.006C514.152 352.328 513.989 351.551 513.989 350.676C513.989 349.79 514.156 349.008 514.489 348.33C514.823 347.648 515.292 347.116 515.898 346.733C516.504 346.35 517.218 346.159 518.04 346.159C518.703 346.159 519.294 346.282 519.813 346.528C520.332 346.771 520.751 347.112 521.069 347.551C521.391 347.991 521.582 348.504 521.643 349.091H519.989C519.898 348.682 519.69 348.33 519.364 348.034C519.042 347.739 518.61 347.591 518.069 347.591C517.595 347.591 517.181 347.716 516.824 347.966C516.472 348.212 516.198 348.564 516.001 349.023C515.804 349.477 515.705 350.015 515.705 350.636C515.705 351.273 515.802 351.822 515.995 352.284C516.188 352.746 516.461 353.104 516.813 353.358C517.169 353.612 517.588 353.739 518.069 353.739C518.391 353.739 518.682 353.68 518.944 353.562C519.209 353.441 519.431 353.269 519.609 353.045C519.79 352.822 519.917 352.553 519.989 352.239H521.643C521.582 352.803 521.398 353.307 521.092 353.75C520.785 354.193 520.374 354.542 519.859 354.795C519.347 355.049 518.747 355.176 518.057 355.176ZM527.136 355.176C526.317 355.176 525.603 354.989 524.994 354.614C524.384 354.239 523.91 353.714 523.573 353.04C523.236 352.366 523.067 351.578 523.067 350.676C523.067 349.771 523.236 348.979 523.573 348.301C523.91 347.623 524.384 347.097 524.994 346.722C525.603 346.347 526.317 346.159 527.136 346.159C527.954 346.159 528.668 346.347 529.278 346.722C529.887 347.097 530.361 347.623 530.698 348.301C531.035 348.979 531.204 349.771 531.204 350.676C531.204 351.578 531.035 352.366 530.698 353.04C530.361 353.714 529.887 354.239 529.278 354.614C528.668 354.989 527.954 355.176 527.136 355.176ZM527.141 353.75C527.672 353.75 528.111 353.61 528.459 353.33C528.808 353.049 529.065 352.676 529.232 352.21C529.403 351.744 529.488 351.231 529.488 350.67C529.488 350.114 529.403 349.602 529.232 349.136C529.065 348.667 528.808 348.29 528.459 348.006C528.111 347.722 527.672 347.58 527.141 347.58C526.607 347.58 526.164 347.722 525.812 348.006C525.463 348.29 525.204 348.667 525.033 349.136C524.867 349.602 524.783 350.114 524.783 350.67C524.783 351.231 524.867 351.744 525.033 352.21C525.204 352.676 525.463 353.049 525.812 353.33C526.164 353.61 526.607 353.75 527.141 353.75ZM538.628 351.381V346.273H540.333V355H538.663V353.489H538.572C538.371 353.955 538.049 354.343 537.606 354.653C537.166 354.96 536.619 355.114 535.964 355.114C535.403 355.114 534.907 354.991 534.475 354.744C534.047 354.494 533.71 354.125 533.464 353.636C533.221 353.148 533.1 352.544 533.1 351.824V346.273H534.799V351.619C534.799 352.214 534.964 352.687 535.293 353.04C535.623 353.392 536.051 353.568 536.577 353.568C536.896 353.568 537.212 353.489 537.526 353.33C537.844 353.17 538.108 352.93 538.316 352.608C538.528 352.286 538.632 351.877 538.628 351.381ZM544.315 349.818V355H542.616V346.273H544.246V347.693H544.354C544.555 347.231 544.869 346.86 545.297 346.58C545.729 346.299 546.273 346.159 546.928 346.159C547.523 346.159 548.044 346.284 548.491 346.534C548.938 346.78 549.284 347.148 549.53 347.636C549.777 348.125 549.9 348.729 549.9 349.449V355H548.201V349.653C548.201 349.021 548.036 348.527 547.707 348.17C547.377 347.811 546.924 347.631 546.349 347.631C545.955 347.631 545.604 347.716 545.297 347.886C544.994 348.057 544.754 348.307 544.576 348.636C544.402 348.962 544.315 349.356 544.315 349.818ZM556.252 346.273V347.636H551.485V346.273H556.252ZM552.763 344.182H554.462V352.438C554.462 352.767 554.512 353.015 554.61 353.182C554.708 353.345 554.835 353.456 554.991 353.517C555.15 353.574 555.322 353.602 555.508 353.602C555.644 353.602 555.763 353.593 555.866 353.574C555.968 353.555 556.047 353.54 556.104 353.528L556.411 354.932C556.313 354.97 556.172 355.008 555.991 355.045C555.809 355.087 555.582 355.11 555.309 355.114C554.862 355.121 554.445 355.042 554.059 354.875C553.672 354.708 553.36 354.451 553.121 354.102C552.883 353.754 552.763 353.316 552.763 352.79V344.182ZM562.502 355V343.364H564.258V348.42H570.059V343.364H571.82V355H570.059V349.926H564.258V355H562.502ZM577.917 355.176C577.099 355.176 576.385 354.989 575.775 354.614C575.165 354.239 574.691 353.714 574.354 353.04C574.017 352.366 573.849 351.578 573.849 350.676C573.849 349.771 574.017 348.979 574.354 348.301C574.691 347.623 575.165 347.097 575.775 346.722C576.385 346.347 577.099 346.159 577.917 346.159C578.735 346.159 579.449 346.347 580.059 346.722C580.669 347.097 581.142 347.623 581.479 348.301C581.816 348.979 581.985 349.771 581.985 350.676C581.985 351.578 581.816 352.366 581.479 353.04C581.142 353.714 580.669 354.239 580.059 354.614C579.449 354.989 578.735 355.176 577.917 355.176ZM577.922 353.75C578.453 353.75 578.892 353.61 579.241 353.33C579.589 353.049 579.847 352.676 580.013 352.21C580.184 351.744 580.269 351.231 580.269 350.67C580.269 350.114 580.184 349.602 580.013 349.136C579.847 348.667 579.589 348.29 579.241 348.006C578.892 347.722 578.453 347.58 577.922 347.58C577.388 347.58 576.945 347.722 576.593 348.006C576.244 348.29 575.985 348.667 575.815 349.136C575.648 349.602 575.565 350.114 575.565 350.67C575.565 351.231 575.648 351.744 575.815 352.21C575.985 352.676 576.244 353.049 576.593 353.33C576.945 353.61 577.388 353.75 577.922 353.75ZM585.58 343.364V355H583.881V343.364H585.58ZM591.133 355.17C590.428 355.17 589.799 354.991 589.246 354.631C588.697 354.267 588.265 353.75 587.951 353.08C587.64 352.405 587.485 351.597 587.485 350.653C587.485 349.71 587.642 348.903 587.957 348.233C588.275 347.562 588.71 347.049 589.263 346.693C589.816 346.337 590.443 346.159 591.144 346.159C591.686 346.159 592.121 346.25 592.451 346.432C592.784 346.61 593.042 346.818 593.224 347.057C593.409 347.295 593.553 347.506 593.655 347.688H593.758V343.364H595.457V355H593.797V353.642H593.655C593.553 353.828 593.405 354.04 593.212 354.278C593.023 354.517 592.762 354.725 592.428 354.903C592.095 355.081 591.663 355.17 591.133 355.17ZM591.508 353.722C591.996 353.722 592.409 353.593 592.746 353.335C593.087 353.074 593.345 352.712 593.519 352.25C593.697 351.788 593.786 351.25 593.786 350.636C593.786 350.03 593.699 349.5 593.525 349.045C593.351 348.591 593.095 348.237 592.758 347.983C592.421 347.729 592.004 347.602 591.508 347.602C590.996 347.602 590.57 347.735 590.229 348C589.888 348.265 589.631 348.627 589.457 349.085C589.286 349.544 589.201 350.061 589.201 350.636C589.201 351.22 589.288 351.744 589.462 352.21C589.637 352.676 589.894 353.045 590.235 353.318C590.58 353.587 591.004 353.722 591.508 353.722ZM601.643 355.176C600.783 355.176 600.042 354.992 599.421 354.625C598.804 354.254 598.326 353.733 597.989 353.062C597.656 352.388 597.489 351.598 597.489 350.693C597.489 349.799 597.656 349.011 597.989 348.33C598.326 347.648 598.796 347.116 599.398 346.733C600.004 346.35 600.713 346.159 601.523 346.159C602.016 346.159 602.493 346.241 602.955 346.403C603.417 346.566 603.832 346.822 604.199 347.17C604.567 347.519 604.857 347.972 605.069 348.528C605.281 349.081 605.387 349.754 605.387 350.545V351.148H598.449V349.875H603.722C603.722 349.428 603.631 349.032 603.449 348.688C603.268 348.339 603.012 348.064 602.682 347.864C602.357 347.663 601.974 347.562 601.535 347.562C601.057 347.562 600.641 347.68 600.285 347.915C599.932 348.146 599.66 348.449 599.467 348.824C599.277 349.195 599.182 349.598 599.182 350.034V351.028C599.182 351.612 599.285 352.108 599.489 352.517C599.698 352.926 599.987 353.239 600.359 353.455C600.73 353.667 601.164 353.773 601.66 353.773C601.982 353.773 602.275 353.727 602.54 353.636C602.806 353.542 603.035 353.402 603.228 353.216C603.421 353.03 603.569 352.801 603.671 352.528L605.279 352.818C605.15 353.292 604.919 353.706 604.586 354.062C604.256 354.415 603.842 354.689 603.342 354.886C602.845 355.08 602.279 355.176 601.643 355.176ZM607.272 355V346.273H608.914V347.659H609.005C609.164 347.189 609.444 346.82 609.846 346.551C610.251 346.278 610.709 346.142 611.221 346.142C611.327 346.142 611.452 346.146 611.596 346.153C611.744 346.161 611.859 346.17 611.942 346.182V347.807C611.874 347.788 611.753 347.767 611.579 347.744C611.405 347.718 611.23 347.705 611.056 347.705C610.655 347.705 610.297 347.79 609.982 347.96C609.672 348.127 609.425 348.36 609.244 348.659C609.062 348.955 608.971 349.292 608.971 349.67V355H607.272Z" fill="#16A34A"/>
</svg>
